<?xml version="1.0" encoding="utf-8"?>
<!-- Generator: Adobe Illustrator 26.2.1, SVG Export Plug-In . SVG Version: 6.00 Build 0)  -->
<svg version="1.1" id="Capa_1" xmlns="http://www.w3.org/2000/svg" xmlns:xlink="http://www.w3.org/1999/xlink" x="0px"
	y="0px" viewBox="0 0 450 450" style="enable-background:new 0 0 450 450;" xml:space="preserve">
	<style type="text/css">
		.st0 {
			fill: #F0E0BC;
		}

		.st1 {
			fill: #FF9B2F;
		}

		.st2 {
			fill: #FFFFFF;
		}
	</style>
	<g id="Capa_1_00000029728736581253634780000004822962964835209603_">
		<g>
			<path class="st0" d="M225.2,250.1c4.9,0.2,10,0.3,29.3-5.2c1.1-0.3,4.5-1.8,6.4-0.6c2.2,1.5,1.1,5.7,1.5,8.3
			c1.4,7.9,9.7,12.3,17.1,15.6c16.8,7.4,33.5,14.9,50.2,22.3c4.9,2.2,9.8,4.4,14.1,7.5c13.1,9.7,18.3,26.8,20.8,42.9
			c2.5,16.1,3.3,32.4,2.3,48.6c-0.2,3.2-0.5,6.5-2.1,9.2c-3,5.2-9.6,7-15.6,8c-29.4,5.3-59.4,5.7-89.2,5.8
			c-52,0.2-103.9-0.6-155.9-2.4c-6.3-0.2-13.4-0.8-17.5-5.6c-3.2-3.7-3.6-8.9-3.8-13.8c-0.6-18.9,1.2-38,5.4-56.4
			c1.4-6.1,3-12.1,5.7-17.7c3.3-6.8,8.1-12.8,13.3-18.3c6.8-7.2,14.5-13.9,23.7-17.8c14.2-5.9,31.1-4.9,43.7-13.6
			c7-4.8,11.9-12.4,13.6-20.7c0.2-1.2,0.4-2.4,1.3-3.2c1.4-1.4,11,3.1,13.6,3.8c4,1.1,7.2,2.1,8.3,2.2
			C224.2,250.3,221.1,249.9,225.2,250.1z" />
			<g>
				<path class="st1" d="M225.2,253.1c6.2,0.2,12.2-0.8,18.3-2.2c3-0.7,6-1.5,8.9-2.3c1.3-0.3,2.5-0.7,3.8-1.1
				c0.5-0.2,1.1-0.4,1.6-0.5c-0.1,0,0.9-0.2,0.7-0.1c-0.1,0,1-0.2,0.6,0c0.3-0.1,0.6,0.7-0.2-0.2c0.5,0.6,0.1,0.1,0.1,0
				c0,0.2,0.2,0.5,0.2,0.8c0.1,1.4,0,2.7,0,4.1c0.2,2.8,1.2,5.5,2.7,7.7c3.2,4.7,8.3,7.8,13.4,10.2c6.5,3.1,13.1,5.9,19.6,8.8
				c7,3.1,14,6.2,21,9.3c6.7,3,13.6,5.7,20.1,9.2c5.3,2.8,9.9,6.4,13.5,11.2c3.4,4.6,5.8,9.7,7.7,15c4.3,12.4,5.8,25.7,6.6,38.7
				c0.5,7.4,0.5,14.8,0.3,22.2c-0.2,5.6,0.3,12.9-5,16.3c-4.8,3.2-11.3,3.7-16.8,4.6c-7.4,1.2-14.9,2-22.4,2.7
				c-30,2.6-60.3,2.1-90.4,2c-30.5-0.1-61-0.6-91.6-1.4c-7.7-0.2-15.5-0.4-23.2-0.7c-3.7-0.1-7.5-0.2-11.2-0.4
				c-2.7-0.1-5.3-0.3-7.9-0.9c-2.5-0.6-4.8-1.5-6.6-3.4c-1.9-2-2.7-4.9-3-7.6c-0.4-3.1-0.4-6.4-0.4-9.5c0-3.7,0-7.4,0.2-11
				c0.6-14.7,2.6-29.4,6.2-43.7c1.7-6.6,4-13,7.7-18.8c3.5-5.5,7.9-10.4,12.6-15c4.5-4.5,9.5-8.6,15.1-11.8c5.4-3,11.4-4.7,17.4-6
				c12.1-2.6,24.9-4.2,34.6-12.7c4.6-4,8-9.1,10.2-14.8c0.5-1.4,0.9-2.8,1.3-4.2c0.2-0.7,0.2-1.5,0.5-2.2c-0.3,0.8,0.2-0.6,0.2-0.5
				c0.1,0.1-1,0.5-1.1,0.5c-0.2,0.2-0.3,0,0.1,0c0.1,0,0.3,0,0.4,0c-0.8,0,0.3,0.1,0.6,0.2c1.1,0.3,2.1,0.6,3.2,1
				c2,0.7,3.9,1.5,5.8,2.2c2.3,0.8,4.7,1.4,7,2.1c4.3,1.2,8.9,1.4,13.3,1.8C222.3,253,223.7,253,225.2,253.1c3.9,0.1,3.9-5.9,0-6
				c-1.6,0-3.2,0-4.8-0.2c-2.1-0.2-4.3-0.4-6.4-0.6c-0.9-0.1-1.7-0.1-2.6-0.3c1.1,0.2-0.3-0.1-0.5-0.2c-1.5-0.4-2.9-0.8-4.4-1.2
				c-4.2-1.2-8.1-3-12.2-4.2c-1.9-0.6-4.3-1.2-6.1-0.1c-2.8,1.6-2.9,5.8-3.7,8.5c-1.8,5.6-5.2,10.5-9.7,14.2
				c-4.6,3.8-10.4,5.9-16.2,7.4c-6.2,1.6-12.6,2.6-18.9,4.1c-6.3,1.6-12.4,3.9-17.9,7.4c-5.8,3.7-10.9,8.2-15.7,13.2
				c-4.8,5-9.4,10.4-12.9,16.5c-3.6,6.2-5.8,13-7.4,19.9c-1.8,7.6-3.2,15.2-4.2,22.9c-1,7.6-1.6,15.2-1.8,22.8
				c-0.1,3.8-0.1,7.5,0,11.3c0.1,3.4,0.2,6.8,0.9,10.1c1.4,6.6,5.9,11.2,12.3,13.1c6.3,1.8,13.2,1.5,19.7,1.7
				c31.5,1,63.1,1.7,94.7,2c15.7,0.1,31.4,0.2,47.1,0.2c15.5,0,31-0.1,46.6-0.8c15.5-0.7,31-2.1,46.4-4.7c5.9-1,12.1-2.1,16.9-6
				c5.7-4.7,5.7-12.3,6-19c0.7-15.3-0.3-30.7-2.8-45.9c-1.9-11.8-5.2-24-12.3-33.9c-3.8-5.2-8.5-9.5-14.1-12.7
				c-6.6-3.7-13.7-6.5-20.6-9.6c-7.1-3.1-14.2-6.3-21.2-9.4c-6.9-3.1-13.9-6-20.7-9.2c-4.6-2.2-9.8-5-12.2-9.7
				c-1.2-2.3-0.8-4-0.9-6.7c-0.1-3.1-1.2-6.1-4.5-7c-2.7-0.7-5.5,0.5-8.1,1.3c-3.2,0.9-6.4,1.7-9.6,2.5c-2.3,0.6-4.6,1.1-7,1.5
				c-0.9,0.2-1.7,0.3-2.6,0.4c-0.1,0-0.6,0.1,0.1,0c-0.2,0-0.4,0.1-0.7,0.1c-0.4,0-0.8,0.1-1.2,0.1c-2.2,0.2-4.3,0.2-6.5,0.1
				C221.3,246.9,221.3,252.9,225.2,253.1z" />
			</g>
		</g>
		<g>
			<path class="st0" d="M182.5,260c14.3,8,30.9,11.1,47.3,11.5c12.6,0.3,26.1-1.1,36-9" />
			<g>
				<path class="st1" d="M180.9,262.5c10.9,6,22.9,9.3,35.1,10.9c11.4,1.5,23.5,1.9,34.7-0.8c6.2-1.5,12.1-4.1,17.1-8.1
				c1.3-1,1.1-3.2,0-4.2c-1.3-1.3-3-1-4.2,0c-8,6.3-18.7,8-28.6,8.2c-11.2,0.2-22.6-1-33.4-4c-6.2-1.7-12.1-4.1-17.7-7.2
				C180.6,255.5,177.6,260.7,180.9,262.5L180.9,262.5z" />
			</g>
		</g>
		<g>
			<path class="st2" d="M294.1,330.5c5.5-0.1,10,0.1,13,0.3c-0.2,8.4-0.4,16.9,0.4,25.2c0.1,0.6,0.1,1.2-0.1,1.8
			c-0.3,0.7-0.9,1.1-1.5,1.5c-4.6,3.2-9.1,6.4-13.7,9.6c-0.2,0.1-0.4,0.3-0.6,0.3c-0.3,0-0.5-0.1-0.7-0.2c-4-1.7-7.7-3.9-11-6.7
			c-1.4-1.1-2.6-2-4.2-3.1c-0.3-0.2-0.7-0.4-1-0.7c-0.3-0.4-0.2-1-0.2-1.5c0.7-11.7-0.3-17.7,0.5-26.4c6,0.1,10.8,0,14.2,0
			C291.3,330.5,292.2,330.5,294.1,330.5z" />
			<g>
				<path class="st1" d="M294.1,333.5c4.3-0.1,8.6,0,13,0.3c-1-1-2-2-3-3c-0.1,6.7-0.3,13.4,0.1,20.1c0.1,1.6,0.2,3.1,0.3,4.7
				c0,0.4,0.2,1,0.1,1.4c0-0.1,0.1-0.4,0.1-0.4c-0.4,0.4-1.3,0.9-1.9,1.3c-2.7,1.9-5.4,3.8-8,5.6c-0.7,0.5-1.3,0.9-2,1.4
				c-0.5,0.4-1.4,0.8-1.8,1.3c-0.1,0-0.1,0.1-0.2,0.1c1.3,0.1,1.6,0.1,0.8-0.2c-0.2-0.1-0.5-0.2-0.8-0.4c-0.8-0.4-1.6-0.8-2.4-1.2
				c-2.5-1.4-4.8-3-7.1-4.8c-1.2-1-2.5-1.9-3.7-2.8c-0.2-0.1-0.4-0.3-0.6-0.4c-0.1-0.1-0.2-0.1-0.3-0.2c0.6,1.3,0.9,1.5,0.8,0.7
				c0.3-0.6,0.1-1.7,0.1-2.4c0.1-2.7,0.2-5.5,0.1-8.2c0-5.3-0.2-10.5,0.2-15.8c-1,1-2,2-3,3C281.3,333.7,287.7,333.6,294.1,333.5
				c3.9-0.1,3.9-6.1,0-6c-6.4,0.1-12.8,0.3-19.2,0.1c-1.7,0-2.9,1.4-3,3c-0.4,5.1-0.3,10.3-0.2,15.4c0,3.2,0,6.3-0.2,9.5
				c-0.1,1.9-0.3,3.9,1.2,5.3c1.1,1.1,2.6,1.8,3.9,2.8c2.7,2,5.3,4.1,8.3,5.8c1.4,0.8,2.8,1.5,4.2,2.1c1.1,0.5,2.1,0.8,3.3,0.6
				c1-0.2,1.8-0.9,2.6-1.5c3.1-2.2,6.2-4.3,9.3-6.5c1.4-1,2.8-1.9,4.1-2.9c1.7-1.3,2.3-3.1,2.2-5.2c-0.6-8.4-0.6-16.8-0.4-25.2
				c0-1.7-1.4-2.9-3-3c-4.3-0.3-8.6-0.4-13-0.3C290.2,327.5,290.2,333.5,294.1,333.5z" />
			</g>
		</g>
	</g>
	<g id="Capa_2_00000043428166978671717990000006984495502889619874_">
		<g>
			<path class="st1" d="M189.5,105.4c-5.1,3.4-8.5,6.7-9.4,7.7c-3.3,3.3-5.7,6.6-7.6,9.5c1.7-9.1-1.3-18.4-5.6-26.6
			s-9.6-15.8-13.3-24.2c-1.9-4.4-3.3-9.4-2.2-14.1c1.4-6.2,7-10.8,13-12.9c3.9-1.3,8.2-1.8,12.2-0.7s7.6,3.9,9.2,7.8
			c2.4,5.9-0.5,12.5-0.9,18.9c-0.2,3.6,0.5,7.5,3.2,9.9c2.8,2.4,7.1,2.5,10.2,0.4c3-2,4.6-5.9,4.2-9.5c-0.5-4.2-3.3-7.9-3.4-12.1
			c-0.1-5.3,5.1-10,10.4-9.5s9.3,6.3,8.1,11.5c-0.6,2.4-2.1,4.5-2.5,7c-0.6,3.8,1.9,7.9,5.7,9c3.7,1.1,8.1-1,9.7-4.5
			c1.8-4.2-0.2-9-2.3-12.9c-2.2-4-4.7-8.3-3.9-12.8c1.1-6.3,8.2-9.8,14.5-9.9c3.9-0.1,7.8,0.8,11,3c3.1,2.2,5.3,6,5.1,9.9
			c-0.2,3.4-2.2,6.5-4.4,9.2s-4.6,5.3-5.8,8.6s-0.9,7.4,1.8,9.5c2,1.6,5,1.7,7.3,0.5c2.3-1.2,3.7-3.7,4-6.3c0.3-2.8-0.7-5.8,0.4-8.3
			c1.6-3.7,7.3-4.3,10.2-1.6s3.3,7.5,1.6,11.2c-1,2.2-2.6,4.1-3.6,6.3c-0.9,2.2-1,5.1,0.8,6.7c2.1,1.8,5.5,1,7.4-1s2.6-4.8,3.5-7.4
			c1.6-5,3.6-9.9,6.1-14.5c1.4-2.7,3.1-5.4,5.6-7.3c2.3-1.7,5.1-2.5,7.9-2.8c4.2-0.5,8.6,0.3,12.1,2.7s5.9,6.5,5.7,10.7
			c-0.2,4.3-3,8.1-6,11.1c-9,9-22.2,15-26.2,27c-3,8.9-1,18.6,2.3,27.4c1.3,3.4-11.6-24.9-35.5-34.4c-21.4-8.5-45.5,0.3-50.1,2.2
			C194.4,102.1,189.5,105.4,189.5,105.4z" />
			<g>
				<path class="st1" d="M188,102.8c-7.3,4.8-13.4,10.9-18.1,18.3c1.8,0.8,3.7,1.5,5.5,2.3c1.9-10.9-1.8-21.4-6.9-30.9
				c-2.5-4.7-5.4-9.1-7.9-13.7c-2.5-4.5-5-9.2-6.1-14.3c-0.9-4.3,0-8.5,2.9-11.6c2.9-3.2,6.7-5.1,10.9-6c4.1-0.9,8.8-0.3,11.9,2.3
				c3.5,2.9,4,7,3.3,11.4c-0.7,5.1-2.2,10.1-1.2,15.3c1,5,4.6,8.9,9.7,9.5c4.9,0.6,9.7-1.9,12-6.3c1.1-2.2,1.7-4.7,1.6-7.2
				c-0.2-2.5-1-4.7-1.9-7c-0.4-1.1-0.8-2.2-1.1-3.3c-0.1-0.5-0.2-0.9-0.3-1.4c0-0.3,0-0.5,0-0.8c0-0.1,0-1,0-0.6
				c0.2-1.8,1.1-3.2,2.5-4.3c2.6-2.3,6-2,8.4,0.4c0.5,0.6,0.9,1.1,1.4,2c0.1,0.1,0.2,0.4,0.3,0.8c0.1,0.5,0.2,1.1,0.3,1.2
				c0.1,2-0.8,3.8-1.7,5.9c-1.8,4.5-1.1,9.7,2.7,13c3.6,3.3,9,3.7,13.1,1.1c4.7-2.9,6-8.3,4.8-13.4c-1.2-5.1-4.8-9.1-6.2-14.1
				c-0.3-1-0.5-2-0.4-3c0-0.4,0.1-0.8,0.2-1.1c0.1-0.2,0.1-0.4,0.2-0.6c0,0,0.4-0.9,0.2-0.5c0.7-1.6,1.8-2.7,3.1-3.5
				c1.7-1.1,3.1-1.6,5.1-2.1c1.1-0.2,1.4-0.3,2.4-0.3c1.1,0,2.3,0,3.4,0.1c4,0.5,8.2,2.6,9.7,6.6c1.6,4.2-1.2,8-3.8,11.2
				c-3.1,3.9-6.4,7.9-6.5,13.1c-0.1,5.2,3.2,9.8,8.5,10.3c5.2,0.6,9.8-3.2,11-8.2c0.6-2.6,0.1-5,0.2-7.6c0-0.5,0.1-1,0.3-1.4
				c-0.1,0.2,0.5-0.8,0.1-0.3c0.1-0.2,0.8-0.8,0.4-0.5c0.2-0.1,0.3-0.2,0.5-0.3c0.7-0.4-0.4,0.1,0.3-0.2c0.4-0.1,0.7-0.2,1.1-0.3
				c-0.5,0.1,0,0,0.1,0c0.2,0,0.5,0,0.7,0c0.5,0-0.4-0.1,0.1,0c0.2,0,0.4,0.1,0.6,0.1c0.2,0.1,0.5,0.1,0.7,0.2
				c-0.4-0.2,0.1,0.1,0.2,0.1c0.1,0,0.6,0.4,0.3,0.2c-0.3-0.2,0.5,0.5,0.4,0.4c0.3,0.3,0.4,0.5,0.6,0.8c0.5,0.8,0.7,1.5,0.9,2.6
				c0.2,1.5-0.2,3.4-1.1,4.9c-1.2,2.2-2.8,4.3-3.6,6.7c-1.6,5,1,10.8,6.7,10.9c5.6,0.1,8.7-4.7,10.3-9.4c1.6-4.9,3.2-9.6,5.5-14.2
				c2.1-4.2,4.3-8.4,9.1-9.9c4.2-1.3,9.1-1,12.9,1.3c3.3,2.1,5.5,6,4.5,9.8c-1,4.2-4.4,7.3-7.6,10.1c-6.2,5.5-13.6,9.8-18.9,16.3
				c-2.9,3.5-5.1,7.4-6.1,11.8c-1.3,5.4-1.1,10.9-0.1,16.3c0.5,2.5,1.2,5.1,2,7.5c0.3,1,0.6,2.1,1.1,3.1c0.2,0.4-0.1,0.4,0-0.6
				c0.1-0.5,0.3-1,0.4-1.5c0,0,0,0,0,0c0.9-0.5,1.7-1,2.6-1.5c0,0,0,0,0,0c0.5,0.1,1,0.3,1.5,0.4c0.3,0.2,0.9,0.8,1,1
				c0-0.1-0.1-0.1-0.1-0.2c-0.1-0.2-0.2-0.4-0.3-0.6c-0.4-0.7-0.8-1.3-1.2-2c-1.3-2.2-2.7-4.4-4.2-6.5c-4.5-6.4-9.7-12.4-15.8-17.3
				c-8-6.5-17.2-11-27.5-12.5c-10.2-1.4-20.5-0.4-30.4,2.2C201.4,95.7,194.3,98.6,188,102.8c-1.4,0.9-1.9,2.7-1.1,4.1
				c0.8,1.3,2.7,2,4.1,1.1c6.3-4.1,13.1-6.8,20.3-8.6c11.1-2.8,23.1-3.5,34.3-0.2c9.7,2.9,17.8,9.1,24.6,16.6c1.5,1.6,2.9,3.3,4.3,5
				c0.2,0.2,0.3,0.4,0.5,0.6c-0.1-0.1-0.3-0.4,0,0c0.3,0.4,0.6,0.8,0.9,1.2c0.6,0.8,1.1,1.6,1.7,2.4c1.5,2.2,3,4.5,4.4,6.8
				c0.3,0.6,0.6,1.1,1,1.7c0.2,0.3,0.4,0.6,0.6,0.8c1.8,1.8,5.1,0.5,5.1-2.1c0-0.4-0.1-0.7-0.2-1c-0.4-1.5-1-2.9-1.5-4.4
				c-1-3.2-1.8-6.5-2-9.9c-0.5-6.1,0.5-11.9,3.9-16.9c2.8-4.1,7.1-7.6,11.1-10.8c8.4-6.6,22.7-15.9,17.6-28.5
				c-2.6-6.4-8.7-10-15.4-10.7c-3.3-0.3-6.8,0-9.9,1.2c-3.5,1.3-6.1,3.5-8.3,6.5c-1.9,2.7-3.4,5.7-4.8,8.7c-1.5,3.3-2.8,6.6-3.9,10
				c-0.7,2.3-1.4,5.6-3.3,7c-0.5,0.3-0.8,0.5-1.2,0.6c0,0-1,0.2-0.6,0.1c0,0-1-0.1-0.5,0c-0.6-0.1-0.9-0.5-1-1.3
				c-0.2-2.5,1.9-4.8,3.2-7.1c1.6-2.9,2.3-6.1,1.8-9.4c-0.9-6.1-6.5-10.3-12.6-8.8c-2.7,0.7-5,2.6-6,5.2c-0.6,1.5-0.7,3.2-0.6,4.9
				c0.1,1.5,0.3,3.3,0,4.5c-0.5,2.2-2.3,3.9-4.5,3.8c-2.1-0.1-3.1-1.9-3.2-3.7c-0.3-5.5,5.7-10,8.4-14.6c1.8-3,2.8-6.5,2.2-10
				c-0.5-3.1-2.2-6-4.4-8.2c-8.4-7.9-26.5-6.7-31.2,4.9c-2.8,6.9,1.7,13.2,4.6,19.2c1.2,2.4,2.4,5.7,1.2,8.3
				c-0.3,0.7-0.9,1.4-1.5,1.8c-0.2,0.2-0.5,0.3-0.7,0.5c0.1,0-0.9,0.4-0.5,0.3c-0.3,0.1-0.6,0.2-1,0.3c0,0-0.9,0.1-0.5,0.1
				c-2.1,0.2-3.9-0.9-4.9-2.9c-0.4-0.8-0.6-1.8-0.5-2.8c0.1-0.9,0.8-2.6,1.3-3.8c1.3-3,1.9-5.9,0.9-9.1c-0.9-2.9-2.7-5.3-5.1-7.1
				c-5.1-3.7-12.3-2.4-16.2,2.4c-1.9,2.3-3.1,5.2-3,8.3c0.2,3.3,1.7,6.2,2.7,9.3c0.9,2.6,1,4.9-0.2,7.2c-1.2,2.1-3.1,3.2-5.5,3.1
				c-2-0.1-3.7-1.3-4.5-3.3c-1.1-2.6-0.8-5.4-0.4-8.2c1.1-6.6,3.1-13.9-1.1-20c-3.7-5.4-10.2-8-16.7-7.6c-6.3,0.4-12.6,3.1-17.1,7.7
				c-4.8,5-6.2,11.6-4.7,18.3c1.5,6.7,5.2,12.9,8.7,18.8c3.4,5.9,7.2,11.7,9.6,18c2.3,5.8,3.7,12.2,2.6,18.4
				c-0.6,3.3,3.6,5.3,5.5,2.3c4.1-6.5,9.5-11.9,15.9-16.1c1.3-0.9,1.9-2.6,1.1-4.1C191.3,102.5,189.3,101.9,188,102.8z" />
			</g>
		</g>
		<g>
			<path class="st2" d="M159.5,166.8c-1.3,24.9,12,50.3,33.6,62.8s50.6,11.4,70.8-3.2c9.8-7.1,17.5-17,22.6-28.1
			c14.5-31.6,1-61.5-0.2-64.1c-2.8-6-13.4-28.5-38.6-37.1c-28.1-9.6-57.4,3.7-71.5,20.4c-4.4,5.2-7.2,10.6-8.4,13
			c-8.5,16.6-9,32.6-8.5,41.6" />
			<g>
				<path class="st1" d="M156.5,166.8c-0.8,15.8,4.1,31.9,13.1,44.9c9.3,13.3,22.7,23.1,38.5,27.2c15.9,4.2,33.1,2.6,48-4.4
				c15.6-7.4,27.5-21.4,34.2-37.2c6.6-15.7,7.5-33.2,3.7-49.8c-1.6-7.1-4.2-13.9-7.7-20.3c-5.8-10.6-13.9-20-24.1-26.5
				c-14.5-9.3-32.3-11.9-49-8.1c-15.1,3.4-30,11.7-39.8,23.9c-10.5,13.2-16.1,30.1-16.9,46.9c-0.1,2.9-0.1,5.8,0,8.7
				c0.1,1.6,1.3,3,3,3c1.6,0,3.1-1.4,3-3c-0.7-14.6,2.1-29,9.1-42c3.5-6.5,7.9-12.3,13.6-17.1c5.3-4.5,11.7-8.4,18.3-11.1
				c15-6.1,31.8-6.9,46.8-0.7c6.3,2.6,12,6.4,16.9,11c2.2,2.1,4.3,4.3,6.2,6.6c1.1,1.3,1.3,1.6,2.2,2.9c0.8,1,1.5,2.1,2.2,3.1
				c2.1,3.2,3.9,6.5,5.5,9.9c0.2,0.4,0.4,0.8,0.6,1.3c0.1,0.2,0.1,0.3,0.2,0.5c0.2,0.4,0.4,1,0.1,0.1c0.6,1.6,1.2,3.2,1.8,4.8
				c0.8,2.4,1.5,4.9,2.1,7.4c0.7,3,1.3,6.4,1.6,9.1c0.9,7.8,0.8,15.7-0.8,23.4c-3.2,16.3-12.2,31.9-25.6,42
				c-12.2,9.1-27.5,13-42.6,11.8c-14.8-1.2-28.9-7.7-39.3-18.5c-10.1-10.4-16.8-24.5-18.5-38.7c-0.4-3.7-0.5-7.3-0.4-11
				c0.1-1.6-1.4-3-3-3C157.9,163.8,156.6,165.2,156.5,166.8L156.5,166.8z" />
			</g>
		</g>
	</g>
	<g id="Capa_3">
	</g>
</svg>