<?xml version="1.0" encoding="iso-8859-1"?>
<!-- Generator: Adobe Illustrator 26.2.1, SVG Export Plug-In . SVG Version: 6.00 Build 0)  -->
<svg version="1.1" id="Capa_1" xmlns="http://www.w3.org/2000/svg" xmlns:xlink="http://www.w3.org/1999/xlink" x="0px" y="0px"
	 viewBox="0 0 350 500" style="enable-background:new 0 0 350 500;" xml:space="preserve">
<g>
	<g>
		<path d="M238.838,221.519c-0.829-4.313-1.684-8.701-3.76-12.571c-2.414-4.502-6.311-7.997-10.174-11.339
			c-8.86-7.665-17.962-15.05-27.289-22.14c5.006-0.489,10.071-0.99,14.81-2.675c9.696-3.448,17.283-11.853,20.57-21.605
			s2.461-20.66-1.422-30.191c-4.189-10.28-11.634-18.842-19.033-27.117C196.211,75.617,179.25,57.43,168.108,35.61
			c2.381,14.267,2.316,28.94-0.192,43.185c-6.704,38.077-16.416,36.705-18.16,64.161c-1.256,21.544,1.744,79.544,1.776,80.588
			c0.118,3.954-0.031,7.956,0.947,15.003c0.301,2.168,2.318,9.034,8.245,11.984c3.972,1.977,8.647,1.693,13.071,1.352
			c7.878-0.606,15.753-1.246,23.625-1.92c-11.112-8.819-13.862-24.423-14.457-38.597c-0.35-8.354-0.607-17.672-6.538-23.566
			c7.356,3.457,14.815,6.98,20.956,12.305c14.522,12.595,19.238,35.204,10.961,52.554c12.074-1.128,24.231-1.376,36.341-0.742
			C242.734,241.784,240.786,231.651,238.838,221.519z M196.169,157.215c-3.762,1.123-7.734,1.775-11.621,1.225
			s-7.694-2.41-10.029-5.565c-2.129-2.876-3.34-6.96-3.019-11.374c0.189-2.599,0-7,3.86-17.454c0.046-0.124,6.14-14.546,6.987-16.89
			c1.825-5.049,3.744-12.7,0.299-24.926c3.108,8.593,7.512,16.716,13.018,24.009c6.476,8.579,14.783,16.689,16.377,27.319
			c1.087,7.249-1.553,15.17-7.38,19.617C202.156,155.087,199.19,156.313,196.169,157.215z"/>
		<g>
			<path d="M240.285,221.12c-0.759-3.942-1.565-7.879-3.233-11.554c-1.645-3.625-4.261-6.708-7.113-9.445
				c-6.187-5.934-13.009-11.31-19.69-16.673c-3.917-3.144-7.878-6.233-11.875-9.274c-0.252,0.932-0.505,1.863-0.757,2.795
				c6.256-0.611,12.558-1.3,18.31-4.012c4.746-2.237,8.94-5.692,12.193-9.796c7.441-9.389,9.766-21.572,7.624-33.247
				c-2.258-12.302-9.557-22.591-17.553-31.886c-8.169-9.495-16.783-18.594-24.816-28.21c-9.077-10.865-17.497-22.339-23.971-34.966
				c-0.831-1.621-3-0.409-2.742,1.156c2.204,13.359,2.273,27.113,0.128,40.486c-1.613,10.055-4.004,20.059-7.699,29.562
				c-2.261,5.815-5.148,11.38-7.2,17.276c-2.412,6.93-3.416,14.254-3.732,21.562c-0.673,15.565-0.014,31.226,0.529,46.785
				c0.37,10.598,0.935,21.188,1.342,31.784c0.298,7.764-0.469,16.508,4.199,23.211c3.195,4.588,7.988,6.729,13.508,6.931
				c3.087,0.113,6.186-0.232,9.26-0.472c3.446-0.269,6.892-0.545,10.337-0.827c3.363-0.275,6.726-0.557,10.088-0.844
				c1.141-0.098,2.173-1.666,1.061-2.561c-6.9-5.549-10.454-13.749-12.255-22.233c-0.927-4.365-1.408-8.809-1.662-13.26
				c-0.257-4.502-0.305-9.012-1.025-13.475c-0.787-4.881-2.535-9.616-6.054-13.194c-0.606,0.785-1.212,1.571-1.818,2.356
				c10.26,4.822,20.74,9.953,27.356,19.552c5.504,7.986,8.239,17.745,7.843,27.425c-0.223,5.459-1.488,10.883-3.821,15.83
				c-0.436,0.924,0.06,2.371,1.295,2.257c12.08-1.116,24.225-1.364,36.341-0.742c1.041,0.054,1.62-0.997,1.446-1.899
				C244.18,241.385,242.233,231.253,240.285,221.12c-0.364-1.894-3.256-1.092-2.893,0.798c1.948,10.133,3.896,20.265,5.844,30.398
				c0.482-0.633,0.964-1.266,1.446-1.899c-12.116-0.623-24.261-0.375-36.341,0.742c0.432,0.752,0.863,1.505,1.295,2.257
				c9.016-19.12,3.222-43.406-13.554-56.287c-5.765-4.426-12.355-7.548-18.901-10.624c-1.483-0.697-3.076,1.076-1.818,2.356
				c6.407,6.514,5.715,16.682,6.233,25.108c0.541,8.797,1.933,17.782,5.865,25.759c2.138,4.338,5.12,8.259,8.897,11.296
				c0.354-0.854,0.707-1.707,1.061-2.561c-6.888,0.589-13.778,1.153-20.671,1.691c-5.584,0.436-12.235,1.573-17.071-2.012
				c-2.936-2.176-4.878-5.754-5.626-9.292c-0.956-4.519-0.9-9.319-0.987-13.919c-0.188-9.911-0.888-19.827-1.251-29.734
				c-0.578-15.747-1.184-31.551-0.758-47.309c0.191-7.088,0.825-14.179,2.843-21.006c1.702-5.758,4.398-11.131,6.717-16.65
				c3.516-8.368,6.001-17.071,7.793-25.964c2.629-13.049,3.625-26.301,2.382-39.576c-0.297-3.174-0.716-6.336-1.235-9.481
				c-0.914,0.385-1.828,0.771-2.742,1.156c11.121,21.689,27.801,39.732,43.929,57.749c7.844,8.763,16.052,17.885,20.096,29.135
				c3.937,10.951,3.803,23.567-2.137,33.783c-2.86,4.919-6.914,9.154-11.834,12.036c-5.88,3.445-12.587,4.247-19.25,4.898
				c-1.545,0.151-1.959,1.881-0.757,2.795c6.795,5.17,13.47,10.498,20.018,15.977c3.156,2.641,6.318,5.286,9.372,8.045
				c2.792,2.523,5.476,5.24,7.33,8.546c2.164,3.859,2.986,8.29,3.813,12.586C237.756,223.811,240.648,223.009,240.285,221.12z"/>
			<path d="M195.771,155.768c-4.467,1.308-9.273,2.018-13.793,0.538c-3.806-1.247-6.76-4.008-8.087-7.806
				c-1.718-4.918-0.891-10.905,0.343-15.879c1.235-4.979,3.176-9.603,5.147-14.311c1.743-4.165,3.702-8.319,5.047-12.636
				c2.437-7.822,1.832-16.027-0.335-23.843c-0.964,0.266-1.929,0.532-2.893,0.798c2.165,5.94,4.887,11.671,8.191,17.062
				c3.129,5.106,6.859,9.734,10.596,14.397c3.497,4.363,7.048,8.942,9.085,14.204c1.968,5.083,2.308,10.564,0.425,15.727
				c-0.993,2.721-2.625,5.215-4.774,7.161C202.199,153.466,198.989,154.791,195.771,155.768c-1.842,0.56-1.057,3.456,0.798,2.893
				c5.826-1.77,11.012-4.792,14.133-10.18c2.803-4.839,3.652-10.631,2.656-16.104c-2.204-12.12-12.334-20.739-18.975-30.487
				c-4.245-6.231-7.708-12.975-10.289-20.058c-0.651-1.787-3.417-1.092-2.893,0.798c1.997,7.201,2.618,14.686,0.438,21.912
				c-1.364,4.522-3.43,8.865-5.251,13.213c-2.059,4.916-4.07,9.767-5.267,14.993c-1.238,5.402-1.97,11.848,0.081,17.099
				c1.714,4.388,5.014,7.552,9.437,9.165c5.139,1.874,10.797,1.153,15.929-0.35C198.417,158.12,197.63,155.224,195.771,155.768z"/>
		</g>
	</g>
	<g>
		<path d="M223.223,179.943c6.277-2.443,6.277-2.443,9.986-5.164c1.96-1.438,5.043-3.386,7.442-8.427
			c4.356,15.095,14.826,28.329,28.512,36.042c1.859-18.695-8.473-38.032-25.048-46.878c3.825-8.094,7.032-17.679,3.161-25.751
			c6.029,4.909,10.664,11.301,14.861,17.846c18.164,28.327,29.38,61.074,32.397,94.589c0.1,1.108,0.18,2.279-0.301,3.282
			c-0.655,1.366-2.165,2.068-3.576,2.617c-11.331,4.404-23.844,5.722-35.844,3.775c6.669-11.166,10.905-23.778,12.328-36.706
			c0.05-0.45,0.093-0.924-0.085-1.34c-0.277-0.649-0.995-0.969-1.648-1.234c-2.357-0.957-4.7-1.958-6.972-3.101
			C250.5,205.5,226.5,187.5,223.168,181.085C223.06,180.876,222.743,180.129,223.223,179.943z"/>
		<g>
			<path d="M223.622,181.389c3.48-1.354,6.699-2.651,9.721-4.858c1.418-1.035,2.873-2.036,4.156-3.24
				c1.869-1.753,3.327-3.886,4.447-6.182c-0.914-0.119-1.828-0.239-2.742-0.358c4.53,15.503,15.154,28.961,29.202,36.939
				c1.059,0.601,2.151-0.185,2.257-1.295c1.423-14.951-4.634-30.254-15.427-40.61c-3.095-2.97-6.588-5.528-10.363-7.564
				c0.179,0.684,0.359,1.368,0.538,2.052c3.954-8.415,7.331-18.283,3.161-27.266c-0.785,0.606-1.571,1.212-2.356,1.818
				c8.189,6.733,13.945,16.001,19.225,25.063c5.408,9.282,10.108,18.98,14.019,28.986c3.905,9.99,7.051,20.278,9.399,30.744
				c1.174,5.233,2.148,10.511,2.918,15.818c0.381,2.63,0.706,5.268,0.981,7.912c0.134,1.293,0.313,2.602,0.346,3.902
				c0.034,1.349-0.412,2.167-1.585,2.823c-2.462,1.377-5.479,2.12-8.187,2.85c-3.096,0.834-6.255,1.465-9.44,1.843
				c-6.202,0.737-12.511,0.64-18.68-0.339c0.299,0.734,0.598,1.469,0.896,2.203c4.405-7.417,7.794-15.442,10.001-23.783
				c1.112-4.204,1.911-8.482,2.43-12.799c0.233-1.937,0.049-3.584-1.882-4.535c-2.01-0.989-4.153-1.723-6.18-2.689
				c-4.304-2.05-8.254-4.812-12.13-7.566c-4.863-3.456-9.606-7.094-14.153-10.958c-2.217-1.884-4.4-3.82-6.435-5.9
				c-0.757-0.773-1.497-1.567-2.178-2.409c-0.233-0.288-0.424-0.538-0.678-0.924c-0.096-0.146-0.177-0.336-0.289-0.465
				c-0.17-0.195-0.038-0.355-0.123-0.126c-0.23,0.299-0.46,0.598-0.689,0.896c0.059-0.045,0.119-0.09,0.178-0.135
				c1.52-1.151,0.027-3.757-1.514-2.59c-2.147,1.625-0.188,4.019,1.051,5.535c1.387,1.698,2.976,3.235,4.581,4.724
				c4.333,4.02,8.983,7.706,13.702,11.259c4.248,3.199,8.586,6.331,13.141,9.083c2.536,1.532,5.216,2.761,7.944,3.912
				c0.486,0.205,0.972,0.408,1.46,0.608c0.284,0.117,1.061,0.301,1.269,0.593c0.391,0.545-0.16,2.393-0.251,3.047
				c-0.295,2.122-0.671,4.234-1.118,6.33c-2.058,9.651-5.691,18.896-10.729,27.378c-0.45,0.758-0.075,2.049,0.896,2.203
				c11.54,1.832,23.46,0.883,34.504-2.985c2.183-0.765,4.851-1.517,6.251-3.51c1.575-2.243,0.81-5.39,0.542-7.914
				c-0.596-5.612-1.411-11.203-2.45-16.749c-4.148-22.147-11.864-43.637-22.732-63.375c-3.03-5.502-6.281-10.906-9.848-16.079
				c-3.543-5.138-7.507-10.024-12.345-14.002c-1.329-1.093-3.089,0.239-2.356,1.818c3.646,7.853,0.267,16.942-3.161,24.237
				c-0.335,0.713-0.226,1.64,0.538,2.052c12.589,6.787,21.368,19.522,23.857,33.546c0.704,3.969,0.829,8.027,0.448,12.038
				c0.752-0.432,1.505-0.863,2.257-1.295c-13.381-7.599-23.507-20.372-27.823-35.146c-0.339-1.162-2.154-1.562-2.742-0.358
				c-1.018,2.086-2.281,3.981-3.978,5.575c-1.167,1.095-2.489,2-3.78,2.939c-2.735,1.991-5.629,3.163-8.773,4.387
				C221.045,179.189,221.819,182.091,223.622,181.389z"/>
		</g>
	</g>
	<g>
		<path d="M70.859,220.885c18.22-35.648,51.516-65.251,63.099-75.901c2.536-2.332,4.628-4.214,5.949-5.396
			c-2.721,12.448-5.451,25.326-2.971,37.824c-5.038,1.761-9.162,5.396-13.146,8.947c-12.309,10.971-24.892,22.29-32.441,36.949
			c-1.287,2.499-2.402,5.583-0.973,8.004c1.9,3.219,6.612,2.821,10.242,1.927c12.297-3.028,24.377-6.939,36.116-11.693
			c0.728,6.058,1.456,12.116,2.183,18.173c0.504,4.199,1.2,8.782,4.341,11.614c-18.074-0.103-34.805,9.823-52.798,11.531
			c-5.128,0.487-11.859,0.71-17.04-3.553c-5.998-4.936-6.629-13.251-6.87-16.426C65.768,232.589,68.5,225.5,70.859,220.885z"/>
		<g>
			<path d="M72.154,221.642c7.501-14.627,17.247-28.013,27.96-40.44c8.638-10.02,17.952-19.435,27.625-28.454
				c4.37-4.074,8.776-8.114,13.228-12.099c-0.836-0.486-1.671-0.973-2.507-1.459c-2.766,12.658-5.469,25.685-2.971,38.622
				c0.349-0.615,0.698-1.23,1.048-1.845c-3.915,1.413-7.284,3.758-10.457,6.412c-3.212,2.687-6.303,5.534-9.398,8.353
				c-6.208,5.656-12.273,11.523-17.541,18.081c-2.557,3.183-4.94,6.509-7.026,10.021c-1.942,3.27-4.506,7.26-3.774,11.243
				c0.655,3.562,3.987,5.2,7.32,5.295c3.895,0.111,7.853-1.283,11.562-2.292c10.16-2.764,20.147-6.141,29.91-10.085
				c-0.633-0.482-1.266-0.964-1.899-1.446c0.728,6.058,1.448,12.117,2.183,18.173c0.55,4.534,1.284,9.391,4.78,12.674
				c0.354-0.854,0.707-1.707,1.061-2.561c-16.698-0.021-31.817,8.023-48.006,10.874c-6.741,1.187-15.255,2.166-20.915-2.578
				c-4.38-3.671-5.838-9.453-6.263-14.922C67.491,235.7,68.736,228.37,72.154,221.642c0.873-1.718-1.715-3.238-2.59-1.514
				c-3.154,6.208-4.757,12.971-4.645,19.947c0.095,5.923,0.983,12.355,4.596,17.238c4.756,6.428,12.435,7.758,19.965,7.141
				c8.586-0.704,16.828-3.191,25.013-5.737c9.363-2.912,18.861-5.893,28.764-5.881c1.269,0.002,2.019-1.661,1.061-2.561
				c-3.246-3.048-3.578-7.863-4.079-12.027c-0.669-5.567-1.338-11.133-2.006-16.7c-0.102-0.85-0.894-1.852-1.899-1.446
				c-7.927,3.202-16.002,6.033-24.199,8.462c-4.095,1.213-8.223,2.4-12.39,3.342c-2.316,0.524-6.121,1.197-7.833-0.993
				c-2.238-2.863,1.01-7.508,2.471-10.016c1.925-3.307,4.106-6.468,6.483-9.465c4.824-6.085,10.347-11.575,16.042-16.839
				c3.136-2.899,6.314-5.757,9.525-8.573c3.276-2.873,6.757-5.664,10.902-7.16c0.808-0.292,1.212-0.994,1.048-1.845
				c-2.388-12.37,0.329-24.934,2.971-37.027c0.324-1.484-1.377-2.471-2.507-1.459c-8.299,7.43-16.517,14.98-24.387,22.864
				c-10.812,10.832-21.001,22.33-29.994,34.725c-5.537,7.631-10.596,15.618-14.9,24.011
				C68.684,221.843,71.272,223.363,72.154,221.642z"/>
		</g>
	</g>
	<g>
		<path d="M246.656,392.96c-1.374-0.494-0.339,0.859-3.715,22.953c-0.674,4.41-1.126,7.94,0.891,11.13
			c1.787,2.825,5.21,4.24,8.536,4.573c8.314,0.832,16.158-4.002,22.33-9.635c14.089-12.858,23.053-30.592,28.028-49.007
			c4.975-18.414,6.214-37.618,6.791-56.684c0.564-18.655-0.017-37.789-5.193-55.471c-15.249,5.336-31.497,7.802-47.643,7.232
			c-0.775-0.027-1.651-0.023-2.189,0.534c-0.52,0.538-0.516,1.379-0.48,2.127c0.277,5.618,0.553,11.235,0.83,16.853
			c0.125,2.531,0.489,5.481,2.672,6.769c1.678,0.991,3.797,0.582,5.696,0.143c6.231-1.44,12.463-2.88,18.694-4.32
			c1.434-0.331,3.104-0.613,4.242,0.321c0.915,0.751,1.151,2.033,1.325,3.204c1.174,7.864,2.325,16.061-0.112,23.629
			c-0.563,1.749-1.344,3.484-2.665,4.762c-4.394,4.252-11.642,1.481-17.706,2.266c-0.761,0.099-1.583,0.299-2.048,0.909
			c-0.444,0.582-0.444,1.378-0.425,2.11c0.209,7.971,0.418,15.943,0.627,23.914c5.646-0.189,11.292-0.378,16.937-0.567
			c0.636-0.021,1.327-0.026,1.835,0.356c0.281,0.211,0.65,0.797,0.759,2.385C287.5,394.5,256.5,396.5,246.656,392.96z"/>
		<g>
			<path d="M247.055,391.513c-2.212-0.783-2.67,1.683-2.864,3.231c-0.616,4.915-1.116,9.839-1.809,14.746
				c-0.325,2.3-0.68,4.596-1.018,6.895c-0.304,2.066-0.625,4.182-0.445,6.276c0.349,4.067,2.605,7.442,6.353,9.136
				c8.022,3.627,17.251-0.096,23.854-4.952c13.958-10.266,23.477-26.147,29.433-42.154c6.821-18.333,9.073-38.006,10.033-57.43
				c0.982-19.853,1.359-40.117-2.974-59.635c-0.538-2.422-1.155-4.824-1.847-7.206c-0.215-0.74-1.069-1.318-1.845-1.048
				c-12.553,4.367-25.722,6.831-39.011,7.207c-1.646,0.047-3.293,0.062-4.94,0.046c-1.524-0.015-3.201-0.27-4.709,0.003
				c-3.458,0.625-2.734,4.465-2.606,7.058c0.171,3.47,0.342,6.939,0.513,10.409c0.131,2.668-0.014,5.644,0.951,8.186
				c0.932,2.454,2.911,4.035,5.575,4.157c3.033,0.139,6.261-1.058,9.184-1.734c3.355-0.775,6.711-1.551,10.066-2.326
				c1.469-0.34,2.964-0.817,4.463-0.996c1.588-0.19,2.204,0.492,2.497,1.987c0.61,3.106,0.957,6.325,1.205,9.479
				c0.251,3.195,0.314,6.456-0.167,9.634c-0.419,2.767-1.086,6.115-3.038,8.249c-1.679,1.835-4.155,2.249-6.53,2.28
				c-2.985,0.038-5.958-0.441-8.944-0.296c-1.323,0.064-2.772,0.147-3.904,0.905c-1.294,0.866-1.529,2.292-1.517,3.739
				c0.069,7.969,0.418,15.947,0.627,23.914c0.021,0.79,0.671,1.528,1.5,1.5c5.642-0.189,11.293-0.494,16.937-0.567
				c0.938-0.012,0.9-0.171,1.054,0.802c0.172,1.093,0.153,2.255,0.187,3.359c0.063,2.041,0.043,4.086-0.085,6.125
				c-0.387,6.188-1.819,12.452-5.12,17.766c-4.583,7.379-12.667,11.66-21.009,12.299
				C253.504,392.831,250.357,392.687,247.055,391.513c-1.823-0.648-2.607,2.25-0.798,2.893c7.204,2.56,16.066,1.252,22.795-2.033
				c4.594-2.243,8.482-5.746,11.279-10.016c3.723-5.684,5.358-12.483,5.857-19.189c0.182-2.453,0.206-4.917,0.111-7.374
				c-0.072-1.868,0.172-4.831-1.629-6.028c-1.186-0.789-2.746-0.556-4.087-0.511c-1.661,0.056-3.321,0.111-4.982,0.167
				c-3.487,0.117-6.974,0.233-10.461,0.35c0.5,0.5,1,1,1.5,1.5c-0.181-6.892-0.361-13.784-0.542-20.675
				c-0.02-0.747-0.039-1.495-0.059-2.242c-0.014-0.516-0.244-1.584,0.034-2.065c0.468-0.811,2.654-0.599,3.467-0.601
				c2.556-0.006,5.1,0.335,7.656,0.322c2.367-0.011,4.822-0.342,6.884-1.586c2.36-1.424,3.727-3.798,4.601-6.342
				c2.029-5.907,1.832-12.339,1.111-18.457c-0.178-1.511-0.387-3.018-0.605-4.524c-0.189-1.303-0.288-2.677-0.783-3.909
				c-1.129-2.816-3.89-3.111-6.535-2.564c-6.51,1.344-12.946,3.063-19.44,4.488c-1.204,0.264-2.634,0.592-3.823,0.095
				c-1.108-0.463-1.61-1.584-1.889-2.678c-0.685-2.684-0.508-5.674-0.643-8.422c-0.171-3.47-0.342-6.939-0.513-10.409
				c-0.021-0.417-0.285-1.75,0.007-2.069c0.245-0.267,1.284-0.076,1.583-0.068c1.568,0.045,3.136,0.071,4.705,0.063
				c14.567-0.069,29.111-2.579,42.867-7.365c-0.615-0.349-1.23-0.698-1.845-1.048c5.251,18.084,5.7,37.093,5.118,55.787
				c-0.59,18.932-1.858,38.025-6.931,56.359c-4.33,15.648-11.562,30.813-22.657,42.813c-5.425,5.867-12.004,11.756-20.014,13.565
				c-3.676,0.83-8.004,0.744-11.233-1.419c-3.374-2.26-3.524-6.204-3.079-9.865c0.82-6.75,1.974-13.453,2.72-20.216
				c0.089-0.803,0.174-1.606,0.263-2.409c0.031-0.277,0.063-0.555,0.095-0.832c0.014-0.118,0.029-0.236,0.044-0.354
				c0.026-0.209-0.059,0.343,0.012-0.078c0.048-0.285,0.129-0.57,0.173-0.853c0.05-0.326-0.216,0.337-0.034,0.089
				c-0.193,0.263-0.336,0.422-0.717,0.54c-0.133,0.042-0.815-0.093-0.38,0.061C248.081,395.052,248.865,392.154,247.055,391.513z"/>
		</g>
	</g>
	<g>
		<path d="M211.69,267.61c0,0,1.479,0.22,14.05,0.714c3.273,0.129,7.987,0.055,14.039-0.903c-2.767,27.511,2.28,55.366-0.522,82.873
			c-0.782,7.677-2.172,15.277-3.56,22.867c-1.937,10.589-3.873,21.178-5.81,31.767c-1.444,7.894-2.867,16.17-0.423,23.813
			c2.444,7.643,10.132,14.255,17.981,12.585c-8.947,5.496-18.491,10.019-28.41,13.462c-1.652,0.573-3.443,1.121-5.12,0.625
			c-2.894-0.855-4.055-4.277-4.592-7.247c-6.841-37.785,17.011-76.028,10.615-113.89c-3.781,10.854-9.502,21.029-16.809,29.9
			c-0.75,0.911-1.593,1.857-2.737,2.144c-2.194,0.55-4.108-1.507-5.366-3.387c-5.656-8.451-9.687-17.987-11.807-27.933
			c-0.621,28.467-4.026,56.872-10.151,84.68c-1.723,7.821-3.673,15.746-3.098,23.734c0.575,7.988,4.156,16.234,11.093,20.237
			c-10.741,1.667-21.798,1.271-32.392-1.16c-2.201-0.505-4.5-1.165-6.058-2.799c-1.508-1.583-2.074-3.829-2.394-5.991
			c-1.454-9.826,1.02-19.836,4.588-29.106c3.568-9.27,8.238-18.102,11.466-27.496c4.283-12.465,5.941-25.673,6.948-38.815
			c2.263-29.547,1.344-59.409-3.887-88.577c-0.274-1.529-0.977-4.486,0.576-4.444c8.594,0.237,21.594,0.237,23.612,0.234
			c1.705-0.003,1.834,2.846,2.33,4.477c6.104,20.066,10.301,40.712,12.516,61.568c5.741-10.728,8.943-19.817,9.912-25.954
			c2.931-18.563,3.224-31.088,2.276-38.032C210.511,267.25,211.031,267.512,211.69,267.61z"/>
		<g>
			<path d="M211.292,269.057c2.24,0.324,4.546,0.334,6.801,0.441c3.424,0.163,6.861,0.384,10.29,0.375
				c3.954-0.01,7.89-0.399,11.795-1.005c-0.633-0.482-1.266-0.964-1.899-1.446c-2.553,25.813,1.669,51.693-0.073,77.529
				c-0.875,12.989-3.585,25.781-5.922,38.564c-1.192,6.516-2.384,13.033-3.575,19.549c-1.111,6.077-2.351,12.263-2.015,18.473
				c0.325,5.999,2.212,11.751,6.467,16.114c3.837,3.934,9.184,6.206,14.682,5.123c-0.385-0.914-0.771-1.828-1.156-2.742
				c-4.738,2.901-9.631,5.542-14.667,7.889c-2.503,1.167-5.039,2.262-7.608,3.277c-2.539,1.004-5.21,2.237-7.897,2.774
				c-5.225,1.044-5.807-5.974-6.277-9.571c-0.652-4.998-0.787-10.059-0.566-15.091c0.914-20.749,7.734-40.634,11.033-61.025
				c1.844-11.399,2.575-22.964,0.676-34.407c-0.263-1.586-2.452-1.255-2.893,0c-3.139,8.945-7.592,17.402-13.181,25.059
				c-1.304,1.787-2.635,3.893-4.316,5.353c-1.745,1.516-3.451-0.381-4.47-1.816c-2.743-3.862-4.995-8.162-6.907-12.486
				c-2.183-4.937-3.813-10.113-4.953-15.386c-0.365-1.692-2.909-1.254-2.946,0.399c-0.417,18.654-1.999,37.282-4.796,55.731
				c-1.402,9.25-3.1,18.455-5.092,27.596c-1.902,8.727-4.309,17.744-3.198,26.748c0.972,7.875,4.638,15.714,11.672,19.871
				c0.119-0.914,0.239-1.828,0.358-2.742c-5.714,0.87-11.518,1.142-17.289,0.84c-5.404-0.284-11.06-0.907-16.251-2.506
				c-2.427-0.747-4.128-2.099-4.889-4.575c-0.744-2.419-0.901-5.057-0.935-7.572c-0.076-5.544,0.955-11.022,2.527-16.321
				c3.184-10.73,8.603-20.597,12.598-31.019c3.994-10.419,6.084-21.385,7.335-32.442c2.58-22.8,2.84-46.029,0.963-68.891
				c-0.464-5.649-1.075-11.285-1.831-16.902c-0.391-2.904-0.818-5.802-1.289-8.694c-0.367-2.253-0.975-4.543-1.147-6.82
				c-0.009-0.12,0.057-0.805-0.001-0.847c0.008,0.006-0.554,0.268-0.546,0.308c0.002,0.011,0.578,0.015,0.661,0.018
				c1.108,0.028,2.217,0.052,3.325,0.072c2.166,0.039,4.332,0.067,6.498,0.088c3.667,0.035,7.334,0.053,11.001,0.057
				c0.495,0.001,0.989,0.001,1.484,0.001c0.144,0,0.382-0.044,0.515,0c0.149,0.049,0.024-0.076,0.187,0.245
				c0.357,0.703,0.444,1.568,0.62,2.329c0.278,1.203,0.683,2.379,1.032,3.563c1.606,5.452,3.073,10.945,4.398,16.472
				c2.655,11.078,4.753,22.296,6.245,33.59c0.367,2.778,0.696,5.56,0.994,8.346c0.145,1.358,2.03,2.194,2.795,0.757
				c4.324-8.113,8.495-16.916,10.023-26.062c1.574-9.425,2.698-19.039,2.841-28.602c0.028-1.876,0.011-3.753-0.08-5.627
				c-0.037-0.756-0.085-1.512-0.151-2.266c-0.03-0.345-0.063-0.689-0.1-1.034c-0.019-0.177-0.11-1.015-0.155-0.876
				c-0.482,0.367-0.964,0.734-1.446,1.101C210.733,268.916,211.133,269.026,211.292,269.057c1.886,0.366,2.694-2.525,0.798-2.893
				c-0.473-0.092-1.012-0.293-1.498-0.229c-0.693,0.091-1.224,0.408-1.446,1.101c-0.189,0.587,0.007,1.274,0.069,1.875
				c0.07,0.681,0.126,1.363,0.17,2.046c0.098,1.509,0.141,3.021,0.15,4.534c0.023,3.964-0.186,7.928-0.511,11.878
				c-0.755,9.186-1.666,18.589-4.728,27.332c-1.945,5.555-4.46,10.895-7.226,16.084c0.932,0.252,1.863,0.505,2.795,0.757
				c-1.274-11.915-3.16-23.762-5.692-35.475c-1.251-5.79-2.657-11.547-4.216-17.262c-0.801-2.935-1.653-5.855-2.523-8.77
				c-0.506-1.698-0.59-3.901-1.924-5.211c-0.957-0.94-2.205-0.827-3.432-0.827c-1.589-0.001-3.178-0.005-4.767-0.011
				c-4.413-0.018-8.825-0.052-13.237-0.131c-1.057-0.019-2.113-0.04-3.17-0.066c-0.99-0.024-1.975-0.096-2.718,0.685
				c-1.226,1.288-0.695,3.489-0.413,5.031c1.066,5.832,1.95,11.699,2.665,17.584c2.922,24.072,3.111,48.445,1.17,72.603
				c-0.943,11.74-2.477,23.511-6.046,34.774c-3.527,11.128-9.275,21.37-13.175,32.355c-1.97,5.549-3.443,11.298-3.932,17.179
				c-0.23,2.767-0.223,5.556,0.084,8.316c0.275,2.473,0.653,5.118,2.064,7.236c1.389,2.085,3.564,3.241,5.916,3.935
				c2.713,0.8,5.554,1.278,8.348,1.692c5.908,0.875,11.888,1.182,17.853,0.848c2.928-0.164,5.842-0.489,8.741-0.931
				c1.332-0.203,1.378-2.139,0.358-2.742c-6.035-3.566-9.252-10.37-10.167-17.125c-1.178-8.696,1.177-17.438,3.019-25.867
				c3.866-17.695,6.632-35.633,8.297-53.668c0.943-10.208,1.521-20.447,1.75-30.695c-0.982,0.133-1.964,0.266-2.946,0.399
				c1.134,5.251,2.784,10.356,4.902,15.292c2.039,4.752,4.475,9.593,7.587,13.744c1.306,1.742,3.116,3.491,5.447,3.476
				c2.556-0.017,4.145-2.225,5.579-4.031c3.247-4.09,6.187-8.416,8.756-12.963c2.927-5.18,5.371-10.628,7.341-16.242
				c-0.964,0-1.929,0-2.893,0c3.552,21.399-2.577,42.793-7.124,63.544c-2.273,10.372-4.284,20.877-4.71,31.51
				c-0.21,5.246,0.002,10.495,0.721,15.698c0.56,4.056,1.322,9.742,5.824,11.327c2.926,1.03,6.086-0.439,8.811-1.443
				c2.977-1.097,5.918-2.293,8.821-3.575c5.988-2.644,11.787-5.698,17.369-9.116c1.495-0.915,0.487-3.065-1.156-2.742
				c-4.626,0.911-9.066-1.422-12.145-4.755c-3.665-3.966-5.094-9.203-5.244-14.506c-0.169-5.981,1.054-11.883,2.124-17.736
				c1.147-6.272,2.294-12.544,3.441-18.816c2.254-12.325,4.849-24.664,5.843-37.173c0.993-12.495,0.497-25.042-0.013-37.547
				c-0.57-13.969-1.151-27.984,0.228-41.926c0.106-1.07-1.038-1.58-1.899-1.446c-7.116,1.105-14.125,0.863-21.287,0.523
				c-1.741-0.083-3.484-0.166-5.223-0.288c-0.231-0.016-1.721-0.181-0.781-0.046C210.201,265.891,209.385,268.781,211.292,269.057z"
				/>
		</g>
	</g>
	<g>
		<path d="M107.508,405.26c8.992-21.76,11.638-38.997,13.098-60.055c0.572-8.251-0.171-13.758-2.911-19.976
			c-2.736-6.209-8.346-11.537-15.098-12.205c11.31-2.453,22.774-4.2,34.302-5.228c1.069-0.095,2.206-0.172,3.156,0.327
			c1.425,0.748,1.941,2.498,2.298,4.067c8.799,38.712,3.801,80.414-13.899,115.95c-3.155,6.333-6.763,12.684-7.504,19.721
			c-0.474,4.501,0.607,9.646,4.391,12.13c-9.835-2.35-19.319-6.161-28.045-11.269c-1.186-0.694-2.407-1.461-3.091-2.653
			c0,0-0.758-1.127-0.75-2.609c0.046-8.961,5.975-20.893,5.975-20.893C102.5,416.5,105.077,411.145,107.508,405.26z"/>
		<g>
			<path d="M108.955,405.659c5.609-13.621,9.428-27.756,11.385-42.356c0.958-7.152,1.781-14.439,1.933-21.659
				c0.133-6.283-0.929-12.502-3.747-18.162c-3.101-6.228-8.882-11.172-15.929-11.958c0.133,0.982,0.266,1.964,0.399,2.946
				c7.011-1.514,14.076-2.772,21.183-3.744c3.581-0.49,7.174-0.903,10.772-1.25c1.266-0.122,3.342-0.667,4.492,0.029
				c1.08,0.654,1.307,2.391,1.559,3.51c2.799,12.395,4.13,25.111,4.094,37.814c-0.073,25.622-5.78,51.278-16.881,74.39
				c-3.093,6.441-6.955,12.753-8.349,19.85c-1.133,5.767-0.528,12.613,4.717,16.217c0.385-0.914,0.771-1.828,1.156-2.742
				c-5.888-1.42-11.665-3.324-17.209-5.766c-2.693-1.186-5.335-2.488-7.917-3.901c-1.803-0.987-4.512-2.027-5.38-4.056
				c-0.841-1.966-0.04-4.933,0.38-6.934c0.491-2.339,1.173-4.637,1.957-6.894c0.9-2.59,1.918-5.157,3.129-7.62
				C103.578,417.519,106.453,411.69,108.955,405.659c0.739-1.782-2.163-2.558-2.893-0.798c-2.397,5.779-5.175,11.364-7.939,16.971
				c-1.331,2.7-2.458,5.523-3.445,8.364c-0.824,2.372-1.535,4.789-2.031,7.252c-0.476,2.362-1.108,5.248-0.48,7.629
				c0.611,2.318,2.384,3.768,4.371,4.941c2.728,1.611,5.546,3.076,8.416,4.416c6.412,2.995,13.108,5.344,19.987,7.004
				c1.697,0.41,2.544-1.788,1.156-2.742c-4.756-3.267-4.124-10.353-2.78-15.174c1.749-6.277,5.195-11.922,7.96-17.776
				c5.539-11.728,9.761-24.073,12.569-36.735c5.583-25.178,5.735-51.617,0.049-76.793c-0.716-3.171-2.117-5.961-5.779-5.992
				c-1.856-0.016-3.756,0.302-5.598,0.495c-2.107,0.221-4.212,0.467-6.314,0.737c-8.057,1.033-16.065,2.404-24.006,4.119
				c-1.781,0.385-1.161,2.773,0.399,2.946c5.847,0.652,10.564,5.104,13.173,10.146c2.715,5.248,3.624,11.122,3.502,16.974
				c-0.143,6.875-0.913,13.818-1.798,20.633c-0.841,6.482-2.029,12.923-3.624,19.262c-2.002,7.961-4.665,15.734-7.789,23.321
				C105.327,406.645,108.228,407.422,108.955,405.659z"/>
		</g>
	</g>
	<g>
		<path d="M96.382,299.106c0,0,27.118-1.606,47.941-9.582c0.335-0.128,0.988-0.333,1.355-0.922c0.293-0.469,0.269-1.062,0.236-1.614
			c-0.491-8.225-0.982-16.45-1.474-24.675c-16.386,3.794-32.771,7.588-49.157,11.381c-7.587,1.757-15.279,3.524-23.063,3.26
			s-15.8-2.802-21.124-8.485c-6.004,11.57-9.453,24.458-10.029,37.48c5.713-2.024,11.693-3.292,17.736-3.759
			c-1.34,5.391-2.91,10.721-4.267,16.108c-7.319,29.055-8.087,60.782,4.217,88.102c4.041,8.973,9.853,17.725,18.66,22.117
			c1.933,0.964,4.342,1.672,6.166,0.515c1.529-0.969,2.082-2.893,2.552-4.641c2.8-10.417,6.797-20.512,11.888-30.022
			c-5.782,1.395-11.993-1.603-15.697-6.256c-3.704-4.654-5.264-10.673-5.887-16.589C75.5,353.5,79.5,336.5,80.989,318.46
			c0.354-4.284,0.305-8.666,1.855-12.676c0.661-1.711,1.273-2.783,2.29-3.654c0.665-0.569,1.871-1.371,7.875-2.468
			C94.561,299.378,95.338,299.236,96.382,299.106z"/>
		<g>
			<path d="M96.382,300.606c6.219-0.371,12.436-1.19,18.585-2.165c5.768-0.914,11.506-2.051,17.161-3.511
				c2.982-0.77,5.942-1.632,8.861-2.617c2.366-0.799,6.19-1.432,6.43-4.487c0.16-2.031-0.207-4.234-0.328-6.267
				c-0.128-2.138-0.255-4.277-0.383-6.415c-0.255-4.277-0.511-8.554-0.766-12.831c-0.059-0.996-0.908-1.676-1.899-1.446
				c-12.979,3.005-25.957,6.01-38.936,9.015c-6.254,1.448-12.495,3.025-18.8,4.24c-6.034,1.162-12.323,1.896-18.44,0.937
				c-5.884-0.922-11.551-3.289-15.709-7.649c-0.641-0.673-1.917-0.547-2.356,0.304c-6.115,11.856-9.61,24.912-10.234,38.237
				c-0.043,0.929,1,1.761,1.899,1.446c5.604-1.964,11.416-3.227,17.337-3.706c-0.482-0.633-0.964-1.266-1.446-1.899
				c-1.63,6.525-3.571,12.969-5.094,19.521c-1.395,6.001-2.485,12.069-3.263,18.181c-1.534,12.05-1.769,24.302-0.213,36.363
				c1.538,11.915,4.75,23.72,10.183,34.471c2.398,4.745,5.34,9.295,9.075,13.103c1.878,1.915,3.977,3.637,6.252,5.06
				c2.21,1.382,4.853,2.826,7.547,2.619c3.252-0.25,4.787-2.95,5.588-5.791c0.97-3.442,1.961-6.867,3.136-10.247
				c2.389-6.869,5.324-13.529,8.746-19.945c0.629-1.179-0.405-2.493-1.694-2.203c-7.089,1.594-13.523-3.549-16.537-9.566
				c-3.613-7.213-3.516-15.544-3.138-23.401c0.413-8.589,1.621-17.11,2.745-25.628c0.558-4.23,1.096-8.463,1.512-12.71
				c0.409-4.17,0.337-8.487,1.243-12.589c0.412-1.868,1.005-4.094,2.388-5.501c0.15-0.153,0.31-0.296,0.475-0.433
				c-0.367,0.303-0.057,0.039,0.047-0.02c0.222-0.125,0.599-0.335,0.721-0.388C89.771,301.507,93.37,300.994,96.382,300.606
				c1.888-0.243,1.913-3.246,0-3c-3.235,0.416-6.632,0.924-9.71,2.041c-2.002,0.727-3.465,1.922-4.462,3.866
				c-2.004,3.908-2.283,8.345-2.559,12.645c-0.303,4.721-0.842,9.425-1.435,14.118c-1.168,9.243-2.595,18.465-3.166,27.771
				c-0.535,8.718-0.674,17.773,2.999,25.894c3.493,7.722,11.577,13.851,20.369,11.875c-0.565-0.734-1.129-1.469-1.694-2.203
				c-2.889,5.418-5.439,11.014-7.624,16.753c-1.097,2.88-2.1,5.796-3.007,8.741c-0.408,1.326-0.796,2.657-1.165,3.994
				c-0.348,1.261-0.592,2.664-1.313,3.778c-1.522,2.352-4.588,0.843-6.473-0.197c-2.249-1.241-4.298-2.786-6.153-4.56
				c-3.722-3.561-6.602-7.888-8.979-12.435c-10.666-20.406-12.825-44.534-10.371-67.123c0.7-6.445,1.802-12.843,3.224-19.167
				c1.573-6.993,3.651-13.855,5.388-20.807c0.219-0.878-0.443-1.98-1.446-1.899c-6.189,0.5-12.274,1.759-18.134,3.813
				c0.633,0.482,1.266,0.964,1.899,1.446c0.598-12.781,3.959-25.351,9.824-36.723c-0.785,0.101-1.571,0.202-2.356,0.304
				c8.291,8.695,20.989,9.874,32.264,8.291c6.647-0.934,13.177-2.632,19.709-4.145c6.652-1.54,13.303-3.08,19.955-4.62
				c7.625-1.765,15.25-3.531,22.875-5.296c-0.633-0.482-1.266-0.964-1.899-1.446c0.432,7.238,0.865,14.476,1.297,21.714
				c0.049,0.822,0.101,1.645,0.147,2.467c0.034,0.596,0.22,1.139-0.27,1.511c-0.501,0.381-1.45,0.546-2.044,0.759
				c-0.75,0.27-1.503,0.53-2.259,0.782c-2.732,0.911-5.5,1.716-8.287,2.44c-9.562,2.483-19.361,4.095-29.184,5.105
				c-1.982,0.204-3.969,0.396-5.959,0.514C94.464,297.72,94.45,300.721,96.382,300.606z"/>
		</g>
	</g>
</g>
</svg>
