<?xml version="1.0" encoding="iso-8859-1"?>
<!-- Generator: Adobe Illustrator 26.2.1, SVG Export Plug-In . SVG Version: 6.00 Build 0)  -->
<svg version="1.1" xmlns="http://www.w3.org/2000/svg" xmlns:xlink="http://www.w3.org/1999/xlink" x="0px" y="0px"
	viewBox="0 0 700 500" style="enable-background:new 0 0 700 500;" xml:space="preserve">
	<g id="Layer_1">
		<g>
			<path style="fill:#051A4C;" d="M541.965,159.003c11.648-0.497,23.176-3.72,33.452-9.353c5.012-2.747,9.809-6.138,13.265-10.757
			c7.934-10.602,7.421-25.406,12.671-37.631c4.729-11.013,14.847-19.874,26.526-21.262c11.679-1.388,24.268,5.766,27.867,17.218
			c4.346,13.831-4.547,28.412-14.993,38.254c-10.446,9.842-23.152,17.82-30.124,30.477c-2.834,5.145-4.6,11.282-3.064,16.974
			c1.665,6.173,7.31,10.912,13.521,11.707c6.211,0.795,12.669-2.224,16.42-7.351c3.069-4.195,4.355-9.468,6.956-13.982
			c4.47-7.758,14.964-12.848,22.283-7.845c3.345,2.287,5.328,6.168,6.554,10.088c4.208,13.457,0.444,29.183-9.366,39.128
			c-5.804,5.884-13.309,9.683-19.551,15.077c-6.241,5.394-11.411,13.465-9.839,21.668c2.229,11.628,15.678,16.356,23.8,24.805
			c7.431,7.729,10.417,19.636,7.542,30.07c-6.765,24.552-40.079,33.855-46.022,58.629c-2.408,10.037,0.346,20.599-0.434,30.903
			c-1.495,19.756-18.902,37.351-38.069,40.205c-0.396-13.739-0.821-27.436-3.896-40.816c-3.66-15.924-7.841-31.33-13.336-46.692
			c-7.489-20.932-16.305-39.146-23.794-60.078c-0.447-1.249-4.691-0.09-4.775-1.417c-0.208-3.277,6.338-5.695,6.837-8.938
			c1.133-7.37,0.696-16.768,0.566-22.557c-0.761-33.738,0.185-54.285-0.761-86.739L541.965,159.003z" />
			<g>
				<path style="fill:#051A4C;" d="M541.965,160.503c12.986-0.609,25.934-4.357,37.029-11.195c5.055-3.116,9.606-7.059,12.68-12.195
				c2.94-4.911,4.512-10.494,5.796-16.028c1.349-5.811,2.407-11.726,4.494-17.334c1.959-5.264,5.071-10.057,9.143-13.931
				c7.866-7.483,19.075-10.758,29.373-6.554c4.85,1.98,9.164,5.468,11.851,9.988c2.931,4.93,3.649,10.865,2.546,16.449
				c-2.393,12.107-11.233,21.491-20.271,29.258c-8.782,7.547-18.349,14.678-24.421,24.755c-3.126,5.188-5.338,11.3-4.494,17.429
				c0.734,5.334,4.034,10.017,8.668,12.72c4.628,2.7,10.272,3.089,15.264,1.17c5.434-2.088,9.252-6.205,11.722-11.395
				c2.547-5.351,4.197-11.026,8.99-14.884c3.791-3.052,9.303-5.029,14.006-2.943c5.372,2.382,7.537,8.951,8.543,14.276
				c1.042,5.515,0.757,11.291-0.656,16.713c-1.409,5.408-3.943,10.578-7.57,14.85c-4.095,4.823-9.437,8.253-14.566,11.858
				c-9.062,6.369-19.17,15.731-17.047,28.023c1.723,9.978,11.423,15.359,18.773,20.978c4.294,3.283,8.011,7.022,10.44,11.911
				c2.53,5.092,3.584,10.895,3.079,16.552c-0.85,9.526-6.648,17.47-13.244,23.991c-12.534,12.391-30.778,22.7-34.088,41.523
				c-2.265,12.883,2.303,26.002-2.062,38.652c-3.514,10.184-11.122,18.886-20.402,24.254c-4.513,2.611-9.429,4.381-14.583,5.183
				c0.633,0.482,1.266,0.964,1.899,1.446c-0.323-11.192-0.685-22.413-2.455-33.488c-1.775-11.106-4.843-22.121-7.94-32.922
				c-6.104-21.285-14.743-41.506-23.104-61.964c-2.042-4.997-4.036-10.015-5.922-15.073c-0.482-1.292-0.942-2.592-1.424-3.884
				c-0.283-0.758-0.476-1.409-1.182-1.87c-0.531-0.347-1.192-0.44-1.808-0.502c-0.275-0.028-2.151-0.289-2.282-0.126
				c-0.202,0.252,0.146,0.441,0.38,0.296c0.128-0.08,0.27-0.519,0.371-0.667c0.397-0.582,0.962-1.068,1.483-1.535
				c1.314-1.178,2.772-2.219,3.838-3.646c1.076-1.44,1.186-3.086,1.376-4.826c0.282-2.589,0.399-5.194,0.443-7.797
				c0.171-9.904-0.353-19.833-0.44-29.739c-0.083-9.525-0.055-19.05-0.041-28.575c0.025-16.909-0.283-33.801-0.687-50.704
				c-0.046-1.927-3.046-1.934-3,0c0.814,34,0.411,68.001,1.133,102.001c0.105,4.934,0.128,9.901-0.409,14.813
				c-0.206,1.878-0.432,2.849-1.796,4.143c-1.288,1.222-2.783,2.237-3.928,3.606c-0.851,1.018-1.688,2.466-1.354,3.854
				c0.359,1.493,1.864,1.733,3.171,1.821c0.424,0.028,1.261-0.131,1.655,0.069c0.49,0.249,0.853,2.027,1.129,2.777
				c1.021,2.77,2.076,5.527,3.154,8.274c8.047,20.496,17.232,40.506,23.808,61.558c3.728,11.936,7.071,24.112,9.568,36.369
				c2.528,12.409,2.898,25.118,3.262,37.737c0.031,1.059,0.929,1.597,1.899,1.446c10.634-1.655,20.432-7.49,27.554-15.481
				c7.504-8.42,11.745-18.915,11.761-30.214c0.01-7.086-1.126-14.159-0.57-21.246c0.409-5.216,2.022-10.144,4.72-14.616
				c4.785-7.931,12.132-13.964,19.083-19.916c6.96-5.961,14.141-12.074,18.953-19.992c5.452-8.97,6.774-19.88,3.036-29.774
				c-1.961-5.192-5.121-9.698-9.292-13.351c-3.819-3.345-8.133-6.049-12.08-9.229c-3.721-2.997-7.291-6.542-8.614-11.273
				c-1.707-6.106,0.901-12.337,4.741-17.064c7.789-9.588,20.23-13.839,27.607-23.927c6.601-9.026,9.161-20.863,7.169-31.833
				c-0.985-5.425-3.081-11.341-7.575-14.841c-3.978-3.099-9.269-3.408-13.893-1.657c-4.757,1.801-8.841,5.315-11.34,9.746
				c-3.053,5.413-4.324,11.942-9.126,16.226c-4.408,3.933-10.917,5.463-16.433,3.063c-5.452-2.371-8.981-7.71-8.96-13.649
				c0.023-6.521,3.461-12.67,7.351-17.699c3.65-4.719,8.084-8.778,12.596-12.653c9.213-7.913,18.933-15.341,24.958-26.151
				c5.502-9.871,7.329-22.393,0.307-32.038c-6.015-8.262-16.633-12.732-26.745-11.282c-10.905,1.564-20.244,9.273-25.406,18.791
				c-5.717,10.54-5.712,22.926-10.292,33.865c-5.113,12.209-17.674,18.856-29.715,22.707c-6.353,2.032-12.926,3.208-19.587,3.52
				C540.042,157.593,540.031,160.594,541.965,160.503z" />
			</g>
		</g>
		<g>
			<path style="fill:#051A4C;" d="M207.713,183.58c-0.266,28.697,0.311,56.436,0.467,84.653c0.021,3.832,2.938,7.307,3.552,11.087
			c1.029,6.344,14.313,9.062,10.302,10.066c-8.25,2.066-9.508,5.854-10.198,8.093c-3.06,9.928-5.982,18.652-8.75,28.605
			c-10.322,37.107-19.549,73.737-24.449,113.25c-0.242,1.95-0.111,4.03-1.084,5.725c-0.967,1.686-2.707,2.753-4.477,3.491
			c-7.693,3.207-17.247,0.95-22.786-5.384c-2.609-2.983-4.35-6.706-7.147-9.505c-4.904-4.906-12.197-6.198-19.033-6.761
			c-14.934-1.229-29.984-0.114-44.915-1.376s-30.242-5.202-41.689-15.091c-5.936-5.128-10.77-12.074-11.729-19.961
			c-0.96-7.887,2.727-16.623,9.823-19.858c10.228-4.662,21.374,3.017,30.992,8.881c15.028,9.163,32.231,14.563,49.696,15.599
			c12.633,0.75,27.949-2.686,32.164-14.893c4.042-11.706-5.75-24.665-17.444-27.98c-5.661-1.605-11.677-1.591-17.311-3.292
			s-11.226-5.859-11.988-11.818c-0.882-6.899,4.913-12.752,10.752-16.319c12.258-7.487,27.375-10.885,36.753-21.897
			c1.532-1.799,2.906-3.848,3.336-6.193c0.975-5.316-3.371-10.429-8.391-12.122s-10.48-0.844-15.698,0.022
			c-7.502,1.245-15.003,2.489-22.505,3.734c-10.724,1.779-23.905,2.578-30.148-6.518c-5.635-8.21-1.711-20.077,5.263-27.13
			c6.974-7.053,16.319-11.011,24.352-16.765s15.245-14.727,14.208-24.703c-0.602-5.793-3.883-10.868-6.88-15.822
			c-9.509-15.718-17.043-32.709-22.059-50.468c-3.248-11.5-5.084-25.038,2.122-34.468c6.467-8.464,19.691-10.417,28.234-4.17
			c9.568,6.996,11.517,20.64,11.252,32.669c-0.265,12.029-1.765,24.797,3.679,35.462c6.137,12.025,19.976,18.257,33.225,18.789
			c13.249,0.532,24.294-3.327,36.918-7.476l1.328-2.718L207.713,183.58z" />
			<g>
				<path style="fill:#051A4C;" d="M206.213,183.58c-0.218,24.196,0.163,48.391,0.378,72.585c0.027,3.016,0.051,6.031,0.071,9.047
				c0.018,2.716,0.051,5.124,1.069,7.681c0.932,2.34,2.02,4.502,2.582,6.971c0.319,1.399,1.045,2.608,1.995,3.672
				c1.927,2.158,4.609,3.542,7.132,4.87c0.468,0.246,0.94,0.486,1.396,0.754c0.168,0.099,0.384,0.303,0.567,0.348
				c0.224,0.055,0.015,0.108,0.083,0.043c-0.09,0.086,0.333-1.68,0.341-1.664c-0.083-0.156,0.274,0.093-0.02,0.007
				c-0.294-0.086-1.061,0.282-1.359,0.37c-1.138,0.336-2.257,0.751-3.335,1.249c-2.732,1.263-5.029,3.252-6.192,6.066
				c-1.768,4.28-2.863,8.944-4.254,13.361c-3.502,11.124-6.625,22.348-9.641,33.612c-6.032,22.533-11.496,45.232-15.576,68.207
				c-1.038,5.848-1.988,11.712-2.839,17.591c-0.418,2.883-0.812,5.77-1.183,8.659c-0.305,2.373-0.02,5.724-1.455,7.74
				c-2.62,3.68-9.2,4.165-13.236,3.535c-4.574-0.714-8.799-3.038-11.756-6.607c-3.207-3.87-5.261-8.381-9.506-11.326
				c-3.891-2.699-8.632-3.873-13.26-4.504c-11.699-1.595-23.65-0.995-35.423-1.196c-20.45-0.349-44.105-3.001-58.43-19.448
				c-6.161-7.073-9.647-17.199-5.195-26.07c2.083-4.151,5.625-7.244,10.239-8.177c5.11-1.034,10.371,0.875,14.89,3.123
				c4.817,2.396,9.255,5.445,13.912,8.122c4.718,2.712,9.642,5.056,14.706,7.046c10.174,3.999,20.946,6.443,31.848,7.249
				c8.139,0.602,16.737-0.137,24.131-3.843c7.089-3.554,12.273-10.497,11.968-18.661c-0.318-8.525-6.037-16.219-13.19-20.486
				c-4.309-2.571-9.087-3.507-13.998-4.204c-5.14-0.729-10.449-1.364-14.877-4.297c-3.913-2.592-6.602-6.946-5.365-11.734
				c1.206-4.668,5.211-8.256,9.125-10.767c8.02-5.144,17.196-8.135,25.459-12.836c4.008-2.28,7.837-4.983,11.021-8.339
				c3.17-3.341,5.86-7.403,4.925-12.208c-0.837-4.305-4.362-7.871-8.299-9.551c-5.065-2.161-10.756-1.505-16.035-0.667
				c-5.936,0.942-11.86,1.963-17.789,2.947c-4.89,0.811-9.776,1.752-14.733,2.03c-8.142,0.456-18.231-0.973-21.534-9.691
				c-3.392-8.956,2.195-18.804,8.841-24.576c7.711-6.695,17.473-10.465,25.228-17.107c7.07-6.056,12.808-14.869,11.317-24.545
				c-0.791-5.135-3.513-9.705-6.166-14.076c-2.908-4.792-5.675-9.662-8.224-14.655c-5.178-10.141-9.519-20.702-12.913-31.572
				c-2.931-9.387-5.842-19.816-3.583-29.668c2.041-8.9,9.061-15.433,18.339-15.842c9.102-0.402,16.192,5.512,19.407,13.739
				c7.327,18.753-2.741,40.411,7.458,58.405c4.414,7.788,12.104,13.123,20.464,15.959c9.53,3.233,19.818,3.035,29.593,1.074
				c5.221-1.048,10.323-2.6,15.384-4.239c1.317-0.426,2.631-0.859,3.946-1.292c0.95-0.313,2.154-0.451,2.758-1.319
				c0.549-0.789,0.896-1.833,1.319-2.698c-0.932-0.252-1.863-0.505-2.795-0.757C206.036,181.872,206.124,182.726,206.213,183.58
				c0.197,1.901,3.199,1.922,3,0c-0.089-0.854-0.177-1.707-0.266-2.561c-0.138-1.326-2.074-2.233-2.795-0.757
				c-0.443,0.906-0.886,1.812-1.328,2.718c0.299-0.23,0.598-0.46,0.896-0.689c-10.733,3.531-21.569,7.261-32.987,7.461
				c-9.42,0.165-19.029-2.147-26.685-7.825c-3.655-2.711-6.703-6.204-8.777-10.26c-2.505-4.895-3.455-10.427-3.746-15.87
				c-0.542-10.149,1.039-20.309-0.306-30.427c-1.129-8.491-4.238-17.162-11.417-22.372c-6.709-4.869-16.083-4.978-23.309-1.2
				c-8.277,4.327-11.917,13.364-12.151,22.319c-0.27,10.346,3.037,20.649,6.393,30.307c3.716,10.695,8.329,21.085,13.73,31.036
				c2.617,4.821,5.62,9.416,8.253,14.224c2.561,4.676,4.274,9.781,3.122,15.138c-2.175,10.114-11.07,16.783-19.39,21.863
				c-8.298,5.067-17.48,9.867-22.714,18.424c-4.546,7.432-6.129,17.504-0.295,24.707c5.446,6.724,14.844,7.593,22.886,6.982
				c5.031-0.383,10.004-1.342,14.975-2.167c5.918-0.982,11.829-2.027,17.759-2.936c5.361-0.822,11.622-1.34,16.153,2.241
				c1.884,1.489,3.425,3.581,3.858,5.98c0.462,2.555-0.635,4.927-2.131,6.938c-5.78,7.767-15.247,11.912-23.784,15.829
				c-8.248,3.785-18.245,7.717-23.024,15.976c-2.222,3.84-2.696,8.419-0.765,12.479c1.877,3.946,5.649,6.739,9.595,8.391
				c5.16,2.16,10.839,2.322,16.272,3.358c4.67,0.891,8.932,2.678,12.546,5.818c6.487,5.636,10.573,14.982,6.334,23.17
				c-3.8,7.34-12.323,10.444-20.066,11.427c-9.887,1.255-20.268-0.411-29.837-2.89c-10.876-2.817-21.041-7.39-30.592-13.27
				c-8.172-5.031-18.253-11.73-28.328-8.755c-8.448,2.495-13.212,11.251-13.166,19.702c0.053,9.695,6.138,18.396,13.403,24.316
				c7.873,6.416,17.429,10.325,27.286,12.501c11.082,2.446,22.465,2.738,33.769,2.806c6.244,0.038,12.49,0.015,18.729,0.277
				c5.3,0.223,10.737,0.458,15.875,1.889c5.091,1.419,8.844,4.176,11.825,8.519c2.766,4.031,5.388,7.85,9.769,10.277
				c3.846,2.131,8.374,3.149,12.761,2.74c4.189-0.39,9.573-1.947,11.543-6.067c1.022-2.137,0.884-4.707,1.174-7.009
				c0.386-3.067,0.802-6.131,1.245-9.191c0.851-5.878,1.801-11.743,2.839-17.591c2.065-11.633,4.482-23.201,7.152-34.709
				c5.305-22.861,11.295-45.641,18.352-68.026c0.88-2.792,1.765-5.583,2.636-8.378c0.446-1.43,0.778-2.994,1.476-4.336
				c1.731-3.333,5.369-4.207,8.643-5.321c2.42-0.824,1.77-2.956,0.007-4.062c-2.272-1.425-4.803-2.377-6.9-4.092
				c-1.026-0.839-2.005-1.842-2.405-3.135c-0.69-2.229-1.332-4.304-2.278-6.458c-0.504-1.149-1.006-2.34-1.232-3.582
				c-0.269-1.48-0.128-3.079-0.138-4.581c-0.021-3.127-0.046-6.254-0.074-9.38c-0.109-12.035-0.26-24.07-0.354-36.105
				c-0.093-11.937-0.126-23.874-0.018-35.811C209.23,181.649,206.23,181.647,206.213,183.58z" />
			</g>
		</g>
	</g>
	<g id="Layer_2">
		<g>
			<path style="fill:#BFA174;" d="M207.238,78.409c0.209,44.172,0.209,133.867,1.314,184.476c0.08,3.677-0.871,13.21,4.882,19.776
			c5.243,5.984,14.09,6.453,21.945,6.479c97.842,0.326,195.236-0.759,293.486-2.761c3.113-0.063,6.704-1.237,8.99-3.4
			c4.344-4.111,5.015-9.099,5.064-14.411c0.609-65.805-0.588-131.5-3.134-197.208c-0.22-5.69-0.65-11.917-4.469-16.06
			c-4.42-4.796-11.672-5.03-18.114-4.934c-29.568,0.44-59.137,0.881-88.705,1.321c-67.213,1.001-134.427,2.002-201.64,3.003
			c-6.79,0.101-15.424-0.061-18.366,6.693c-1.046,2.401-1.338,2.851-1.354,3.223c-0.01,0.224,0.048,0.259,0.125,0.749
			c0.2,1.271,0.193,2.271,0.186,2.865C207.333,77.279,207.238,78.409,207.238,78.409z" />
			<g>
				<path style="fill:#051A4C;" d="M204.238,78.409c0.131,27.809,0.169,55.618,0.292,83.426c0.134,30.383,0.293,60.77,0.828,91.149
				c0.055,3.11,0.118,6.221,0.182,9.331c0.056,2.695-0.076,5.384,0.178,8.073c0.756,8.002,4.325,15.631,12.033,19.013
				c7.958,3.491,17.171,2.742,25.651,2.763c10.468,0.027,20.937,0.037,31.405,0.033c41.844-0.019,83.688-0.285,125.529-0.758
				c41.727-0.472,83.451-1.15,125.172-1.991c4.655-0.094,9.208-0.348,13.098-3.228c3.378-2.501,5.669-6.304,6.591-10.383
				c1.027-4.54,0.743-9.341,0.778-13.96c0.038-5.129,0.065-10.259,0.081-15.388c0.067-20.953-0.044-41.907-0.319-62.858
				c-0.274-20.944-0.712-41.885-1.299-62.823c-0.293-10.47-0.624-20.938-0.989-31.406c-0.187-5.346-0.383-10.692-0.587-16.037
				c-0.162-4.222-0.234-8.566-1.38-12.664c-1.147-4.102-3.468-7.694-7.083-10.026c-3.438-2.218-7.62-2.954-11.635-3.216
				c-4.505-0.294-9.058-0.041-13.566,0.027c-5.336,0.079-10.671,0.159-16.007,0.238c-20.898,0.311-41.796,0.623-62.694,0.934
				c-41.978,0.625-83.955,1.25-125.932,1.876c-20.879,0.311-41.757,0.622-62.636,0.933c-5.164,0.077-10.327,0.159-15.491,0.23
				c-3.538,0.049-7.118,0.09-10.589,0.858c-3.523,0.779-6.737,2.499-8.879,5.456c-0.926,1.278-1.5,2.793-2.134,4.231
				c-0.647,1.47-0.649,2.322-0.468,3.911c0.372,3.262,0.026,6.705-0.054,9.989C204.295,76.895,204.297,77.657,204.238,78.409
				c-0.305,3.85,5.696,3.83,6,0c0.06-0.753,0.058-1.513,0.076-2.267c0.082-3.354,0.403-6.838,0.031-10.174
				c-0.002-0.022-0.179-1.766-0.26-1.772c0.107,0.008-0.001,1.459,0.015,0.885c0.009-0.342,0.005,0.065-0.083,0.189
				c0.177-0.248,0.288-0.633,0.413-0.908c0.7-1.549,1.264-3.099,2.63-4.189c2.228-1.777,5.396-2.145,8.143-2.323
				c9.21-0.599,18.533-0.351,27.76-0.488c10.16-0.151,20.32-0.303,30.48-0.454c40.976-0.61,81.951-1.221,122.927-1.831
				c20.269-0.302,40.538-0.604,60.808-0.906c10.227-0.152,20.453-0.305,30.68-0.457c5.113-0.076,10.227-0.152,15.34-0.228
				c4.509-0.067,9.061-0.32,13.566-0.027c3.369,0.22,7.16,0.88,9.728,3.261c2.666,2.471,3.606,6.154,3.974,9.656
				c0.475,4.528,0.48,9.125,0.648,13.672c0.189,5.123,0.37,10.245,0.542,15.369c0.689,20.489,1.242,40.982,1.644,61.479
				c0.398,20.276,0.648,40.554,0.738,60.834c0.045,10.256,0.05,20.511,0.011,30.767c-0.019,5.13-0.049,10.259-0.09,15.389
				c-0.032,4.066,0.273,8.338-1.078,12.242c-1.243,3.593-4.103,6.117-7.778,6.972c-2.034,0.473-4.193,0.321-6.266,0.363
				c-2.684,0.054-5.369,0.107-8.053,0.16c-10.168,0.199-20.336,0.389-30.504,0.568c-20.406,0.359-40.813,0.676-61.221,0.946
				c-40.733,0.538-81.468,0.888-122.204,1.012c-20.486,0.062-40.973,0.068-61.459,0.011c-7.464-0.02-16.533,0.945-23.149-3.27
				c-5.746-3.661-6.729-10.92-6.709-17.166c0.042-12.683-0.394-25.381-0.537-38.065c-0.17-15.101-0.281-30.203-0.368-45.305
				c-0.169-29.29-0.234-58.581-0.333-87.871c-0.018-5.358-0.038-10.715-0.063-16.073C210.219,74.549,204.219,74.541,204.238,78.409z
				" />
			</g>
		</g>
		<g>
			<path style="fill:#F0E0BC;"
				d="M236.671,94.042c0,0.001,0.451-3.97,1.315-5.61c1.059-2.008,2.335-5.856,5.327-6.621
			c5.314-1.359,11.536-2.085,17.199-2.145c79.952-0.853,159.905-1.706,239.857-2.559c2.447-0.026,5.028-0.018,7.15,1.229
			c4.081,2.4,4.674,8.07,4.795,12.884c1.307,51.889,2.614,103.779,3.921,155.668c0.072,2.86,0.065,5.978-1.662,8.228
			c-1.863,2.427-5.102,3.411-8.115,3.531c-63.887,2.555-60.704,2.189-102.41,2.555c-49.953,0.438-99.922,0.52-149.62-0.082
			c-1.466-0.018-5.702,0.551-9.945-1.544c-10.468-5.169-9.438-19.048-9.556-25.099C234.015,187.814,236.671,94.042,236.671,94.042z" />
			<g>
				<path style="fill:#051A4C;" d="M239.671,94.042c0.054-0.46-0.111,0.693,0.029-0.205c0.105-0.679,0.22-1.355,0.365-2.027
				c0.151-0.696,0.31-1.422,0.588-2.081c-0.195,0.461,0.098-0.131,0.172-0.277c0.163-0.324,0.311-0.655,0.467-0.982
				c0.574-1.201,1.183-2.553,2.069-3.346c0.27-0.241,0.164-0.194,0.496-0.343c-0.037,0.016,0.712-0.193,0.962-0.254
				c1.052-0.254,2.11-0.479,3.174-0.678c8.908-1.668,18.103-1.244,27.123-1.34c19.005-0.203,38.01-0.406,57.015-0.608
				c19.099-0.204,38.197-0.408,57.296-0.611c19.099-0.204,38.197-0.408,57.296-0.611c9.456-0.101,18.911-0.202,28.367-0.303
				c4.775-0.051,9.549-0.102,14.324-0.153c4.548-0.049,9.192-0.372,13.732-0.068c3.279,0.22,4.769,2.143,5.51,5.07
				c0.898,3.543,0.691,7.391,0.783,11.052c0.241,9.554,0.481,19.107,0.722,28.661c0.481,19.107,0.962,38.215,1.444,57.322
				c0.479,19.014,0.958,38.027,1.437,57.041c0.061,2.435,0.124,4.87,0.184,7.306c0.041,1.685,0.145,3.436-0.296,5.079
				c-0.874,3.256-4.397,3.879-7.313,3.995c-8.102,0.324-16.205,0.644-24.308,0.952c-10.265,0.39-20.53,0.769-30.799,1.028
				c-7.302,0.184-14.605,0.284-21.91,0.347c-11.365,0.099-22.73,0.184-34.096,0.273c-19.077,0.149-38.155,0.244-57.233,0.265
				c-18.952,0.021-37.904-0.03-56.856-0.172c-4.753-0.036-9.505-0.077-14.258-0.125c-4.234-0.042-8.498-0.247-12.73-0.103
				c-3.353,0.114-6.493-0.327-9.318-2.266c-1.864-1.28-3.514-3.669-4.283-5.607c-0.497-1.252-0.865-2.555-1.145-3.872
				c-0.333-1.564-0.401-2.135-0.526-3.573c-0.202-2.32-0.209-4.647-0.217-6.974c-0.017-4.943-0.145-9.886-0.175-14.829
				c-0.072-11.953-0.002-23.907,0.121-35.86c0.129-12.51,0.323-25.019,0.556-37.527c0.198-10.634,0.425-21.267,0.677-31.899
				c0.151-6.363,0.31-12.725,0.482-19.087C239.623,95.782,239.647,94.912,239.671,94.042c0.108-3.862-5.892-3.859-6,0
				c-0.102,3.621-0.196,7.241-0.288,10.862c-0.235,9.235-0.449,18.47-0.644,27.706c-0.258,12.23-0.483,24.461-0.659,36.693
				c-0.183,12.738-0.316,25.478-0.342,38.218c-0.021,10.589-0.028,21.193,0.229,31.78c0.138,5.67,0.892,11.755,4.075,16.605
				c1.828,2.785,4.366,5.106,7.414,6.489c3.502,1.59,7.02,1.769,10.788,1.724c9.554-0.114,19.132,0.204,28.688,0.272
				c9.705,0.069,19.409,0.114,29.114,0.138c19.535,0.048,39.07,0.011,58.605-0.092c15.893-0.084,31.785-0.232,47.677-0.35
				c8.006-0.06,16.011-0.109,24.016-0.251c8.711-0.155,17.419-0.427,26.126-0.732c6.621-0.233,13.242-0.484,19.862-0.741
				c4.224-0.164,8.449-0.331,12.673-0.498c4.246-0.169,8.734,0.058,12.579-2.055c3.888-2.137,5.462-6.053,5.648-10.308
				c0.201-4.593-0.167-9.259-0.282-13.853c-0.248-9.835-0.495-19.669-0.743-29.504c-0.491-19.482-0.981-38.964-1.472-58.446
				c-0.245-9.741-0.491-19.482-0.736-29.223c-0.24-9.528-0.281-19.085-0.735-28.605c-0.168-3.53-0.624-7.322-2.51-10.397
				c-2.271-3.703-6.096-5.197-10.303-5.353c-4.798-0.178-9.641,0.067-14.441,0.118c-4.868,0.052-9.737,0.104-14.605,0.156
				c-19.473,0.208-38.946,0.416-58.42,0.623c-19.473,0.208-38.946,0.416-58.42,0.623c-19.567,0.209-39.134,0.418-58.7,0.626
				c-9.737,0.104-19.473,0.208-29.21,0.312c-4.673,0.05-9.366-0.026-14.026,0.376c-2.334,0.201-4.665,0.498-6.975,0.887
				c-2.042,0.344-4.248,0.633-6.159,1.457c-3.107,1.339-4.514,4.396-5.915,7.253c-1.164,2.373-1.602,4.886-1.911,7.491
				c-0.191,1.612,1.515,3,3,3C238.452,97.042,239.48,95.658,239.671,94.042z" />
			</g>
		</g>
	</g>
	<g id="Layer_3">
		<g>
			<path style="fill:#BFA174;" d="M578.684,412.446c-117.517,3.683-234.414,6.401-368.375,7.452
			c-4.59,0.036-8.853-0.812-13.177-0.465c-9.611,0.773-4.298-0.586-14.925,0.773c-2.146,0.274-2.63,20.308-2.622,22.427
			c0.006,1.436-0.207,3.086,0.827,4.056c0.82,0.769,2.044,0.816,3.156,0.821c130.001,0.546,260.07,1.09,389.926-5.211
			c2.483-0.121,6.029-0.131,6.711-2.576c0.516-1.849,0.875-2.912,0.878-4.447c0.101-48.801-19.328-95.153-38.41-139.879
			c-1.03-2.414-2.196-4.988-4.431-6.295c-1.835-1.073-4.061-1.087-6.175-1.073c-102.598,0.686-205.196,1.372-307.794,2.058
			c-3.253,0.022-6.766,0.131-9.338,2.168c-3.314,2.624-4.091,6.824-4.339,8.075c-0.956,4.82-8.089,23.781-14.271,50.779
			c-2.34,10.219-5.89,21.589-8.274,33.779c-1.092,5.584-2.882,11.34-3.404,17.237c-0.253,2.861-1.537,5.754-1.576,8.678
			c-0.041,3.102-0.177,6.238-0.865,9.402" />
			<g>
				<path style="fill:#051A4C;" d="M578.684,409.446c-46.945,1.471-93.895,2.789-140.85,3.888
				c-48.711,1.141-97.428,2.046-146.148,2.7c-26.056,0.35-52.114,0.628-78.172,0.838c-5.905,0.048-11.793-0.75-17.686-0.341
				c-2.384,0.166-4.709-0.001-7.082,0.04c-1.702,0.029-3.406,0.251-5.094,0.454c-1.963,0.236-3.534,0.373-4.587,2.215
				c-1.341,2.348-1.429,5.603-1.694,8.209c-0.562,5.517-1.053,11.285-0.794,16.842c0.122,2.62,1.311,5.024,3.973,5.844
				c2.894,0.892,6.435,0.389,9.424,0.401c6.674,0.028,13.348,0.056,20.021,0.082c26.43,0.105,52.86,0.19,79.29,0.198
				c53.123,0.017,106.248-0.275,159.362-1.345c26.419-0.532,52.835-1.257,79.242-2.231c13.338-0.492,26.673-1.048,40.005-1.675
				c2.49-0.117,4.993-0.168,7.478-0.367c2.261-0.181,4.685-0.575,6.347-2.274c1.577-1.613,2.073-4.4,2.298-6.567
				c0.314-3.022,0.03-6.204-0.096-9.234c-1.015-24.425-6.65-48.416-14.347-71.54c-3.926-11.794-8.383-23.404-13.069-34.915
				c-2.345-5.761-4.75-11.498-7.174-17.226c-1.157-2.734-2.32-5.466-3.485-8.198c-1.08-2.532-2.11-5.188-4.094-7.175
				c-4.135-4.142-10.798-3.034-16.096-2.998c-6.68,0.045-13.359,0.089-20.039,0.134c-13.359,0.089-26.718,0.179-40.077,0.268
				c-26.451,0.177-52.902,0.354-79.353,0.531c-52.902,0.354-105.804,0.708-158.706,1.061c-5.432,0.036-11.464-0.312-15.586,3.898
				c-2.571,2.626-3.529,5.904-4.369,9.353c-1.443,5.929-3.607,11.719-5.384,17.553c-3.187,10.463-6.064,21.017-8.532,31.673
				c-2.73,11.789-6.149,23.388-8.591,35.247c-1.195,5.801-2.534,11.467-3.372,17.336c-0.418,2.931-1.433,5.695-1.576,8.678
				c-0.139,2.905-0.172,5.74-0.757,8.604c-0.77,3.769,5.012,5.382,5.786,1.595c0.59-2.89,0.864-5.819,0.944-8.765
				c0.088-3.244,1.122-6.198,1.52-9.396c0.723-5.817,2.22-11.42,3.381-17.155c2.302-11.376,5.654-22.48,8.274-33.779
				c2.449-10.561,5.253-21.028,8.393-31.404c1.8-5.946,3.879-11.83,5.5-17.828c0.661-2.447,0.949-4.989,2.618-7.027
				c1.532-1.87,3.765-2.367,6.074-2.5c2.951-0.17,5.927-0.085,8.882-0.104c13.092-0.088,26.184-0.175,39.276-0.263
				c25.649-0.172,51.299-0.343,76.948-0.515c51.566-0.345,103.132-0.69,154.698-1.035c6.412-0.043,12.825-0.086,19.237-0.129
				c2.939-0.02,5.878-0.039,8.817-0.059c2.45-0.016,5.917-0.621,7.846,1.268c1.723,1.688,2.524,4.478,3.446,6.642
				c1.165,2.732,2.328,5.465,3.484,8.201c2.317,5.481,4.607,10.975,6.842,16.49c9.013,22.244,17.19,44.962,22.129,68.495
				c2.419,11.525,4.022,23.21,4.512,34.982c0.112,2.687,0.313,5.463,0.162,8.152c-0.059,1.052-0.387,1.964-0.585,2.99
				c-0.242,1.249-0.19,0.562-0.052,0.457c-0.349,0.267-0.984,0.344-1.415,0.413c-2.131,0.339-4.383,0.253-6.536,0.355
				c-3.466,0.165-6.933,0.324-10.4,0.479c-25.599,1.144-51.209,2.032-76.824,2.717c-51.501,1.376-103.021,1.928-154.54,2.083
				c-25.763,0.077-51.526,0.055-77.289-0.013c-12.948-0.034-25.896-0.08-38.844-0.131c-6.407-0.025-12.814-0.051-19.221-0.078
				c-2.936-0.012-5.873,0-8.809-0.037c-0.156-0.002-1.029,0.081-1.2-0.084c0.421,0.405,0.205-0.531,0.204-0.69
				c-0.004-0.58,0.011-1.163,0.019-1.743c0.078-5.503,0.265-11.547,1.035-16.698c0.161-1.074,0.602-2.182,0.711-3.243
				c-0.073,0.715-0.252,0.284-0.017,0.084c-0.179,0.152-0.591,0.527-0.765,0.722c-0.2,0.084-0.399,0.169-0.599,0.253
				c0.446-0.056,0.893-0.11,1.339-0.162c0.704-0.082,1.408-0.16,2.114-0.226c1.995-0.186,3.915-0.029,5.905-0.035
				c2.091-0.007,4.168-0.274,6.256-0.33c2.915-0.078,5.816,0.295,8.722,0.455c6.426,0.354,12.941,0.004,19.376-0.053
				c12.688-0.113,25.377-0.243,38.065-0.39c47.853-0.553,95.702-1.346,143.547-2.373c45.782-0.983,91.56-2.18,137.332-3.541
				c11.024-0.328,22.048-0.665,33.072-1.011C582.536,415.325,582.553,409.325,578.684,409.446L578.684,409.446z" />
			</g>
		</g>
		<g>
			<path style="fill:#F0E0BC;" d="M326.152,417.798c4.105-14.651,9.082-27.688,14.895-41.721c0.525-1.268,1.399-2.292,2.204-3.397
			c1.019-1.399,2.559-2.287,3.924-2.373c22.664-1.425,44.917-1.745,68.085-1.628c2.416,0.012,4.98,1.486,6.995,2.85
			c2.32,1.571,3.374,4.452,4.287,7.141c4.287,12.63,8.574,23.901,12.862,36.531" />
			<g>
				<path style="fill:#051A4C;" d="M329.045,418.596c3.022-10.749,6.724-21.283,10.82-31.667c1.064-2.697,2.152-5.385,3.254-8.067
				c0.749-1.821,1.786-4.218,3.479-5.267c0.03-0.018,0.672-0.347,0.444-0.234c-0.221,0.11,0.65-0.128,0.133-0.053
				c0.634-0.092,1.302-0.081,1.942-0.119c1.535-0.092,3.069-0.18,4.604-0.262c2.901-0.156,5.802-0.296,8.705-0.42
				c11.619-0.495,23.248-0.737,34.877-0.817c2.939-0.02,5.879-0.03,8.818-0.031c3.029-0.001,6.116-0.159,9.14,0.022
				c1.989,0.119,4.367,1.428,5.719,2.65c1.42,1.283,2.041,3.302,2.669,5.139c4.178,12.216,8.707,24.308,12.862,36.531
				c0.521,1.533,2.062,2.543,3.69,2.095c1.494-0.411,2.619-2.15,2.095-3.69c-3.891-11.449-8.137-22.772-12.068-34.207
				c-0.868-2.526-1.612-5.201-2.982-7.513c-1.423-2.402-3.586-4.028-6.036-5.294c-1.302-0.673-2.69-1.263-4.139-1.515
				c-1.581-0.275-3.187-0.203-4.785-0.208c-3.119-0.011-6.238-0.013-9.358-0.004c-12.296,0.033-24.593,0.228-36.88,0.697
				c-6.129,0.234-12.269,0.479-18.388,0.918c-3.202,0.229-5.346,1.699-7.243,4.218c-1.788,2.375-2.777,5.011-3.893,7.748
				c-5.041,12.364-9.65,24.896-13.265,37.757C322.212,420.724,328,422.313,329.045,418.596L329.045,418.596z" />
			</g>
		</g>
	</g>
</svg>