<?xml version="1.0" encoding="utf-8"?>
<!-- Generator: Adobe Illustrator 26.2.1, SVG Export Plug-In . SVG Version: 6.00 Build 0)  -->
<svg version="1.1" id="Capa_1" xmlns="http://www.w3.org/2000/svg" xmlns:xlink="http://www.w3.org/1999/xlink" x="0px" y="0px"
	 viewBox="0 0 279 229" style="enable-background:new 0 0 279 229;" xml:space="preserve">
<style type="text/css">
	.st0{fill:#051A4C;stroke:#051A4C;stroke-width:2;}
	.st1{fill:#051A4C;}
	.st2{fill:#FFFFFF;filter:url(#Adobe_OpacityMaskFilter);}
	.st3{mask:url(#path-2-inside-1_121_58_00000113345706751710700710000003311294320718796688_);fill:#051A4C;}
	.st4{fill:#F0E0BC;stroke:#051A4C;stroke-width:7;stroke-miterlimit:10;}
	.st5{fill:#051A4C;stroke:#051A4C;stroke-width:5;}
	.st6{fill:none;stroke:#051A4C;stroke-width:7;stroke-miterlimit:10;}
</style>
<path class="st0" d="M211.2,125.2c3.4-20.4,1.8-39.2-4.8-56.3c2.7,2.8,5.8,5.3,9,7.8c1.7,1.3,3.4,2.5,5.1,3.8
	c4.3,3.1,8.4,6.1,11.6,9.3l0.7-0.7l-0.7,0.7c2.3,2.3,4.5,4.5,5.6,7.3l0,0c1.2,3,1.1,6.2,0.7,9.5c-0.1,0.6-0.1,1.1-0.2,1.7
	c-0.3,2.8-0.7,5.8-0.3,8.7l0,0c1.1,7.8,7,13.8,13.3,18c2.7,1.8,5.5,3.3,8.4,4.8c0.5,0.2,0.9,0.5,1.4,0.7c3.3,1.8,6.4,3.6,9.3,5.7
	c1.8,1.3,3.5,3,4.6,4.8c1.1,1.8,1.7,3.8,1.3,5.7l1,0.2l-1-0.2c-0.3,1.6-1.2,3.1-2.5,4.4c-1.3,1.3-2.9,2.4-4.5,3.5l0,0
	c-1.7,1.1-3.3,2.2-5,3.3c-1.7,1.1-3.3,2.2-5,3.3c-2.3,1.5-4.8,3.2-6.5,5.5c-1.8,2.4-2.8,5.8-1.5,8.7c0.8,1.9,2.4,3.3,3.7,4.5l0,0
	c2.8,2.5,5.6,4.9,8.4,7.4c2.9,2.6,5.8,5.1,8.8,7.7c1.3,1.2,2.6,2.3,3.3,3.6c1.5,2.5,1.3,5.9-0.1,8.6c-1.4,2.7-3.9,4.8-6.8,6.2
	c-5.9,3-13.2,3.3-19.1,2.7c-2.9-0.3-5.5-0.7-7.3-1.1c-0.9-0.2-1.6-0.4-2.1-0.5c-0.2-0.1-0.4-0.1-0.6-0.2c-0.1,0-0.1,0-0.1,0l0,0l0,0
	l0,0l0,0l0,0l0,0l0,0c-4.3-1.3-9.5-3.5-15.6-6.1l-0.3-0.1c-6.2-2.7-13.2-5.7-21-8.4c-13.8-4.7-29.9-8.3-48.1-6.7
	c10.9-5.3,22.5-13.9,30.8-22.8l-0.7-0.7l0.7,0.7c6.9-7.5,12.6-15,16.6-24.4C207.8,141.1,209.5,135.8,211.2,125.2z"/>
<path class="st1" d="M147.5,205.7c10.8-4,20.7-10.5,29.4-17.9c8.8-7.5,16.7-16.6,22.1-26.8c10-18.9,14.9-40.7,13.7-62.1
	c-0.7-13.4-4.2-26.4-10.1-38.4c-0.5,0.3-1,0.6-1.5,0.9c4.9,9.4,14.7,15.3,22.9,21.5c4.7,3.5,10.3,7.5,13.1,12.7
	c3.5,6.4,0.3,13.6,0.8,20.3c1,11.9,12.3,18.7,21.7,23.8c5.7,3.1,14,6.7,16.3,13.4c2.6,7.5-7.2,12-12.2,15.3c-4.5,3-10.6,6-12.5,11.4
	c-2.1,6,2.9,9.5,6.9,13c2.7,2.4,5.5,4.8,8.2,7.2c2.6,2.3,5.6,4.5,8,7.1c6.2,6.9-1.2,14.9-7.9,17.5c-15.9,6.2-32.2-1.6-46.5-7.7
	c-10.6-4.5-21.3-8.7-32.6-11.2c-13.3-3-26.9-3.6-40.4-1.5C146,204.3,146.4,205.9,147.5,205.7c24.8-3.9,48.4,2.6,71,12.3
	c14.3,6.1,28.9,13.1,45,9.3c5-1.2,10.2-3.8,13-8.4c2.9-4.7,2.1-10.2-1.8-14c-5.4-5.2-11.3-9.9-16.9-14.8c-2.9-2.6-6.3-5.2-5-9.5
	c1.2-3.9,5.1-6.2,8.3-8.4c3-2,6-4,9-6c2.2-1.5,4.5-3,6.1-5.2c3.4-4.5,1.8-9.7-1.8-13.5c-9.1-9.8-24.3-11.6-31.8-23.3
	c-2.2-3.4-3.2-7.1-3-11.2c0.1-3.7,1-7.4,0.9-11.1c-0.3-6.7-4.5-11.2-9.3-15.4c-9.5-8.3-22.6-14.3-28.7-25.9c-0.5-1-1.9-0.1-1.5,0.9
	c19.3,39.1,10.2,91.8-21.6,121.8c-9.3,8.8-20.4,16.5-32.5,20.9C146,204.5,146.5,206.1,147.5,205.7z"/>
<defs>
	<filter id="Adobe_OpacityMaskFilter" filterUnits="userSpaceOnUse" x="144.4" y="57.7" width="135.8" height="172.7">
		<feColorMatrix  type="matrix" values="1 0 0 0 0  0 1 0 0 0  0 0 1 0 0  0 0 0 1 0"/>
	</filter>
</defs>
<mask maskUnits="userSpaceOnUse" x="144.4" y="57.7" width="135.8" height="172.7" id="path-2-inside-1_121_58_00000113345706751710700710000003311294320718796688_">
	<path class="st2" d="M147.5,205.7c10.8-4,20.7-10.5,29.4-17.9c8.8-7.5,16.7-16.6,22.1-26.8c10-18.9,14.9-40.7,13.7-62.1
		c-0.7-13.4-4.2-26.4-10.1-38.4c-0.5,0.3-1,0.6-1.5,0.9c4.9,9.4,14.7,15.3,22.9,21.5c4.7,3.5,10.3,7.5,13.1,12.7
		c3.5,6.4,0.3,13.6,0.8,20.3c1,11.9,12.3,18.7,21.7,23.8c5.7,3.1,14,6.7,16.3,13.4c2.6,7.5-7.2,12-12.2,15.3
		c-4.5,3-10.6,6-12.5,11.4c-2.1,6,2.9,9.5,6.9,13c2.7,2.4,5.5,4.8,8.2,7.2c2.6,2.3,5.6,4.5,8,7.1c6.2,6.9-1.2,14.9-7.9,17.5
		c-15.9,6.2-32.2-1.6-46.5-7.7c-10.6-4.5-21.3-8.7-32.6-11.2c-13.3-3-26.9-3.6-40.4-1.5C146,204.3,146.4,205.9,147.5,205.7
		c24.8-3.9,48.4,2.6,71,12.3c14.3,6.1,28.9,13.1,45,9.3c5-1.2,10.2-3.8,13-8.4c2.9-4.7,2.1-10.2-1.8-14c-5.4-5.2-11.3-9.9-16.9-14.8
		c-2.9-2.6-6.3-5.2-5-9.5c1.2-3.9,5.1-6.2,8.3-8.4c3-2,6-4,9-6c2.2-1.5,4.5-3,6.1-5.2c3.4-4.5,1.8-9.7-1.8-13.5
		c-9.1-9.8-24.3-11.6-31.8-23.3c-2.2-3.4-3.2-7.1-3-11.2c0.1-3.7,1-7.4,0.9-11.1c-0.3-6.7-4.5-11.2-9.3-15.4
		c-9.5-8.3-22.6-14.3-28.7-25.9c-0.5-1-1.9-0.1-1.5,0.9c19.3,39.1,10.2,91.8-21.6,121.8c-9.3,8.8-20.4,16.5-32.5,20.9
		C146,204.5,146.5,206.1,147.5,205.7z"/>
</mask>
<path class="st3" d="M176.9,187.8l-1.3-1.5l0,0L176.9,187.8z M199,161l-1.8-0.9l0,0L199,161z M212.7,98.9l2-0.1l0,0L212.7,98.9z
	 M202.6,60.5l1.8-0.9l-0.9-1.9l-1.9,1.1L202.6,60.5z M201.1,61.3l-1-1.7l-1.6,1l0.9,1.7L201.1,61.3z M224,82.8l1.2-1.6v0L224,82.8z
	 M237.1,95.5l-1.8,1v0L237.1,95.5z M238,115.8l-2,0.2l0,0L238,115.8z M259.7,139.6l-1,1.8l0,0L259.7,139.6z M276,153l-1.9,0.6l0,0
	L276,153z M263.9,168.3l1.1,1.7l0,0L263.9,168.3z M251.3,179.7l1.9,0.7l0,0L251.3,179.7z M258.3,192.7l1.3-1.5v0L258.3,192.7z
	 M266.4,199.9l-1.3,1.5v0L266.4,199.9z M274.4,207.1l-1.5,1.3l0,0L274.4,207.1z M266.5,224.6l-0.7-1.9l0,0L266.5,224.6z M220,216.8
	l0.8-1.8L220,216.8z M187.4,205.6l0.4-2l0,0L187.4,205.6z M147,204.1l-0.3-2h0L147,204.1z M218.5,218l-0.8,1.8l0,0L218.5,218z
	 M263.5,227.3l0.5,1.9l0,0L263.5,227.3z M276.5,218.9l-1.7-1l0,0L276.5,218.9z M274.7,204.9l-1.4,1.4l0,0L274.7,204.9z M257.8,190.1
	l-1.3,1.5l0,0L257.8,190.1z M252.8,180.5l1.9,0.6l0,0L252.8,180.5z M261.1,172.2l1.1,1.7l0,0L261.1,172.2z M270.1,166.1l1.1,1.7l0,0
	L270.1,166.1z M276.2,161l1.6,1.2l0,0L276.2,161z M274.4,147.4l-1.5,1.4l0,0L274.4,147.4z M242.6,124.2l1.7-1.1l0,0L242.6,124.2z
	 M239.6,113l2,0.1l0,0L239.6,113z M240.5,101.8l2-0.1l0,0L240.5,101.8z M231.2,86.4l1.3-1.5l0,0L231.2,86.4z M202.6,60.5l-1.8,0.9
	l0,0L202.6,60.5z M201.1,61.3l-1.8,0.9v0L201.1,61.3z M179.5,183.2l1.4,1.5l0,0L179.5,183.2z M147,204.1l0.7,1.9h0L147,204.1z
	 M148.2,207.6c11.1-4.1,21.1-10.7,30-18.3l-2.6-3c-8.6,7.3-18.3,13.7-28.8,17.6L148.2,207.6z M178.2,189.3
	c8.9-7.6,17-16.9,22.6-27.4l-3.5-1.9c-5.2,9.9-13,18.8-21.6,26.2L178.2,189.3z M200.7,162c10.1-19.2,15.1-41.4,13.9-63.2l-4,0.2
	c1.2,21-3.7,42.5-13.5,61.1L200.7,162z M214.7,98.8c-0.8-13.7-4.3-26.9-10.3-39.2l-3.6,1.8c5.8,11.8,9.2,24.5,9.9,37.7L214.7,98.8z
	 M201.5,58.8c-0.2,0.1-0.5,0.3-0.7,0.4c-0.2,0.1-0.5,0.3-0.7,0.4l2,3.5c0.2-0.1,0.5-0.3,0.7-0.4c0.2-0.1,0.5-0.3,0.7-0.4L201.5,58.8
	z M199.3,62.3c2.6,5,6.5,9.1,10.7,12.6c4.1,3.5,8.8,6.6,12.8,9.6l2.4-3.2c-4.2-3.2-8.6-6.1-12.6-9.5c-4-3.3-7.4-7-9.7-11.4
	L199.3,62.3z M222.8,84.4c4.8,3.6,10,7.3,12.6,12l3.5-1.9c-3.1-5.6-9.2-9.9-13.7-13.3L222.8,84.4z M235.4,96.5
	c1.5,2.7,1.6,5.6,1.3,8.9c-0.3,3.2-1,7-0.7,10.7l4-0.3c-0.3-3.2,0.4-6.3,0.7-10c0.3-3.6,0.3-7.4-1.8-11.2L235.4,96.5z M236,116
	c0.5,6.6,4,11.7,8.3,15.8c4.3,4,9.7,7.1,14.4,9.6l1.9-3.5c-4.7-2.6-9.7-5.4-13.6-9c-3.9-3.6-6.6-7.8-7-13.1L236,116z M258.8,141.4
	c3,1.6,6.3,3.2,9.3,5.3c2.9,2,5.2,4.3,6.1,7l3.8-1.3c-1.3-3.9-4.4-6.8-7.6-9c-3.2-2.2-6.9-4-9.6-5.5L258.8,141.4z M274.1,153.6
	c0.9,2.6-0.2,4.8-2.7,7.1c-2.6,2.4-5.9,4.1-8.7,5.9l2.2,3.3c2.2-1.5,6.3-3.7,9.1-6.3c3-2.7,5.5-6.5,3.8-11.4L274.1,153.6z
	 M262.8,166.6c-2,1.4-5,3-7.3,4.9c-2.5,1.9-4.8,4.3-6,7.5l3.8,1.3c0.8-2.2,2.4-4,4.6-5.7c2.3-1.8,4.7-3.1,7.1-4.7L262.8,166.6z
	 M249.4,179c-1.3,3.8-0.4,6.8,1.4,9.3c1.7,2.3,4.2,4.3,6.1,5.9l2.6-3c-2.2-1.9-4.1-3.4-5.5-5.2c-1.2-1.6-1.7-3.3-0.9-5.6L249.4,179z
	 M256.9,194.2c1.4,1.2,2.7,2.4,4.1,3.6c1.4,1.2,2.7,2.4,4.1,3.6l2.6-3c-1.4-1.2-2.7-2.4-4.1-3.6c-1.4-1.2-2.7-2.4-4.1-3.6
	L256.9,194.2z M265.1,201.4c2.8,2.5,5.6,4.5,7.8,7l3-2.7c-2.4-2.8-5.7-5.2-8.1-7.3L265.1,201.4z M272.9,208.4
	c1.3,1.4,1.7,2.8,1.8,4.1c0,1.3-0.4,2.6-1.2,4c-1.6,2.7-4.8,5.1-7.7,6.3l1.4,3.7c3.7-1.4,7.6-4.3,9.7-8c1.1-1.8,1.8-4,1.7-6.2
	c-0.1-2.3-1-4.5-2.8-6.6L272.9,208.4z M265.8,222.7c-7.4,2.9-15,2.5-22.6,0.7c-7.7-1.9-15.1-5.3-22.4-8.4l-1.6,3.7
	c7.1,3.1,15,6.6,23,8.6c8.1,2,16.6,2.4,25-0.8L265.8,222.7z M220.8,215c-10.6-4.6-21.5-8.8-32.9-11.3l-0.9,3.9
	c11.1,2.5,21.7,6.6,32.2,11.1L220.8,215z M187.8,203.6c-13.5-3-27.4-3.7-41.1-1.5l0.6,4c13.2-2.1,26.6-1.5,39.6,1.5L187.8,203.6z
	 M146.7,202.1c-0.8,0.1-1.6,0.6-2,1.4c-0.4,0.7-0.4,1.5-0.2,2.1c0.3,1.1,1.5,2.4,3.3,2.1l-0.6-4c0.3,0,0.6,0,0.8,0.2
	c0.2,0.2,0.3,0.4,0.4,0.5c0,0.2,0.1,0.5-0.1,0.9c-0.2,0.4-0.6,0.7-0.9,0.7L146.7,202.1z M147.8,207.7c24.2-3.8,47.5,2.5,69.9,12.1
	l1.6-3.7c-22.8-9.7-46.8-16.4-72.1-12.4L147.8,207.7z M217.7,219.9c14.1,6,29.4,13.4,46.2,9.4l-0.9-3.9c-15.2,3.7-29.2-3-43.7-9.2
	L217.7,219.9z M264,229.2c5.3-1.3,11.1-4.1,14.3-9.3l-3.4-2.1c-2.4,3.9-7,6.3-11.8,7.5L264,229.2z M278.2,219.9
	c3.4-5.6,2.5-12-2.2-16.5l-2.8,2.9c3.3,3.2,3.9,7.6,1.5,11.5L278.2,219.9z M276.1,203.5c-5.4-5.2-11.4-10-16.9-14.9l-2.6,3
	c5.7,5,11.5,9.6,16.8,14.8L276.1,203.5z M259.1,188.6c-1.6-1.4-2.9-2.5-3.7-3.7c-0.8-1.1-1.1-2.2-0.6-3.8l-3.8-1.1
	c-0.8,2.9-0.1,5.2,1.2,7.1c1.2,1.8,3,3.3,4.4,4.5L259.1,188.6z M254.7,181.1c0.4-1.5,1.4-2.7,2.8-3.9c1.4-1.2,3-2.2,4.7-3.3
	l-2.2-3.3c-1.5,1-3.5,2.2-5.1,3.7c-1.7,1.5-3.3,3.3-4,5.8L254.7,181.1z M262.2,173.8c3-2,6-4,9.1-6l-2.2-3.3c-3,2-6,4-9,6
	L262.2,173.8z M271.3,167.8c2.2-1.5,4.7-3.2,6.6-5.7l-3.2-2.4c-1.4,1.8-3.3,3.2-5.6,4.7L271.3,167.8z M277.8,162.2
	c4.2-5.6,2-11.9-1.9-16.1l-2.9,2.7c3.2,3.5,4.2,7.6,1.7,11L277.8,162.2z M275.9,146.1c-4.8-5.2-11.3-8.3-17-11.3
	c-5.9-3.1-11.1-6.3-14.6-11.7l-3.4,2.2c4.1,6.3,10.2,9.9,16,13c6,3.2,11.7,5.9,16,10.5L275.9,146.1z M244.3,123.1
	c-2-3.1-2.8-6.4-2.7-10l-4-0.2c-0.2,4.5,0.9,8.6,3.3,12.4L244.3,123.1z M241.6,113c0.1-1.8,0.3-3.5,0.5-5.4c0.2-1.9,0.4-3.8,0.3-5.9
	l-4,0.2c0.1,1.7-0.1,3.4-0.3,5.3c-0.2,1.8-0.5,3.7-0.5,5.7L241.6,113z M242.5,101.8c-0.3-7.6-5.1-12.6-10-16.8l-2.6,3
	c4.7,4.1,8.4,8.2,8.6,14L242.5,101.8z M232.5,84.9c-2.5-2.1-5.1-4.1-7.8-6c-2.7-1.9-5.4-3.8-7.9-5.8c-5.2-3.9-9.7-8.1-12.5-13.5
	l-3.5,1.8c3.2,6.2,8.3,10.8,13.6,14.9c2.6,2,5.4,3.9,8,5.8c2.7,1.9,5.2,3.8,7.5,5.8L232.5,84.9z M204.3,59.6c-0.4-0.7-1-1.3-1.9-1.4
	c-0.8-0.2-1.5,0-2,0.3c-1,0.6-1.9,2.1-1.1,3.8l3.6-1.8c0.1,0.3,0.2,0.6,0,0.9c-0.1,0.3-0.3,0.4-0.5,0.6c-0.2,0.1-0.5,0.2-0.8,0.1
	c-0.4-0.1-0.7-0.4-0.9-0.6L204.3,59.6z M199.3,62.2c18.9,38.4,10,90.1-21.1,119.5l2.7,2.9c32.5-30.6,41.7-84.2,22-124.2L199.3,62.2z
	 M178.2,181.7c-9.2,8.7-20.1,16.2-31.8,20.5l1.4,3.8c12.4-4.6,23.7-12.4,33.2-21.4L178.2,181.7z M146.3,202.2
	c-1.7,0.6-2.1,2.4-1.8,3.5c0.2,0.6,0.5,1.2,1.2,1.7c0.7,0.5,1.6,0.5,2.4,0.2l-1.4-3.8c0.3-0.1,0.7-0.1,1.1,0.1
	c0.3,0.2,0.5,0.5,0.5,0.7c0.1,0.2,0.1,0.4-0.1,0.7c-0.1,0.3-0.4,0.5-0.6,0.6L146.3,202.2z"/>
<path class="st4" d="M5.5,87.9c-0.7,3.9-2.2,14-1.1,27c0.2,2.6,0.9,9.9,3.4,19.1c1,3.7,2.6,9.8,6.2,17.4c3.1,6.6,6.1,11.2,7.3,12.9
	c4.4,6.5,8.6,10.8,11.8,14.1c1.7,1.8,6.5,6.5,13.5,11.8c4.1,3.1,8.3,6.3,14.6,9.6c6.3,3.2,11.5,4.9,15.8,6.2
	c7.5,2.3,13.7,3.4,17.4,3.9c4.4,0.6,11,1.3,19.1,1.1c5.6-0.1,15.1-0.4,27-3.9c12.8-3.8,21.9-9.3,26.4-12.4c3.6-2.4,10.7-7.5,18-15.8
	c2.2-2.5,10.3-11.8,16.9-26.4c6.4-14.3,8.1-26.4,9-33.7c0.9-6.7,1.9-15.2,0.6-26.4c-0.5-4.5-1.9-13.5-6.2-24.2
	c-1-2.4-5-12.3-13.5-23.6c-7.3-9.7-14.4-15.8-16.3-17.4c-20.2-17-43.2-20.7-51.2-21.9C98.5,1.4,78.6,7.6,72.4,9.7
	c-21.7,7.5-34.9,19.9-37.7,22.5c-2.8,2.7-12.1,12-19.7,27C9,71.2,6.6,81.8,5.5,87.9z"/>
<path class="st5" d="M7.7,130c6.7-23.8,29.1-37.1,50.1-46.6c21.4-9.7,44.8-18,57.6-39.1c3.5-5.7,6.3-11.8,8.9-17.9
	c2.7-6.5,4.8-13.2,4.9-20.3c0-1.1-1.7-1.1-1.7,0c-0.1,7.2-2.3,14-5.1,20.5c-2.3,5.5-4.9,10.9-7.9,16C108.2,53.4,99,61.2,88.2,67.3
	C67.5,79,43.6,85,25.4,100.8c-8.9,7.7-16.1,17.4-19.3,28.8C5.8,130.6,7.4,131.1,7.7,130z"/>
<path class="st5" d="M99.6,211c9.6-6.5,19.2-13.1,27.7-21.1c8.2-7.8,14.8-16.8,19.3-27.2c9.4-21.4,12.3-45.7,29.3-63
	c9-9.1,20.4-15.6,32.8-18.7c1.1-0.3,0.6-1.9-0.4-1.6c-21.4,5.3-38.7,20.3-47.8,40.3c-4.8,10.6-7.8,21.9-11.7,32.8
	c-4.1,11.7-9.6,22.5-18.1,31.6c-9.3,10-20.7,17.7-31.9,25.4C97.8,210.1,98.7,211.6,99.6,211z"/>
<path class="st5" d="M39.5,28.9C68.7,30.1,97,40.3,120.8,57c23.1,16.2,41.8,38.4,55,63.3c7.9,14.8,15.8,31.7,15.9,48.8
	c0,1.1,1.7,1.1,1.7,0c-0.1-15.4-6.5-30.3-13.2-43.9c-6.3-12.8-13.9-24.9-22.8-36c-18.3-22.9-42.1-41.1-69.5-51.8
	c-15.4-6.1-31.8-9.6-48.3-10.3C38.5,27.1,38.5,28.8,39.5,28.9z"/>
<path class="st6" d="M39.8,184.7L177.1,28.9"/>
</svg>
