<?xml version="1.0" encoding="iso-8859-1"?>
<!-- Generator: Adobe Illustrator 26.2.1, SVG Export Plug-In . SVG Version: 6.00 Build 0)  -->
<svg version="1.1" id="Capa_1" xmlns="http://www.w3.org/2000/svg" xmlns:xlink="http://www.w3.org/1999/xlink" x="0px"
	y="0px" viewBox="0 0 350 200" style="enable-background:new 0 0 350 200;" xml:space="preserve">
	<g>
		<path style="fill:#051A4C;" d="M92.111,40.06c0,0-5.585-7.934-16.611-12.56c-8.225-3.451-21.507-2.611-27,5
		c-3.854,5.34-3.511,11.79-1,17c3.609,7.488,13.03,7.101,13,13c-0.019,3.69-5.902,5.58-8,6c-5.819,1.164-9.237-3.818-18.147-4.513
		C27.765,63.473,23.131,65.033,18.5,68.5c-3.916,2.931-6.809,9.546-5.622,13.937c0.471,1.742,1.579,3.473,3.622,5.063
		c3.533,2.748,5.157,2.063,10,4c5,2,5.494,3.988,6,5c1,2-1,5-3.634,6.551c-2.561,1.508-3.757,1.893-7.366,2.449
		c-6.422,0.988-10.492,5.757-10.802,10.633c-0.317,4.994,0.212,6.099,0.802,7.367c4.958,10.652,13,5,25,5c1.255,0,4,0,6,2
		s1.623,5.54,0,7c-10,9-9.997,18.67-3,28c3,4,7.872,6.871,12,8c4.166,1.14,12.135-0.072,16-2c11.865-5.917,15.908-12.497,24-23
		c4.172-5.415,10.295-10.388,17.107-9.808c7.083,0.602,12.285,5.195,14.893,11.808s2.34,8.631,7,14c5.726,6.597,15.332,9.083,24,8
		c8-1,15-4,22-12c3.202-3.659,4.384-6.253,7.521-9.968s7.758-6.656,12.592-6.134c5.485,0.592,9.568,5.36,12.147,10.237
		c2.579,4.878,4.016,7.794,7.74,11.865c4.723,5.163,12.263,6.892,18.999,5c6.737-1.892,12.657-6.133,14.001-13
		c0.749-3.829,0.33-6.463,0.882-10.325c0.552-3.862,2.483-7.943,6.145-9.288c3.735-1.372,7.976,0.629,10.677,3.551
		c2.701,2.921,4.322,6.652,6.446,10.017c7.387,11.7,20.948,18.633,34.701,20.15c5.893,0.65,12.208,0.307,17.196-2.898
		c4.988-3.205,8.038-9.958,5.515-15.323c-2.331-4.955-8.118-6.989-12.958-9.55c-4.84-2.561-9.689-7.653-7.855-12.812
		c2.104-5.918,10.229-5.875,16.404-7.023c7.524-1.4,15.096-8.944,11.954-15.922c-1.85-4.107-4.079-5.561-8.108-7.576c-4-2-4-1-8-3
		c-4.029-2.014-5.495-7.25-3-11c2.037-3.062,6.664-6.24,11.349-8.318c4.686-2.078,7.155-5.943,7.626-11.047
		c0.585-6.344-5.555-11.743-11.873-12.555c-6.319-0.812-12.554,1.751-18.256,4.592c-4.018,2.002-8.127,4.22-12.613,4.404
		c-4.486,0.184-9.464-2.42-10.276-6.835c-1.351-7.352,8.776-9.257,9.372-16.708c0.359-4.493-3.138-8.647-7.364-10.212
		s-8.957-1.005-13.288,0.241c-6.052,1.742-11.724,4.789-16.516,8.874c-5.072,4.323-11.124,16.25-17.246,13.618
		c-6.084-2.616-6.012-11.099-8.842-17.086c-3.267-6.911-11.401-10.805-19.014-10.111c-7.613,0.695-14.496,5.436-18.908,11.678
		c-2.949,4.173-4.558,7.297-8.037,11.039c-4.115,4.425-7.917,4.392-12.987,3.752c-5.432-0.685-10.095-6.244-12.128-11.327
		c-4-10-15.261-14.455-20-14c-6.963,0.669-13.834,3.168-18,9c-5,7-3.163,16.57-9,19c-4.618,1.923-9-1-13-5
		C98.659,48.659,93.33,41.792,92.111,40.06z" />
	</g>
</svg>