<?xml version="1.0" encoding="iso-8859-1"?>
<!-- Generator: Adobe Illustrator 26.2.1, SVG Export Plug-In . SVG Version: 6.00 Build 0)  -->
<svg version="1.1" id="Capa_1" xmlns="http://www.w3.org/2000/svg" xmlns:xlink="http://www.w3.org/1999/xlink" x="0px"
	y="0px" viewBox="0 0 350 200" style="enable-background:new 0 0 350 200;" xml:space="preserve">
	<g>
		<path style="fill:#6f4100;" d="M133,129.824c5.306,4.021,4.721,12.914,4.541,15.662c-0.623,9.472-4.218,10.322-4.488,16.867
		c-0.347,8.425,5.803,16.761,14.03,18.608c8.227,1.847,17.521-3.289,20.043-11.334c2.08-6.633-0.106-14.258,2.926-20.513
		c2.853-5.887,10.452-8.965,16.598-6.722c4.623,1.687,7.901,5.717,11.21,9.359c7.466,8.217,17.336,15.65,28.428,15.169
		c10.424-0.452,19.968-8.826,21.772-19.103c1.804-10.276-4.318-21.401-13.964-25.376c-4.863-2.004-11.105-2.936-13.18-7.77
		c-1.994-4.646,1.537-10.01,5.942-12.491s9.475-3.454,14.229-5.176C248,94.5,251.517,88.529,251,83.5c-0.234-2.279-1.593-6.192-3-8
		c-4.296-5.522-12.871-5.487-19.525-3.324c-6.832,2.22-11.977,10.373-19.014,8.927c-3.986-0.819-6.843-5.236-5.956-9.207
		c0.715-3.203,3.342-5.57,5.047-8.374c3.736-6.142,2.708-14.461-1.474-20.308s-11.029-9.394-18.081-10.795
		c-7.052-1.401-14.346-0.848-21.46,0.186c-6.3,0.916-13.186,2.608-16.79,7.856c-2.526,3.678-2.889,8.598-1.472,12.829
		s4.464,7.792,8.1,10.379c3.153,2.243,7.062,4.184,8.176,7.889c1.579,5.252-4.22,10.432-9.698,10.166
		c-5.478-0.266-10.082-4.154-13.681-8.292c-3.599-4.139-6.776-8.83-11.432-11.729c-9.226-5.744-23.073-1.662-27.672,8.185
		s1.194,23.113,11.554,26.396c4.149,1.315,8.704,1.203,12.687,2.955s7.234,6.64,5.024,10.389c-0.748,1.27-1.995,2.17-3.299,2.857
		c-8.657,4.562-19.215,0.773-28.965,1.603c-3.442,0.293-7.156,1.407-9.009,4.322c-1.783,2.806-1.323,6.521-0.036,9.587
		c2.863,6.821,9.683,11.806,17.051,12.464c2.834,0.253,5.886-0.162,8.085-1.968c2.406-1.976,1.722-3.943,4.682-6.939
		c1.042-1.054,3.495-3.537,6.942-3.578C130.462,127.943,132.442,129.4,133,129.824z" />
	</g>
</svg>