<?xml version="1.0" encoding="iso-8859-1"?>
<!-- Generator: Adobe Illustrator 26.2.1, SVG Export Plug-In . SVG Version: 6.00 Build 0)  -->
<svg version="1.1" id="Capa_1" xmlns="http://www.w3.org/2000/svg" xmlns:xlink="http://www.w3.org/1999/xlink" x="0px" y="0px"
	 viewBox="0 0 350 200" style="enable-background:new 0 0 350 200;" xml:space="preserve">
<g>
	<path style="fill:#051A4C;" d="M34.747,91.533c-4.452,3.893-10.174,11.998-8.448,19.699c1.856,8.278,11.375,14.503,15.063,15.248
		c4.219,0.852,10.355,2.178,9.541,6.405c-0.261,1.354-1.298,2.405-2.29,3.363c-4.608,4.454-9.499,9.151-11.187,15.333
		c-2.228,8.161,2.166,17.312,9.399,21.7s16.638,4.338,24.411,1c9.787-4.203,16.924-12.904,26.183-18.169
		c2.615-1.487,5.565-2.721,8.551-2.35c8.022,0.998,10.086,11.339,13.97,18.429c6.636,12.11,24.358,16.372,35.775,8.602
		c6.145-4.182,10.084-10.852,15.44-16.006s13.688-8.781,20.129-5.072c5.521,3.179,7.269,10.293,11.602,14.964
		c6.88,7.417,17.348,10.108,27.294,8.256c4.471-0.832,10.326-4.772,12-9c3.13-7.906-1.385-16.324,3.64-21.94
		c3.632-4.059,10.58-2.604,14.682,0.978c4.102,3.583,6.566,8.687,10.345,12.61c5.729,5.948,14.001,8.709,22.111,10.27
		c6.35,1.222,13.217,1.775,19.024-1.07c5.807-2.845,9.83-10.155,7.062-15.999c-3.867-8.162-18.17-9.91-17.889-18.937
		c0.181-5.793,6.644-8.961,12.07-10.998c5.426-2.037,11.791-5.689,11.374-11.47c-0.379-5.264-6.123-8.113-10.875-10.408
		c-4.752-2.295-10.003-6.755-8.377-11.775c0.612-1.889,2.12-3.338,3.66-4.59c6.282-5.106,14.848-9.655,15.398-17.732
		c0.41-6.02-4.472-11.505-10.234-13.294s-12.074-0.535-17.643,1.788c-3.167,1.321-6.298,3.007-9.724,3.204
		c-3.426,0.196-7.303-1.696-7.941-5.068c-0.953-5.033,5.233-8.292,7.351-12.956c2.392-5.265-1.235-11.816-6.516-14.174
		c-5.281-2.358-11.487-1.399-16.884,0.678c-5.397,2.077-10.347,5.196-15.75,7.26c-5.588,2.135-12.87,2.68-16.653-1.954
		c-2.747-3.364-2.577-8.208-4.286-12.201c-3.959-9.253-16.215-11.184-26.237-10.254c-11.453,1.063-24.108,5.193-29.006,15.6
		c-2.647,5.624-3.75,13.543-9.816,14.903c-5.727,1.284-10.293-4.897-12.035-10.502s-3.742-11.117-7.968-15.19
		c-2.884-2.779-10.498-3.804-13.884-3.779c-9.881,0.075-17.148,2.984-23.221,10.779c-2.926,3.755-4.107,8.554-6.363,12.746
		s-6.423,8.089-11.142,7.463C78.747,46.9,76.923,35.71,69.931,32.309c-2.101-1.022-4.493-1.233-6.825-1.375
		c-8.399-0.51-17.57-0.072-24.056,5.289c-8.244,6.814-8.071,21.987,1.213,27.297c3.529,2.019,7.732,2.511,11.42,4.224
		c3.688,1.712,7.061,5.524,6.041,9.46c-0.459,1.77-1.469,2.969-2.68,4.13c-4.67,4.472-9.245,3.094-16.491,7.475
		C37.693,89.328,36.287,90.187,34.747,91.533z"/>
</g>
</svg>
