<?xml version="1.0" encoding="iso-8859-1"?>
<!-- Generator: Adobe Illustrator 26.2.1, SVG Export Plug-In . SVG Version: 6.00 Build 0)  -->
<svg version="1.1" id="Capa_1" xmlns="http://www.w3.org/2000/svg" xmlns:xlink="http://www.w3.org/1999/xlink" x="0px" y="0px"
	 viewBox="0 0 300 150" style="enable-background:new 0 0 300 150;" xml:space="preserve">
<g>
	<path style="fill:#051A4C;" d="M157.806,128.364c1.543-4.805,7.851-6.597,9.566-7.085c1.795-0.51,7.533-2.238,11.469,0.801
		c2.149,1.659,3.09,4.398,4.035,6.944c2.046,5.511,4.896,11.147,9.973,14.109c5.078,2.962,12.846,1.869,15.213-3.512
		c3.186-7.245-4.803-16.615-0.206-23.058c1.064-1.491,2.67-2.518,4.356-3.234c6-2.55,13.442-1.25,18.222,3.183
		c4.413,4.094,6.318,10.138,9.332,15.348s8.384,10.118,14.306,9.035c4.138-0.757,7.356-4.481,8.217-8.599
		c0.861-4.117-0.362-8.473-2.609-12.029c-1.062-1.68-2.38-3.295-2.732-5.252c-0.705-3.923,2.848-7.481,6.648-8.682
		c3.8-1.201,7.902-0.831,11.849-1.38c3.948-0.549,8.193-2.471,9.468-6.247c1.396-4.135-1.451-8.619-5.048-11.09
		c-3.598-2.47-7.928-3.652-11.679-5.883c-1.481-0.881-2.979-2.1-3.247-3.803c-0.269-1.715,0.81-3.357,2.059-4.562
		c4.792-4.628,12.681-5.809,16.027-11.57c3.144-5.413-0.18-13.406-6.235-14.993c-5.74-1.505-11.405,2.082-17.027,3.981
		c-5.622,1.899-13.774,0.646-14.678-5.218c-0.97-6.294,7.431-10.199,8.719-16.436c1.109-5.371-3.821-10.509-9.201-11.576
		S233.56,16.885,228.5,19c-5.06,2.115-10.155,4.911-15.525,6.028C203.5,27,193.5,25,193.5,16c0-2.34-1.346-6.346-3-8
		c-3-3-8.623-3.725-10-4c-5-1-14.496-1.342-21,2s-9,8-7,16c1,4-2.211,6.575-3,7c-13,7-22.923,1.965-28.657-9.699
		c-1.296-2.635-2.159-5.512-3.884-7.888c-2.996-4.128-8.443-6.179-13.497-5.493s-9.604,3.914-12.33,8.226
		c-2.53,4.003-3.609,8.866-6.59,12.545c-5.551,6.853-17.504,6.935-23.149,0.159c-3.33-3.998-5.008-9.042-9.981-10.574
		c-1.86-0.573-3.846-1.107-5.792-1.143C38.5,15,33.9,16.483,28.798,19.268s-9.22,8.201-8.685,13.99
		c0.522,5.648,5.227,10.089,10.325,12.576S41.209,49.4,46.421,51.64c1.898,0.816,3.935,2.041,4.342,4.066
		c0.676,3.357-3.349,5.548-6.619,6.563c-6.987,2.17-13.975,4.34-20.962,6.51c-2.538,0.788-5.181,1.638-7.069,3.508
		c-5.103,5.055-1.332,14.459,5.023,17.807c6.355,3.348,13.948,2.751,21.125,3.047c1.732,0.071,3.653,0.291,4.791,1.599
		c1.673,1.924,0.646,4.963-0.885,7.002c-4.738,6.308-13.816,10.143-14.562,17.997c-0.573,6.03,4.902,11.491,10.902,12.315
		s12.015-2.1,16.404-6.273c3.365-3.2,6.077-7.195,10.085-9.541c4.008-2.346,10.08-2.239,12.377,1.797
		c1.905,3.345,0.362,7.565,0.919,11.374c0.587,4.013,3.78,7.517,7.722,8.473c3.941,0.955,8.386-0.698,10.744-3.996
		c2.793-3.906,2.621-9.396,5.547-13.203c3.692-4.804,12.116-4.676,15.661,0.237c2.28,3.16,2.468,7.317,3.707,11.012
		c2.551,7.609,11.985,14.678,20.549,13.325c5.255-0.83,10.967-5.009,11.826-9.864C158.579,132.391,156.88,131.249,157.806,128.364z"
		/>
</g>
</svg>
