<?xml version="1.0" encoding="iso-8859-1"?>
<!-- Generator: Adobe Illustrator 26.2.1, SVG Export Plug-In . SVG Version: 6.00 Build 0)  -->
<svg version="1.1" xmlns="http://www.w3.org/2000/svg" xmlns:xlink="http://www.w3.org/1999/xlink" x="0px" y="0px"
	 viewBox="0 0 800 800" style="enable-background:new 0 0 800 800;" xml:space="preserve">
<g id="Layer_1">
</g>
<g id="Layer_2">
	<g>
		<path style="fill:#FF9B2F;" d="M295.311,242.565c-3.561-0.881-6.953-0.871-10.001-0.112c-0.357,0.037-0.698,0.097-1.033,0.169
			c-0.004,0.001-0.008,0-0.012,0c-0.01,0.002-0.02,0.007-0.03,0.009c-0.498,0.11-0.983,0.262-1.465,0.462
			c-0.011,0.003-0.021,0.003-0.031,0.007c-0.713,0.219-1.368,0.509-2.008,0.881c-0.474,0.204-0.9,0.464-1.282,0.774
			c-0.647,0.359-1.281,0.742-1.883,1.18c-0.592,0.431-1.437,1.018-2.075,1.704c-0.483,0.386-0.898,0.858-1.209,1.392
			c-0.001,0.001-0.001,0.003-0.002,0.004c-0.42,0.534-0.786,1.095-1.135,1.678c-0.053,0.088-0.09,0.175-0.123,0.262
			c-1.066,1.656-1.898,3.45-2.48,5.372c-0.039,0.13-0.058,0.253-0.065,0.372c-0.556,1.804-0.834,3.665-0.736,5.508
			c0,0.902,0.087,1.798,0.227,2.69c0.053,0.805,0.143,1.606,0.297,2.401c0.88,8.201,3.936,15.917,5.838,23.985
			c1.949,8.266,1.87,16.629-0.068,24.713c-2.618,8.001-5.719,15.84-8.116,23.923c-2.686,9.057-4.957,18.232-7.014,27.45
			c-4.078,18.272-8.586,36.982-10.274,55.654c-1.723,19.057,1.901,38.217-0.394,57.242c-0.565,4.684-1.226,10.236-3.507,14.466
			c-2.684,4.977-8.16,6.553-13.455,6.914c-9.291,0.633-18.354-2.536-26.306-7.117c-7.57-4.361-14.448-9.984-20.667-16.1
			c-6.565-6.458-10.218-13.409-11.568-22.482c-2.021-13.584-2.418-27.056-16.775-33.261c-7.452-3.221-15.839-4.614-23.934-4.436
			c-6.315,0.139-15.629,0.554-20.03,5.886c-2.743,3.323-2.809,8.352,0.599,11.183c0.046,0.038,0.093,0.063,0.14,0.095
			c0.264,0.26,0.578,0.461,0.928,0.586c8.129,31.805,22.259,65.29,48.767,85.812c24.19,18.727,54.656,27.297,83.997,34.075
			c7.457,1.723,16.982,4.407,24.561,1.92c6.316-2.073,6.87-10.34,8.615-15.763c5.776-17.948,9.028-35.519,9.372-54.405
			c0.347-19.063-1.294-38.089-1.48-57.145c-0.187-19.158,1.813-37.79,6.634-56.349c8.569-32.988,24.343-67.174,20.185-102.033
			C314.796,259.407,308.859,245.918,295.311,242.565z"/>
		<path style="fill:#FF9B2F;" d="M500.893,507.561c-5.012-7.813-10.82-14.477-17.516-20.888
			c-14.041-13.444-27.977-32.076-31.755-51.564c-2.015-10.395-1.152-21.052-1.718-31.563c-0.502-9.338-2.198-18.546-4.381-27.626
			c-4.666-19.415-11.596-38.562-12.512-58.677c-0.642-14.115,1.197-31.252-15.121-36.964c-13.786-4.825-29.867,0.355-40.486,9.689
			c-5.472,4.81-9.513,10.812-12.097,17.606c-0.024,0.063-0.034,0.122-0.049,0.182c-0.011,0.028-0.026,0.051-0.036,0.08
			c-0.861,2.546-1.726,5.078-2.381,7.687c-0.022,0.087-0.03,0.17-0.037,0.252c-0.091,0.265-0.15,0.541-0.191,0.822
			c-0.201,0.529-0.187,1.082-0.342,1.619c-0.016,0.056-0.021,0.115-0.03,0.173c-5.207,16.513-10.117,33.119-14.669,49.826
			c-5.195,19.07-11.113,38.275-5.417,57.918c3.021,10.42,7.315,20.215,7.737,31.22c0.383,9.978-0.92,20.116-2.053,30.012
			c-1.286,11.232-2.974,22.415-5.048,33.528c-1.417,7.592-4.505,16.281-2.878,24.076c3.675,17.6,25.298,13.109,36.981,7.931
			c7.453-3.304,14.535-8.136,18.381-15.543c3.518-6.775,4.059-14.673,3.07-22.13c-1.258-9.482-5.167-18.251-8.684-27.057
			c-4.002-10.023-6.527-20.045-7.816-30.763c-1.165-9.687-1.981-19.371-3.693-28.986c-1.934-10.864-2.924-21.477-2.307-32.514
			c0.594-10.62,1.643-21.563,3.695-32.004c0.982-4.995,2.649-10.138,6.506-13.674c4.536-4.157,11.456-5.031,15.685-0.07
			c5.685,6.669,4.805,17.976,5.323,26.119c0.697,10.947,1.398,21.894,2.122,32.839c0.724,10.945,1.47,21.889,2.256,32.83
			c0.676,9.406,0.424,19.592,3.026,28.724c2.628,9.222,8.694,17.71,13.459,25.934c5.151,8.89,10.207,17.915,15.83,26.518
			c3.844,5.881,8.494,11.587,15.131,14.379c3.795,1.597,7.883,2.043,11.926,2.579c5.177,0.686,9.777,1.964,14.586,3.969
			c6.291,2.622,13.888,6.088,20.428,2.187c5.346-3.189,7.204-9.961,6.37-15.818C511.006,522.098,505.318,514.459,500.893,507.561z"
			/>
		<path style="fill:#FF9B2F;" d="M687.969,258.953c-11.923-5.397-24.055-5.98-35.54-3.239c-4.904,1.563-9.714,3.353-14.327,6.027
			c-3.319,1.923-6.255,4.169-9.007,6.602c-0.823,0.599-1.601,1.254-2.319,1.973c-0.432,0.34-0.84,0.709-1.234,1.093
			c-0.651,0.569-1.269,1.168-1.836,1.808c-1.018,0.936-1.999,1.912-2.958,2.914c-0.941,0.938-1.844,1.918-2.708,2.94
			c-0.012,0.013-0.023,0.027-0.035,0.04c-0.167,0.197-0.33,0.398-0.494,0.599c-0.186,0.225-0.376,0.446-0.557,0.677
			c-0.044,0.057-0.076,0.116-0.111,0.174c-0.045,0.058-0.092,0.115-0.136,0.173c-0.051,0.044-0.104,0.086-0.148,0.14
			c-0.015,0.019-0.03,0.037-0.045,0.056c-0.015,0.013-0.03,0.027-0.045,0.04c-0.011,0.023-0.028,0.042-0.039,0.065
			c-0.01,0.012-0.019,0.024-0.029,0.036c-0.018,0.021-0.036,0.043-0.054,0.064c-0.004,0.005-0.009,0.01-0.013,0.015
			c-0.003,0.003-0.005,0.007-0.008,0.011c-0.136,0.165-0.271,0.334-0.408,0.515c-0.261,0.343-0.516,0.694-0.723,1.073
			c-0.029,0.029-0.051,0.065-0.081,0.093c-0.6,0.964-1.2,1.927-1.777,2.908c-2.651,3.848-4.883,7.911-6.883,12.094
			c-0.017,0.034-0.036,0.067-0.053,0.101c-0.022,0.043-0.039,0.087-0.06,0.13c-0.89,1.626-1.689,3.292-2.271,5.022
			c-0.91,2.096-1.79,4.208-2.657,6.327c-0.038,0.069-0.077,0.137-0.107,0.216c-0.051,0.136-0.098,0.273-0.149,0.409
			c-0.074,0.181-0.149,0.361-0.222,0.542c-0.047,0.114-0.078,0.224-0.096,0.33c-2.532,6.805-4.756,13.712-6.937,20.637
			c-0.041,0.09-0.077,0.185-0.104,0.292c-2.57,10.439-5.185,20.93-7.148,31.504c-0.019,0.1-0.023,0.195-0.025,0.289
			c-0.003,0.022-0.013,0.04-0.016,0.063c-0.05,0.522-0.11,1.043-0.178,1.563c0,0,0,0.001,0,0.002
			c-0.223,1.33-0.447,2.661-0.669,3.991c-0.017,0.102-0.021,0.2-0.02,0.296c-0.651,3.298-1.241,6.599-1.753,9.939
			c-0.352,2.301-0.674,4.599-0.98,6.896c-0.001,0.006-0.003,0.011-0.004,0.018c-0.013,0.091-0.024,0.181-0.037,0.272
			c-0.013,0.101-0.03,0.203-0.043,0.304c0,0.002,0.001,0.004,0.001,0.006c-0.307,2.213-0.584,4.425-0.76,6.645
			c-0.631,4.712-1.012,9.468-1.286,14.202c-0.01,0.015-0.018,0.031-0.029,0.046c-0.061,0.902-0.14,1.799-0.193,2.703
			c0.051,3.739,0.102,7.481,0.022,11.232c0.073,0.523,0.057,1.045-0.036,1.557c0.006,0.312,0.01,0.624,0.044,0.935
			c0.041,0.374,0,0.75-0.091,1.119c0.102,5.566,0.384,11.126,0.091,16.694c-0.006,0.116-0.022,0.225-0.034,0.337
			c0.227,7.134,0.506,14.266,0.866,21.395c0.23,4.55,1.351,9.934,0.687,14.455c-0.96,6.538-7.863,7.776-12.651,4.382
			c-8.106-5.746-7.226-20.704-7.441-29.398c-0.513-20.763,0.364-41.232-2.217-61.919c-2.471-19.805-6.58-39.362-10.898-58.833
			c-2.275-10.26-4.715-20.538-8.715-30.286c-3.316-8.081-7.821-17.807-15.528-22.601c-12.165-7.566-36.261-6.585-38.988,10.576
			c-0.002,0.015-0.008,0.026-0.01,0.041c-0.003,0.02-0.004,0.04-0.006,0.061c-0.035,0.231-0.083,0.453-0.11,0.69
			c-0.015,0.132-0.013,0.252,0.001,0.366c-0.09,1.131-0.07,2.242,0.055,3.335c0.108,2.088,0.457,4.116,1.047,6.089
			c0.276,1.516,0.764,2.964,1.323,4.415c3.883,13.927,14.887,25.587,21.463,38.506c10.317,20.267,11.928,45.045,12.775,67.376
			c0.832,21.916-0.676,43.932,0.691,65.818c1.206,19.312,6.908,35.93,20.057,50.349c10.594,11.618,24.932,26.993,42.369,23.787
			c16.356-3.007,26.079-19.145,29.035-34.271c1.896-9.7,1.854-19.621,2.021-29.462c0.193-11.336,0.695-22.665,1.525-33.972
			c1.674-22.804,4.658-45.507,8.938-67.968c8.489-44.548,19.923-97.72,61.029-123.85
			C688.833,260.994,689.054,259.444,687.969,258.953z"/>
	</g>
</g>
</svg>
