<?xml version="1.0" encoding="iso-8859-1"?>
<!-- Generator: Adobe Illustrator 26.2.1, SVG Export Plug-In . SVG Version: 6.00 Build 0)  -->
<svg version="1.1" id="Capa_1" xmlns="http://www.w3.org/2000/svg" xmlns:xlink="http://www.w3.org/1999/xlink" x="0px"
	y="0px" viewBox="0 0 500 500" style="enable-background:new 0 0 500 500;" xml:space="preserve">
	<g>
		<g>
			<path d="M311.554,350.772C375.5,312.5,420.5,297.5,451.789,292.719c3.305-0.505,13.605-4.101,13.484-9.9
			c-0.043-2.082-1.089-3.99-2.038-5.844c-12.409-24.246-11.816-52.952-8.939-80.037c0.698-6.574,1.344-13.84-2.531-19.197
			c-5.732-7.923-18.839-6.776-25.853,0.038c-7.014,6.814-9.245,17.121-10.127,26.86c-1.69,18.663,0.363,37.657,6.001,55.527
			c-18.048,5.308-33.362,11.348-50.427,19.638c-5.976,2.903-15.922,8.838-21.858,11.696c12.001-26.833,23-60,24.066-88.794
			c1.285-12.178,1.768-24.478,0.638-36.672c-5.156-55.634-18.22-75.374-34.637-98.856C333.5,58.5,326.5,51.5,318.415,46.144
			c-2.943-1.95-11.915-3.644-20.245,0.559c-6.092,3.074-10.67,5.797-14.836,11.21c-2.116,2.749-4.391,6.061-4.365,9.53
			c0.021,2.734,0.819,5.089,2.515,7.233c17.135,21.663,32.454,45.022,42.705,70.669c10.251,25.648,13.283,53.754,9.579,81.124
			c-4.153,30.688-15.983,59.003-33.841,84.304c-1.22,1.729-2.427,3.726-5.177,7.757c-1.674,2.453-3.321,6.071-2.498,10.065
			c2.248,10.904,9.32,23.97,14.738,23.526C308.899,351.965,311.209,350.978,311.554,350.772z" />
			<g>
				<path d="M312.311,352.067c25.226-15.085,51.294-29.006,78.56-40.056c18.099-7.335,36.817-13.485,56.064-16.968
				c4.021-0.728,7.835-1.253,11.599-2.961c4.483-2.033,9.265-5.666,7.982-11.193c-0.383-1.65-1.225-3.174-1.986-4.672
				c-0.877-1.727-1.707-3.478-2.464-5.262c-1.52-3.582-2.778-7.278-3.818-11.026c-2.032-7.325-3.202-14.863-3.755-22.439
				c-0.557-7.646-0.518-15.325-0.127-22.978c0.384-7.514,1.418-14.969,1.866-22.471c0.38-6.367-0.441-13.512-5.732-17.8
				c-4.296-3.482-10.157-4.148-15.428-2.963c-13.49,3.034-18.714,17.044-20.34,29.333c-2.119,16.007-1.048,32.595,2.477,48.325
				c0.878,3.919,1.929,7.796,3.129,11.629c0.349-0.615,0.698-1.23,1.048-1.845c-20.459,6.035-40.537,13.948-59.227,24.269
				c-4.442,2.453-8.848,5.001-13.416,7.216c0.684,0.684,1.368,1.368,2.052,2.052c9.498-21.276,17.429-43.54,21.623-66.51
				c1.011-5.538,1.795-11.124,2.264-16.735c0.509-6.093,1.026-12.21,1.36-18.316c0.698-12.741-0.17-25.339-1.807-37.977
				c-2.295-17.719-5.966-35.365-13.044-51.84c-5.181-12.061-12.323-22.991-19.813-33.718c-3.128-4.48-6.528-8.755-10.392-12.627
				c-3.591-3.599-7.621-7.186-12.002-9.803c-3.495-2.087-8.246-2.399-12.191-2.008c-5.433,0.539-10.264,2.875-14.878,5.676
				c-4.436,2.693-8.091,6.152-11.086,10.388c-3.119,4.412-4.507,9.511-1.971,14.57c1.281,2.556,3.454,4.767,5.187,7.023
				c1.829,2.381,3.632,4.781,5.408,7.202c3.443,4.695,6.778,9.47,9.978,14.335c13.063,19.858,24.351,41.477,29.956,64.701
				c5.686,23.558,5.715,48.251,0.797,71.945c-4.622,22.271-13.508,43.467-25.668,62.663c-2.602,4.107-5.438,8.053-8.102,12.118
				c-2.748,4.193-6.136,8.32-5.866,13.642c0.132,2.61,0.988,5.257,1.806,7.723c0.822,2.48,1.811,4.913,2.954,7.263
				c1.794,3.686,4.074,7.661,7.433,10.145C305.684,354.292,309.197,353.735,312.311,352.067c1.702-0.912,0.189-3.503-1.514-2.59
				c-1.287,0.69-3.319,1.458-4.774,1.043c-1.411-0.403-2.568-1.644-3.503-2.708c-3.06-3.484-5.141-7.98-6.717-12.298
				c-0.867-2.374-1.634-4.83-2.105-7.317c-0.505-2.666,0.236-5.335,1.56-7.651c2.121-3.712,4.746-7.236,7.178-10.754
				c12.42-17.966,22.05-37.901,27.871-58.974c6.099-22.079,8.075-45.321,5.095-68.061c-1.526-11.643-4.277-23.112-8.352-34.129
				c-3.96-10.708-8.952-21.056-14.531-31.009c-5.602-9.992-11.862-19.605-18.551-28.901c-3.263-4.534-6.631-8.991-10.075-13.388
				c-1.778-2.271-3.281-4.393-3.412-7.378c-0.126-2.867,1.335-5.382,2.938-7.651c2.881-4.078,6.497-7.275,10.802-9.782
				c4.749-2.765,9.586-4.937,15.183-4.92c2.067,0.006,4.137,0.256,6.113,0.878c1.87,0.589,3.407,1.79,4.972,2.938
				c4.277,3.139,8.175,6.797,11.689,10.768c5.038,5.693,9.272,12.156,13.439,18.505c3.437,5.237,6.661,10.615,9.485,16.209
				c7.118,14.1,11.392,29.384,14.153,44.889c1.997,11.215,3.512,22.666,3.959,34.055c0.244,6.219,0.116,12.449-0.278,18.659
				c-0.371,5.841-0.814,11.703-1.342,17.532c-2.049,22.618-8.846,44.799-17.138,65.847c-1.971,5.002-4.059,9.955-6.251,14.864
				c-0.613,1.374,0.641,2.737,2.052,2.052c7.959-3.859,15.446-8.618,23.421-12.451c9.959-4.788,20.121-9.141,30.522-12.88
				c5.934-2.133,11.937-4.068,17.985-5.853c0.757-0.223,1.294-1.058,1.048-1.845c-4.768-15.222-6.974-31.168-6.443-47.114
				c0.237-7.122,0.803-14.396,2.916-21.239c1.792-5.804,4.998-11.717,10.351-14.932c4.524-2.718,10.502-3.735,15.498-1.727
				c6.059,2.436,7.817,8.816,7.769,14.817c-0.029,3.527-0.506,7.034-0.852,10.539c-0.358,3.636-0.667,7.277-0.902,10.922
				c-0.477,7.39-0.658,14.807-0.325,22.208c0.651,14.468,3.315,28.95,9.528,42.115c1.192,2.526,3.933,6.059,2.707,8.977
				c-0.851,2.026-3.037,3.387-4.885,4.381c-3.547,1.909-7.217,2.519-11.12,3.198c-18.231,3.172-35.994,8.787-53.197,15.529
				c-25.327,9.927-49.632,22.366-73.166,35.967c-3.454,1.996-6.891,4.02-10.314,6.068
				C309.141,350.466,310.648,353.061,312.311,352.067z" />
			</g>
		</g>
		<g>
			<path d="M169.582,372.254c6.165-3.291,16.264-7.642,28.355-11.69c-15.361-1.112-30.557-5.487-44.945-10.982
			c-23.434-8.951-44.469-22.406-63.17-39.126c-7.92-7.082-13.628-14.339-19.785-23.016c-23.682-33.37-30.612-62.715-35.01-103.509
			c-0.638-5.916-1.137-12.315,1.931-17.414c1.876-3.117,4.897-5.375,8.036-7.215c10.099-5.917,23.773-7.893,33.073-0.786
			c9.098,6.952,10.908,19.676,12.24,31.048c3.786,32.324,10.1,65.968,30.409,91.398c14.702,18.408,35.702,30.97,57.795,39.151
			c22.093,8.181,45.443,12.303,68.643,16.402c2.775,0.49,5.655,1.023,7.945,2.666c1.87,1.341,3.183,3.311,4.346,5.296
			c3.364,5.74,5.836,12.001,7.302,18.49c0.472,2.088,0.815,4.387-0.182,6.281c-1.048,1.992-3.284,3.001-5.364,3.862
			c-45.772,18.94-95.194,35.594-127.874,72.82c-2.703,3.079-5.353,6.349-8.924,8.356c-3.572,2.007-8.386,2.445-11.567-0.136
			c-1.702-1.381-2.717-3.413-3.712-5.366c-15.122-29.678-37.395-55.681-64.399-75.181c-4.332-3.128-9.17-6.682-9.983-11.964
			c-0.83-5.388,3.037-10.495,7.624-13.441c8.413-5.403,19.424-5.658,28.889-2.437c9.465,3.221,17.574,9.561,24.643,16.632
			c11.681,11.683,21.043,25.675,27.386,40.929C125.98,399.358,159.879,377.434,169.582,372.254z" />
			<g>
				<path d="M170.339,373.549c8.91-4.734,18.449-8.331,27.997-11.539c1.632-0.548,1.296-2.819-0.399-2.946
				c-19.16-1.436-38.159-7.566-55.55-15.551c-16.376-7.519-31.639-17.369-45.469-28.905c-6.853-5.716-13.212-11.823-18.788-18.807
				c-5.481-6.866-10.509-14.156-15.044-21.678c-8.13-13.485-14.299-27.979-18.427-43.173c-4.301-15.83-6.683-32.203-8.287-48.509
				c-0.426-4.335-0.732-8.956,0.865-13.105c1.557-4.044,5.068-6.749,8.706-8.852c6.686-3.865,14.986-6.102,22.686-4.548
				c17.222,3.477,18.862,23.036,20.616,37.268c2.097,17.021,4.908,34.072,10.293,50.398c5.314,16.113,13.259,31.398,24.844,43.91
				c11.5,12.42,25.935,21.879,41.261,28.898c17.202,7.878,35.577,12.738,54.061,16.521c9.639,1.972,19.387,3.407,29.019,5.397
				c2.154,0.445,4.388,1.049,6.084,2.525c1.664,1.447,2.795,3.393,3.867,5.292c2.305,4.085,4.146,8.412,5.493,12.904
				c0.641,2.137,1.363,4.399,1.515,6.635c0.156,2.291-0.759,3.843-2.717,4.952c-3.535,2.002-7.629,3.279-11.389,4.805
				c-7.752,3.146-15.52,6.252-23.254,9.441c-15.463,6.378-30.834,13.075-45.523,21.104c-14.336,7.836-28.038,16.99-40.04,28.12
				c-3.04,2.819-5.966,5.762-8.759,8.827c-2.837,3.115-5.423,6.704-8.906,9.144c-3.107,2.177-7.808,3.556-11.154,1.044
				c-1.671-1.255-2.594-3.281-3.521-5.093c-0.967-1.89-1.956-3.767-2.977-5.628c-8.266-15.066-18.405-29.116-30.042-41.759
				c-5.805-6.307-11.991-12.262-18.518-17.819c-3.267-2.782-6.622-5.461-10.049-8.042c-3.165-2.384-6.608-4.53-9.357-7.412
				c-2.777-2.911-4.188-6.638-2.699-10.554c1.458-3.835,4.857-6.658,8.397-8.51c7.562-3.958,16.773-3.907,24.778-1.392
				c8.434,2.65,15.788,7.953,22.187,13.93c6.484,6.057,12.289,12.865,17.309,20.178c4.886,7.118,9.06,14.736,12.392,22.701
				c0.506,1.21,1.954,1.481,2.742,0.358c0.015-0.021-0.171,0.183,0.081-0.09c0.124-0.134,0.25-0.266,0.379-0.395
				c0.337-0.336,0.695-0.649,1.056-0.959c0.986-0.846,2.016-1.64,3.054-2.419c3.032-2.275,6.15-4.437,9.282-6.571
				c7.417-5.052,14.959-9.933,22.603-14.634C164.099,377.131,167.171,375.246,170.339,373.549c1.702-0.912,0.189-3.503-1.514-2.59
				c-6.673,3.575-13.058,7.746-19.417,11.842c-7.239,4.663-14.471,9.392-21.38,14.536c-2.053,1.529-4.541,3.099-6.037,5.231
				c0.914,0.119,1.828,0.239,2.742,0.358c-7.042-16.839-17.567-32.335-31.025-44.716c-6.647-6.115-14.266-11.467-22.959-14.19
				c-8.144-2.551-17.265-2.627-25.17,0.786c-7.068,3.051-14.678,10.438-11.884,18.887c1.252,3.785,4.217,6.605,7.287,8.987
				c3.394,2.635,6.929,5.078,10.295,7.753c14.017,11.137,26.643,24.077,37.389,38.399c5.34,7.117,10.234,14.569,14.633,22.303
				c1.09,1.916,2.149,3.849,3.178,5.798c1.038,1.967,1.938,4.061,3.202,5.898c2.344,3.406,6.011,5.008,10.115,4.506
				c4.316-0.528,7.843-3.071,10.804-6.118c3.016-3.104,5.731-6.488,8.751-9.593c5.936-6.104,12.401-11.689,19.237-16.762
				c13.821-10.255,29.017-18.508,44.58-25.784c15.772-7.374,31.976-13.763,48.105-20.3c3.956-1.603,7.979-3.112,11.865-4.88
				c1.699-0.773,3.331-1.79,4.396-3.362c1.201-1.773,1.311-3.941,1.025-6c-0.645-4.644-2.313-9.263-4.154-13.554
				c-1.755-4.092-3.838-8.801-7.114-11.921c-3.376-3.216-8.114-3.707-12.498-4.483c-5.069-0.897-10.137-1.802-15.195-2.757
				c-10.015-1.892-19.999-3.983-29.85-6.606c-18.009-4.796-35.62-11.461-51.334-21.611c-14.982-9.678-27.521-22.449-36.19-38.087
				c-8.624-15.557-13.46-32.907-16.667-50.313c-1.618-8.783-2.792-17.632-3.848-26.497c-0.93-7.81-2.015-15.912-5.742-22.959
				c-3.694-6.983-10.167-11.827-18.034-12.96c-8.016-1.154-16.339,1.015-23.308,4.993c-3.684,2.103-7.286,4.806-9.322,8.62
				c-2.085,3.906-2.418,8.429-2.185,12.774c0.478,8.931,1.877,17.931,3.264,26.76c2.506,15.948,6.278,31.718,12.468,46.663
				c6.611,15.959,15.738,30.771,26.389,44.345c11.403,14.533,26.41,26.296,41.914,36.192c16.061,10.252,33.583,18.118,51.869,23.467
				c9.435,2.76,19.106,4.724,28.918,5.459c-0.133-0.982-0.266-1.964-0.399-2.946c-9.787,3.288-19.58,6.989-28.714,11.841
				C167.12,371.865,168.634,374.455,170.339,373.549z" />
			</g>
		</g>
		<g>
			<path d="M170.782,143.72c-2.303,14.661-4.612,37.293-5.21,47.235c-0.594,9.873-0.679,18.403,0.839,28.571
			c3.207,21.49,15.858,42.199,35.409,51.678c19.551,9.478,45.774,5.433,59.106-11.723c3.204-4.123,5.613-8.818,7.541-13.672
			c11.482-28.908,4.672-64.204-16.739-86.766c-13.056-13.758-30.517-22.642-43.919-36.063c-5.214-5.221-10.042-11.989-9.118-19.309
			c0.917-7.266,7.195-12.607,13.478-16.37c5.319-3.186,10.979-5.803,16.852-7.791c4.775-1.617,9.916-2.823,14.83-1.698
			c3.802,0.871,7.154,3.069,10.303,5.371c22.018,16.094,38.474,39.263,48.068,64.793c9.594,25.53,12.496,53.335,10.147,80.507
			c-1.184,13.699-4.714,27.4-10.048,40.073c-2.992,7.109-6.492,14.057-10.918,20.374c-3.903,5.571-7.11,8.476-11.489,11.934
			c-7.426,5.864-15.36,8.3-24.806,8.839c-34.233,1.955-70.05-5.81-96.802-27.259c-20.064-16.087-34.034-39.152-40.913-63.931
			c-6.879-24.779-6.894-51.189-2.008-76.438c0.701-3.623,1.574-7.382,3.938-10.216c2.362-2.832,5.902-4.367,9.35-5.678
			c7.513-2.857,15.25-5.125,23.117-6.778c8.07-1.695,12.453-1.11,15.523,1.79c3.982,3.761,3.965,11.115,3.954,16.209
			C171.259,140.698,170.873,143.141,170.782,143.72z" />
			<g>
				<path d="M169.336,143.321c-2.357,15.063-4.049,30.307-5.124,45.516c-1.233,17.438-0.527,35.15,6.724,51.323
				c6.437,14.357,17.672,27.094,32.326,33.336c13.649,5.814,29.787,5.628,43.224-0.715c6.834-3.226,12.735-8.145,17.06-14.345
				c4.963-7.115,8.126-15.628,9.987-24.063c3.484-15.789,2.256-32.568-3.247-47.756c-2.728-7.528-6.474-14.698-11.237-21.14
				c-5.199-7.032-11.555-12.971-18.405-18.37c-7.183-5.662-14.776-10.783-21.927-16.486c-3.531-2.816-6.968-5.773-10.138-8.994
				c-3.07-3.12-6.015-6.708-7.516-10.877c-1.458-4.05-1.263-8.298,0.883-12.064c2.017-3.539,5.212-6.297,8.552-8.55
				c3.856-2.602,8.042-4.767,12.299-6.629c4.503-1.969,9.361-3.855,14.266-4.465c4.977-0.619,9.318,0.759,13.473,3.449
				c3.674,2.379,7.122,5.158,10.435,8.012c6.556,5.647,12.537,11.952,17.888,18.75c10.901,13.846,19.12,29.777,24.496,46.539
				c6.083,18.969,8.632,38.944,8.248,58.835c-0.192,9.93-1.02,19.841-3.134,29.558c-2.127,9.778-5.352,19.312-9.551,28.394
				c-3.836,8.296-8.483,16.713-15.176,23.06c-6.175,5.856-13.31,10.128-21.729,11.743c-4.296,0.824-8.696,0.969-13.059,1.067
				c-4.392,0.099-8.788,0.037-13.175-0.196c-8.848-0.469-17.655-1.634-26.3-3.582c-17.054-3.844-33.462-10.766-47.505-21.267
				c-13.874-10.374-24.987-24.17-32.984-39.484c-8.625-16.517-13.5-34.816-15.008-53.356c-0.82-10.087-0.686-20.244,0.273-30.317
				c0.478-5.025,1.17-10.028,2.058-14.998c0.759-4.248,1.341-9.271,4.326-12.628c2.926-3.291,7.516-4.706,11.536-6.136
				c4.826-1.717,9.737-3.194,14.71-4.423c4.277-1.057,8.744-2.252,13.188-2.088c2.8,0.103,5.53,1.067,7.188,3.444
				c1.973,2.828,2.323,6.572,2.453,9.918C169.846,136.655,169.851,140.032,169.336,143.321c-0.296,1.889,2.594,2.702,2.893,0.798
				c0.55-3.51,0.621-7.065,0.494-10.611c-0.132-3.696-0.554-7.656-2.44-10.917c-3.939-6.812-12.267-6.014-18.893-4.633
				c-5.091,1.061-10.127,2.397-15.082,3.974c-4.473,1.423-9.169,2.861-13.301,5.128c-4.044,2.218-6.63,5.608-7.977,9.996
				c-1.42,4.627-2.05,9.591-2.724,14.371c-2.861,20.288-2.551,41.086,2.027,61.105c3.98,17.406,11.275,34.143,21.778,48.613
				c10.396,14.322,23.82,26.14,39.496,34.389c15.848,8.339,33.372,13.086,51.13,14.996c8.94,0.961,17.957,1.191,26.937,0.75
				c8.79-0.432,17.294-2.361,24.651-7.393c7.399-5.061,13.111-11.682,17.7-19.34c5.121-8.547,9.072-17.895,12.083-27.381
				c6.143-19.347,7.465-39.946,6.061-60.115c-1.371-19.697-5.772-39.188-13.687-57.304c-7.04-16.113-16.884-31.068-29.183-43.656
				c-3.045-3.117-6.244-6.084-9.586-8.881c-3.462-2.897-7.063-5.81-10.956-8.112c-4.218-2.494-8.8-3.633-13.692-3.056
				c-4.979,0.587-9.781,2.344-14.38,4.275c-8.032,3.373-16.839,7.792-22.114,14.99c-2.436,3.324-3.818,7.437-3.43,11.578
				c0.422,4.508,2.526,8.603,5.232,12.165c5.498,7.238,13.028,12.933,20.254,18.334c7.496,5.603,15.239,10.908,22.245,17.135
				c6.337,5.632,11.826,12.038,16.136,19.351c4.198,7.122,7.268,14.862,9.186,22.901c3.802,15.935,2.947,32.995-3.035,48.29
				c-3.136,8.019-7.776,15.525-14.775,20.71c-6.046,4.479-13.191,7.228-20.606,8.373c-7.361,1.136-15.025,0.593-22.16-1.525
				c-7.617-2.261-14.574-6.472-20.407-11.837c-12.09-11.119-19.319-26.772-21.534-42.918c-2.285-16.654-0.293-33.682,1.528-50.292
				c0.859-7.835,1.805-15.665,3.024-23.453C172.524,142.23,169.634,141.416,169.336,143.321z" />
			</g>
		</g>
	</g>
</svg>