<?xml version="1.0" encoding="iso-8859-1"?>
<!-- Generator: Adobe Illustrator 26.2.1, SVG Export Plug-In . SVG Version: 6.00 Build 0)  -->
<svg version="1.1" id="Capa_1" xmlns="http://www.w3.org/2000/svg" xmlns:xlink="http://www.w3.org/1999/xlink" x="0px" y="0px"
	 viewBox="0 0 400 350" style="enable-background:new 0 0 400 350;" xml:space="preserve">
<g>
	<g>
		<path style="fill:#F0E0BC;" d="M198.157,88.283c6.007-0.298,9.01-0.448,128.53-0.896c6.39-0.024,18.853-0.332,24.885,7.804
			c3.587,4.838,3.803,11.304,3.876,17.326c0.731,60.038,1.462,120.076,2.194,180.114c0.046,3.778,0.064,7.696-1.494,11.138
			c-3.457,7.64-13.014,10.041-21.353,10.926c-14.195,1.508-28.508,1.323-42.782,1.137c-69.147-0.903-138.295-1.805-207.442-2.708
			c-8.564-0.112-17.71-0.402-24.722-5.322c-9.517-6.677-11.996-19.556-12.859-31.15c-1.081-14.534-0.849-29.129-0.616-43.701
			c0.574-35.862,1.147-71.724,1.721-107.586c0.102-6.347,0.284-16.003,3.439-21.511c5.348-9.338,9.922-12.076,23.669-12.832
			C112,89,139,88,193.01,88.535C193.851,88.544,195.286,88.425,198.157,88.283z"/>
		<g>
			<path style="fill:#FF9B2F;" d="M198.157,91.283c1.283-0.064,2.566-0.118,3.85-0.155c2.647-0.076,5.296-0.109,7.944-0.141
				c5.588-0.068,11.176-0.108,16.764-0.145c10.104-0.068,20.208-0.119,30.312-0.167c16.196-0.077,32.391-0.143,48.587-0.207
				c8.916-0.035,17.9-0.408,26.809-0.016c6.468,0.285,14.166,1.695,17.634,7.923c2.113,3.796,2.283,8.389,2.368,12.628
				c0.11,5.472,0.138,10.947,0.205,16.42c0.136,11.179,0.272,22.359,0.408,33.538c0.272,22.359,0.545,44.718,0.817,67.077
				c0.136,11.179,0.272,22.359,0.408,33.538c0.135,11.069,0.466,22.155,0.391,33.224c-0.028,4.151-0.59,8.189-3.723,11.174
				c-2.606,2.483-6.164,3.755-9.597,4.596c-4.332,1.061-8.802,1.4-13.239,1.717c-5.49,0.392-10.994,0.573-16.497,0.638
				c-22.251,0.262-44.537-0.419-66.787-0.709c-22.359-0.292-44.718-0.584-67.077-0.876s-44.718-0.584-67.077-0.876
				c-10.715-0.14-21.49,0.04-32.192-0.507c-8.261-0.422-16.814-2.342-21.805-9.545c-4.503-6.499-5.904-14.692-6.562-22.417
				c-0.927-10.874-0.986-21.821-0.89-32.726c0.197-22.348,0.685-44.697,1.043-67.044c0.179-11.194,0.358-22.388,0.537-33.582
				c0.088-5.493,0.176-10.987,0.264-16.48c0.069-4.306,0.084-8.623,0.516-12.913c0.377-3.74,1.113-7.469,3.051-10.728
				c1.533-2.578,2.911-4.626,5.281-6.535c0.386-0.311-0.308,0.223,0.092-0.069c0.118-0.087,0.237-0.174,0.359-0.255
				c0.245-0.163,0.49-0.327,0.741-0.481c0.598-0.366,1.22-0.694,1.859-0.983c0.373-0.168,0.064-0.048,0.589-0.232
				c0.308-0.108,0.614-0.218,0.924-0.318c0.771-0.246,1.554-0.452,2.343-0.628c3.651-0.815,7.404-0.947,11.127-1.149
				c14.376-0.78,28.757-1.46,43.148-1.879c16.553-0.482,33.113-0.63,49.672-0.597C179.885,91.415,189.037,91.746,198.157,91.283
				c3.842-0.195,3.866-6.196,0-6c-9.564,0.486-19.167,0.126-28.743,0.112c-9.032-0.013-18.064,0.028-27.095,0.151
				c-15.011,0.204-30.015,0.661-45.011,1.349c-7.538,0.346-15.077,0.704-22.609,1.157c-6.961,0.419-14.195,1.375-19.605,6.173
				c-2.392,2.121-4.251,4.86-5.852,7.605c-2.188,3.751-3.028,7.965-3.542,12.228c-0.527,4.37-0.562,8.779-0.633,13.174
				c-0.091,5.701-0.182,11.401-0.274,17.102c-0.365,22.802-0.729,45.605-1.094,68.407c-0.183,11.458-0.431,22.918-0.505,34.377
				c-0.07,10.88-0.03,21.847,1.073,32.682c0.844,8.289,2.509,17.083,7.463,23.995c2.607,3.638,5.981,6.674,10.054,8.588
				c4.379,2.058,9.083,2.961,13.877,3.382c5.022,0.441,10.086,0.374,15.123,0.44c5.693,0.074,11.387,0.149,17.08,0.223
				c11.387,0.149,22.773,0.297,34.16,0.446c22.877,0.299,45.753,0.597,68.63,0.896s45.753,0.597,68.63,0.896
				c11.279,0.147,22.566,0.417,33.847,0.238c5.604-0.089,11.208-0.306,16.796-0.755c4.571-0.368,9.198-0.787,13.646-1.956
				c3.99-1.049,7.849-2.726,11-5.43c3.638-3.121,5.395-7.486,5.898-12.168c0.574-5.333,0.114-10.858,0.048-16.212
				c-0.069-5.693-0.139-11.387-0.208-17.08c-0.277-22.773-0.555-45.546-0.832-68.319c-0.279-22.877-0.557-45.753-0.836-68.63
				c-0.068-5.615-0.113-11.231-0.207-16.845c-0.082-4.876-0.392-9.859-2.344-14.389c-3.433-7.967-11.423-11.328-19.543-12.33
				c-3.139-0.387-6.294-0.419-9.452-0.405c-5.297,0.023-10.595,0.04-15.892,0.061c-9.453,0.037-18.906,0.074-28.359,0.114
				c-13.707,0.057-27.414,0.118-41.122,0.192c-8.056,0.044-16.112,0.09-24.168,0.159c-4.08,0.035-8.16,0.071-12.24,0.144
				c-1.823,0.033-3.646,0.072-5.467,0.149c-0.564,0.024-1.128,0.052-1.692,0.08C194.314,85.474,194.291,91.475,198.157,91.283z"/>
		</g>
	</g>
	<circle style="fill:#FFFFFF;stroke:#FF9B2F;stroke-width:3;stroke-miterlimit:10;" cx="325" cy="112" r="11.5"/>
	<ellipse style="fill:#6F4100;stroke:#6F4100;stroke-width:3;stroke-miterlimit:10;" cx="229" cy="203.5" rx="89.5" ry="86"/>
	<circle style="fill:#F0E0BC;stroke:#F0E0BC;stroke-width:3;stroke-miterlimit:10;" cx="229" cy="203" r="67.5"/>
	<circle style="fill:#051A4C;stroke:#051A4C;stroke-width:3;stroke-miterlimit:10;" cx="229" cy="202" r="45.5"/>
	<g>
		<path style="fill:#F7931E;" d="M127.032,185.44c7.015-2.422,13.626,2.401,14.384,2.972c2.815,2.12,3.752,3.15,8.368,13.055
			c2.201,4.722,4.616,9.587,8.748,12.76c4.978,3.822,12.167,4.51,17.78,1.703c6.419-3.211,10.228-10.502,10.327-17.679
			c0.099-7.177-3.112-14.124-7.774-19.58c-3.424-4.008-7.968-8.272-7.161-13.481c0.814-5.254,6.945-8.093,12.255-7.824
			c5.31,0.269,10.275,2.639,15.497,3.635c9.113,1.738,19.23-1.18,25.256-8.233c6.026-7.053,7.155-18.193,1.838-25.796
			c-1.146-1.638-2.61-3.137-4.473-3.862c-1.375-0.536-2.88-0.618-4.356-0.659c-5.596-0.156-11.269,0.187-16.73-1.047
			c-5.461-1.234-10.857-4.393-13.058-9.541c-1.113-2.604-1.214-5.912,0.694-8.005c1.023-1.122,2.467-1.741,3.812-2.445
			c13.004-6.814,18.046-25.418,10.264-37.866c-2.955-4.726-7.557-8.552-12.966-9.896c-5.409-1.344-11.583,0.053-15.42,4.096
			c-3.021,3.183-4.361,7.559-6.537,11.37c-2.176,3.811-5.962,7.396-10.322,6.901c-5.719-0.65-8.331-7.651-8.109-13.402
			s1.965-11.743-0.137-17.102c-1.935-4.935-6.854-8.206-11.986-9.534c-5.132-1.328-10.527-2.012-15.819-1.686
			c-4.129,0.254-8.508,1.593-11.856,4.023c-4.527,3.285-5.885,9.647-4.824,15.14c1.061,5.492,4.082,10.37,6.911,15.195
			c0.789,1.347,1.596,2.827,1.401,4.376c-0.213,1.695-1.596,3.026-3.104,3.829c-3.993,2.124-9.053,1.365-12.951-0.93
			s-6.826-5.913-9.412-9.624c-2.21-3.172-4.345-6.578-7.627-8.62c-2.936-1.826-6.499-2.359-9.956-2.406
			c-7.063-0.097-14.301,1.779-19.855,6.142c-5.554,4.364-9.191,11.393-8.588,18.431c0.762,8.893,7.765,16.003,15.254,20.859
			s15.936,8.361,22.522,14.385c2.088,1.91,4.102,4.523,3.525,7.294c-0.97,4.662-7.386,4.892-12.149,4.895
			c-7.265,0.005-14.668,2.246-20.136,7.029s-8.74,12.256-7.656,19.44c1.084,7.183,6.923,13.634,14.121,14.615
			c8.168,1.114,15.719-4.357,23.858-5.667c1.101-0.177,2.253-0.273,3.31,0.08c2.36,0.79,3.498,3.668,3.084,6.123
			c-0.414,2.454-1.996,4.537-3.649,6.399c-5.355,6.032-12.228,11.311-14.552,19.035c-2.414,8.025,1.175,17.285,7.994,22.156
			s16.293,5.402,23.937,1.968c7.163-3.218,14.231-10.509,15.917-18.499c0.503-2.385,0.678-5.525,3.062-8.924
			C120.747,189.957,123.001,186.832,127.032,185.44z"/>
		<g>
			<path style="fill:#F7931E;" d="M127.431,186.886c3.372-1.099,6.904-0.59,10.066,0.929c1.525,0.733,2.966,1.664,4.082,2.627
				c1.281,1.106,2.031,2.212,2.887,3.702c1.733,3.015,3.13,6.217,4.623,9.353c3.323,6.982,7.888,13.68,15.989,15.265
				c7.423,1.452,14.662-1.592,18.995-7.738c4.353-6.174,5.025-14.191,2.765-21.28c-1.239-3.889-3.245-7.483-5.745-10.698
				c-2.3-2.958-5.203-5.519-6.958-8.871c-1.558-2.975-1.306-6.301,1.259-8.598c2.402-2.152,5.876-2.912,9.02-2.684
				c4.423,0.32,8.59,2.12,12.863,3.163c3.67,0.895,7.439,1.164,11.19,0.683c7.213-0.924,14.092-4.445,18.452-10.362
				c4.22-5.727,5.662-13.598,3.645-20.431c-1.012-3.427-2.929-6.891-5.838-9.052c-3.507-2.606-8.417-1.971-12.535-2.011
				c-7.541-0.072-17.028-0.653-21.746-7.567c-1.977-2.898-2.95-7.284,0.547-9.438c1.484-0.914,3.087-1.584,4.532-2.573
				c1.282-0.878,2.497-1.866,3.605-2.954c4.461-4.381,7.378-10.334,8.353-16.491c0.977-6.166,0.159-12.614-2.913-18.106
				c-3.561-6.367-9.997-11.384-17.4-12.034c-3.573-0.314-7.304,0.455-10.422,2.24c-3.384,1.938-5.594,5.053-7.311,8.476
				c-1.731,3.452-3.116,7.171-6.034,9.835c-2.43,2.218-6.004,3.237-8.763,0.982c-2.294-1.875-3.351-5.065-3.688-7.913
				c-0.468-3.945,0.5-7.938,0.729-11.87c0.236-4.059-0.319-8.224-2.754-11.595c-2.127-2.945-5.137-5.041-8.476-6.405
				c-3.895-1.59-8.308-2.249-12.478-2.595c-4.202-0.349-8.528-0.247-12.591,0.976c-3.553,1.07-7.105,2.894-9.381,5.902
				c-2.135,2.822-3.076,6.428-3.111,9.932c-0.04,3.977,1.198,7.806,2.86,11.377c0.904,1.943,1.951,3.815,3.026,5.667
				c0.961,1.655,2.681,3.686,2.785,5.658c0.099,1.888-1.928,3.101-3.472,3.651c-1.797,0.64-3.784,0.719-5.65,0.359
				c-4.037-0.779-7.31-3.27-10.006-6.273c-2.644-2.945-4.612-6.387-7.083-9.465c-2.501-3.116-5.655-5.351-9.584-6.253
				c-7.627-1.75-16.545-0.252-23.299,3.632c-6.713,3.86-11.643,10.702-12.396,18.494c-0.737,7.623,3.319,14.612,8.651,19.732
				c5.775,5.545,13.012,9.01,19.843,13.024c3.523,2.071,7.028,4.307,9.997,7.138c2.186,2.085,4.545,5.976,1.009,8.001
				c-2.538,1.454-5.892,1.335-8.719,1.349c-3.96,0.019-7.935,0.595-11.679,1.911c-7.385,2.596-13.499,7.872-16.409,15.22
				c-2.733,6.9-1.785,14.689,2.928,20.475c2.146,2.635,5.011,4.682,8.231,5.782c3.635,1.242,7.578,0.963,11.248,0.029
				c3.972-1.011,7.713-2.737,11.62-3.956c1.902-0.593,4.17-1.387,6.188-1.19c1.646,0.16,2.594,1.545,2.837,3.088
				c0.59,3.748-3.147,7.082-5.476,9.508c-2.596,2.704-5.316,5.304-7.66,8.237c-2.319,2.901-4.308,6.12-5.236,9.752
				c-0.873,3.415-0.778,7.054,0.126,10.452c1.889,7.1,7.09,12.79,13.92,15.426c14.494,5.593,31.991-3.86,36.463-18.508
				c1.054-3.451,1.109-6.911,3.2-10.011C122.688,189.713,124.826,187.834,127.431,186.886c1.8-0.655,1.023-3.555-0.798-2.893
				c-2.999,1.092-5.467,3.004-7.39,5.536c-2.085,2.745-2.978,5.8-3.588,9.138c-1.326,7.266-6.505,13.427-12.769,17.126
				c-6.359,3.755-14.501,4.533-21.325,1.528c-6.489-2.858-11.16-9.263-11.68-16.377c-0.553-7.567,4.073-13.399,9.04-18.547
				c4.29-4.447,12.885-11.174,9.005-18.229c-2.005-3.645-5.971-3.351-9.496-2.503c-3.929,0.944-7.627,2.62-11.458,3.872
				c-3.614,1.181-7.495,2.024-11.258,1.037c-3.189-0.837-5.983-2.856-8.004-5.437c-4.534-5.789-4.381-13.631-0.867-19.884
				c3.899-6.938,11.21-10.932,18.914-12.117c3.316-0.51,6.67-0.189,9.992-0.592c2.832-0.343,5.947-1.128,7.643-3.633
				c2.162-3.192,0.601-6.959-1.704-9.561c-2.615-2.951-6.102-5.268-9.43-7.334c-6.671-4.142-14.023-7.354-19.981-12.557
				c-5.428-4.74-9.887-11.212-9.229-18.732c0.676-7.722,6.299-14.083,13.132-17.235c3.591-1.657,7.581-2.495,11.519-2.681
				c3.885-0.184,8.097,0.06,11.488,2.162c3.268,2.026,5.278,5.527,7.444,8.587c2.25,3.179,4.731,6.206,7.888,8.527
				c3.102,2.281,6.999,3.72,10.886,3.496c3.389-0.196,7.453-1.715,8.791-5.123c0.753-1.917,0.182-3.883-0.737-5.631
				c-0.992-1.886-2.161-3.681-3.197-5.544c-1.967-3.536-3.824-7.358-4.273-11.431c-0.368-3.331,0.156-6.881,1.995-9.732
				c2.003-3.105,5.725-4.767,9.187-5.654c4.105-1.052,8.494-0.906,12.671-0.401c3.939,0.477,8.137,1.248,11.637,3.2
				c3.11,1.735,5.719,4.398,6.703,7.889c1.151,4.08,0.287,8.437-0.123,12.564c-0.584,5.873,0.254,13.811,6.209,16.86
				c3.068,1.571,6.643,1.105,9.464-0.781c3.16-2.112,5.141-5.325,6.763-8.678c1.65-3.412,3.159-7.166,6.239-9.565
				c2.828-2.204,6.519-3.101,10.058-2.864c7.087,0.473,13.091,5.918,15.98,12.139c5.013,10.798,0.966,25.324-8.899,31.975
				c-2.953,1.991-6.637,2.939-7.853,6.676c-1.104,3.392,0.187,7.187,2.249,9.931c4.745,6.315,12.842,8.086,20.312,8.392
				c2.323,0.095,4.649,0.079,6.974,0.105c2.054,0.023,4.397-0.154,6.306,0.737c3.185,1.486,5.091,5.39,5.952,8.619
				c1.781,6.684-0.174,14.258-4.919,19.278c-4.932,5.218-12.235,7.703-19.329,7.425c-7.968-0.313-15.384-5.351-23.475-3.8
				c-3.03,0.581-6.056,2.087-7.986,4.545c-2.079,2.648-2.518,6.158-1.318,9.292c1.313,3.432,3.884,6.142,6.266,8.862
				c2.589,2.956,4.831,6.244,6.267,9.922c2.696,6.906,2.48,14.718-1.947,20.868c-4.281,5.947-12.248,8.153-18.968,5.14
				c-11.454-5.136-10.744-20.662-20.234-27.681c-4.375-3.235-10.26-4.845-15.54-3.124
				C124.806,184.589,125.588,187.487,127.431,186.886z"/>
		</g>
	</g>
	<g>
		<path style="fill:#FFFFFF;" d="M100.112,148.448c2.091,0.342,6.144,1.004,7.544,3.775c1.496,2.962-0.634,6.913-2.18,9.047
			c-1.886,2.605-4.391,4.695-6.475,7.145c-2.787,3.276-4.852,7.417-4.633,11.713c0.22,4.296,3.217,8.598,7.454,9.338
			c4.528,0.791,8.87-2.538,11.202-6.499c2.331-3.961,3.271-8.572,5.086-12.795c1.814-4.223,4.951-8.357,9.451-9.295
			c6.966-1.451,12.971,5.362,15.324,12.077c1.011,2.887,1.702,5.941,3.365,8.507c1.844,2.845,4.956,4.939,8.339,5.168
			c3.383,0.229,6.919-1.598,8.354-4.67c2.161-4.626-0.711-9.974-3.829-14.017c-3.118-4.043-6.794-8.435-6.328-13.519
			c0.686-7.492,10.331-11.136,17.548-9.011c3.04,0.895,5.87,2.472,8.978,3.091c4.175,0.831,8.806-0.283,11.807-3.302
			s4.05-7.975,2.098-11.758c-2.356-4.564-8.002-6.312-13.125-6.689c-5.123-0.377-10.457,0.133-15.228-1.77s-8.668-7.475-6.47-12.118
			c1.28-2.704,4.151-4.219,6.85-5.508c3.449-1.648,7.052-3.328,9.467-6.291c2.414-2.963,3.214-7.635,0.715-10.527
			c-2.687-3.109-7.737-2.727-11.388-0.841c-3.651,1.887-6.616,4.931-10.311,6.728s-8.817,1.913-11.269-1.385
			c-3.033-4.079,0.023-9.742,0.147-14.824c0.155-6.357-5.842-12.485-12.131-11.55c-6.29,0.935-10.056,9.765-5.764,14.457
			c0.751,0.821,1.673,1.487,2.333,2.383c3.077,4.179-1.84,10.36-7.026,10.547c-5.186,0.187-9.724-3.191-13.959-6.19
			s-9.309-5.898-14.338-4.619c-2.999,0.762-5.487,2.964-7.136,5.582c-1.468,2.33-2.337,5.344-1.142,7.825
			c1.023,2.124,3.276,3.329,5.42,4.31c4.706,2.154,9.635,3.947,13.862,6.934c4.227,2.986,7.768,7.465,8.13,12.628
			c0.11,1.568-0.092,3.2-0.874,4.563c-0.782,1.362-2.085,2.358-3.483,3.073c-5.558,2.844-12.212,1.565-18.45,1.835
			c-6.238,0.27-13.578,3.595-13.926,9.829c-0.222,3.98,3.813,8.702,8.016,9.4c3.508,0.582,8.865-2.229,12.818-2.818
			C97.166,148.081,98.651,148.209,100.112,148.448z"/>
		<g>
			<path style="fill:#FFFFFF;" d="M99.714,149.894c1.814,0.297,3.775,0.611,5.334,1.651c2.059,1.373,1.802,3.778,0.949,5.821
				c-2.11,5.055-7.099,8.133-10.049,12.635c-2.82,4.302-4.15,9.765-1.981,14.623c1.948,4.361,6.339,7.168,11.148,6.259
				c5.076-0.96,8.644-5.451,10.598-9.93c2.157-4.942,3.044-10.672,6.574-14.916c1.483-1.783,3.361-3.24,5.673-3.713
				c2.25-0.46,4.496,0.21,6.393,1.424c4.276,2.736,6.415,7.458,7.904,12.105c0.84,2.622,1.755,5.248,3.476,7.436
				c1.525,1.94,3.568,3.43,5.899,4.252c4.438,1.565,9.839-0.076,12.281-4.207c2.795-4.728,0.517-10.365-2.296-14.49
				c-2.841-4.165-7.524-8.366-7.365-13.822c0.116-3.988,3.41-6.773,6.97-7.938c1.866-0.61,3.811-0.859,5.771-0.743
				c2.533,0.149,4.865,1.161,7.196,2.083c4.949,1.958,10.122,2.695,15.001,0.068c4.268-2.297,6.966-7.09,6.456-11.951
				c-0.517-4.94-4.235-8.291-8.699-9.923c-5.132-1.875-10.619-1.279-15.956-1.78c-4.763-0.447-10.129-2.467-11.509-7.588
				c-1.44-5.342,4.596-7.632,8.375-9.49c4.505-2.214,9.189-5.271,10.332-10.518c1.039-4.77-1.496-9.517-6.515-10.335
				c-5.293-0.863-9.642,2.042-13.702,5.021c-3.437,2.521-8.432,5.947-12.832,3.497c-4.685-2.609-1.628-9.627-1.155-13.627
				c0.565-4.777-1.49-9.411-5.328-12.303c-3.498-2.636-8.446-3.363-12.203-0.821c-3.146,2.129-5.208,5.974-5.073,9.796
				c0.068,1.927,0.691,3.77,1.902,5.279c1.34,1.671,3.541,2.786,3.175,5.247c-0.278,1.871-1.711,3.529-3.27,4.5
				c-2.087,1.3-4.426,1.264-6.737,0.593c-5.312-1.542-9.311-5.793-14.117-8.332c-4.842-2.557-10.497-3.397-15.14,0.052
				c-3.863,2.87-7.354,8.581-5.125,13.423c1.037,2.252,3.197,3.664,5.357,4.709c2.625,1.271,5.349,2.33,7.991,3.567
				c4.767,2.232,9.533,5.07,12.23,9.763c1.224,2.13,2.037,4.724,1.655,7.2c-0.442,2.866-2.97,4.385-5.535,5.193
				c-5.297,1.669-10.938,0.459-16.369,0.873c-4.273,0.325-8.874,1.786-11.923,4.935c-3.198,3.303-3.7,8.016-1.174,11.88
				c1.254,1.919,3.028,3.585,5.117,4.558c2.169,1.01,4.345,1.031,6.652,0.531C90.676,151.442,94.864,149.132,99.714,149.894
				c1.889,0.297,2.702-2.593,0.798-2.893c-2.334-0.367-4.627-0.357-6.945,0.147c-2.336,0.508-4.569,1.405-6.869,2.043
				c-2.063,0.572-4.086,0.961-6.086-0.023c-1.99-0.979-3.709-2.786-4.543-4.848c-1.645-4.069,1.554-7.473,4.996-9.131
				c4.371-2.105,9.171-1.718,13.877-1.642c5.056,0.082,10.975-0.197,14.879-3.877c3.862-3.64,2.807-9.759,0.414-13.911
				c-2.604-4.52-6.938-7.653-11.512-9.968c-2.512-1.271-5.116-2.345-7.688-3.483c-2.092-0.926-4.775-1.873-6.032-3.924
				c-1.352-2.205-0.298-4.981,0.98-6.957c1.31-2.027,3.246-3.824,5.579-4.569c5.433-1.736,10.728,2.183,14.917,5.142
				c4.043,2.856,8.808,6.028,14.013,5.524c4.019-0.39,7.96-3.563,8.827-7.584c0.438-2.029-0.028-4.045-1.345-5.651
				c-1.347-1.643-3.046-2.639-3.486-4.854c-0.658-3.307,1.283-7.025,4.201-8.608c3.829-2.076,8.453,0.362,10.657,3.677
				c1.261,1.896,1.878,4.031,1.731,6.306c-0.166,2.562-0.952,5.047-1.288,7.588c-0.311,2.359-0.227,4.841,1.053,6.925
				c1.132,1.844,2.984,3.095,5.084,3.574c4.854,1.11,9.239-1.232,13.043-4c3.641-2.649,8.022-6.282,12.882-4.884
				c5.178,1.49,3.941,7.888,0.985,10.903c-3.617,3.689-8.926,4.69-12.909,7.829c-3.756,2.961-4.633,7.661-2.29,11.817
				c2.506,4.445,7.141,6.489,12.01,7.124c5.207,0.679,10.587-0.051,15.661,1.539c4.294,1.346,7.914,4.633,7.35,9.483
				c-0.568,4.885-4.864,8.173-9.595,8.523c-5.312,0.394-9.703-3.11-14.831-3.77c-3.901-0.502-8.12,0.296-11.46,2.417
				c-3.365,2.137-5.648,5.665-5.52,9.735c0.167,5.277,3.804,9.408,6.814,13.406c2.684,3.565,6.213,9.45,2.678,13.617
				c-3.232,3.81-8.854,2.837-12.025-0.465c-1.887-1.965-2.755-4.578-3.568-7.119c-0.763-2.384-1.57-4.725-2.836-6.897
				c-2.248-3.858-5.757-7.58-10.246-8.657c-4.627-1.11-9.09,0.974-12.021,4.555c-3.364,4.112-4.563,9.233-6.412,14.096
				c-1.641,4.314-4.806,9.587-9.992,9.917c-4.731,0.301-7.857-4.458-7.789-8.771c0.09-5.692,4.138-9.821,7.825-13.653
				c3.1-3.222,6.954-7.96,5.793-12.801c-0.967-4.033-5.394-5.259-8.962-5.843C98.623,146.692,97.81,149.583,99.714,149.894z"/>
		</g>
	</g>
</g>
</svg>
