<svg id="Capa_1" data-name="Capa 1" xmlns="http://www.w3.org/2000/svg" viewBox="0 0 324.92 240.45"><defs><style>.cls-1{fill:#f0e0bc;}.cls-2{fill:#f7931e;}.cls-3,.cls-5{fill:#fff;}.cls-3{stroke:#f7931e;stroke-miterlimit:10;stroke-width:6px;}.cls-4{fill:#6f4100;}</style></defs><path class="cls-1" d="M8.69,196.05q-1.5-59.16,2.19-118.3c.44-7,1-14.26,4.46-20.36,5.5-9.71,17.18-13.34,28.29-14.27s22.27.09,33.42.14,23.1-2.25,31-10.18c7.42-7.48,10.46-19.2,19.6-24.43,4.79-2.75,10.52-3.21,16-3.51A441.71,441.71,0,0,1,188.8,5c3.62.17,12.31.4,15.7,1.7,8.91,3.41,8.49,4,14.8,11.14,8.71,9.86,21.41,23.45,34.3,26s26.15,2.45,39.3,2.56c8.16.08,17.4,1.74,22.62,8,4.09,4.92,4.43,11.86,4.55,18.26q1.17,63.09-1.55,126.19c-.29,6.82-.72,14-4.28,19.78-6.18,10.08-19.39,12.8-31.14,14.1-70.36,7.8-141.41-1.53-212.2-.58-13.58.18-27.64.66-40.21-4.5S7.44,210,9.33,196.49"/><path class="cls-2" d="M13.19,196.05Q11.86,142.77,14.7,89.51c.24-4.46.49-8.92.79-13.38A55.12,55.12,0,0,1,17,65.54a25.41,25.41,0,0,1,1.53-4.45c.42-.81.84-1.62,1.33-2.39l.61-.92q.48-.64.09-.15l.56-.67a24,24,0,0,1,3.13-3c-.59.47.15-.1.3-.2.3-.21.6-.42.9-.61.74-.48,1.49-.92,2.26-1.33s1.32-.67,2-1c1.3-.6-.78.27.57-.24l.84-.31a43.29,43.29,0,0,1,5-1.48,47.94,47.94,0,0,1,9.44-1.34c8.86-.58,17.74,0,26.61.2,14.42.36,30.55-1.32,40.57-13,4.31-5,7.16-11,11.06-16.38.17-.24.34-.47.52-.7-.54.69.35-.41.38-.44q.69-.82,1.44-1.59A14,14,0,0,1,129.12,13a23,23,0,0,1,9.69-3c8.55-.88,17.27-.93,25.86-1,8.43,0,16.84.19,25.26.56,2.77.12,5.53.24,8.29.51l1.24.13c.18,0,.9.12,0,0,.61.09,1.22.18,1.82.31a23.9,23.9,0,0,1,4.21,1.4l.76.31c-1-.4.14.08.28.14.49.22,1,.45,1.44.7s.81.44,1.21.69l.64.42.2.15c.38.28.27.2-.31-.25.53.06,1.55,1.44,1.89,1.8.89,1,1.73,2,2.58,2.94a186.25,186.25,0,0,0,14.11,15c5.21,4.84,11,9.44,17.55,12.29,7.56,3.27,16.19,3.89,24.34,4.4,8.34.51,16.69.18,25,.58.85,0,1.71.1,2.56.18l1.16.12c-.86-.1.66.11.66.11a35.48,35.48,0,0,1,5,1.18,17.5,17.5,0,0,1,6.87,4c2.17,2.21,3,4.88,3.65,8.32.09.47.13.85.22,1.77s.13,1.67.17,2.5c.09,2,.11,4,.15,6q.45,26.75.22,53.48t-1.17,53.46q-.23,6.68-.51,13.36c-.14,3.6-.27,8.1-.69,11.18a25,25,0,0,1-3.12,9.74c-.23.37-.48.72-.72,1.09-.72,1.13.54-.56-.33.45-.46.54-.93,1.06-1.43,1.56s-1,1-1.56,1.42c-1,.87.39-.27-.25.2-.4.29-.81.57-1.22.84a31.06,31.06,0,0,1-3.75,2.07s-1.34.59-.51.24l-.82.32c-.82.32-1.65.61-2.5.88a64.73,64.73,0,0,1-9.62,2.2q-1.11.18-2.22.33c.93-.13-.52.06-.57.07l-.88.1c-2.12.25-4.24.47-6.36.68q-6.72.66-13.44,1.13c-17.52,1.22-35.09,1.55-52.65,1.39-35.13-.33-70.2-2.58-105.31-3.43q-13-.31-26.1-.32c-8.31,0-16.63.36-24.94.08-7.89-.27-15.29-1.23-22.77-4.14a18.28,18.28,0,0,1-1.74-.79c-.77-.38-1.52-.78-2.25-1.21s-1.34-.79-2-1.22l-.78-.53c-.13-.09-1.41-1-1-.68a36.52,36.52,0,0,1-3.48-3.1c-.54-.55-1.07-1.11-1.57-1.7a18.8,18.8,0,0,1-1.3-1.6,36.92,36.92,0,0,1-2.59-4.26l-.38-.81c-.62-1.28.24.76-.25-.57-.25-.7-.5-1.39-.71-2.11s-.38-1.43-.52-2.15c0-.06-.24-1.5-.12-.56,0-.29-.06-.58-.08-.88a23.32,23.32,0,0,1,.14-4.94c.31-2.41-2.29-4.5-4.5-4.5-2.69,0-4.19,2.08-4.5,4.5C2.92,211.21,14,224.9,26.74,230.88c15.48,7.27,33.06,5.9,49.69,5.8,36.06-.23,72.07,2,108.1,3.15,18.18.57,36.38.85,54.56.37,9-.23,18-.65,26.91-1.32,8.31-.61,16.7-1.24,24.92-2.63,6.53-1.11,13.26-3,18.82-6.71a28.25,28.25,0,0,0,12.06-18.37c1.66-8.45,1.45-17.34,1.76-25.91q.49-13.66.81-27.34.64-27.51.54-55-.06-13.83-.29-27.67c-.14-7.67-.1-16.19-4.91-22.63-4.55-6.1-11.79-9-19.14-10-8.25-1.14-16.71-.55-25-.85-4.37-.15-8.75-.42-13.1-.92a53,53,0,0,1-11-2.15c-.42-.14-.84-.3-1.26-.46-.85-.33-.37-.16-.19-.08-.85-.37-1.69-.78-2.51-1.22a51.06,51.06,0,0,1-4.53-2.75,67.39,67.39,0,0,1-8.08-6.55A186,186,0,0,1,220.4,12.29a37.61,37.61,0,0,0-4.53-4.74,28.7,28.7,0,0,0-7.42-4.08,32.1,32.1,0,0,0-8.79-2.24c-3-.35-6-.5-9.08-.64C182.15.22,173.73,0,165.29,0c-8.8.05-17.73.08-26.48,1a35.58,35.58,0,0,0-12.54,3.27,25.84,25.84,0,0,0-8,6.51c-4.35,5.17-7.17,11.36-11.28,16.71.52-.68-.38.45-.39.47l-.57.67c-.6.67-1.23,1.33-1.88,1.95a18.17,18.17,0,0,1-3.57,2.73q-1,.63-2,1.17l-1.26.64s-1.38.61-.66.31a37.5,37.5,0,0,1-5,1.66,51.5,51.5,0,0,1-5.19,1.1c-1.24.19-2.78.34-4.59.45-4.08.25-8.17.11-12.25,0-9-.28-18-.79-26.89.08-7.13.69-14.31,2.26-20.57,5.88A29.34,29.34,0,0,0,8.56,62.12C6.18,70.28,6.27,79.22,5.8,87.65q-.75,13.6-1.22,27.24-1,27.24-.8,54.51.08,13.33.41,26.65a4.59,4.59,0,0,0,4.5,4.5,4.55,4.55,0,0,0,4.5-4.5Z"/><circle class="cls-3" cx="282.79" cy="80.82" r="14"/><path class="cls-4" d="M174,200c9.86-1.13,36.12-4.95,53-33.15,13.2-22.1,10.48-49.36-.8-69.14-11.05-19.4-31.62-33.32-53.85-35.41s-45.45,8.11-58.18,26.45a82.59,82.59,0,0,0-7.09,12.74c-5,10.8-8.47,22.43-8.65,34.31-.39,25.22,15.45,42.64,16.73,44,2.33,2.55,18.2,19.4,42.39,20.55A164.33,164.33,0,0,0,174,200Z"/><path class="cls-4" d="M174,203a79.24,79.24,0,0,0,28.22-8.24,70.2,70.2,0,0,0,31.67-35.14c6.65-16.12,6.31-34.79.5-51.1a75.51,75.51,0,0,0-30.69-38.42,69.52,69.52,0,0,0-47.55-10.24c-16.13,2.45-31.68,11-41.88,23.76-6.08,7.63-10.36,16.61-13.68,25.75a79.08,79.08,0,0,0-5.16,28.94,69.42,69.42,0,0,0,13.77,38.93A64.61,64.61,0,0,0,125,192.09a66.55,66.55,0,0,0,19.51,9.18c6.57,1.83,13.21,2.19,20,2.13,3.18,0,6.38-.08,9.55-.43a3.08,3.08,0,0,0,3-3c0-1.48-1.38-3.18-3-3a111.4,111.4,0,0,1-16.44.39,54.29,54.29,0,0,1-21.1-5.5,68.39,68.39,0,0,1-8.25-4.79c-1.15-.78-2.27-1.59-3.37-2.43.49.38-.23-.18-.37-.3l-.74-.59c-.46-.38-.92-.76-1.37-1.15a56.71,56.71,0,0,1-5.55-5.41c-.36-.41-.71-.83-1.06-1.25s-.46-.56-.68-.85-.57-.77,0,0l-.43-.57c-1.39-1.86-2.68-3.79-3.88-5.77a63.73,63.73,0,0,1-7.54-17.91c-4.43-17.5.27-35.69,8.25-51.53A61.36,61.36,0,0,1,190.75,70,69.3,69.3,0,0,1,224,99.85c7.7,13.85,10.78,30.63,7.71,46.26a61.64,61.64,0,0,1-9.74,23,65.53,65.53,0,0,1-7.25,8.85,62.87,62.87,0,0,1-7.64,6.67,65.1,65.1,0,0,1-8.11,5q-2,1-4.11,2l-.51.22c.05,0,.41-.17.09,0l-1,.41-2,.74a75.21,75.21,0,0,1-13.37,3.44l-1.3.2-.66.09c-.14,0-.79.11-.23,0s-.08,0-.21,0l-.58.08L174,197a3.1,3.1,0,0,0-3,3C171,201.45,172.39,203.16,174,203Z"/><path class="cls-1" d="M171.38,178.78c3.61-.66,24.91-4.46,34.16-24a44.62,44.62,0,0,0,2.86-7.69,49.77,49.77,0,0,0-2.56-33.5,42.42,42.42,0,0,0-24.68-22.4,51.93,51.93,0,0,0-21-1.87c-5.84.54-11.73,1.8-16.79,4.78a47.31,47.31,0,0,0-18.27,19.52,29.32,29.32,0,0,0-2.89,8.7c-3.69,19.85,7.85,36.33,7.85,36.33,3.08,4.44,14.11,18.73,31.4,19.9C165.39,178.86,168.28,179.34,171.38,178.78Z"/><path class="cls-2" d="M172.58,183.12c14.22-2.58,27.92-10.4,35.32-23.13,12-20.71,7.85-49.94-11.1-65.13a45.46,45.46,0,0,0-15.33-8.24,55.19,55.19,0,0,0-20-1.88c-6.66.5-13.32,1.73-19.29,4.87a50.32,50.32,0,0,0-14,11.4,44.57,44.57,0,0,0-9.51,16.31,46.5,46.5,0,0,0-1.51,18.14,59.55,59.55,0,0,0,8,24.08,52.52,52.52,0,0,0,10.06,11.88,47.7,47.7,0,0,0,11.7,7.9,41.37,41.37,0,0,0,7.7,2.77,60.58,60.58,0,0,0,9,1.18,35.36,35.36,0,0,0,8.9-.15c2.32-.4,3.83-3.39,3.14-5.54a4.63,4.63,0,0,0-5.54-3.14c-1.22.2.95,0-.28,0l-.73.05c-.62,0-1.25,0-1.87,0-1.36-.05-2.71-.18-4.06-.29l-2.22-.17c-.3,0-2.18-.27-1.06-.09-1.2-.19-2.4-.43-3.59-.74a33.15,33.15,0,0,1-3.21-1c-.32-.12-1.67-.67-.7-.25-.62-.27-1.24-.56-1.85-.86a40.81,40.81,0,0,1-5.61-3.36l-1-.73c-.88-.63.76.62-.07-.05l-.47-.38q-1.2-1-2.34-2-1.89-1.76-3.63-3.67-.76-.85-1.5-1.74l-.59-.72c-.25-.32-1-1.42-.07-.07-.48-.67-1-1.32-1.45-2a38.74,38.74,0,0,1-2.57-4.46c-.35-.68-.68-1.36-1-2-.19-.4-.36-.81-.54-1.21-.31-.7.12.24.13.31a4,4,0,0,0-.38-.94,55.85,55.85,0,0,1-2-5.9c-.31-1.13-.58-2.28-.81-3.43-.11-.54-.21-1.08-.3-1.63l-.15-.92c-.2-1.25.1,1,0-.31a48.21,48.21,0,0,1-.26-8c0-.7.09-1.4.17-2.09l.09-.85c-.1.86,0-.08,0-.29a37.94,37.94,0,0,1,1-4.5c.18-.64.37-1.26.59-1.88.13-.35.25-.69.39-1-.27.66,0,0,.07-.13.65-1.28,1.33-2.53,2-3.77s1.36-2.29,2.11-3.38c0,0,.75-1,.35-.5s.44-.52.39-.47c.45-.54.91-1.08,1.37-1.6a54.47,54.47,0,0,1,5.82-5.75c.26-.22.52-.44.79-.65s.87-.66.21-.17c.56-.41,1.11-.82,1.68-1.21a39.88,39.88,0,0,1,3.65-2.22c.64-.34,1.3-.66,2-.94-.18.07-.69.26.14,0l1-.38a38,38,0,0,1,4.44-1.25c.72-.16,1.44-.3,2.16-.43l.88-.15.71-.1.72-.09.87-.09c.92-.09,1.83-.17,2.75-.22a57.93,57.93,0,0,1,9,.1l1.15.11.17,0c.77.11,1.52.24,2.28.39a40.61,40.61,0,0,1,4.47,1.13c.63.2,1.25.41,1.86.64l.88.34c.7.26-1-.44.14.06s2.26,1.06,3.35,1.68a36.17,36.17,0,0,1,3.19,2l1.37,1c.6.44-.81-.66.13.11.29.24.58.47.87.72a42.44,42.44,0,0,1,5.3,5.34l.48.58c.81,1-.52-.73.22.28l.89,1.23c.79,1.13,1.53,2.3,2.21,3.51.55,1,1.07,2,1.54,3,.16.32.3.65.45,1,.33.75-.36-1,.13.32.28.74.56,1.49.81,2.24a48.18,48.18,0,0,1,1.95,8.2c-.14-1,.05.45.06.53,0,.28.06.57.09.86.07.72.12,1.44.16,2.16.07,1.45.08,2.9,0,4.34s-.18,2.89-.34,4.34c0,.14-.13.88,0,.09-.05.36-.11.72-.17,1.08-.13.78-.27,1.56-.44,2.34a45.24,45.24,0,0,1-2.08,7l-.3.75c.3-.75-.07.14-.15.32-.26.58-.53,1.16-.81,1.72a39,39,0,0,1-1.94,3.45c-.55.88-1.15,1.72-1.76,2.56s.43-.51,0,0l-.53.64c-.39.47-.78.92-1.19,1.36a40.61,40.61,0,0,1-4.5,4.2c-.34.28-.62.83,0,0a2.67,2.67,0,0,1-.49.36c-.39.3-.8.58-1.21.86q-1.18.83-2.43,1.56a48.64,48.64,0,0,1-4.8,2.51c-.39.18-.78.33-1.16.51l.39-.16-.57.23c-.75.3-1.51.58-2.28.85a54.91,54.91,0,0,1-6.78,1.88c-.61.13-1.22.25-1.84.36-2.32.42-3.84,3.36-3.14,5.53A4.63,4.63,0,0,0,172.58,183.12Z"/><path class="cls-2" d="M60.51,112.58c4.84-1.67,9.4,1.65,9.92,2,1.94,1.46,2.59,2.17,5.77,9,1.52,3.26,3.18,6.61,6,8.8a11.89,11.89,0,0,0,12.27,1.18c4.43-2.22,7-7.25,7.12-12.2s-2.15-9.74-5.36-13.5c-2.36-2.77-5.5-5.71-4.94-9.3s4.79-5.58,8.45-5.4,7.09,1.82,10.69,2.51c6.29,1.2,13.26-.81,17.42-5.68s4.94-12.55,1.27-17.79a7.07,7.07,0,0,0-3.09-2.67,8.88,8.88,0,0,0-3-.45c-3.86-.11-7.77.13-11.54-.72s-7.49-3-9-6.58c-.76-1.8-.83-4.08.48-5.52a8.84,8.84,0,0,1,2.63-1.69c9-4.7,12.45-17.53,7.08-26.12a15.2,15.2,0,0,0-8.94-6.83A11.18,11.18,0,0,0,93.12,24.5c-2.08,2.19-3,5.21-4.51,7.84s-4.11,5.1-7.12,4.76c-3.94-.45-5.74-5.28-5.59-9.24s1.35-8.1-.09-11.8c-1.34-3.4-4.73-5.66-8.27-6.57A35.26,35.26,0,0,0,56.63,8.32a15.91,15.91,0,0,0-8.18,2.78c-3.12,2.26-4.06,6.65-3.33,10.44S47.94,28.69,49.89,32a5.05,5.05,0,0,1,1,3,3.77,3.77,0,0,1-2.15,2.64c-2.75,1.46-6.24.94-8.93-.64a21.76,21.76,0,0,1-6.49-6.64c-1.52-2.19-3-4.54-5.26-5.95a13.34,13.34,0,0,0-6.87-1.66A21.74,21.74,0,0,0,7.47,27,15.06,15.06,0,0,0,1.54,39.74c.53,6.14,5.36,11,10.53,14.39s11,5.77,15.53,9.92c1.44,1.32,2.83,3.12,2.43,5-.67,3.22-5.09,3.38-8.38,3.38A21.13,21.13,0,0,0,7.76,77.31,15.31,15.31,0,0,0,2.48,90.72c.75,5,4.78,9.4,9.74,10.08,5.64.77,10.85-3,16.46-3.91a4.88,4.88,0,0,1,2.28,0,3.77,3.77,0,0,1,2.13,4.23,9.31,9.31,0,0,1-2.52,4.41c-3.69,4.16-8.43,7.8-10,13.13-1.67,5.54.81,11.92,5.51,15.28a17,17,0,0,0,16.51,1.36c4.94-2.22,9.82-7.25,11-12.76.35-1.65.47-3.81,2.11-6.16A10.11,10.11,0,0,1,60.51,112.58Z"/><path class="cls-2" d="M60.91,114a9.06,9.06,0,0,1,7,.82,11.55,11.55,0,0,1,2.45,1.67,9.59,9.59,0,0,1,2,2.68c1.23,2.22,2.23,4.56,3.34,6.83,2.36,4.81,5.78,9.14,11.37,10.06a13.33,13.33,0,0,0,13.27-5.72,17.2,17.2,0,0,0,1.93-14.8,24.16,24.16,0,0,0-3.91-7.45c-1.57-2-3.58-3.82-4.84-6.1a4.3,4.3,0,0,1,.9-5.74,8.66,8.66,0,0,1,6.71-1.42c2.91.45,5.65,1.62,8.52,2.23a21.43,21.43,0,0,0,7.49.24A19,19,0,0,0,129.85,90a17,17,0,0,0,2.57-14.22,12.89,12.89,0,0,0-3.71-6.23c-2.29-2-5.12-1.88-8-1.91-5.35,0-11.84.06-15.65-4.42-1.41-1.66-2.63-4.76-.44-6.32,1-.68,2.12-1.1,3.11-1.75A18.9,18.9,0,0,0,110.43,53a21,21,0,0,0,6-11.44,20,20,0,0,0-1.92-13c-2.39-4.41-6.77-8-11.82-8.62a12.52,12.52,0,0,0-12.85,6.66c-1.25,2.29-2.07,4.9-3.84,6.86-1.53,1.7-4,3-6.09,1.39-4-3.14-2.07-9.5-1.89-13.67a12.34,12.34,0,0,0-2-7.94A13.63,13.63,0,0,0,70,8.75,29.91,29.91,0,0,0,61.41,6.9a24.1,24.1,0,0,0-9.07.67,13,13,0,0,0-6.68,4.2,11.88,11.88,0,0,0-2.25,6.59A17.47,17.47,0,0,0,45.1,26.3,39.29,39.29,0,0,0,47,30.07c.72,1.28,2,2.74,2.29,4.19.61,2.83-4.43,3-6.1,2.56a13.08,13.08,0,0,1-6.76-4.71c-1.79-2.12-3.12-4.58-5-6.65a11.9,11.9,0,0,0-7-3.86A23.74,23.74,0,0,0,8.07,24.77a17.25,17.25,0,0,0-8,12.68c-.5,5.26,2.21,10.12,5.86,13.71,4,3.91,9,6.36,13.76,9.14,1.87,1.09,12.9,7.67,7.45,10-2,.86-4.37.59-6.49.68a24.38,24.38,0,0,0-8.13,1.72,18.69,18.69,0,0,0-10.8,11A14.46,14.46,0,0,0,4.13,97.77c3.44,4.16,8.64,5.35,13.75,4.07,2.72-.68,5.28-1.86,8-2.7,2-.62,5.89-2,5.82,1.38-.06,2.59-2.9,4.87-4.56,6.56a57.33,57.33,0,0,0-5.2,5.82,15.39,15.39,0,0,0-2.55,14.33,16.28,16.28,0,0,0,10,10.14c10.15,3.58,22.06-3,25.27-13.11.72-2.26.72-4.61,2-6.68A8.69,8.69,0,0,1,60.91,114c1.79-.66,1-3.56-.8-2.89-4.35,1.62-7,5.42-7.8,9.89a17.65,17.65,0,0,1-8.22,11.8,16,16,0,0,1-14.62,1.39,13.17,13.17,0,0,1-7.91-10.89c-.42-5.29,3-9.28,6.41-12.85,3.09-3.17,8.52-7.6,6.07-12.6-2.61-5.32-10.51-1.05-14.38.29-2.45.85-5.12,1.6-7.72,1.07a10,10,0,0,1-5.69-3.58c-3.17-3.94-3-9.34-.5-13.58,2.72-4.64,7.82-7.29,13.06-7.94,3.78-.47,9.45.7,12-3,3.37-5-3.71-9.71-7.2-11.94C19,56.24,13.92,54.08,9.74,50.58,6,47.4,2.67,43,3,37.83s4.15-9.53,8.73-11.67a21,21,0,0,1,8.15-1.85c2.76-.1,5.77.14,8,1.9,2,1.57,3.28,3.92,4.77,5.94a23.3,23.3,0,0,0,5.63,5.75A11.93,11.93,0,0,0,46,40c2.36-.23,5-1.37,6-3.7,1.09-2.64-1-5.17-2.22-7.34a24,24,0,0,1-3.32-8.16,10,10,0,0,1,1.16-6.66C49,12,51.57,10.84,54,10.24a23.73,23.73,0,0,1,9-.16,19.83,19.83,0,0,1,7.92,2.43,8.56,8.56,0,0,1,4.08,6c.39,2.79-.27,5.65-.47,8.42-.29,4.13,1,9.45,5.2,11.19,5.11,2.08,9.18-2.74,11.17-6.82C92,29,92.93,26.46,95,24.8a9.77,9.77,0,0,1,6.93-1.93c4.79.44,8.87,4.29,10.64,8.6,3.15,7.69-.08,17.65-7.41,21.7-2.34,1.29-4.36,2.48-4.65,5.4a9.09,9.09,0,0,0,2.36,6.59c3.44,4.12,9.08,5.19,14.16,5.38,1.47,0,2.94,0,4.42.06s3.2-.14,4.54.6c2,1.11,3.17,3.71,3.68,5.84a13.93,13.93,0,0,1-3.85,13,17.23,17.23,0,0,1-13.34,4.44c-5.33-.43-10.25-3.69-15.72-2.5-4.4,1-8.06,4.79-6.7,9.51.71,2.46,2.49,4.44,4.14,6.31a25.5,25.5,0,0,1,4.52,6.78c2,4.64,2,10-1,14.26a10.3,10.3,0,0,1-13.13,3.31c-7.36-3.83-7-14.15-13.47-18.87a12.59,12.59,0,0,0-11-2.16C58.27,111.71,59.06,114.61,60.91,114Z"/><path class="cls-5" d="M41.55,87.68c1.41.23,4.15.68,5.09,2.55s-.43,4.66-1.47,6.1c-1.27,1.76-3,3.17-4.37,4.82a11.71,11.71,0,0,0-3.13,7.9c.15,2.9,2.17,5.81,5,6.31,3.06.53,6-1.72,7.56-4.39s2.21-5.78,3.43-8.63S57,96.7,60.07,96.07c4.7-1,8.75,3.61,10.34,8.14A26,26,0,0,0,72.68,110a7.51,7.51,0,0,0,5.63,3.49,5.84,5.84,0,0,0,5.63-3.15c1.46-3.12-.48-6.73-2.58-9.46s-4.58-5.69-4.27-9.12c.46-5,7-7.51,11.84-6.08,2,.6,4,1.67,6.06,2.09a8.94,8.94,0,0,0,8-2.23,7,7,0,0,0,1.41-7.94C102.78,74.47,99,73.3,95.52,73s-7.06.09-10.28-1.19-5.85-5-4.37-8.18c.87-1.82,2.81-2.85,4.63-3.72,2.32-1.11,4.76-2.24,6.38-4.24s2.17-5.15.49-7.1-5.22-1.84-7.69-.57-4.46,3.33-7,4.54-6,1.29-7.61-.94c-2.05-2.75,0-6.57.1-10,.11-4.29-3.94-8.42-8.18-7.79s-6.79,6.59-3.89,9.75c.5.56,1.13,1,1.57,1.61,2.08,2.82-1.24,7-4.74,7.12s-6.56-2.15-9.42-4.18-6.28-4-9.67-3.11a8.32,8.32,0,0,0-4.82,3.76c-1,1.57-1.58,3.61-.77,5.28C31,55.52,32.51,56.33,34,57c3.17,1.45,6.5,2.66,9.35,4.68s5.24,5,5.49,8.52a4.84,4.84,0,0,1-2.94,5.15c-3.75,1.92-8.24,1.06-12.45,1.24S24.24,79,24,83.21c-.15,2.69,2.57,5.87,5.41,6.35,2.37.39,6-1.51,8.65-1.91A10.46,10.46,0,0,1,41.55,87.68Z"/><path class="cls-5" d="M41.15,89.13a7.89,7.89,0,0,1,3.58,1.13c1.29,1,.64,2.76,0,4-1.72,3.19-5,5.24-6.8,8.38s-2.42,6.8-.79,10.07a7.31,7.31,0,0,0,8,4.1c3.39-.67,5.91-3.6,7.27-6.61,1.54-3.39,2.1-7.39,4.53-10.31,2.21-2.65,5.45-3.15,8.18-.95s3.74,5.57,4.93,8.86,3.41,6.21,7,7a7.42,7.42,0,0,0,8.35-3.88c1.54-3.41-.06-7.14-2.07-10-1.86-2.64-5.09-5.63-4.66-9.18.32-2.62,2.84-4.17,5.2-4.73,3.36-.8,6,.69,9.16,1.73a11,11,0,0,0,9.77-1.09A8.8,8.8,0,0,0,106.41,79c-.54-3.28-3.19-5.46-6.18-6.54-3.41-1.24-7.06-.88-10.62-1.19C86.5,71,82.36,69.61,82,65.93c-.37-3.52,4.88-4.83,7.22-6.16,3-1.69,5.45-4.24,5.7-7.81a6,6,0,0,0-5.45-6.35c-3.54-.38-6.42,1.56-9.14,3.55-2.13,1.56-5.83,4.16-8.49,2.09-1.31-1-1.17-2.88-.92-4.34a33.81,33.81,0,0,0,.84-5.27,9.62,9.62,0,0,0-4.41-8,7.52,7.52,0,0,0-8.39-.09,8.37,8.37,0,0,0-3.51,6.88,6.44,6.44,0,0,0,1.25,3.72c.79,1,2.42,1.86,2.18,3.37a4.33,4.33,0,0,1-2.47,3,5.86,5.86,0,0,1-4.67-.28c-3.48-1.43-6.16-4.29-9.61-5.8S34.9,43,31.93,45.51c-2.51,2.13-4.57,6.1-2.93,9.33s5.87,4.13,8.8,5.48c3.27,1.51,6.59,3.38,8.43,6.61a6.79,6.79,0,0,1,1,4.84c-.48,1.86-2.59,2.64-4.27,3-3.56.79-7.25-.05-10.84.41-2.91.38-6,1.53-7.94,3.86a6.78,6.78,0,0,0-.29,8.34,7.8,7.8,0,0,0,8,3.51c3.13-.59,6-2.29,9.27-1.78,1.89.29,2.7-2.6.8-2.9-3.26-.5-6,.42-9.08,1.34-1.37.4-2.8.83-4.16.21a5.92,5.92,0,0,1-3-3.23c-1-2.69,1.58-4.79,3.83-5.66,3.09-1.19,6.38-.75,9.62-.77s7.46-.52,9.76-3.3c2.17-2.62,1.5-6.48,0-9.25a17.57,17.57,0,0,0-7.25-6.68c-1.67-.9-3.41-1.64-5.15-2.4-1.46-.63-3.33-1.22-4.43-2.44-2.27-2.54,1.39-6.67,3.85-7.47,3.65-1.18,7.25,1.74,10,3.69s6,3.92,9.53,3.51a7.5,7.5,0,0,0,6.14-5.1,5,5,0,0,0-.45-4c-.7-1.17-2-1.84-2.56-3.13-.82-2.11.5-4.81,2.41-5.84,2.53-1.38,5.5.45,6.81,2.68,1.77,3,.17,6.24-.1,9.42s1.32,6,4.49,6.84,6.18-.54,8.72-2.33,5.26-4.38,8.55-3.72c3.5.71,2.53,4.89.63,6.75-2.46,2.41-6,3.08-8.68,5.23a6.49,6.49,0,0,0-1.63,8.29A10.38,10.38,0,0,0,87.65,74c3.51.56,7.15,0,10.6.95,2.88.75,5.63,2.7,5.26,6s-3.33,5.31-6.47,5.38c-3.39.08-6.28-2.17-9.61-2.57a12.23,12.23,0,0,0-7.88,1.7,8.13,8.13,0,0,0-4,6.39c-.21,3.46,2,6.43,4,9,1.78,2.3,4.82,6.23,2.74,9.22s-6.07,1.89-8-.5a14.79,14.79,0,0,1-2.13-4.86,19.8,19.8,0,0,0-1.9-4.35c-1.59-2.6-4-5.08-7.08-5.79a8.47,8.47,0,0,0-8.31,2.93c-2.35,2.69-3.26,6.07-4.45,9.36-1,2.92-3,6.83-6.64,7-3.26.14-5-3.51-4.57-6.32.54-3.8,3.51-6.19,5.91-8.88,2-2.19,4.14-5.5,3.09-8.58-.91-2.65-3.79-3.51-6.28-3.92C40.06,85.92,39.25,88.81,41.15,89.13Z"/></svg>