<?xml version="1.0" encoding="iso-8859-1"?>
<!-- Generator: Adobe Illustrator 26.2.1, SVG Export Plug-In . SVG Version: 6.00 Build 0)  -->
<svg version="1.1" xmlns="http://www.w3.org/2000/svg" xmlns:xlink="http://www.w3.org/1999/xlink" x="0px" y="0px"
	 viewBox="0 0 500 600" style="enable-background:new 0 0 500 600;" xml:space="preserve">
<g id="Layer_1">
	<g>
		<path style="fill:#F0E0BC;" d="M145.625,80.309c2.778-0.774,6.327-0.531,18.441,5.764c12.978,6.744,12.256,9.879,18.504,11.55
			c10.026,2.683,21.603-3.433,25.038-13.228c2.474-7.054,1.08-15.164,4.304-21.908c4.544-9.505,16.29-12.791,26.726-14.23
			c11.364-1.567,22.858-2.191,34.325-1.865c11.652,0.332,24.667,2.392,31.652,11.724c5.02,6.707,5.673,15.576,7.264,23.801
			s5.127,17.174,12.879,20.352c12.93,5.301,25.286-8.675,38.852-12.032c10.007-2.476,20.739,1.188,29.019,7.329
			c8.28,6.142,14.553,14.543,20.702,22.818c5.127,6.9,10.498,14.554,10.122,23.142c-0.393,8.968-6.89,16.273-11.983,23.665
			c-5.093,7.392-8.998,17.461-4.154,25.019c7.668,11.964,29.466,6.504,37.018,18.542c1.855,2.957,2.455,6.509,2.939,9.966
			c2.26,16.13,2.843,32.494,1.736,48.744c-0.804,11.805-3.507,25.16-13.681,31.199c-6.157,3.655-13.921,3.805-20.055,7.498
			c-7.34,4.418-11.122,14.003-8.778,22.242c2.274,7.992,9.569,14.691,8.826,22.967c-0.285,3.172-1.765,6.103-3.341,8.871
			c-10.212,17.943-25.711,32.834-44.049,42.319c-5.568,2.88-11.889,5.322-17.986,3.867c-10.918-2.605-17.293-16.694-28.518-16.663
			c-8.973,0.025-15.013,9.284-17.557,17.889c-2.544,8.605-3.674,18.258-9.966,24.656c-5.594,5.689-14.032,7.423-21.986,8.045
			c-16.905,1.323-34.097-1.171-49.929-7.244c-3.171-1.216-6.355-2.617-8.848-4.924c-10.53-9.744-4.428-30.535-16.236-38.683
			c-6.11-4.216-14.522-2.845-21.271,0.246c-6.749,3.09-12.819,7.705-19.915,9.883c-13.047,4.003-27.521-1.078-38.071-9.735
			c-10.55-8.656-17.938-20.474-25.135-32.07c-2.908-4.686-5.919-9.737-5.733-15.248c0.3-8.914,8.558-15.239,12.558-23.21
			c7.144-14.236-2.808-34.029-18.495-36.786c-4.957-0.871-10.137-0.281-14.983-1.638C61.014,281.588,58.5,277.5,56.5,272.5
			c-9.372-21.412-8.618-46.998,0.824-68.379c1.359-3.078,2.961-6.152,5.487-8.375c8.192-7.21,21.525-2.47,31.439-7.033
			c8.551-3.936,12.675-14.303,11.905-23.685c-0.77-9.382-5.469-17.957-10.521-25.899c-1.58-2.483-3.269-5.167-3.092-8.105
			c0.164-2.728,1.91-5.073,3.62-7.205c12.277-15.314,8.24-11.45,19.469-21.844c6.354-5.881,11.142-9.438,20.72-16.551
			C139.327,83.212,143,81.041,145.625,80.309z"/>
		<g>
			<path style="fill:#FF9B2F;" d="M146.821,84.648c0.19-0.051,0.383-0.092,0.574-0.141c0.998-0.252-0.411,0.064-0.405,0.035
				c0.029-0.143,1.504-0.002,1.645-0.012c0.714-0.05-1.056-0.236-0.083-0.014c0.326,0.074,0.656,0.127,0.982,0.205
				c0.921,0.22,1.824,0.509,2.715,0.827c5.008,1.782,10.666,4.73,15.534,7.837c0.95,0.606,1.883,1.239,2.793,1.904
				c0.225,0.164,1.198,0.911,0.513,0.374c0.363,0.285,0.722,0.575,1.08,0.867c1.311,1.069,2.595,2.192,3.999,3.139
				c3.623,2.443,8.443,3.345,12.739,3.036c12.386-0.891,22.355-9.986,24.256-22.235c0.931-6.001,0.425-12.793,3.966-18.032
				c2.469-3.653,7.142-6.026,11.526-7.428c5.746-1.837,11.771-2.576,17.751-3.173c7.783-0.777,15.61-1.113,23.431-1.008
				c10.484,0.141,23.199,0.757,30.524,9.146c3.937,4.509,5.048,10.991,6.052,16.733c1.056,6.046,2.089,11.927,4.689,17.541
				c2.553,5.513,6.759,10.099,12.461,12.36c5.463,2.166,11.557,1.46,16.92-0.643c10.669-4.183,20.079-12.94,32.18-11.903
				c13.133,1.125,23.243,11.289,31.012,21.006c4.049,5.065,8.158,10.301,11.455,15.894c3.102,5.264,4.883,10.914,2.966,16.921
				c-1.864,5.841-6.096,10.786-9.587,15.717c-3.85,5.438-6.933,11.49-7.73,18.179c-0.725,6.084,1.247,12.438,5.893,16.573
				c3.658,3.256,8.256,5.029,12.937,6.251c4.467,1.166,9.06,1.875,13.44,3.362c0.497,0.169,0.99,0.349,1.479,0.54
				c0.7,0.273-0.528-0.244,0.151,0.061c0.2,0.09,0.399,0.181,0.597,0.277c1.031,0.498,2.037,1.069,2.962,1.747
				c-0.615-0.45,0.411,0.364,0.567,0.51c0.366,0.341,0.711,0.701,1.043,1.074c0.078,0.087,0.511,0.661,0.107,0.112
				c0.131,0.177,0.259,0.362,0.374,0.55c0.403,0.661,0.792,1.318,1.074,2.038c1.145,2.921,1.444,6.215,1.831,9.304
				c0.481,3.848,0.867,7.708,1.157,11.575c0.571,7.605,0.775,15.238,0.608,22.863c-0.245,11.17-0.168,24.517-7.081,33.795
				c-3.17,4.255-8.175,6.087-13.504,7.559c-6.275,1.733-12.601,3.826-16.941,8.974c-3.937,4.67-6.284,10.641-6.162,16.793
				c0.127,6.415,3.22,11.807,6.26,17.254c1.331,2.385,2.686,4.832,3.175,7.554c0.451,2.517-0.412,5.222-1.66,7.621
				c-2.797,5.377-6.267,10.516-10.077,15.224c-7.789,9.624-17.184,17.875-27.824,24.214c-5.206,3.101-11.243,6.767-17.492,6.753
				c-4.906-0.012-8.368-2.873-11.857-5.911c-3.823-3.329-7.573-7.125-12.245-9.253c-5.434-2.475-11.407-2.569-16.717,0.345
				c-11.331,6.217-13.181,19.752-16.551,30.898c-1.573,5.203-3.927,10.227-8.717,13.171c-4.883,3.001-10.785,3.897-16.41,4.301
				c-14.261,1.025-28.576-0.7-42.183-5.085c-3.19-1.028-6.454-2.088-9.427-3.654c-1.234-0.65-2.418-1.363-3.431-2.328
				c-0.394-0.376-0.769-0.772-1.124-1.184c-0.356-0.412-0.201-0.21-0.671-0.935c-1.397-2.155-1.8-3.302-2.506-5.774
				c-0.675-2.362-1.129-4.781-1.55-7.2c-1.704-9.793-3.575-21.086-13.794-25.575c-6.262-2.751-13.478-2.09-19.764,0.275
				c-6.345,2.386-11.891,6.306-17.988,9.196c-11.359,5.384-24.011,2.423-34.168-4.209c-10.752-7.022-18.241-18.071-24.982-28.744
				c-1.819-2.88-3.684-5.751-5.356-8.72c-1.5-2.663-2.934-5.586-2.977-8.706c-0.069-5.013,3.609-9.527,6.692-13.655
				c3.316-4.441,6.506-9.06,7.612-14.6c1.052-5.27,0.694-10.805-1.052-15.893c-3.383-9.857-11.472-18.692-21.997-20.783
				c-3.638-0.723-7.332-0.721-11.014-0.999c-1.51-0.114-2.997-0.307-4.457-0.73c-1.022-0.296-1.898-0.797-2.532-1.382
				c-1.559-1.438-2.63-3.495-3.574-5.644c-1.349-3.072-2.5-6.233-3.445-9.453c-3.677-12.532-4.14-25.996-1.552-38.789
				c1.272-6.287,3.152-12.582,5.914-18.384c1.153-2.422,2.614-5.037,4.752-6.499c2.039-1.394,4.233-1.973,6.792-2.355
				c5.356-0.8,11.581-0.37,17.204-1.516c6.089-1.241,11.096-4.638,14.738-9.625c7.956-10.894,5.912-25.141,0.605-36.635
				c-1.405-3.043-3.051-5.969-4.795-8.828c-1.379-2.261-4.239-5.331-4.128-8.136c0.1-2.53,2.868-5.056,4.345-6.914
				c1.565-1.97,3.117-3.951,4.664-5.936c4.243-5.44,9.072-10.031,14.191-14.658c3.63-3.281,7.462-6.357,11.267-9.232
				C136.159,91.104,141.297,86.325,146.821,84.648c5.527-1.677,3.171-10.367-2.393-8.679c-6.504,1.974-11.894,6.676-17.223,10.696
				c-4.429,3.341-8.801,6.755-12.932,10.462c-5.266,4.727-10.241,9.441-14.591,15.019c-1.616,2.072-3.237,4.141-4.873,6.198
				c-2.33,2.93-4.929,5.755-6.157,9.36c-2.524,7.412,3.476,13.904,6.847,19.925c5.587,9.978,9.715,23.272,1.923,33.007
				c-3.098,3.871-7.868,5.354-12.845,5.749c-5.823,0.462-11.936,0.098-17.549,1.978c-6.668,2.233-10.807,7.209-13.589,13.486
				c-2.812,6.345-4.97,12.943-6.295,19.76c-2.671,13.743-2.406,28.084,1.316,41.613c0.924,3.361,2.084,6.642,3.434,9.854
				c1.185,2.821,2.318,5.618,4.171,8.079c1.983,2.634,4.445,4.635,7.561,5.782c3.397,1.251,7.186,1.382,10.767,1.561
				c2.938,0.147,5.792,0.319,8.592,1.288c1.434,0.496,4.231,2.091,5.379,3.042c3.625,3.001,6.198,6.815,7.563,10.915
				c1.516,4.551,1.768,8.803,0.369,13.234c-0.665,2.105-2.009,4.356-3.521,6.547c-1.655,2.398-3.485,4.67-5.151,7.06
				c-3.809,5.463-6.136,11.518-4.966,18.242c1.193,6.851,5.717,12.935,9.36,18.692c7.337,11.595,15.508,23.088,26.957,30.968
				c10.994,7.567,25.564,11.569,38.585,7.279c6.618-2.18,12.342-6.156,18.523-9.254c4.831-2.422,11.104-4.457,16.4-2.33
				c0.566,0.227,1.12,0.543,1.639,0.868c0.24,0.15,0.477,0.308,0.706,0.475c0.624,0.456-0.39-0.341,0.181,0.156
				c0.398,0.347,0.78,0.711,1.139,1.098c0.202,0.217,0.402,0.441,0.589,0.672c-0.38-0.469,0.1,0.145,0.226,0.336
				c0.577,0.875,1.084,1.782,1.522,2.734c0.317,0.689-0.203-0.529,0.079,0.183c0.085,0.214,0.165,0.429,0.244,0.645
				c0.239,0.658,0.45,1.326,0.646,1.998c1.395,4.801,1.87,9.808,2.911,14.687c1.084,5.08,2.886,9.998,6.303,13.986
				c4.52,5.277,11.899,7.552,18.299,9.592c14.188,4.522,29.375,6.362,44.23,5.295c6.572-0.472,13.164-1.519,19.108-4.503
				c5.84-2.932,10.074-7.941,12.621-13.889c2.55-5.955,3.571-12.319,5.532-18.459c1.49-4.664,4.237-9.851,8.285-12.355
				c1.908-1.181,3.728-1.668,6.126-1.364c-0.645-0.082,0.678,0.175,0.866,0.225c0.519,0.138,1.037,0.3,1.537,0.499
				c-0.518-0.206,0.854,0.429,1.032,0.525c0.555,0.3,1.095,0.627,1.624,0.972c3.768,2.453,7.578,6.499,11.569,9.525
				c5.028,3.812,10.827,5.872,17.187,5.048c7.055-0.914,13.573-4.448,19.588-8.08c10.948-6.61,20.829-15.132,28.905-25.05
				c4.177-5.13,8.011-10.579,11.195-16.384c1.81-3.3,3.217-6.751,3.474-10.541c0.232-3.415-0.749-6.737-2.087-9.833
				c-2.259-5.228-6.323-9.946-7.301-15.663c-0.75-4.387,0.86-9.648,4.121-13.099c4.193-4.436,10.665-5.182,16.31-7.026
				c6.328-2.068,11.506-5.617,15.265-11.155c7.075-10.425,7.493-24.38,7.819-36.519c0.208-7.753,0.033-15.516-0.522-23.253
				c-0.278-3.868-0.651-7.729-1.119-11.579c-0.454-3.731-0.783-7.606-1.844-11.227c-1.601-5.464-5.194-9.881-10.277-12.456
				c-4.427-2.243-9.265-3.28-14.07-4.357c-2.286-0.512-4.573-1.037-6.808-1.746c-0.505-0.16-1.008-0.329-1.506-0.51
				c-0.281-0.102-0.561-0.208-0.838-0.319c0.181,0.072,0.67,0.308-0.149-0.066c-0.994-0.453-1.917-0.995-2.85-1.559
				c-0.09-0.054-0.816-0.563-0.415-0.266c0.359,0.266-0.194-0.156-0.215-0.174c-0.436-0.367-0.853-0.758-1.243-1.172
				c-0.6-0.636-1.211-1.357-1.8-2.773c-0.929-2.232-0.883-4.829-0.376-7.181c2.78-12.887,15.529-20.98,17.631-34.21
				c2.311-14.543-8.504-26.792-16.888-37.416c-8.532-10.811-19.287-21.026-33.272-23.788c-6.636-1.31-13.338-0.845-19.625,1.704
				c-5.79,2.347-11.052,5.667-16.629,8.444c-4.448,2.216-9.233,3.904-13.631,2.606c-4.678-1.381-7.614-5.783-9.286-10.338
				c-2.13-5.803-2.665-11.983-3.937-17.995c-1.386-6.548-3.874-12.989-8.732-17.762c-9.007-8.849-22.556-10.311-34.559-10.54
				c-7.82-0.149-15.649,0.144-23.436,0.876c-6.682,0.628-13.5,1.336-19.971,3.2c-5.548,1.598-11.061,4.124-15.202,8.244
				c-4.984,4.959-6.612,11.378-7.322,18.167c-0.589,5.631-0.933,11.391-4.605,15.455c-3.298,3.649-8.001,5.87-12.629,5.964
				c-2.214,0.045-3.709-0.278-5.872-1.059c0.766,0.276,0.427,0.204-0.046-0.065c-0.263-0.15-0.53-0.292-0.787-0.452
				c-0.288-0.18-0.556-0.407-0.849-0.575c-0.561-0.322,0.715,0.597-0.142-0.108c-3.654-3.009-7.389-5.779-11.537-8.083
				c-4.917-2.732-10.163-5.47-15.582-7.069c-2.81-0.829-5.743-1.142-8.601-0.371C138.843,77.477,141.213,86.162,146.821,84.648z"/>
		</g>
	</g>
	<g>
		<path style="fill:#FFFFFF;" d="M296.909,378.133c2.029-1.311,5.667-2.957,10.695-4.749c10.896-3.884,13.499-4.37,18.719-5.227
			c2.492-0.409,5.117-0.702,7.489,0.167c3.83,1.404,5.964,5.37,8.835,8.267c5.496,5.545,14.15,7.168,21.759,5.422
			s14.257-6.454,19.728-12.023c4.567-4.648,8.654-10.559,8.3-17.065c-0.316-5.809-4.065-10.763-6.561-16.019
			c-9.335-19.654,1.721-46.23,22.243-53.462c4.213-1.485,8.723-2.264,12.59-4.5c12.24-7.079,12.574-24.317,11.372-38.406
			c-0.349-4.094-0.762-8.379-3.019-11.812c-4.54-6.905-14.144-7.525-22.06-9.897c-10.158-3.044-19.117-10.292-23.625-19.89
			s-4.271-21.436,1.175-30.534c4.524-7.557,12.437-13.434,14.024-22.098c2.113-11.538-7.82-21.424-16.826-28.94
			c-3.675-3.067-7.567-6.24-12.266-7.15c-10.146-1.966-18.724,6.927-27.957,11.569c-16.28,8.184-38.421,1.483-47.43-14.355
			c-5.501-9.67-6.219-21.209-7.845-32.214c-0.303-2.051-0.706-4.23-2.138-5.729c-1.465-1.534-3.688-2.022-5.779-2.378
			c-11.85-2.019-24.015-2.183-35.915-0.485c-4.942,0.705-10.439,2.144-12.889,6.493c-2.004,3.557-1.318,7.934-1.401,12.016
			c-0.332,16.286-14.655,30.084-30.636,33.239c-15.981,3.155-32.686-2.661-45.949-12.119c-1.78-1.27-3.672-2.661-5.859-2.71
			c-2.201-0.049-4.168,1.277-5.965,2.548c-10.215,7.226-21.315,15.849-23.001,28.247c-1.515,11.144,5.17,21.669,6.813,32.795
			c2.749,18.617-11.057,38.149-29.525,41.769c-7.144,1.4-15.853,1.36-19.752,7.508c-1.63,2.569-1.983,5.721-2.238,8.752
			c-0.478,5.698-0.752,11.414-0.821,17.132c-0.086,7.159,0.48,15.117,5.641,20.08c4.884,4.698,12.279,5.195,18.81,7.002
			c13.106,3.628,24.222,13.8,28.995,26.534c4.773,12.733,3.082,27.707-4.41,39.056c-2.62,3.969-6.051,7.986-5.794,12.734
			c0.153,2.822,1.624,5.385,3.114,7.787c8.195,13.213,21.572,26.696,36.804,23.58c12.029-2.461,21.523-14.963,33.695-13.343
			c3.791,0.505,7.241,2.383,10.592,4.228c4.97,2.736,9.939,5.473,14.909,8.209c2.763,1.521,5.639,3.146,7.343,5.8
			c3.118,4.856,1.298,11.25,2.176,16.954c1.252,8.128,8.154,14.474,15.826,17.435c7.672,2.961,16.092,3.149,24.315,3.301
			c8.272,0.152,12.38-0.875,15.159-3.029c10.544-8.172,5.368-30.786,14.774-37.887C293.441,380.509,294.922,379.418,296.909,378.133
			z"/>
		<g>
			<path style="fill:#FF9B2F;" d="M299.181,382.019c4.398-2.779,9.373-4.259,14.341-5.943c3.53-1.197,7.09-2.312,10.755-3.016
				c1.712-0.329,3.461-0.694,5.204-0.778c2.797-0.136,3.993,0.688,5.748,2.6c1.827,1.99,3.358,4.241,5.433,5.995
				c2.419,2.045,5.055,3.539,8.021,4.643c11.998,4.467,24.693-0.49,34.087-8.179c4.569-3.74,9.01-8.34,11.641-13.681
				c3.018-6.126,3.205-12.484,0.553-18.773c-1.22-2.892-2.797-5.585-4.252-8.36c-0.328-0.625-0.649-1.253-0.951-1.891
				c-0.133-0.28-0.264-0.562-0.388-0.846c0.041,0.094,0.199,0.486,0.005,0.005c-0.461-1.141-0.852-2.311-1.183-3.496
				c-0.289-1.033-0.53-2.078-0.723-3.133c-0.227-1.241-0.243-1.31-0.354-2.901c-0.161-2.302-0.088-4.6,0.135-6.895
				c0.022-0.23,0.049-0.459,0.079-0.688c-0.09,0.704,0.014-0.068,0.032-0.176c0.092-0.532,0.179-1.064,0.284-1.594
				c0.24-1.213,0.533-2.414,0.876-3.601c0.301-1.04,0.642-2.069,1.02-3.084c0.063-0.169,0.546-1.399,0.323-0.865
				c0.268-0.642,0.565-1.274,0.87-1.9c2.126-4.372,4.287-7.443,7.608-10.679c1.833-1.786,2.881-2.631,4.815-3.883
				c0.965-0.625,1.96-1.205,2.982-1.732c0.479-0.247,0.965-0.479,1.453-0.706c0.209-0.097,0.421-0.194,0.634-0.283
				c-0.589,0.247,0.328-0.117,0.431-0.154c5.892-2.109,12.062-3.199,17.117-7.131c8.386-6.524,10.828-17.538,11.21-27.637
				c0.194-5.115-0.088-10.28-0.656-15.365c-0.737-6.595-2.748-12.448-8.274-16.503c-4.195-3.079-9.486-4.31-14.46-5.501
				c-5.183-1.24-9.653-2.591-14.113-5.416c-8.684-5.499-14.671-14.987-14.768-25.541c-0.05-5.364,1.338-10.577,4.294-15.171
				c2.896-4.502,6.891-8.39,9.923-12.983c3.352-5.076,5.009-10.885,4.142-16.95c-0.831-5.811-3.921-10.881-7.576-15.356
				c-3.616-4.428-7.982-8.241-12.424-11.816c-4.993-4.019-10.588-7.518-17.261-7.198c-5.862,0.281-11.148,2.984-16.031,6.039
				c-2.392,1.496-4.729,3.082-7.15,4.532c-1.173,0.702-2.364,1.377-3.591,1.98c-0.151,0.074-1.428,0.665-0.884,0.432
				c-0.583,0.249-1.182,0.465-1.782,0.671c-1.123,0.386-2.267,0.708-3.424,0.972c-0.54,0.123-1.082,0.233-1.627,0.329
				c-0.311,0.055-0.624,0.108-0.937,0.152c0.493-0.07-0.002,0-0.216,0.02c-2.376,0.22-4.745,0.273-7.125,0.068
				c-1.451-0.125-1.291-0.105-2.821-0.4c-1.174-0.226-2.337-0.506-3.485-0.838c-2.493-0.722-3.969-1.312-6.017-2.371
				c-4.285-2.215-7.385-4.622-10.487-8.469c-0.349-0.432-0.215-0.256-0.725-0.99c-0.318-0.457-0.623-0.923-0.917-1.396
				c-0.751-1.209-1.42-2.471-2.022-3.76c-1.214-2.6-2.036-5.4-2.719-8.181c-1.484-6.04-2.14-12.239-2.999-18.387
				c-0.47-3.362-0.998-6.728-3.376-9.341c-2.15-2.362-5.241-3.292-8.29-3.805c-7.008-1.179-14.113-1.799-21.22-1.747
				c-6.626,0.048-13.518,0.446-19.999,1.903c-5.866,1.319-11.241,4.475-13.382,10.355c-1.07,2.937-1.038,6.171-0.977,9.254
				c0.055,2.793,0.004,4.873-0.536,7.248c-2.142,9.425-9.125,16.929-17.863,21.312c-9.586,4.808-21.536,4.493-31.98,1.226
				c-5.71-1.786-11.084-4.444-16.117-7.667c-2.704-1.731-5.174-3.886-8.231-4.981c-3.499-1.254-7.166-0.216-10.181,1.732
				c-4.842,3.129-9.558,6.77-13.789,10.682c-4.001,3.699-7.734,8.044-10.021,13.031c-2.69,5.865-3.349,11.927-2.387,18.287
				c0.925,6.114,3.296,11.868,5.03,17.771c0.407,1.385,0.782,2.78,1.095,4.189c0.155,0.701,0.295,1.404,0.417,2.111
				c0.166,0.969,0.129,0.661,0.218,1.71c0.099,1.163,0.135,2.332,0.111,3.498c-0.012,0.582-0.04,1.164-0.082,1.744
				c-0.024,0.332-0.053,0.663-0.086,0.994c-0.01,0.099-0.14,1.104-0.057,0.535c-0.741,5.067-2.335,9.184-4.923,13.373
				c-4.992,8.08-12.86,13.774-22.377,15.467c-5.115,0.91-10.276,1.309-15.022,3.612c-6.001,2.912-8.431,8.669-9.137,14.981
				c-0.76,6.8-1.037,13.743-1.002,20.583c0.029,5.782,0.645,11.797,3.432,16.967c2.944,5.461,8.242,8.632,14.042,10.338
				c5.019,1.476,10.734,2.195,15.255,4.233c9.263,4.174,17.072,11.891,20.694,21.151c4.023,10.288,3.619,22.155-1.424,32.065
				c-2.688,5.282-7.5,9.848-8.488,15.881c-1.097,6.695,2.686,12.405,6.406,17.623c6.568,9.214,15.482,18.43,26.908,21.08
				c5.547,1.286,11.338,0.874,16.619-1.267c5.04-2.043,9.506-5.026,14.178-7.762c1.098-0.643,2.207-1.266,3.343-1.84
				c1.223-0.618,1.701-0.842,2.773-1.225c1.14-0.407,2.299-0.711,3.485-0.95c-0.007,0.001,0.766-0.11,0.351-0.061
				c-0.475,0.056,0.509-0.032,0.599-0.038c0.65-0.039,1.3-0.041,1.95-0.004c2.494,0.142,5.235,1.41,7.594,2.66
				c3.061,1.622,6.077,3.332,9.112,5.003c2.996,1.65,6.014,3.265,8.987,4.957c2.037,1.159,4.16,2.38,5.061,4.472
				c0.992,2.304,0.78,4.955,0.75,7.568c-0.036,3.056,0.009,6.151,0.792,9.128c3.128,11.893,14.974,18.883,26.377,20.912
				c6.667,1.186,13.575,1.453,20.337,1.35c4.658-0.071,9.769-0.482,13.844-2.975c7.913-4.841,9.596-14.735,10.93-23.147
				c0.619-3.902,1.166-7.893,2.528-11.621c0.117-0.32,0.564-1.273,0.179-0.484c0.211-0.434,0.414-0.867,0.651-1.288
				c0.201-0.358,0.428-0.696,0.646-1.043c0.53-0.843-0.301,0.191,0.242-0.306c0.288-0.264,0.556-0.564,0.836-0.839
				c0.865-0.849-0.456,0.264,0.057-0.07C296.897,383.626,298.013,382.781,299.181,382.019c2.033-1.327,2.884-3.986,1.614-6.157
				c-1.182-2.021-4.113-2.949-6.157-1.614c-3.698,2.415-7.103,4.866-9.034,8.976c-1.826,3.885-2.659,8.039-3.345,12.25
				c-0.688,4.219-1.232,8.495-2.479,12.596c-0.14,0.462-0.289,0.921-0.45,1.375c-0.091,0.256-0.19,0.509-0.283,0.764
				c-0.019,0.052-0.277,0.668-0.079,0.207c0.198-0.46-0.07,0.143-0.095,0.193c-0.119,0.234-0.227,0.474-0.347,0.708
				c-0.237,0.46-0.491,0.913-0.767,1.351c-0.086,0.136-0.8,1.156-0.524,0.798c0.278-0.36-0.492,0.552-0.633,0.699
				c-0.354,0.368-0.733,0.698-1.115,1.036c0.683-0.603-0.043,0.013-0.369,0.212c-0.311,0.191-0.636,0.351-0.957,0.522
				c-0.881,0.47,0.455-0.068-0.315,0.125c-0.944,0.236-1.85,0.536-2.811,0.723c-0.104,0.02-0.989,0.164-0.502,0.092
				c0.454-0.067-0.325,0.037-0.334,0.038c-0.596,0.059-1.192,0.112-1.791,0.15c-1.617,0.101-3.238,0.116-4.858,0.094
				c-6.186-0.083-12.478-0.16-18.522-1.618c-5.039-1.216-9.492-3.275-13.089-6.961c-3.453-3.538-4.667-7.471-4.64-12.626
				c0.033-6.264-0.078-12.664-4.999-17.27c-2.271-2.126-5.019-3.602-7.721-5.09c-3.002-1.653-6.005-3.306-9.007-4.96
				c-5.838-3.214-11.698-7.019-18.517-7.51c-5.305-0.381-10.476,1.608-15.065,4.077c-4.484,2.413-8.633,5.418-13.229,7.629
				c-3.934,1.892-8.647,2.725-12.858,1.748c-9.686-2.246-17.456-10.764-22.968-19.029c-1.458-2.186-3.365-4.639-3.893-7.263
				c-0.452-2.245,0.566-4.173,1.828-6.217c1.478-2.395,3.218-4.615,4.617-7.062c1.489-2.604,2.713-5.385,3.699-8.216
				c3.964-11.387,3.379-24.132-1.467-35.138c-4.386-9.961-12.577-18.427-22.31-23.277c-5.101-2.542-10.398-3.757-15.899-5.059
				c-4.882-1.155-9.271-2.611-11.621-6.973c-2.222-4.124-2.256-9.432-2.191-14.405c0.045-3.455,0.168-6.908,0.364-10.358
				c0.178-3.127,0.205-6.396,0.832-9.472c0.25-1.225,0.578-2.362,1.244-3.426c-0.014,0.023,0.435-0.619,0.203-0.32
				c-0.263,0.339,0.346-0.376,0.403-0.434c0.43-0.434,0.835-0.769,0.834-0.768c0.438-0.307,0.902-0.578,1.376-0.826
				c0.273-0.143,0.554-0.283,0.837-0.405c-0.099,0.043-0.47,0.191,0.016,0.009c1.139-0.427,2.316-0.746,3.502-1.012
				c4.821-1.081,9.794-1.286,14.484-2.938c9.945-3.504,18.313-10.875,23.336-20.125c5.36-9.871,6.448-20.847,3.505-31.642
				c-1.597-5.858-3.979-11.504-5.144-17.479c-0.98-5.022-0.436-10.085,1.74-14.3c2.356-4.565,5.733-8.084,9.679-11.508
				c1.939-1.682,3.75-3.092,5.779-4.582c1.02-0.749,2.049-1.488,3.082-2.219c0.977-0.691,2.169-1.763,3.36-2.012
				c1.844-0.386,4.537,2.329,6.156,3.41c2.473,1.652,5.04,3.165,7.687,4.52c5.516,2.823,11.396,5.083,17.468,6.361
				c11.648,2.45,23.89,1.527,34.462-4.2c9.362-5.071,17.106-13.644,20.264-23.903c0.786-2.552,1.229-5.232,1.404-7.894
				c0.188-2.868-0.259-5.793,0.119-8.647c0.104-0.784,0.381-1.804,0.852-2.59c0.413-0.688,0.991-1.238,1.591-1.632
				c1.083-0.713,1.54-0.908,2.516-1.242c1.293-0.442,2.627-0.76,3.968-1.011c6.139-1.151,12.546-1.401,18.778-1.316
				c3.467,0.047,6.933,0.248,10.382,0.604c2.961,0.306,6.131,0.545,8.979,1.451c0.706,0.224,1.006,0.271,1.432,1.092
				c0.446,0.859,0.606,2.498,0.768,3.598c0.439,2.975,0.804,5.96,1.222,8.937c0.844,5.999,1.88,12.038,4.089,17.707
				c3.878,9.951,11.047,17.96,20.848,22.383c9.188,4.147,19.784,5.357,29.521,2.407c5.211-1.579,9.769-4.442,14.307-7.368
				c2.265-1.46,4.538-2.92,6.937-4.153c1.131-0.581,1.742-0.871,2.834-1.252c1.03-0.359,2.819-0.811,3.328-0.867
				c5.185-0.562,9.464,2.641,13.526,6.036c4.006,3.347,8.177,7.006,11.236,11.147c1.483,2.007,2.939,4.422,3.646,6.48
				c0.389,1.134,0.736,2.334,0.875,3.528c-0.051-0.437,0.031,0.951,0.034,1.14c0.01,0.551-0.012,1.473-0.048,1.79
				c-0.517,4.561-3.744,8.675-6.716,12.296c-3.775,4.599-7.344,9.083-9.534,14.676c-2.132,5.444-2.778,11.577-2.069,17.365
				c1.455,11.868,8.167,22.052,18.044,28.682c4.537,3.045,9.645,5.053,14.927,6.37c2.403,0.599,4.826,1.123,7.209,1.803
				c2.536,0.724,4.032,1.202,6.168,2.534c1.459,0.91,2.849,2.254,3.7,4.152c1.037,2.315,1.272,4.963,1.49,7.441
				c0.434,4.921,0.678,9.876,0.382,14.813c-0.161,2.697-0.309,4.065-0.868,6.644c-0.236,1.09-0.516,2.171-0.851,3.235
				c-0.164,0.522-0.34,1.041-0.531,1.555c-0.108,0.29-0.217,0.582-0.338,0.866c0.186-0.441-0.017,0.014-0.101,0.193
				c-1.974,4.161-4.245,6.822-8.526,8.7c-2.838,1.245-5.932,1.872-8.869,2.839c-2.424,0.798-4.807,1.799-7.044,3.03
				c-4.136,2.276-7.919,5.374-11.018,8.932c-6.522,7.488-10.462,16.754-11.515,26.609c-0.505,4.727-0.157,9.592,0.972,14.21
				c1.287,5.266,4.01,9.813,6.456,14.588c1.169,2.283,2.238,4.776,2.276,7.33c0.036,2.402-0.745,4.701-1.99,6.89
				c-2.563,4.507-6.588,8.45-10.742,11.508c-4.179,3.076-9.452,5.73-14.325,6.175c-4.805,0.439-9.749-0.446-13.457-3.216
				c-2.169-1.62-3.717-3.932-5.492-5.939c-1.988-2.246-4.359-4.094-7.24-5.028c-4.501-1.46-9.72-0.202-14.239,0.781
				c-3.734,0.812-7.369,2.038-10.975,3.288c-5.017,1.739-10.339,3.434-14.858,6.29c-2.053,1.297-2.871,4.008-1.614,6.157
				C294.221,382.451,297.118,383.322,299.181,382.019z"/>
		</g>
	</g>
	
		<circle style="fill:#F0E0BC;stroke:#FF9B2F;stroke-width:7;stroke-linecap:round;stroke-miterlimit:10;" cx="256.25" cy="244.917" r="75.424"/>
	
		<ellipse style="fill:#BFA174;stroke:#FF9B2F;stroke-width:6;stroke-linecap:round;stroke-miterlimit:10;" cx="256.458" cy="245" rx="55.042" ry="55.5"/>
</g>
<g id="Layer_2">
	<g>
		<path style="fill:#FF9B2F;" d="M106.523,380.485c0.977,1.015,2.977,4.015,11.581,11.848c3.213,2.924,9.292,7.438,17.841,9.641
			c7.327,1.888,15.076,1.564,21.975-1.544c6.899-3.108,13.969-6.682,20.927-9.657c7.653-3.272,16.041-3.322,20.855,2.517
			c6.522,7.911,4.323,24.933,10.325,33.245c6.473,8.965,14.373,11.248,24.636,12.844c9.568,1.488,19.22,3.433,28.894,3.83
			c7.122,0.292,14.401-0.734,21.18-2.94c6.778-2.207,11.069-5.929,13.55-12.611c2.166-5.835,4.239-12.403,5.967-18.382
			c1.961-6.786,6.517-14.419,13.275-16.475s14.509,3.53,19.917,8.074c3.51,2.949,6.091,5.042,10.1,7.265
			c8.205,4.549,18.237-2.433,26.244-7.322c7.08-4.322,14.711-10.318,20.711-15.318c-18.287,23.053-22.782,60.288-12.211,87.749
			c4.444,11.544,11.385,22.071,15.048,33.887c3.663,11.816,3.337,26.074-5.3,34.931c-8.723,8.945-24.239,9.267-34.312,1.874
			c-10.073-7.393-14.528-21.047-12.406-33.36c1.257-7.291,4.546-14.184,5.125-21.56c0.942-11.998-6.174-24.213-17.055-29.355
			c-8.144-3.849-19.418-3.025-24.322,4.531c-7.449,11.477,4.751,26.516,2.225,39.963c-1.397,7.437-7.793,13.666-15.265,14.865
			c-7.472,1.199-15.496-2.714-19.15-9.34c-3.601-6.528-2.957-14.442-3.415-21.883s-2.921-15.841-9.725-18.889
			c-2.875-1.288-6.148-1.402-9.28-1.055c-3.674,0.408-7.472,1.539-9.983,4.252c-4.584,4.953-3.164,12.772-1.454,19.301
			c1.788,6.824,3.575,13.649,5.363,20.473c2.103,8.027,4.211,16.485,2.114,24.513c-2.794,10.695-13.661,18.679-24.701,18.148
			c-11.041-0.53-21.092-9.52-22.848-20.433c-0.851-5.289,0.062-10.685,0.973-15.965c1.454-8.422,2.907-16.845,4.361-25.267
			c1.117-6.475,2.238-13.082,1.275-19.582c-0.963-6.5-4.38-12.992-10.239-15.966c-3.464-1.759-7.459-2.154-11.344-2.13
			c-6.041,0.037-12.61,1.303-16.545,5.887c-6.591,7.679-2.354,19.251,0.171,29.051c3.298,12.798,2.971,26.509-0.933,39.136
			c-2.527,8.173-7.126,16.465-15.004,19.799c-6.621,2.802-14.393,1.503-20.836-1.689c-8.903-4.41-15.976-12.386-19.292-21.751
			c-4.577-12.93,1.004-27.257,4.893-40.41c2.109-7.131,3.719-14.221,4.845-21.402c0.28-1.785,1.825-11.606,1.827-18.466
			c0.007-27.238-16.602-51.854-19.212-62.574C107.761,382.252,105.753,379.684,106.523,380.485z"/>
	</g>
</g>
</svg>
