<svg id="Capa_1" data-name="Capa 1" xmlns="http://www.w3.org/2000/svg" viewBox="0 0 645.96 582.68"><defs><style>.cls-1{fill:#f0e0bc;}.cls-2{fill:#ff9b2f;}</style></defs><path class="cls-1" d="M115.47,503.67c4.72,2.34,49.44,19.89,89.79.24,3.07-1.5,6.62-3.54,13.63-7.81,49-29.87,61.16-46.76,92.47-67,27-17.47,43-21,59.65-16,23.82,7.2,34,35.85,55.17,49,26.12,16.21,61.16,4.08,84.93-15.43,13.77-11.31,25.66-24.93,40.5-34.79s34.06-15.6,50.56-8.89c13.4,5.45,25.52,18,32.46,30.66,4.32,7.89,6.15,16.32,6.73,25.29.82,12.8-5.19,26.31-13.76,35.85A150.06,150.06,0,0,1,596.09,521c-27.2,16.51-55.6,27.73-86.37,35.82s-64.34,8.61-93.67-3.72c-22.28-9.37-41.14-30.63-63.4-40.07a49.78,49.78,0,0,0-23.81-3.9A54.58,54.58,0,0,0,308.56,515c-21.79,11.09-41.51,30.83-62.81,42.82s-45.06,21.39-69.48,20.26C147.45,576.77,121.5,561.16,97,546L48.58,516.15l52.81-19.51,10,5Z"/><path class="cls-2" d="M113.2,507.56c11.35,5.54,24.68,8.06,37.11,9.37,20.89,2.21,42.6-.88,61.1-11.18a429.59,429.59,0,0,0,52.44-34.87c12.19-9.35,23.82-19.42,36.2-28.51a247.93,247.93,0,0,1,23.89-15.67c8.16-4.64,16.78-8.78,26.08-10.5a41.71,41.71,0,0,1,20.17,1.4c8.16,2.58,14.72,8.26,20.46,14.42,12.48,13.39,22.5,29.92,40,37.45,19.42,8.37,41.25,4.41,59.81-4.34A119.63,119.63,0,0,0,517.1,447.5c9-7.73,17.33-16.28,26.44-23.92,16.12-13.52,39.4-25.6,60.17-14.94,19.44,10,33.74,31.51,33.21,53.6-.26,10.62-5.25,21.14-12.19,29a137.49,137.49,0,0,1-26.34,22.94c-19.55,13.14-41.74,22.93-64,30.51-22.62,7.71-45.92,13.72-70,13.45A128.74,128.74,0,0,1,429.06,553a105.47,105.47,0,0,1-29.73-14.55c-17.93-12.31-35.35-29.69-57.68-33.24a58.11,58.11,0,0,0-35.36,5.92c-10.24,5.16-19.56,12-28.7,18.88S259.21,544.2,249.4,550.4a174.17,174.17,0,0,1-31.87,15.88c-11.19,4.18-22.93,7.05-34.9,7.37a95.57,95.57,0,0,1-34.38-5.89c-23-8.08-43.55-22.26-64.15-35L50.85,512.26l-1.07,8.23L96,503.4l6.56-2.42-3.47-.45,14.08,7c5.17,2.56,9.73-5.2,4.54-7.78q-6-3-12-6c-2.12-1.06-4-2-6.27-1.21-3.54,1.13-7,2.58-10.49,3.87L56,508.64l-8.57,3.17c-3.57,1.32-4.54,6.08-1.07,8.22,22.51,13.9,44.75,28.42,67.75,41.47,20.81,11.81,43.67,21.67,68,21.17,24.54-.51,48.55-10.4,69.32-22.93,20-12.1,36.94-28.9,57.67-39.94,10.7-5.69,23-8,34.82-4.95,10.84,2.75,20.47,9.28,29.44,15.72,9.27,6.66,18.17,13.88,27.91,19.88a108.78,108.78,0,0,0,31.95,13c23.64,5.63,48.52,4.56,72.1-.87a326.4,326.4,0,0,0,68.88-24.49c21.29-10.34,42.44-23.15,57.82-41.51A58.25,58.25,0,0,0,645.64,466c1.3-11.24-1.43-23.74-6.63-33.72-10.14-19.47-30.21-37.17-53.19-36.69-24.24.51-43.49,16.38-60.35,32.09-8.37,7.81-16.63,15.84-26.23,22.15A96.66,96.66,0,0,1,470.09,463c-9.59,2.43-19.79,3-29.42.47-9.23-2.46-16.83-7.82-23.44-14.58-12.5-12.78-22.09-30-38.9-37.74-16-7.39-32.9-4.78-48.45,2.33-32.3,14.8-57.67,41.12-86.49,61.28-9.76,6.82-19.8,13.24-30,19.38-8.57,5.16-17.25,9.37-27,11.76-18.73,4.58-38.69,3.08-57.12-2.16-2.74-.78-5.45-1.64-8.12-2.62-.85-.31-1.7-.64-2.55-1-.63-.26,1,.43-.15-.07l-.67-.32C112.55,497.25,108,505,113.2,507.56Z"/><path class="cls-1" d="M156.92,439.7c31.21-13.71,48.13-31.9,64.48-48.2,44-43.86,102-100.86,189.33-183.17,13.92,6.95,19.66,24.91,16.41,40.12s-13.63,27.93-25.08,38.46-24.32,19.55-34.83,31c-4.47,4.88-8.57,12.38-4.53,17.62,4.78,6.19,14.62,1.92,20.78-2.91a352.32,352.32,0,0,0,47.33-44.78c9-10.25,17.53-21.26,22.19-34.07s5-27.78-1.88-39.53c-5-8.53-13.89-16.6-11.76-26.25.75-3.41,2.85-6.35,5-9.1C464,153.94,492,135.49,503.8,106c14.37-35.86-5.27-81.58-41.18-95.83C436.54-.17,407.3,4.31,382.4,17.26s-45.5,33.67-65.74,53.11l-243,233.51c-8,7.66-16,15.38-22.24,24.5-6,8.83-10.27,18.75-14.26,28.68A795.46,795.46,0,0,0,5.71,452.44c-.38,1.46-2.47,7.2-.61,13.45a12.11,12.11,0,0,0,4.29,6.75c.61.44,2.62,1.78,8,2C23,474.87,102.39,463.64,156.92,439.7Z"/><path class="cls-2" d="M159.19,443.59c21.85-9.67,40.3-24,57.18-40.71,12.41-12.29,24.74-24.66,37.16-36.93q45.87-45.3,92.43-89.88,33.84-32.43,68-64.56l-5.45.71c8.56,4.41,13.38,13.15,14.73,22.48,1.53,10.57-2.06,20.93-7.63,29.78-6.47,10.28-15.58,18.57-24.79,26.34-9.77,8.25-20.73,16.1-28.66,26.24-3.57,4.58-6.64,10.59-5.21,16.56a12.63,12.63,0,0,0,12.15,9.5c5.33.15,10.75-2.41,15-5.38a185.89,185.89,0,0,0,15.17-12.29,348.53,348.53,0,0,0,28.67-27.69c8.63-9.34,17.21-19.11,23.56-30.19,6.14-10.75,10.13-23.08,9.33-35.58a46.27,46.27,0,0,0-4.65-17.87c-2.54-5.09-6.34-9.39-9.33-14.2-2.56-4.13-4.54-8.7-2.2-13.39s6.59-9.05,10.16-13c7.61-8.47,15.87-16.32,23.79-24.5,15-15.45,29.53-33.23,33.28-55,3.37-19.62-1.07-40.18-11.56-57a76.72,76.72,0,0,0-49.62-35c-25.17-5.27-51.35.8-73.58,13.09-22.39,12.37-41,30.39-59.28,48Q286.77,93,255.61,122.8L129.44,244.05c-21,20.12-42,40.14-62.83,60.39C57,313.76,48.18,323.63,41.9,335.53c-6.42,12.17-11.18,25.31-16,38.19-9.62,25.74-17.61,51.94-24.8,78.46C-1.37,461.3-.25,474.4,10.19,478c4.45,1.52,8.8,1.16,13.32.61,14.61-1.78,29.14-4.44,43.55-7.41A569.63,569.63,0,0,0,129,455c10.24-3.36,20.33-7.14,30.2-11.45,2.23-1,2.74-4.24,1.61-6.16-1.34-2.3-3.92-2.59-6.15-1.62-19.42,8.5-39.87,14.66-60.38,19.89-17.92,4.57-36.06,8.38-54.3,11.43q-4.8.81-9.62,1.53l-3.84.55c-1.37.19.45,0-.86.12l-1.85.23c-3.81.47-7.48,1-11.22-.25-.22-.08-.81-.41,0,0a3,3,0,0,1-.67-.38,9.26,9.26,0,0,1-1.2-1.25,12.32,12.32,0,0,1-1.88-6.33c-.23-4.76,1.69-9.67,2.91-14.2q5.37-19.86,11.76-39.43Q29.76,388.62,37,369.84c4.72-12.3,9.35-24.9,16.35-36.12,6.76-10.84,16.19-19.6,25.34-28.38L109.2,276,231.42,158.53l61.11-58.72Q307.74,85.19,323,70.57c8.86-8.54,17.7-17.12,27-25.16,18.49-15.94,39.34-29.61,63.59-34.58,21.18-4.34,44.82-1.44,62.3,12C490.43,34.08,500,51.17,503.08,69.17a66.63,66.63,0,0,1-.66,26.24c-2.34,10-7.26,19.23-13.24,27.58-12.67,17.7-30,31.43-44.06,47.94-3.69,4.32-7.81,8.85-9.66,14.33-1.9,5.64-.55,11.49,2.12,16.62,2.48,4.75,6,8.84,8.87,13.36a34.94,34.94,0,0,1,5.24,15.12c2.48,24.58-15.16,44.93-30.74,61.7a349.3,349.3,0,0,1-28.06,27c-4.48,3.86-9,8-13.93,11.28-2.78,1.85-8.19,5.21-11.66,3.37-4-2.14-.33-8.21,1.42-10.6,3.47-4.73,8.25-8.77,12.63-12.63,9.36-8.28,19.43-15.76,28.26-24.62,15.47-15.5,27.9-37.13,20.88-59.55-2.88-9.19-8.82-17.43-17.49-21.89a4.64,4.64,0,0,0-5.45.7q-56.48,53.23-112.2,107.25-40,38.81-79.39,78.17c-8.13,8.15-16.28,16.27-25.25,23.5a161,161,0,0,1-36.06,21.74c-2.23,1-2.75,4.23-1.62,6.16C154.37,444.26,157,444.57,159.19,443.59Z"/></svg>