<svg width="169" height="134" viewBox="0 0 169 134" fill="none" xmlns="http://www.w3.org/2000/svg">
<path d="M39.8138 53.8463C37.8979 40.3201 43.1472 23.2316 55.9926 12.6441C70.1432 0.980707 87.8654 0.899145 99.7619 4.71977C106.468 6.87352 112.713 10.5357 117.702 15.5076C124.714 22.4957 129.091 32.0141 130.072 41.8648C131.053 51.7154 128.673 61.8335 123.61 70.3401C119.429 77.3642 113.332 83.7051 112.196 91.7995C111.6 96.0413 111.406 99.7738 111.314 104.632C111.276 106.638 111.003 109.622 109.898 111.312C108.645 113.23 106.862 113.735 104.608 114.059C104.238 114.113 103.847 114.14 103.533 114.344C103.042 114.664 102.898 115.304 102.768 115.876C100.086 127.712 93.4332 131.934 83.9716 132.104C74.8297 132.267 67.6182 126.631 64.9529 116.558C64.7916 115.948 64.9297 115.268 64.3982 114.929C63.9082 114.616 62.6379 114.498 62.0722 114.364C59.8435 113.837 58.741 112.911 57.8751 110.953C57.0091 108.994 57.2263 106.794 57.1847 104.654C57.1004 100.311 57.3435 96.3366 57.1144 91.6282C57.0613 90.5395 56.9038 89.1388 56.296 87.4492C55.4191 85.0107 54.3382 83.4979 54.0863 83.0829C48.2807 73.5238 41.4057 65.0863 39.8138 53.8463Z" fill="#F0E0BC" stroke="#FF9B2F" stroke-width="3"/>
<path d="M84.2407 92.1819C93.5579 92.081 104.786 92.0982 105.135 91.7138C105.198 91.6441 105.244 91.5526 105.267 91.432C105.468 90.3988 105.325 89.9195 105.459 89.1304C106.093 85.3988 107.414 81.776 109.51 78.5744C113.868 71.9191 117.962 64.9901 120.371 57.4082C122.78 49.8263 123.409 41.4788 120.839 33.9501C117.253 23.4401 110.719 16.6244 98.9804 11.2857C97.0307 10.3991 94.2182 9.46163 91.476 9.07663C86.6535 8.39945 81.7407 8.16914 77.0029 9.29507C68.001 11.4341 59.817 16.8548 54.3354 24.3088C48.8539 31.7629 46.1189 41.1907 46.7601 50.4207C46.8889 52.2748 47.1498 54.1244 47.6345 55.9188C49.4151 62.5098 51.9676 63.9341 57.6473 73.2457C57.6473 73.2457 64.2182 84.4619 63.6798 91.0407C63.6548 91.3482 63.8435 92.1904 63.9057 92.2741C64.0282 92.4391 74.5529 92.2869 84.2407 92.1819Z" fill="white" stroke="#FF9B2F" stroke-width="3"/>
<path d="M64.7592 104.38C64.5592 103.265 64.5539 102.386 64.5529 101.855C64.5517 100.905 64.6345 100.055 64.7485 99.3291C67.9789 99.2979 71.2092 99.2666 74.4392 99.2354C77.9126 99.2016 81.3857 99.1682 84.8592 99.1344C91.1207 99.0738 97.382 99.0132 103.644 98.9526C104.048 100.443 104.165 102.011 103.987 103.544C103.876 104.5 103.596 105.841 102.809 106.394C101.959 106.991 100.786 106.772 97.9595 106.835C92.3429 106.961 83.217 106.769 75.6867 107.018C72.3704 107.128 69.4811 107.013 67.6089 107.005C66.4673 107.001 66.4051 106.961 65.7657 106.517C64.8189 105.86 64.7592 104.38 64.7592 104.38Z" fill="white" stroke="#FF9B2F" stroke-width="3"/>
<path d="M73.8838 118.029C73.626 117.406 73.506 116.975 73.451 116.256C73.4219 115.877 73.4963 115.695 73.5813 115.574C73.7913 115.277 74.205 115.228 74.5685 115.209C76.7213 115.098 78.8785 115.113 81.0338 115.129C85.1869 115.158 89.3404 115.188 93.4935 115.218C93.9404 115.221 94.4879 115.288 94.6575 115.701C94.746 115.917 94.6957 116.162 94.6372 116.387C93.78 119.69 91.2647 122.541 88.0585 123.71C84.8466 124.882 82.001 124.232 80.995 123.936C77.8357 123.008 75.3854 120.827 74.6863 119.635C74.2182 118.836 74.2182 118.836 73.8838 118.029Z" fill="white" stroke="#FF9B2F" stroke-width="3"/>
<path d="M82.9873 16.146C84.6114 15.9232 98.001 15.6842 108.176 28.097C113.906 35.0864 114.086 42.2901 113.69 45.6354C113.513 47.1357 112.97 48.8498 111.546 49.3548C110.456 49.7417 109.203 49.221 108.428 48.362C107.654 47.5029 107.268 46.3673 106.969 45.2498C106.001 41.6214 105.724 37.762 104.054 34.3979C102.304 30.8698 99.1439 28.1967 95.6635 26.3526C92.1832 24.5085 88.3639 23.4142 84.5717 22.3495C83.4501 22.0345 81.2782 21.4948 80.646 19.8517C80.3339 19.0404 80.367 17.887 80.9854 17.1126C81.606 16.3357 82.6104 16.1979 82.9873 16.146Z" fill="#F0E0BC" stroke="#FF9B2F" stroke-width="3"/>
<path d="M136.716 27.786C136.099 27.9879 135.625 28.3501 135.375 28.9413C135.156 29.4613 135.129 29.8963 135.103 30.7682C135.091 31.1976 135.08 31.642 135.243 32.0398C135.447 32.5385 135.897 32.8954 136.369 33.1551C137.642 33.8554 139.184 33.9932 140.601 33.6748C142.018 33.3563 143.315 32.6048 144.406 31.6454C145.116 31.0204 145.758 30.2985 146.579 29.8298C147.8 29.1329 149.284 29.0745 150.683 29.2113C152.082 29.3479 153.469 29.6616 154.875 29.6423C155.306 29.6363 155.742 29.5979 156.146 29.4495C157.452 28.9691 158.1 27.466 158.191 26.0773C158.233 25.4451 158.188 24.8001 157.982 24.201C157.489 22.7682 156.109 21.7666 154.636 21.4107C153.163 21.0548 151.609 21.2604 150.143 21.6423C149.143 21.9029 148.14 22.2476 147.107 22.2095C145.817 22.162 144.566 21.4751 143.834 20.4123C143.138 19.4026 142.922 18.1438 142.399 17.0345C141.695 15.5432 140.412 14.3348 138.88 13.7232C137.349 13.1116 135.586 13.1032 134.049 13.6998C133.221 14.0213 132.414 14.5641 132.086 15.3901C131.572 16.6845 132.418 18.1445 133.492 19.0313C135.219 20.4573 137.524 21.0276 139.27 22.4307C139.794 22.8513 140.871 24.1107 140.569 25.2732C140.34 26.151 139.683 26.7026 139.311 26.9141C138.424 27.4185 138.281 27.2738 136.716 27.786Z" fill="#FF9B2F"/>
<path d="M136.591 27.3341C135.963 27.5526 135.402 27.9132 135.068 28.5057C134.778 29.0207 134.69 29.6076 134.657 30.1892C134.616 30.9148 134.547 31.712 134.886 32.3813C135.199 32.9988 135.816 33.4226 136.427 33.7091C139.377 35.0948 142.656 33.8776 144.93 31.8045C145.487 31.297 146.009 30.7373 146.651 30.3342C147.305 29.9238 148.062 29.7141 148.828 29.6498C150.509 29.5082 152.158 29.9351 153.824 30.071C154.661 30.1391 155.575 30.1782 156.37 29.8626C156.962 29.6279 157.434 29.2129 157.803 28.6998C158.588 27.6066 158.805 26.1067 158.606 24.8001C158.393 23.3963 157.471 22.241 156.252 21.5501C154.879 20.7716 153.269 20.6467 151.73 20.8507C150.879 20.9635 150.059 21.1801 149.232 21.4038C148.434 21.6198 147.598 21.8323 146.765 21.7123C145.292 21.5001 144.232 20.4695 143.688 19.1285C143.392 18.3982 143.182 17.6373 142.859 16.9173C142.574 16.2851 142.188 15.7042 141.731 15.1835C140.799 14.1188 139.531 13.3379 138.156 12.9995C136.611 12.6192 134.936 12.7588 133.491 13.4326C132.222 14.0241 131.289 15.1923 131.5 16.6479C131.71 18.0848 132.806 19.1935 133.968 19.9607C135.207 20.7795 136.607 21.3054 137.885 22.0548C138.863 22.6285 140.198 23.5967 140.152 24.8901C140.115 25.9151 139.137 26.6154 138.238 26.8698C137.688 27.0251 137.135 27.1579 136.591 27.3341C136.02 27.5191 136.264 28.4248 136.84 28.2382C137.744 27.946 138.719 27.8079 139.547 27.3195C140.508 26.752 141.226 25.6298 141.058 24.491C140.889 23.3526 140.058 22.407 139.153 21.7588C138.014 20.9423 136.704 20.4185 135.475 19.7607C134.317 19.1413 133.08 18.3523 132.577 17.0741C132.335 16.4582 132.327 15.7851 132.703 15.2213C133.042 14.7126 133.616 14.3726 134.174 14.152C136.872 13.0835 140.034 14.1126 141.595 16.5507C142.353 17.7345 142.544 19.1663 143.254 20.3729C143.915 21.4982 145.059 22.3282 146.343 22.5854C147.891 22.8957 149.35 22.286 150.839 21.9563C152.314 21.6298 153.958 21.5132 155.37 22.1517C156.551 22.6854 157.49 23.671 157.692 24.9829C157.872 26.1567 157.621 27.6167 156.765 28.4935C155.716 29.567 153.852 29.1682 152.528 28.9823C151.019 28.7707 149.5 28.5341 147.985 28.8279C146.53 29.1098 145.508 29.9851 144.457 30.9663C143.389 31.9626 142.159 32.786 140.732 33.161C139.335 33.5282 137.769 33.4341 136.505 32.6938C135.894 32.336 135.575 31.8748 135.565 31.1579C135.557 30.5582 135.549 29.8998 135.732 29.322C135.907 28.7713 136.302 28.4257 136.84 28.2388C137.407 28.0413 137.164 27.1354 136.591 27.3341Z" fill="#FF9B2F"/>
<path d="M136.838 49.1064C137.4 47.8442 138.702 47.312 139.413 47.0439C143.061 45.6673 145.253 46.4535 148.489 45.6898C151.653 44.9432 154.566 42.7879 157.548 41.4945C158.597 41.0398 159.711 40.6048 160.848 40.7214C161.816 40.8207 162.7 41.3132 163.493 41.8789C165.21 43.1048 166.643 44.7276 167.647 46.5842C168.094 47.4107 168.462 48.3042 168.514 49.2426C168.566 50.181 168.261 51.1745 167.549 51.7873C166.597 52.6064 165.112 52.5607 164.015 51.9482C162.919 51.3357 162.153 50.2645 161.568 49.1532C161.334 48.7101 161.114 48.2429 160.741 47.9085C160.062 47.3001 159.036 47.276 158.144 47.4673C156.869 47.741 155.521 48.6254 155.481 49.9295C155.451 50.9188 156.184 51.7567 156.934 52.4026C157.684 53.0482 158.535 53.666 158.895 54.5882C159.435 55.9767 158.574 57.6395 157.248 58.3182C155.921 58.997 154.295 58.8432 152.916 58.2792C152.253 58.0079 151.609 57.6329 151.171 57.0654C150.731 56.4951 150.311 55.9135 149.97 55.2789C149.531 54.4617 148.582 54.0601 147.822 54.0117C146.075 53.9001 144.32 54.5323 142.574 54.6582C141.154 54.7607 140.429 54.6989 139.962 54.557C139.684 54.4726 137.399 53.7385 136.755 51.5707C136.671 51.2854 136.35 50.2026 136.838 49.1064Z" fill="#FF9B2F"/>
<path d="M137.243 49.3429C137.819 48.1164 139.1 47.6076 140.318 47.2267C141.794 46.7645 143.298 46.6376 144.835 46.5732C146.325 46.5107 147.813 46.397 149.251 45.972C150.872 45.4929 152.387 44.7101 153.868 43.9098C155.374 43.0964 156.867 42.2276 158.471 41.6176C159.286 41.3073 160.174 41.0564 161.05 41.2226C161.865 41.377 162.589 41.8082 163.256 42.2835C164.573 43.222 165.719 44.421 166.611 45.7685C167.483 47.0851 168.421 48.7804 167.904 50.4007C167.43 51.8848 165.77 52.2629 164.455 51.6482C163.74 51.3139 163.154 50.7354 162.697 50.102C162.238 49.4676 161.951 48.737 161.51 48.096C160.606 46.781 158.912 46.676 157.502 47.1592C156.275 47.5795 155.056 48.5285 155.013 49.9295C154.962 51.5623 156.453 52.5392 157.514 53.5167C158.035 53.9979 158.534 54.5764 158.585 55.317C158.631 55.9879 158.364 56.6582 157.938 57.1692C156.896 58.4176 155.118 58.486 153.663 58.0479C152.893 57.8157 152.113 57.4539 151.582 56.832C151.036 56.1929 150.688 55.4348 150.196 54.7657C149.232 53.456 147.557 53.4339 146.094 53.6298C144.388 53.8582 142.739 54.2992 141.002 54.2342C139.302 54.1704 137.602 52.9729 137.159 51.272C136.978 50.5814 137.015 49.8926 137.29 49.231C137.521 48.6745 136.615 48.4317 136.386 48.9817C135.845 50.2835 136.123 51.8807 136.95 53.0054C137.59 53.8745 138.493 54.4954 139.491 54.8864C140.419 55.2498 141.447 55.2026 142.424 55.137C143.402 55.0714 144.359 54.8726 145.322 54.6976C146.188 54.5401 147.145 54.356 148.026 54.5051C148.744 54.6267 149.279 55.0176 149.634 55.6414C150.071 56.4079 150.599 57.2701 151.274 57.8495C152.549 58.9426 154.493 59.4279 156.138 59.1632C157.649 58.9198 158.96 57.8817 159.394 56.3885C159.602 55.676 159.56 54.9185 159.254 54.2423C158.924 53.5154 158.321 52.9645 157.723 52.4579C157.119 51.9457 156.444 51.426 156.109 50.6854C155.804 50.0142 155.974 49.3289 156.486 48.8201C157.41 47.9014 159.606 47.2695 160.584 48.4173C160.842 48.7198 161.007 49.097 161.192 49.4451C161.401 49.8354 161.628 50.216 161.887 50.5751C162.361 51.2335 162.922 51.8282 163.616 52.257C164.901 53.0507 166.692 53.1432 167.88 52.1185C169.187 50.9917 169.177 49.0382 168.607 47.5482C167.994 45.9439 166.959 44.471 165.775 43.236C164.624 42.036 163.142 40.7673 161.492 40.361C159.707 39.9214 157.917 40.7692 156.346 41.537C153.182 43.0839 150.25 45.1623 146.652 45.5232C145.125 45.6764 143.586 45.6329 142.065 45.8629C140.636 46.0792 139.051 46.4814 137.833 47.2982C137.237 47.6979 136.74 48.2167 136.434 48.8701C136.179 49.4126 136.986 49.8892 137.243 49.3429Z" fill="#FF9B2F"/>
<path d="M136.515 65.1088C135.018 66.5526 135.734 69.2885 135.791 69.4935C136.405 71.7213 138.258 72.9301 138.46 73.0467C139.574 73.6879 140.925 73.9654 141.824 74.8838C142.258 75.3279 142.551 75.8913 142.787 76.4657C143.718 78.7295 143.923 81.3892 145.576 83.1942C146.786 84.5145 148.696 85.1526 150.456 84.8242C152.216 84.4957 153.767 83.212 154.419 81.5442C154.803 80.5617 154.876 79.4198 154.422 78.4676C153.881 77.3313 152.613 76.381 152.847 75.1448C152.909 74.8179 153.078 74.5192 153.285 74.2588C154.146 73.177 155.647 72.7523 157.022 72.9054C158.396 73.0585 159.665 73.7104 160.826 74.4623C161.671 75.0092 162.496 75.6238 163.461 75.9101C164.425 76.1963 165.591 76.0767 166.256 75.3226C166.52 75.0235 166.686 74.6501 166.81 74.2707C167.558 71.9807 166.794 69.2738 164.958 67.7132C163.686 66.6317 162.018 66.1135 160.36 65.9148C159.475 65.8085 158.55 65.7907 157.72 66.1179C156.506 66.5973 155.696 67.7217 154.755 68.6267C153.835 69.5126 152.673 70.2407 151.396 70.2895C150.361 70.3288 149.243 69.9363 148.335 70.436C148.039 70.5995 147.791 70.8492 147.475 70.9698C146.933 71.176 146.298 70.9438 145.891 70.532C145.483 70.1201 145.264 69.5598 145.101 69.0035C144.854 68.1582 144.714 67.2813 144.412 66.4542C144.11 65.6267 143.593 65.0867 142.853 64.3892C142.306 63.8735 141.629 63.632 140.962 63.5688C140.591 63.5338 139.465 63.4607 138.128 63.9454C137.454 64.1898 136.957 64.6823 136.515 65.1088Z" fill="#FF9B2F"/>
<path d="M136.184 64.7773C134.353 66.6138 135.018 69.9454 136.447 71.8026C137.1 72.6513 137.898 73.3332 138.87 73.7804C139.63 74.1298 140.458 74.3954 141.135 74.9013C141.888 75.4635 142.267 76.351 142.57 77.2116C143.139 78.8257 143.444 80.5373 144.236 82.0682C145.032 83.6082 146.391 84.7701 148.085 85.197C149.733 85.612 151.498 85.2816 152.865 84.2676C154.243 83.2457 155.231 81.6151 155.203 79.8629C155.189 78.9735 154.872 78.1948 154.368 77.4757C153.969 76.9063 153.359 76.2838 153.29 75.5582C153.21 74.7048 154.078 74.0129 154.771 73.6951C155.509 73.3566 156.364 73.2741 157.161 73.3932C158.117 73.5357 159.013 73.9341 159.845 74.411C160.693 74.8976 161.468 75.5104 162.34 75.9545C163.819 76.7063 165.92 76.861 166.894 75.2376C167.738 73.8326 167.726 71.8935 167.238 70.3741C166.72 68.7579 165.627 67.4126 164.145 66.5829C163.326 66.1241 162.42 65.8167 161.503 65.627C160.582 65.4367 159.608 65.3066 158.669 65.4145C157.731 65.5226 156.931 65.9113 156.212 66.5126C155.532 67.0813 154.978 67.7795 154.331 68.3826C153.675 68.9938 152.903 69.5141 152.023 69.7301C151.077 69.9623 150.129 69.6404 149.176 69.7241C148.755 69.7613 148.352 69.8729 147.99 70.0954C147.608 70.3304 147.298 70.6651 146.813 70.5457C145.916 70.3245 145.637 69.2238 145.438 68.4532C145.19 67.4935 145.039 66.4582 144.522 65.5948C144.101 64.8904 143.456 64.2107 142.789 63.7357C141.525 62.8363 139.696 62.956 138.287 63.3973C137.441 63.6623 136.812 64.1707 136.184 64.7773C135.749 65.197 136.412 65.8595 136.846 65.4401C137.121 65.1751 137.394 64.9016 137.712 64.6876C138.106 64.4216 138.552 64.2795 139.012 64.172C139.633 64.0266 140.284 63.972 140.92 64.0335C142.575 64.1932 143.767 65.782 144.18 67.2776C144.598 68.7923 144.828 71.2148 146.789 71.4913C147.149 71.542 147.501 71.4882 147.827 71.3235C148.251 71.1088 148.565 70.7641 149.052 70.6798C149.908 70.5316 150.786 70.8273 151.65 70.7391C153.425 70.5585 154.731 69.3507 155.904 68.1163C156.47 67.5198 157.069 66.8901 157.845 66.5695C158.71 66.2116 159.712 66.2826 160.618 66.4179C162.276 66.6654 163.96 67.2601 165.121 68.5198C166.179 69.6663 166.708 71.2632 166.615 72.8129C166.569 73.5645 166.392 74.5145 165.849 75.0716C165.335 75.5985 164.485 75.6695 163.803 75.5141C162.895 75.3079 162.114 74.7501 161.35 74.2454C160.584 73.7395 159.796 73.2742 158.944 72.9288C157.422 72.3126 155.695 72.1801 154.195 72.9351C153.512 73.2795 152.876 73.8491 152.553 74.5526C152.222 75.2745 152.344 76.032 152.714 76.711C153.077 77.3782 153.626 77.9276 153.969 78.607C154.371 79.4038 154.329 80.3401 154.056 81.1704C153.575 82.637 152.302 83.8166 150.83 84.2513C149.299 84.7032 147.546 84.3188 146.335 83.2767C145.1 82.2132 144.577 80.6357 144.133 79.1204C143.673 77.5507 143.301 75.6401 142.069 74.4676C141.056 73.5035 139.639 73.3007 138.517 72.5248C136.805 71.3407 135.799 69.2141 136.076 67.1229C136.16 66.4913 136.392 65.8951 136.846 65.4398C137.273 65.0126 136.61 64.3495 136.184 64.7773Z" fill="#FF9B2F"/>
<path d="M7.41365 68.306C7.90802 67.8285 9.03208 66.772 10.8508 66.4529C11.4611 66.3457 13.2799 66.0557 14.8343 67.1138C15.6293 67.6551 16.1796 68.476 16.8093 69.2032C18.098 70.691 19.9896 71.8807 21.9365 71.592C23.894 71.3017 25.3233 69.6495 27.0471 68.6776C27.9915 68.1454 29.0474 67.8123 30.1261 67.7063C30.6861 67.6513 31.2602 67.6582 31.8002 67.8167C33.2577 68.2438 34.2049 69.7082 34.5258 71.1929C34.7602 72.277 34.6774 73.5401 33.8793 74.3101C32.8515 75.302 31.1549 75.0548 29.8755 75.6901C28.4655 76.3901 27.799 78.0385 27.5524 79.5932C27.3449 80.9013 27.2671 82.4023 26.239 83.2373C25.9233 83.4935 25.5433 83.6588 25.1568 83.7857C23.7361 84.2523 22.158 84.2245 20.7546 83.7082C20.0571 83.4517 19.3727 83.0488 19.0015 82.4048C18.5696 81.6554 18.6371 80.7345 18.6018 79.8701C18.5665 79.0057 18.3386 78.0316 17.5849 77.6073C17.298 77.4457 16.9658 77.3854 16.638 77.3541C14.4374 77.1451 12.3146 78.1417 10.124 78.4382C9.15583 78.5692 8.12084 78.5507 7.26677 78.076C6.1074 77.4316 5.70209 76.1501 5.49146 75.531C5.00959 74.1135 5.19584 72.9007 5.28584 72.3563C5.66427 70.0717 7.04521 68.662 7.41365 68.306Z" fill="#FF9B2F"/>
<path d="M7.74521 68.6373C9.25959 67.1776 11.468 66.3717 13.5465 67.0101C15.0524 67.4729 15.7802 68.8335 16.8121 69.8998C17.7568 70.876 18.9665 71.7026 20.3118 71.9891C21.6808 72.281 22.9915 71.9329 24.1705 71.2182C25.3249 70.5185 26.319 69.576 27.5221 68.9532C28.7718 68.3063 30.6283 67.7751 31.9852 68.3795C33.1749 68.9095 33.8596 70.2035 34.0965 71.4301C34.2171 72.0538 34.2196 72.7501 33.9749 73.346C33.7287 73.9454 33.2146 74.3038 32.6143 74.4938C31.3665 74.8885 30.0524 74.8573 28.9837 75.7135C27.9949 76.5057 27.4577 77.7566 27.194 78.967C26.9365 80.1495 27.0249 81.6682 26.1874 82.636C25.689 83.212 24.8708 83.4263 24.1493 83.557C23.3865 83.6948 22.5802 83.6826 21.8215 83.5254C21.1362 83.3832 20.4002 83.151 19.8555 82.6923C19.2743 82.2032 19.1274 81.5179 19.0955 80.7891C19.0412 79.5466 19.094 78.032 17.913 77.2588C17.3115 76.8648 16.494 76.8401 15.7987 76.861C15.0102 76.8845 14.2262 77.0285 13.4593 77.2063C11.9371 77.5591 10.3705 78.1432 8.78553 78.0273C7.45928 77.9304 6.5774 77.1029 6.1174 75.8998C5.69678 74.8001 5.5399 73.677 5.73303 72.511C5.92553 71.3482 6.40178 70.2473 7.12928 69.3185C7.31834 69.0773 7.52553 68.8504 7.74521 68.6373C8.17896 68.2163 7.51584 67.5538 7.0824 67.9745C5.50271 69.5073 4.5824 71.7657 4.7174 73.9707C4.79209 75.191 5.19959 76.5498 5.95459 77.5313C6.92615 78.7945 8.47522 79.1032 9.99178 78.9242C11.6771 78.7251 13.2733 78.1001 14.9515 77.8695C15.6708 77.7704 16.6849 77.6442 17.3483 78.0123C17.9249 78.3323 18.0818 79.1048 18.124 79.707C18.1774 80.4717 18.1093 81.2548 18.3277 82.0001C18.5365 82.7123 18.9999 83.2707 19.6168 83.672C20.9671 84.5504 22.7724 84.7379 24.3299 84.4729C25.1177 84.3388 25.9452 84.0842 26.5702 83.5685C27.0924 83.1379 27.4133 82.5192 27.608 81.881C28.0124 80.557 27.944 79.1388 28.5305 77.8607C28.8033 77.2663 29.1849 76.6976 29.7287 76.3192C30.3105 75.9142 31.0165 75.7885 31.6996 75.6607C33.0752 75.4029 34.3752 74.9735 34.8983 73.542C35.378 72.2285 35.0265 70.6366 34.368 69.4479C33.6568 68.1641 32.4565 67.2913 30.9705 67.2123C29.3818 67.1276 27.7318 67.6738 26.4021 68.5176C25.2052 69.2773 24.1493 70.3216 22.8224 70.8623C21.3905 71.4457 19.9171 71.0882 18.6693 70.2491C18.0237 69.8151 17.4683 69.2663 16.9705 68.6713C16.4658 68.0679 15.9962 67.4304 15.3765 66.9366C13.3318 65.3082 10.1627 65.6501 8.12115 67.1023C7.75147 67.3651 7.40834 67.6598 7.08209 67.9741C6.64709 68.3938 7.31053 69.0563 7.74521 68.6373Z" fill="#FF9B2F"/>
<path d="M2.92761 41.3407C4.65699 40.6816 6.34637 41.7198 6.69262 41.9323C7.96918 42.7166 8.01949 43.1788 9.49199 44.7776C10.1232 45.4632 10.8836 46.1357 11.8123 46.2157C13.9954 46.4038 15.3967 43.3357 17.5848 43.4494C18.992 43.5226 19.9314 44.8688 20.7364 46.0254C21.3167 46.8595 21.9607 47.6826 22.8295 48.2098C23.6982 48.7366 24.8407 48.917 25.7311 48.427C26.1226 48.2116 26.4423 47.8829 26.8311 47.662C27.6098 47.2188 28.5982 47.2604 29.4264 47.6026C30.2545 47.9448 30.9439 48.5551 31.5492 49.2157C32.1726 49.896 32.7436 50.6838 32.8773 51.597C33.0329 52.6604 32.5151 53.7929 31.6089 54.371C30.7026 54.9491 29.4573 54.9413 28.5586 54.3519C27.732 53.8101 27.2029 52.8432 26.2845 52.4779C25.6626 52.2307 24.9189 52.3169 24.3701 52.7004C23.7001 53.1688 23.3776 53.9829 22.857 54.6132C21.8779 55.7979 20.1842 56.2595 18.6773 55.9566C17.1704 55.6538 15.8579 54.6707 14.9329 53.4432C14.2798 52.5766 13.7051 51.5123 12.6686 51.1916C11.5554 50.8476 10.3564 51.5495 9.65012 52.4763C8.94387 53.4032 8.57324 54.5373 8.00105 55.5523C7.42887 56.5673 6.53606 57.5279 5.37824 57.6598C4.89262 57.7151 4.40168 57.6179 3.93356 57.4776C2.76699 57.1273 1.64918 56.4663 0.995118 55.4388C0.341055 54.4113 0.24668 52.982 0.970117 52.0023C1.54855 51.2191 2.52043 50.8388 3.46262 50.5929C4.34699 50.362 5.4173 50.0688 5.65887 49.1873C5.91824 48.2419 4.9773 47.3854 4.05449 47.0554C2.64324 46.5507 2.05043 46.7041 1.36137 45.9457C0.503867 45.002 0.889178 43.5054 0.907928 43.4369C1.29543 42.0129 2.62887 41.4548 2.92761 41.3407Z" fill="#FF9B2F"/>
<path d="M3.05228 41.7926C4.41728 41.306 5.87228 41.8363 6.97541 42.6869C7.43385 43.0404 7.78978 43.501 8.15416 43.9454C8.70947 44.6229 9.27728 45.3223 9.96322 45.8732C10.5873 46.3745 11.3442 46.7454 12.1642 46.6873C12.8373 46.6394 13.4526 46.3554 14.0042 45.9791C14.9985 45.3007 15.9545 44.1066 17.2082 43.931C18.837 43.7029 19.8226 45.5848 20.6276 46.6769C21.6688 48.0894 23.1635 49.441 25.0598 49.1401C25.4682 49.0754 25.8513 48.9216 26.1948 48.6907C26.6192 48.4057 26.9773 48.0395 27.4813 47.8951C28.3923 47.6338 29.3332 47.9751 30.0782 48.5035C31.3873 49.4319 32.982 51.2157 32.2357 52.9298C31.9048 53.6901 31.2048 54.2248 30.3779 54.3176C29.5007 54.416 28.7948 54.0288 28.1907 53.4298C27.5992 52.8429 27.0254 52.171 26.1842 51.9526C25.3626 51.7394 24.4923 51.9585 23.8554 52.5119C23.2163 53.0673 22.9167 53.8951 22.3326 54.4951C21.7601 55.0835 20.9729 55.4341 20.1642 55.5435C18.4182 55.7798 16.7754 54.8566 15.6485 53.5829C14.6167 52.4163 13.8742 50.6169 12.0504 50.6354C10.1692 50.6541 9.03197 52.3523 8.31166 53.8666C7.6051 55.3519 6.65353 57.5223 4.62791 57.1666C2.96822 56.8751 1.09635 55.7119 0.942908 53.8794C0.871658 53.0288 1.19259 52.2435 1.89978 51.7485C2.62009 51.2441 3.47728 51.1126 4.29385 50.8438C4.96666 50.6226 5.67291 50.2804 5.99572 49.6107C6.35541 48.8641 6.0976 48.0545 5.55447 47.4748C4.94072 46.8195 4.07885 46.5357 3.23322 46.3176C2.66635 46.1713 2.09416 46.0801 1.69166 45.6148C0.923531 44.7266 1.2401 43.221 2.01822 42.461C2.20354 42.2801 2.40978 42.1291 2.63384 41.9998C2.72259 41.9482 2.81384 41.9016 2.90603 41.8563C3.02634 41.7976 2.93166 41.8391 3.05228 41.7926C3.60916 41.5776 3.36728 40.6707 2.80291 40.8885C1.69853 41.3148 0.717908 42.1898 0.439158 43.3779C0.132908 44.6813 0.495407 46.2348 1.79134 46.8526C2.46509 47.1738 3.23416 47.2388 3.92885 47.5076C4.56197 47.7523 5.63478 48.5166 5.09447 49.3057C4.68353 49.906 3.74447 50.0213 3.10103 50.2057C2.21666 50.4588 1.31322 50.8526 0.711971 51.5754C-0.493342 53.0245 -0.0574029 55.1645 1.19103 56.4307C2.42166 57.6791 4.6926 58.6413 6.38041 57.847C8.17885 57.0007 8.69853 54.9673 9.61228 53.3841C10.0713 52.5885 10.7395 51.8329 11.6723 51.6185C12.5395 51.4191 13.2057 51.9357 13.7213 52.5754C14.2904 53.2813 14.7482 54.0532 15.4085 54.6854C16.0679 55.3166 16.8335 55.8216 17.6845 56.1532C19.3401 56.7982 21.3192 56.5782 22.7023 55.4291C23.3795 54.8666 23.7017 54.0626 24.2745 53.4185C24.9123 52.7013 25.8692 52.6291 26.6232 53.2154C27.2923 53.7357 27.7645 54.4704 28.5267 54.8782C29.3329 55.3098 30.3357 55.3913 31.1992 55.0841C32.941 54.4645 33.8013 52.457 33.1298 50.7532C32.776 49.8557 32.1213 49.0863 31.4329 48.4245C30.7654 47.7826 29.9726 47.2188 29.0626 46.9898C28.0898 46.7445 27.0763 46.8838 26.2595 47.4798C25.8917 47.7482 25.5542 48.0548 25.1042 48.176C24.6523 48.2976 24.1788 48.2507 23.7367 48.1123C21.9192 47.5435 21.1545 45.537 19.9548 44.242C19.3798 43.621 18.6604 43.1107 17.8032 43.0032C17.0995 42.9151 16.4188 43.1191 15.8107 43.4673C14.6573 44.1276 13.7235 45.4329 12.3792 45.7173C11.556 45.8913 10.8295 45.4298 10.2538 44.886C9.61259 44.2804 9.06759 43.5794 8.50541 42.9026C7.72103 41.9582 6.68322 41.2394 5.50541 40.8738C4.62291 40.6001 3.67822 40.5769 2.80291 40.8891C2.23884 41.0898 2.48197 41.996 3.05228 41.7926Z" fill="#FF9B2F"/>
<path d="M10.7192 18.0207C11.1101 17.5413 11.6604 16.866 12.6379 16.5745C12.8389 16.5145 14.0129 16.136 14.9717 16.7801C15.3158 17.0113 15.5854 17.3382 15.8154 17.6829C16.6023 18.8629 16.9645 20.2651 17.4517 21.5966C17.9389 22.9285 18.6176 24.276 19.8064 25.0495C20.6983 25.6295 21.7967 25.8248 22.8601 25.791C23.5773 25.7682 24.3433 25.6216 24.8458 25.1095C25.4851 24.4576 25.5029 23.3995 25.2117 22.5341C24.7564 21.181 23.7029 20.1332 22.8154 19.0148C21.9279 17.8963 21.1514 16.5135 21.4098 15.1095C21.6911 13.5816 23.2261 12.4766 24.7783 12.4116C26.3304 12.3466 27.8251 13.1685 28.8629 14.3248C29.9008 15.4807 30.5367 16.941 31.0201 18.4176C31.2704 19.182 31.4858 19.9654 31.5358 20.7682C31.6411 22.4616 31.0086 24.1713 31.3351 25.836C31.5523 26.9429 32.1742 27.921 32.6086 28.962C32.9401 29.7566 33.1642 30.5963 33.2726 31.4504C33.3533 32.0863 33.3604 32.7707 33.0348 33.3229C32.6564 33.9645 31.9023 34.2929 31.1673 34.4138C30.4414 34.5332 29.6892 34.4882 28.9826 34.2835C28.0942 34.026 27.2901 33.5241 26.3967 33.2851C25.6064 33.0735 24.777 33.0757 23.9648 32.9776C21.8136 32.7176 19.8142 31.7598 17.9014 30.7413C15.4751 29.4495 13.4786 28.3641 11.7551 26.0716C11.1464 25.262 8.98794 22.3913 9.73325 19.8726C10.0323 18.8635 10.7192 18.0207 10.7192 18.0207Z" fill="#FF9B2F"/>
<path d="M11.0507 18.3523C11.7623 17.4807 12.6586 16.806 13.8376 16.8832C15.4639 16.9898 16.1089 19.1454 16.5489 20.4204C17.0367 21.8341 17.4964 23.2776 18.4576 24.4532C19.4642 25.6845 20.9645 26.2388 22.527 26.2623C23.9379 26.2832 25.4801 25.8135 25.7961 24.251C26.1007 22.7435 25.2798 21.3429 24.3886 20.2001C23.4236 18.9629 22.1508 17.7741 21.8692 16.1591C21.6195 14.7276 22.5861 13.4748 23.9198 13.0426C25.2967 12.5963 26.7892 13.1185 27.8667 14.0151C29.0754 15.021 29.8223 16.4548 30.3511 17.911C30.6351 18.6935 30.9032 19.5029 31.0229 20.3291C31.1464 21.1804 31.0442 22.0416 30.9373 22.8888C30.8317 23.7266 30.7151 24.5735 30.8039 25.4188C30.8898 26.2348 31.1708 26.9823 31.5145 27.7217C31.8689 28.4842 32.2526 29.2232 32.4945 30.0323C32.7223 30.7941 32.9451 31.6832 32.8307 32.4838C32.5907 34.166 30.282 34.1882 29.0411 33.8113C28.2429 33.5692 27.517 33.1398 26.7207 32.8916C25.9214 32.6426 25.0792 32.6216 24.2523 32.5401C22.5451 32.372 20.9264 31.7382 19.3986 30.986C16.7826 29.6976 14.0717 28.2945 12.2467 25.9488C10.8976 24.2151 9.3745 21.7416 10.3657 19.5066C10.4986 19.2076 10.6639 18.9204 10.8439 18.6476C10.8979 18.5654 10.9554 18.4854 11.012 18.4051C11.0854 18.3004 11.0461 18.3579 11.0507 18.3523C11.4261 17.887 10.7667 17.2195 10.3879 17.6895C9.60137 18.6648 9.06544 19.8813 9.11388 21.1504C9.16669 22.5345 9.74981 23.8591 10.4648 25.0241C11.1029 26.0638 11.8664 27.0554 12.7486 27.8979C13.8207 28.9223 15.0729 29.7248 16.3642 30.4429C17.8589 31.2745 19.3798 32.0935 20.9829 32.6979C21.817 33.0123 22.6782 33.2591 23.5607 33.3916C24.4601 33.5266 25.3895 33.5023 26.2723 33.737C27.1242 33.9635 27.8873 34.4295 28.7257 34.6951C29.5867 34.9676 30.5167 35.0179 31.4026 34.846C32.0942 34.712 32.7904 34.3929 33.242 33.8373C33.7742 33.1823 33.8439 32.3235 33.7492 31.5138C33.6442 30.6173 33.4289 29.7398 33.0879 28.9032C32.7636 28.107 32.3254 27.3588 32.0286 26.5513C31.3764 24.776 32.0123 23.0067 32.0164 21.1913C32.0204 19.4826 31.3773 17.7163 30.6423 16.1932C29.9404 14.7385 28.9054 13.4029 27.4679 12.6179C26.1308 11.8879 24.5473 11.6991 23.1417 12.3473C21.8132 12.9598 20.8476 14.2713 20.892 15.7645C20.9442 17.5182 22.1232 18.9213 23.1895 20.2023C24.0704 21.2604 25.4217 22.8832 24.782 24.3713C24.4586 25.1238 23.5976 25.297 22.8595 25.322C22.0189 25.3501 21.1407 25.2351 20.3861 24.8441C18.9514 24.1007 18.2707 22.5326 17.7648 21.0835C17.2361 19.5692 16.7764 17.6832 15.5008 16.5979C14.4733 15.7238 12.9636 15.7966 11.8211 16.4082C11.2445 16.7166 10.7958 17.1885 10.387 17.6891C10.0095 18.1529 10.6689 18.8201 11.0507 18.3523Z" fill="#FF9B2F"/>
</svg>
