<?xml version="1.0" encoding="iso-8859-1"?>
<!-- Generator: Adobe Illustrator 26.2.1, SVG Export Plug-In . SVG Version: 6.00 Build 0)  -->
<svg version="1.1" id="Capa_1" xmlns="http://www.w3.org/2000/svg" xmlns:xlink="http://www.w3.org/1999/xlink" x="0px" y="0px"
	 viewBox="0 0 600 200" style="enable-background:new 0 0 600 200;" xml:space="preserve">
<defs>
	<filter id="Adobe_OpacityMaskFilter" filterUnits="userSpaceOnUse" x="7.947" y="22.557" width="158.264" height="157.622">
		<feColorMatrix  type="matrix" values="1 0 0 0 0  0 1 0 0 0  0 0 1 0 0  0 0 0 1 0"/>
	</filter>
</defs>
<mask maskUnits="userSpaceOnUse" x="7.947" y="22.557" width="158.264" height="157.622" id="mask0_00000165954327560520624700000012127849702745819801_">
	<path style="fill-rule:evenodd;clip-rule:evenodd;fill:#FFFFFF;filter:url(#Adobe_OpacityMaskFilter);" d="M120.203,179.505
		c2.491,0.972,5.332,0.91,7.846-0.302l32.564-15.696c3.422-1.649,5.598-5.118,5.598-8.924V48.154c0-3.806-2.176-7.275-5.598-8.924
		l-32.564-15.697c-3.3-1.591-7.162-1.201-10.058,0.908c-0.414,0.301-0.808,0.638-1.178,1.008l-62.34,56.971L27.319,61.774
		c-2.528-1.922-6.063-1.765-8.411,0.375l-8.709,7.936c-2.872,2.617-2.875,7.142-0.007,9.763l23.549,21.521l-23.549,21.521
		c-2.868,2.621-2.865,7.147,0.007,9.763l8.709,7.936c2.348,2.139,5.883,2.297,8.411,0.375l27.154-20.647l62.34,56.971
		C117.8,178.275,118.958,179.019,120.203,179.505z M126.693,65.401l-47.302,35.967l47.302,35.967V65.401z"/>
</mask>
<g style="mask:url(#mask0_00000165954327560520624700000012127849702745819801_);">
	<path style="fill:#FF9B2F;" d="M160.614,39.254l-32.59-15.718c-3.772-1.819-8.28-1.052-11.241,1.914L10.097,122.889
		c-2.87,2.621-2.866,7.146,0.007,9.763l8.715,7.936c2.349,2.139,5.887,2.297,8.416,0.375L155.71,43.332
		c4.31-3.275,10.501-0.196,10.501,5.223v-0.379C166.211,44.372,164.036,40.905,160.614,39.254z"/>
	<g>
		<path style="fill:#FF9B2F;" d="M160.614,163.482l-32.59,15.718c-3.772,1.82-8.28,1.052-11.241-1.914L10.097,79.847
			c-2.87-2.621-2.866-7.147,0.007-9.763l8.715-7.936c2.349-2.139,5.887-2.297,8.416-0.375l128.476,97.631
			c4.31,3.275,10.501,0.196,10.501-5.223v0.379C166.211,158.364,164.036,161.832,160.614,163.482z"/>
	</g>
	<g>
		<path style="fill:#FF9B2F;" d="M128.026,179.203c-3.773,1.818-8.282,1.049-11.242-1.917c3.648,3.654,9.886,1.066,9.886-4.102
			V29.552c0-5.168-6.238-7.756-9.886-4.102c2.961-2.966,7.469-3.734,11.242-1.917L160.61,39.23c3.424,1.649,5.601,5.118,5.601,8.924
			v106.429c0,3.806-2.177,7.275-5.601,8.924L128.026,179.203z"/>
	</g>
	<g style="opacity:0.25;">
		<path style="fill-rule:evenodd;clip-rule:evenodd;fill:#FF9B2F;" d="M120.107,179.505c2.491,0.972,5.332,0.91,7.846-0.302
			l32.564-15.696c3.422-1.649,5.598-5.118,5.598-8.924V48.154c0-3.806-2.176-7.275-5.598-8.924l-32.564-15.696
			c-3.3-1.591-7.162-1.201-10.058,0.908c-0.414,0.301-0.808,0.638-1.178,1.008l-62.34,56.971L27.223,61.774
			c-2.528-1.922-6.063-1.765-8.411,0.375l-8.709,7.936c-2.872,2.617-2.875,7.142-0.007,9.763l23.549,21.521l-23.549,21.521
			c-2.868,2.621-2.865,7.146,0.007,9.763l8.709,7.936c2.348,2.139,5.883,2.297,8.411,0.375l27.154-20.647l62.34,56.971
			C117.704,178.275,118.862,179.019,120.107,179.505z M126.597,65.401l-47.302,35.967l47.302,35.967V65.401z"/>
	</g>
</g>
<g id="logo">
	<path style="fill-rule:evenodd;clip-rule:evenodd;fill:#FF9B23;" d="M311.121,21.104v31.084l-42.577,24.804l-26.923-15.699
		L311.121,21.104z"/>
	<path style="fill-rule:evenodd;clip-rule:evenodd;fill:#FF9B2F;" d="M380.621,61.294l-26.923,15.699l-42.577-24.804V21.104
		L380.621,61.294L380.621,61.294z"/>
	<path style="fill-rule:evenodd;clip-rule:evenodd;fill:#FF9B23;" d="M380.621,141.673l-26.923-15.699V76.993l26.923-15.699V141.673
		L380.621,141.673z"/>
	<path style="fill-rule:evenodd;clip-rule:evenodd;fill:#FF9B2F;" d="M311.121,181.863v-31.084l42.577-24.804l26.923,15.699
		L311.121,181.863L311.121,181.863z"/>
	<path style="fill-rule:evenodd;clip-rule:evenodd;fill:#FF9B2F;" d="M241.621,141.673l26.923-15.699l42.577,24.804v31.084
		L241.621,141.673L241.621,141.673z"/>
	<path style="fill-rule:evenodd;clip-rule:evenodd;fill:#FF9B23;" d="M241.621,61.294l26.923,15.699v48.981l-26.923,15.699V61.294
		L241.621,61.294z"/>
	<path style="fill-rule:evenodd;clip-rule:evenodd;fill:#F1F6E2;" d="M268.544,76.993l42.577-24.804l42.577,24.804l-42.577,24.491
		L268.544,76.993z"/>
	<path style="fill-rule:evenodd;clip-rule:evenodd;fill:#CEDBE6;" d="M311.121,101.484l42.577-24.491v48.981l-42.577,24.804V101.484
		z"/>
	<path style="fill-rule:evenodd;clip-rule:evenodd;fill:#FFFFFF;" d="M268.544,76.993l42.577,24.491v49.295l-42.577-24.804V76.993z"
		/>
</g>
<g id="g690" transform="matrix(1.9736843,0,0,1.9736843,-167.9705,-175.3822)">
	<g id="Clipped" transform="translate(85.105049,88.860311)">
		<defs>
			
				<filter id="Adobe_OpacityMaskFilter_00000150093381303139537260000001872790081783838103_" filterUnits="userSpaceOnUse" x="226.678" y="9.929" width="73.269" height="75.794">
				<feColorMatrix  type="matrix" values="1 0 0 0 0  0 1 0 0 0  0 0 1 0 0  0 0 0 1 0"/>
			</filter>
		</defs>
		
			<mask maskUnits="userSpaceOnUse" x="226.678" y="9.929" width="73.269" height="75.794" id="mask-2_00000160896702627058017260000014269829462936029315_">
			
				<g id="use32_00000018919213430455193820000006584077434067515311_" style="filter:url(#Adobe_OpacityMaskFilter_00000150093381303139537260000001872790081783838103_);">
				
					<path id="path-1_00000144308240571590954620000006998062610886334360_" style="fill-rule:evenodd;clip-rule:evenodd;fill:#FFFFFF;" d="
					M299.947,47.826c0-20.928-16.404-37.897-36.635-37.897s-36.635,16.969-36.635,37.897c0,11.509,4.965,21.811,12.793,28.757
					l-4.396,7.874v6.253c0,0.549,0.434,0.997,0.964,0.997c0.178,0,0.342-0.05,0.487-0.135l5.23-3.122l4.083-7.31
					c5.191,2.922,11.145,4.583,17.474,4.583c6.329,0,12.282-1.66,17.479-4.583l4.083,7.31l5.23,3.122
					c0.145,0.085,0.309,0.135,0.487,0.135c0.53,0,0.964-0.449,0.964-0.997v-6.253l-4.396-7.874
					C294.982,69.637,299.947,59.335,299.947,47.826z"/>
			</g>
		</mask>
		
			<ellipse id="Oval" style="mask:url(#mask-2_00000160896702627058017260000014269829462936029315_);fill:#FF9B2F;" cx="263.312" cy="47.826" rx="72.305" ry="74.797"/>
	</g>
	<g id="g44" transform="translate(85.105049,88.860311)">
		<g id="g41">
		</g>
		<defs>
			
				<filter id="Adobe_OpacityMaskFilter_00000129181320310276891100000016099187495997300412_" filterUnits="userSpaceOnUse" x="226.678" y="47.826" width="73.269" height="37.897">
				<feColorMatrix  type="matrix" values="1 0 0 0 0  0 1 0 0 0  0 0 1 0 0  0 0 0 1 0"/>
			</filter>
		</defs>
		
			<mask maskUnits="userSpaceOnUse" x="226.678" y="47.826" width="73.269" height="37.897" id="mask-4_00000072992721550913953370000014721514189047111848_">
			
				<g id="use38_00000025411157984889341340000006960761679253936830_" style="filter:url(#Adobe_OpacityMaskFilter_00000129181320310276891100000016099187495997300412_);">
				
					<path id="path-3_00000116922263683509758470000012610964741711020189_" style="fill-rule:evenodd;clip-rule:evenodd;fill:#FFFFFF;" d="
					M299.947,47.826c0-20.928-16.404-37.897-36.635-37.897s-36.635,16.969-36.635,37.897c0,11.509,4.965,21.811,12.793,28.757
					l-4.396,7.874v6.253c0,0.549,0.434,0.997,0.964,0.997c0.178,0,0.342-0.05,0.487-0.135l5.23-3.122l4.083-7.31
					c5.191,2.922,11.145,4.583,17.474,4.583c6.329,0,12.282-1.66,17.479-4.583l4.083,7.31l5.23,3.122
					c0.145,0.085,0.309,0.135,0.487,0.135c0.53,0,0.964-0.449,0.964-0.997v-6.253l-4.396-7.874
					C294.982,69.637,299.947,59.335,299.947,47.826z"/>
			</g>
		</mask>
		
			<path id="Shape" style="mask:url(#mask-4_00000072992721550913953370000014721514189047111848_);fill:#263238;fill-opacity:0.2;" d="
			M263.312,85.224c20.072,0,36.365-16.7,36.62-37.398h0.014c0,20.928-16.404,37.897-36.635,37.897s-36.635-16.969-36.635-37.897
			h0.014C226.948,68.525,243.24,85.224,263.312,85.224z"/>
	</g>
	<g id="g53" transform="translate(85.105049,88.860311)">
		<g id="g49">
		</g>
		<defs>
			
				<filter id="Adobe_OpacityMaskFilter_00000065041161131377844500000007725646856973574293_" filterUnits="userSpaceOnUse" x="226.678" y="9.929" width="73.269" height="37.897">
				<feColorMatrix  type="matrix" values="1 0 0 0 0  0 1 0 0 0  0 0 1 0 0  0 0 0 1 0"/>
			</filter>
		</defs>
		
			<mask maskUnits="userSpaceOnUse" x="226.678" y="9.929" width="73.269" height="37.897" id="mask-6_00000132799890884499163220000010321021522800981658_">
			
				<g id="use46_00000006675126926809046350000008096836911000617373_" style="filter:url(#Adobe_OpacityMaskFilter_00000065041161131377844500000007725646856973574293_);">
				
					<path id="path-5_00000006672417423239326030000015657069548947497123_" style="fill-rule:evenodd;clip-rule:evenodd;fill:#FFFFFF;" d="
					M299.947,47.826c0-20.928-16.404-37.897-36.635-37.897s-36.635,16.969-36.635,37.897c0,11.509,4.965,21.811,12.793,28.757
					l-4.396,7.874v6.253c0,0.549,0.434,0.997,0.964,0.997c0.178,0,0.342-0.05,0.487-0.135l5.23-3.122l4.083-7.31
					c5.191,2.922,11.145,4.583,17.474,4.583c6.329,0,12.282-1.66,17.479-4.583l4.083,7.31l5.23,3.122
					c0.145,0.085,0.309,0.135,0.487,0.135c0.53,0,0.964-0.449,0.964-0.997v-6.253l-4.396-7.874
					C294.982,69.637,299.947,59.335,299.947,47.826z"/>
			</g>
		</mask>
		<path id="path51" style="mask:url(#mask-6_00000132799890884499163220000010321021522800981658_);fill:#FF9B2F;" d="
			M263.312,9.929c-20.231,0-36.635,16.969-36.635,37.897h73.269C299.947,26.898,283.543,9.929,263.312,9.929z"/>
	</g>
	<g id="g62" transform="translate(85.105049,88.860311)">
		<g id="g58">
		</g>
		<defs>
			
				<filter id="Adobe_OpacityMaskFilter_00000018936003757894711710000014414808406491170949_" filterUnits="userSpaceOnUse" x="258.492" y="36.856" width="9.641" height="9.973">
				<feColorMatrix  type="matrix" values="1 0 0 0 0  0 1 0 0 0  0 0 1 0 0  0 0 0 1 0"/>
			</filter>
		</defs>
		
			<mask maskUnits="userSpaceOnUse" x="258.492" y="36.856" width="9.641" height="9.973" id="mask-8_00000166638558693088115780000003843807049061112459_">
			
				<g id="use55_00000054262862366280523220000008587830086325076870_" style="filter:url(#Adobe_OpacityMaskFilter_00000018936003757894711710000014414808406491170949_);">
				
					<path id="path-7_00000108270568105347087820000000508152855281824949_" style="fill-rule:evenodd;clip-rule:evenodd;fill:#FFFFFF;" d="
					M299.947,47.826c0-20.928-16.404-37.897-36.635-37.897s-36.635,16.969-36.635,37.897c0,11.509,4.965,21.811,12.793,28.757
					l-4.396,7.874v6.253c0,0.549,0.434,0.997,0.964,0.997c0.178,0,0.342-0.05,0.487-0.135l5.23-3.122l4.083-7.31
					c5.191,2.922,11.145,4.583,17.474,4.583c6.329,0,12.282-1.66,17.479-4.583l4.083,7.31l5.23,3.122
					c0.145,0.085,0.309,0.135,0.487,0.135c0.53,0,0.964-0.449,0.964-0.997v-6.253l-4.396-7.874
					C294.982,69.637,299.947,59.335,299.947,47.826z"/>
			</g>
		</mask>
		
			<ellipse id="circle60" style="mask:url(#mask-8_00000166638558693088115780000003843807049061112459_);fill:#FF9B2F;" cx="263.312" cy="41.842" rx="9.514" ry="9.842"/>
	</g>
	<g id="g71" transform="translate(85.105049,88.860311)">
		<g id="g67">
		</g>
		<defs>
			
				<filter id="Adobe_OpacityMaskFilter_00000087408619783332680780000007142678860672428953_" filterUnits="userSpaceOnUse" x="226.678" y="47.327" width="73.269" height="0.499">
				<feColorMatrix  type="matrix" values="1 0 0 0 0  0 1 0 0 0  0 0 1 0 0  0 0 0 1 0"/>
			</filter>
		</defs>
		
			<mask maskUnits="userSpaceOnUse" x="226.678" y="47.327" width="73.269" height="0.499" id="mask-10_00000005973747203509140310000017707200513116765062_">
			
				<g id="use64_00000151519024197381153710000010591291007881174961_" style="filter:url(#Adobe_OpacityMaskFilter_00000087408619783332680780000007142678860672428953_);">
				
					<path id="path-9_00000142150562156502997230000013258006929286922390_" style="fill-rule:evenodd;clip-rule:evenodd;fill:#FFFFFF;" d="
					M299.947,47.826c0-20.928-16.404-37.897-36.635-37.897s-36.635,16.969-36.635,37.897c0,11.509,4.965,21.811,12.793,28.757
					l-4.396,7.874v6.253c0,0.549,0.434,0.997,0.964,0.997c0.178,0,0.342-0.05,0.487-0.135l5.23-3.122l4.083-7.31
					c5.191,2.922,11.145,4.583,17.474,4.583c6.329,0,12.282-1.66,17.479-4.583l4.083,7.31l5.23,3.122
					c0.145,0.085,0.309,0.135,0.487,0.135c0.53,0,0.964-0.449,0.964-0.997v-6.253l-4.396-7.874
					C294.982,69.637,299.947,59.335,299.947,47.826z"/>
			</g>
		</mask>
		
			<polygon id="polygon69" style="mask:url(#mask-10_00000005973747203509140310000017707200513116765062_);fill:#263238;fill-opacity:0.05;" points="
			299.947,47.826 226.678,47.826 226.678,47.327 299.947,47.327 		"/>
	</g>
	<g id="g80" transform="translate(85.105049,88.860311)">
		<g id="g76">
		</g>
		<defs>
			
				<filter id="Adobe_OpacityMaskFilter_00000158740384896190390710000010443622088236915110_" filterUnits="userSpaceOnUse" x="226.678" y="47.826" width="73.269" height="0.499">
				<feColorMatrix  type="matrix" values="1 0 0 0 0  0 1 0 0 0  0 0 1 0 0  0 0 0 1 0"/>
			</filter>
		</defs>
		
			<mask maskUnits="userSpaceOnUse" x="226.678" y="47.826" width="73.269" height="0.499" id="mask-12_00000117656905523968103820000014850579330937408168_">
			
				<g id="use73_00000092432460540168493670000002266649664589478046_" style="filter:url(#Adobe_OpacityMaskFilter_00000158740384896190390710000010443622088236915110_);">
				
					<path id="path-11_00000129169569682919708420000011019608058052043943_" style="fill-rule:evenodd;clip-rule:evenodd;fill:#FFFFFF;" d="
					M299.947,47.826c0-20.928-16.404-37.897-36.635-37.897s-36.635,16.969-36.635,37.897c0,11.509,4.965,21.811,12.793,28.757
					l-4.396,7.874v6.253c0,0.549,0.434,0.997,0.964,0.997c0.178,0,0.342-0.05,0.487-0.135l5.23-3.122l4.083-7.31
					c5.191,2.922,11.145,4.583,17.474,4.583c6.329,0,12.282-1.66,17.479-4.583l4.083,7.31l5.23,3.122
					c0.145,0.085,0.309,0.135,0.487,0.135c0.53,0,0.964-0.449,0.964-0.997v-6.253l-4.396-7.874
					C294.982,69.637,299.947,59.335,299.947,47.826z"/>
			</g>
		</mask>
		
			<polygon id="polygon78" style="mask:url(#mask-12_00000117656905523968103820000014850579330937408168_);fill:#FFFFFF;fill-opacity:0.05;" points="
			299.947,48.325 226.678,48.325 226.678,47.826 299.947,47.826 		"/>
	</g>
	<g id="g89" transform="translate(85.105049,88.860311)">
		<g id="g85">
		</g>
		<defs>
			
				<filter id="Adobe_OpacityMaskFilter_00000145744014413751443020000002251002771034487424_" filterUnits="userSpaceOnUse" x="236.039" y="23.891" width="63.908" height="67.816">
				<feColorMatrix  type="matrix" values="1 0 0 0 0  0 1 0 0 0  0 0 1 0 0  0 0 0 1 0"/>
			</filter>
		</defs>
		
			<mask maskUnits="userSpaceOnUse" x="236.039" y="23.891" width="63.908" height="67.816" id="mask-14_00000086651215095958517990000006927067088476528775_">
			
				<g id="use82_00000150086983061819757650000016137416154323228087_" style="filter:url(#Adobe_OpacityMaskFilter_00000145744014413751443020000002251002771034487424_);">
				
					<path id="path-13_00000127029209145629100670000016021057007240822665_" style="fill-rule:evenodd;clip-rule:evenodd;fill:#FFFFFF;" d="
					M299.947,47.826c0-20.928-16.404-37.897-36.635-37.897s-36.635,16.969-36.635,37.897c0,11.509,4.965,21.811,12.793,28.757
					l-4.396,7.874v6.253c0,0.549,0.434,0.997,0.964,0.997c0.178,0,0.342-0.05,0.487-0.135l5.23-3.122l4.083-7.31
					c5.191,2.922,11.145,4.583,17.474,4.583c6.329,0,12.282-1.66,17.479-4.583l4.083,7.31l5.23,3.122
					c0.145,0.085,0.309,0.135,0.487,0.135c0.53,0,0.964-0.449,0.964-0.997v-6.253l-4.396-7.874
					C294.982,69.637,299.947,59.335,299.947,47.826z"/>
			</g>
		</mask>
		
			<linearGradient id="polygon87_00000044139885143302178270000014178008698159585173_" gradientUnits="userSpaceOnUse" x1="81.4344" y1="173.6522" x2="116.568" y2="153.4736" gradientTransform="matrix(1.9487 0 0 -1.999 95.6553 406.5424)">
			<stop  offset="0" style="stop-color:#263238;stop-opacity:0.2"/>
			<stop  offset="1" style="stop-color:#263238;stop-opacity:0.02"/>
		</linearGradient>
		
			<polygon id="polygon87" style="mask:url(#mask-14_00000086651215095958517990000006927067088476528775_);fill:url(#polygon87_00000044139885143302178270000014178008698159585173_);" points="
			255.518,47.826 236.039,91.707 299.947,91.707 299.947,57.799 267.168,23.891 259.456,29.875 		"/>
	</g>
	<g id="g105" transform="translate(85.105049,88.860311)">
		<g id="g101">
		</g>
		<defs>
			
				<filter id="Adobe_OpacityMaskFilter_00000123416680917662224370000002244572220318544814_" filterUnits="userSpaceOnUse" x="226.678" y="9.929" width="73.269" height="37.897">
				<feColorMatrix  type="matrix" values="1 0 0 0 0  0 1 0 0 0  0 0 1 0 0  0 0 0 1 0"/>
			</filter>
		</defs>
		
			<mask maskUnits="userSpaceOnUse" x="226.678" y="9.929" width="73.269" height="37.897" id="mask-19_00000006679109727125991690000010387785020845697191_">
			
				<g id="use98_00000024717434157866440030000011365166355683141784_" style="filter:url(#Adobe_OpacityMaskFilter_00000123416680917662224370000002244572220318544814_);">
				
					<path id="path-18_00000125574158793940510560000001426217695305055909_" style="fill-rule:evenodd;clip-rule:evenodd;fill:#FFFFFF;" d="
					M299.947,47.826c0-20.928-16.404-37.897-36.635-37.897s-36.635,16.969-36.635,37.897c0,11.509,4.965,21.811,12.793,28.757
					l-4.396,7.874v6.253c0,0.549,0.434,0.997,0.964,0.997c0.178,0,0.342-0.05,0.487-0.135l5.23-3.122l4.083-7.31
					c5.191,2.922,11.145,4.583,17.474,4.583c6.329,0,12.282-1.66,17.479-4.583l4.083,7.31l5.23,3.122
					c0.145,0.085,0.309,0.135,0.487,0.135c0.53,0,0.964-0.449,0.964-0.997v-6.253l-4.396-7.874
					C294.982,69.637,299.947,59.335,299.947,47.826z"/>
			</g>
		</mask>
		
			<path id="path103" style="mask:url(#mask-19_00000006679109727125991690000010387785020845697191_);fill:#FFFFFF;fill-opacity:0.2;" d="
			M263.312,10.428c20.072,0,36.365,16.7,36.62,37.398h0.014c0-20.928-16.404-37.897-36.635-37.897s-36.635,16.969-36.635,37.897
			h0.014C226.948,27.127,243.24,10.428,263.312,10.428z"/>
	</g>
	<g id="g124" transform="translate(85.105049,88.860311)">
		<g id="g110">
		</g>
		<defs>
			
				<filter id="Adobe_OpacityMaskFilter_00000152959923480911813010000011227035796533956788_" filterUnits="userSpaceOnUse" x="262.199" y="47.826" width="29.356" height="43.881">
				<feColorMatrix  type="matrix" values="1 0 0 0 0  0 1 0 0 0  0 0 1 0 0  0 0 0 1 0"/>
			</filter>
		</defs>
		
			<mask maskUnits="userSpaceOnUse" x="262.199" y="47.826" width="29.356" height="43.881" id="mask-21_00000180335245914920395310000003696307358341446799_">
			
				<g id="use107_00000091728055801879798560000007766805717535554999_" style="filter:url(#Adobe_OpacityMaskFilter_00000152959923480911813010000011227035796533956788_);">
				
					<path id="path-20_00000163038801034552714120000016999366084310975372_" style="fill-rule:evenodd;clip-rule:evenodd;fill:#FFFFFF;" d="
					M299.947,47.826c0-20.928-16.404-37.897-36.635-37.897s-36.635,16.969-36.635,37.897c0,11.509,4.965,21.811,12.793,28.757
					l-4.396,7.874v6.253c0,0.549,0.434,0.997,0.964,0.997c0.178,0,0.342-0.05,0.487-0.135l5.23-3.122l4.083-7.31
					c5.191,2.922,11.145,4.583,17.474,4.583c6.329,0,12.282-1.66,17.479-4.583l4.083,7.31l5.23,3.122
					c0.145,0.085,0.309,0.135,0.487,0.135c0.53,0,0.964-0.449,0.964-0.997v-6.253l-4.396-7.874
					C294.982,69.637,299.947,59.335,299.947,47.826z"/>
			</g>
		</mask>
		<g id="Group" style="mask:url(#mask-21_00000180335245914920395310000003696307358341446799_);">
			<g id="g121" transform="translate(43.333333,45.333333)">
				<path id="path113" style="fill:#D7EFFE;" d="M227.773,2.493h-8.908l22.675,40.625l5.23,3.122
					c0.145,0.085,0.309,0.135,0.487,0.135c0.53,0,0.964-0.449,0.964-0.997v-6.253L227.773,2.493z"/>
				<path id="path115" style="opacity:0.3;fill:#BDBDBD;enable-background:new    ;" d="M227.773,2.493h-8.908l22.675,40.625
					l5.23,3.122c0.145,0.085,0.309,0.135,0.487,0.135c0.53,0,0.964-0.449,0.964-0.997v-6.253L227.773,2.493z"/>
				<polygon id="polygon117" style="fill:#FFFFFF;fill-opacity:0.2;" points="248.216,39.123 227.773,2.493 227.494,2.493 
					248.216,39.622 				"/>
				<path id="path119" style="fill:#212121;fill-opacity:0.1;" d="M247.252,45.875c-0.178,0-0.342-0.05-0.487-0.135l-5.23-3.122
					l-22.39-40.126h-0.28l22.675,40.625l5.23,3.122c0.145,0.085,0.309,0.135,0.487,0.135c0.53,0,0.964-0.449,0.964-0.997v-0.499
					C248.216,45.426,247.783,45.875,247.252,45.875z"/>
			</g>
		</g>
	</g>
	<g id="g143" transform="translate(85.105049,88.860311)">
		<g id="g129">
		</g>
		<defs>
			
				<filter id="Adobe_OpacityMaskFilter_00000155111574681904566960000009301060795898926233_" filterUnits="userSpaceOnUse" x="235.07" y="47.826" width="55.236" height="43.881">
				<feColorMatrix  type="matrix" values="1 0 0 0 0  0 1 0 0 0  0 0 1 0 0  0 0 0 1 0"/>
			</filter>
		</defs>
		
			<mask maskUnits="userSpaceOnUse" x="235.07" y="47.826" width="55.236" height="43.881" id="mask-23_00000031895928149147300260000017388941428327062189_">
			
				<g id="use126_00000128483709594801189300000004011096388040986245_" style="filter:url(#Adobe_OpacityMaskFilter_00000155111574681904566960000009301060795898926233_);">
				
					<path id="path-22_00000033333853006489253140000000636384621867180199_" style="fill-rule:evenodd;clip-rule:evenodd;fill:#FFFFFF;" d="
					M299.947,47.826c0-20.928-16.404-37.897-36.635-37.897s-36.635,16.969-36.635,37.897c0,11.509,4.965,21.811,12.793,28.757
					l-4.396,7.874v6.253c0,0.549,0.434,0.997,0.964,0.997c0.178,0,0.342-0.05,0.487-0.135l5.23-3.122l4.083-7.31
					c5.191,2.922,11.145,4.583,17.474,4.583c6.329,0,12.282-1.66,17.479-4.583l4.083,7.31l5.23,3.122
					c0.145,0.085,0.309,0.135,0.487,0.135c0.53,0,0.964-0.449,0.964-0.997v-6.253l-4.396-7.874
					C294.982,69.637,299.947,59.335,299.947,47.826z"/>
			</g>
		</mask>
		<g id="g141" style="mask:url(#mask-23_00000031895928149147300260000017388941428327062189_);">
			<g id="g139" transform="translate(6,45.333333)">
				<path id="path133" style="fill:#D7EFFE;" d="M276.594,2.493c0,11.015-8.633,19.946-19.281,19.946
					c-3.167,0-6.156-0.793-8.792-2.194l8.792-15.757l1.113-1.995h-8.908l-20.448,36.63v6.253c0,0.549,0.434,0.997,0.964,0.997
					c0.178,0,0.342-0.05,0.487-0.135l5.23-3.122l8.908-15.957c3.774,2.074,8.079,3.256,12.653,3.256
					c14.909,0,26.994-12.501,26.994-27.924H276.594z"/>
				<path id="path135" style="fill:#FFFFFF;fill-opacity:0.4;" d="M249.518,2.493l-20.448,36.63v0.499l20.727-37.129H249.518z
					 M257.312,22.438c-3.167,0-6.156-0.793-8.792-2.194v0.499c2.637,1.401,5.625,2.194,8.792,2.194
					c10.648,0,19.281-8.931,19.281-19.946h7.698c0.005-0.165,0.014-0.329,0.014-0.499h-7.713
					C276.594,13.508,267.96,22.438,257.312,22.438z"/>
				<path id="path137" style="fill:#212121;fill-opacity:0.1;" d="M258.426,2.493h-0.28l-9.631,17.253v0.499L258.426,2.493z
					 M284.292,2.493c-0.26,15.189-12.234,27.425-26.979,27.425c-4.574,0-8.879-1.182-12.653-3.256l-8.908,15.957l-5.23,3.122
					c-0.145,0.085-0.309,0.135-0.487,0.135c-0.53,0-0.964-0.449-0.964-0.997v0.499c0,0.549,0.434,0.997,0.964,0.997
					c0.178,0,0.342-0.05,0.487-0.135l5.23-3.122l8.908-15.957c3.774,2.074,8.079,3.256,12.653,3.256
					c14.909,0,26.994-12.501,26.994-27.924H284.292z"/>
			</g>
		</g>
	</g>
	<g id="g158" transform="translate(85.105049,88.860311)">
		<g id="g148">
		</g>
		<defs>
			
				<filter id="Adobe_OpacityMaskFilter_00000008149160386714234580000010043960445041353910_" filterUnits="userSpaceOnUse" x="251.743" y="23.891" width="23.138" height="34.656">
				<feColorMatrix  type="matrix" values="1 0 0 0 0  0 1 0 0 0  0 0 1 0 0  0 0 0 1 0"/>
			</filter>
		</defs>
		
			<mask maskUnits="userSpaceOnUse" x="251.743" y="23.891" width="23.138" height="34.656" id="mask-25_00000158012729115188301250000003816490748344158356_">
			
				<g id="use145_00000158731420225733563680000009243963384190560694_" style="filter:url(#Adobe_OpacityMaskFilter_00000008149160386714234580000010043960445041353910_);">
				
					<path id="path-24_00000067229985342027727740000017312507697134336180_" style="fill-rule:evenodd;clip-rule:evenodd;fill:#FFFFFF;" d="
					M299.947,47.826c0-20.928-16.404-37.897-36.635-37.897s-36.635,16.969-36.635,37.897c0,11.509,4.965,21.811,12.793,28.757
					l-4.396,7.874v6.253c0,0.549,0.434,0.997,0.964,0.997c0.178,0,0.342-0.05,0.487-0.135l5.23-3.122l4.083-7.31
					c5.191,2.922,11.145,4.583,17.474,4.583c6.329,0,12.282-1.66,17.479-4.583l4.083,7.31l5.23,3.122
					c0.145,0.085,0.309,0.135,0.487,0.135c0.53,0,0.964-0.449,0.964-0.997v-6.253l-4.396-7.874
					C294.982,69.637,299.947,59.335,299.947,47.826z"/>
			</g>
		</mask>
		<g id="g156" style="mask:url(#mask-25_00000158012729115188301250000003816490748344158356_);">
			<g id="g154" transform="translate(29.333333,13.333333)">
				<path id="path152" style="fill:#073042;" d="M242.655,16.541h-4.82v-5.984h-7.713v5.984h-4.82c-1.591,0-2.892,1.346-2.892,2.992
					v14.959l9.525,9.843c0.525,0.539,1.244,0.878,2.044,0.878c0.8,0,1.523-0.334,2.044-0.878l9.525-9.843V19.533
					C245.548,17.888,244.246,16.541,242.655,16.541z M233.979,33.495c-2.661,0-4.82-2.234-4.82-4.986s2.16-4.986,4.82-4.986
					c2.661,0,4.82,2.234,4.82,4.986S236.64,33.495,233.979,33.495z"/>
			</g>
		</g>
	</g>
	<g id="g167" transform="translate(85.105049,88.860311)">
		<g id="g163">
		</g>
		<defs>
			
				<filter id="Adobe_OpacityMaskFilter_00000090288480823281715690000008954619781392672906_" filterUnits="userSpaceOnUse" x="251.743" y="23.891" width="23.138" height="23.436">
				<feColorMatrix  type="matrix" values="1 0 0 0 0  0 1 0 0 0  0 0 1 0 0  0 0 0 1 0"/>
			</filter>
		</defs>
		
			<mask maskUnits="userSpaceOnUse" x="251.743" y="23.891" width="23.138" height="23.436" id="mask-27_00000047766444936842352880000013722702743672353689_">
			
				<g id="use160_00000044156851763020943950000008340325166356048786_" style="filter:url(#Adobe_OpacityMaskFilter_00000090288480823281715690000008954619781392672906_);">
				
					<path id="path-26_00000063611254403958401800000000043806726118288546_" style="fill-rule:evenodd;clip-rule:evenodd;fill:#FFFFFF;" d="
					M299.947,47.826c0-20.928-16.404-37.897-36.635-37.897s-36.635,16.969-36.635,37.897c0,11.509,4.965,21.811,12.793,28.757
					l-4.396,7.874v6.253c0,0.549,0.434,0.997,0.964,0.997c0.178,0,0.342-0.05,0.487-0.135l5.23-3.122l4.083-7.31
					c5.191,2.922,11.145,4.583,17.474,4.583c6.329,0,12.282-1.66,17.479-4.583l4.083,7.31l5.23,3.122
					c0.145,0.085,0.309,0.135,0.487,0.135c0.53,0,0.964-0.449,0.964-0.997v-6.253l-4.396-7.874
					C294.982,69.637,299.947,59.335,299.947,47.826z"/>
			</g>
		</mask>
		
			<path id="path165" style="mask:url(#mask-27_00000047766444936842352880000013722702743672353689_);fill:#FFFFFF;fill-opacity:0.1;" d="
			M271.989,29.875h-4.82v0.499h4.82c1.591,0,2.892,1.346,2.892,2.992v-0.499C274.881,31.221,273.579,29.875,271.989,29.875z
			 M267.168,23.891h-7.713v0.499h7.713V23.891z M259.456,29.875h-4.82c-1.591,0-2.892,1.346-2.892,2.992v0.499
			c0-1.646,1.301-2.992,2.892-2.992h4.82V29.875z M263.312,46.829c-2.661,0-4.82-2.234-4.82-4.986v0.499
			c0,2.753,2.159,4.986,4.82,4.986s4.82-2.234,4.82-4.986v-0.499C268.133,44.595,265.973,46.829,263.312,46.829L263.312,46.829z"/>
	</g>
	<g id="g176" transform="translate(85.105049,88.860311)">
		<g id="g172">
		</g>
		<defs>
			
				<filter id="Adobe_OpacityMaskFilter_00000116207833372882822360000000364910361974790806_" filterUnits="userSpaceOnUse" x="251.743" y="36.357" width="23.138" height="22.19">
				<feColorMatrix  type="matrix" values="1 0 0 0 0  0 1 0 0 0  0 0 1 0 0  0 0 0 1 0"/>
			</filter>
		</defs>
		
			<mask maskUnits="userSpaceOnUse" x="251.743" y="36.357" width="23.138" height="22.19" id="mask-29_00000104689896159387761960000008281611584064170882_">
			
				<g id="use169_00000172405295326487603280000006119638923197045892_" style="filter:url(#Adobe_OpacityMaskFilter_00000116207833372882822360000000364910361974790806_);">
				
					<path id="path-28_00000071541696326270023730000006710956743680049074_" style="fill-rule:evenodd;clip-rule:evenodd;fill:#FFFFFF;" d="
					M299.947,47.826c0-20.928-16.404-37.897-36.635-37.897s-36.635,16.969-36.635,37.897c0,11.509,4.965,21.811,12.793,28.757
					l-4.396,7.874v6.253c0,0.549,0.434,0.997,0.964,0.997c0.178,0,0.342-0.05,0.487-0.135l5.23-3.122l4.083-7.31
					c5.191,2.922,11.145,4.583,17.474,4.583c6.329,0,12.282-1.66,17.479-4.583l4.083,7.31l5.23,3.122
					c0.145,0.085,0.309,0.135,0.487,0.135c0.53,0,0.964-0.449,0.964-0.997v-6.253l-4.396-7.874
					C294.982,69.637,299.947,59.335,299.947,47.826z"/>
			</g>
		</mask>
		
			<path id="path174" style="mask:url(#mask-29_00000104689896159387761960000008281611584064170882_);fill:#212121;fill-opacity:0.1;" d="
			M263.312,36.856c2.661,0,4.82,2.234,4.82,4.986v-0.499c0-2.753-2.16-4.986-4.82-4.986s-4.82,2.234-4.82,4.986v0.499
			C258.492,39.09,260.651,36.856,263.312,36.856z M265.356,57.171c-0.525,0.539-1.244,0.878-2.044,0.878s-1.523-0.334-2.044-0.878
			l-9.525-9.843v0.499l9.525,9.843c0.525,0.539,1.244,0.878,2.044,0.878s1.523-0.334,2.044-0.878l9.525-9.843v-0.499L265.356,57.171
			z"/>
	</g>
	
		<radialGradient id="path178_00000168107826303130245490000012528173972414277042_" cx="179.6434" cy="281.076" r="124.7327" gradientTransform="matrix(1.3739 0 0 -1.5334 75.7534 540.8615)" gradientUnits="userSpaceOnUse">
		<stop  offset="0" style="stop-color:#FFFFFF;stop-opacity:0.1"/>
		<stop  offset="1" style="stop-color:#FFFFFF;stop-opacity:0"/>
	</radialGradient>
	<path id="path178" style="fill:url(#path178_00000168107826303130245490000012528173972414277042_);" d="M385.052,136.686
		c0-20.928-16.404-37.897-36.635-37.897c-20.231,0-36.634,16.969-36.634,37.897c0,11.509,4.965,21.811,12.793,28.757l-4.396,7.874
		v6.253c0,0.549,0.434,0.997,0.964,0.997c0.178,0,0.342-0.05,0.487-0.135l5.23-3.122l4.083-7.31
		c5.191,2.922,11.145,4.583,17.474,4.583c6.329,0,12.282-1.66,17.479-4.583l4.083,7.31l5.23,3.122
		c0.145,0.085,0.309,0.135,0.487,0.135c0.53,0,0.964-0.449,0.964-0.997v-6.253l-4.396-7.874
		C380.087,158.497,385.052,148.195,385.052,136.686z"/>
</g>
</svg>
