<?xml version="1.0" encoding="iso-8859-1"?>
<!-- Generator: Adobe Illustrator 26.2.1, SVG Export Plug-In . SVG Version: 6.00 Build 0)  -->
<svg version="1.1" id="Capa_1" xmlns="http://www.w3.org/2000/svg" xmlns:xlink="http://www.w3.org/1999/xlink" x="0px"
	y="0px" viewBox="0 0 400 375" style="enable-background:new 0 0 400 375;" xml:space="preserve">
	<g id="g690" transform="matrix(1.9736843,0,0,1.9736843,-167.9705,-175.3822)">
		<g id="Clipped" transform="translate(85.105049,88.860311)">
			<defs>
				<filter id="Adobe_OpacityMaskFilter" filterUnits="userSpaceOnUse" x="63.1" y="90.555" width="84.847"
					height="87.238">
					<feColorMatrix type="matrix" values="1 0 0 0 0  0 1 0 0 0  0 0 1 0 0  0 0 0 1 0" />
				</filter>
			</defs>

			<mask maskUnits="userSpaceOnUse" x="63.1" y="90.555" width="84.847" height="87.238"
				id="mask-2_00000000929236678637987340000014274755961510319290_">
				<g id="use32_00000169538692268576851090000010195687490522800294_"
					style="filter:url(#Adobe_OpacityMaskFilter);">

					<path id="path-1_00000032607392336719757240000008434596773742211002_"
						style="fill-rule:evenodd;clip-rule:evenodd;fill:#FFFFFF;" d="
					M147.947,134.174c0-24.088-18.996-43.619-42.424-43.619S63.1,110.086,63.1,134.174c0,13.246,5.75,25.104,14.815,33.099
					l-5.091,9.062v7.197c0,0.631,0.502,1.148,1.116,1.148c0.207,0,0.396-0.057,0.564-0.155l6.057-3.593l4.728-8.414
					c6.012,3.363,12.906,5.274,20.235,5.274c7.329,0,14.223-1.911,20.241-5.274l4.728,8.414l6.057,3.593
					c0.167,0.098,0.357,0.155,0.564,0.155c0.614,0,1.116-0.517,1.116-1.148v-7.197l-5.091-9.062
					C142.197,159.278,147.947,147.42,147.947,134.174z" />
				</g>
			</mask>

			<ellipse id="Oval"
				style="mask:url(#mask-2_00000000929236678637987340000014274755961510319290_);fill:#FF9B2F;" cx="105.523"
				cy="134.174" rx="83.731" ry="86.09" />
		</g>
		<g id="g44" transform="translate(85.105049,88.860311)">
			<g id="g41">
			</g>
			<defs>

				<filter id="Adobe_OpacityMaskFilter_00000102503451832166593660000016276202567766525575_"
					filterUnits="userSpaceOnUse" x="63.1" y="134.174" width="84.847" height="43.619">
					<feColorMatrix type="matrix" values="1 0 0 0 0  0 1 0 0 0  0 0 1 0 0  0 0 0 1 0" />
				</filter>
			</defs>

			<mask maskUnits="userSpaceOnUse" x="63.1" y="134.174" width="84.847" height="43.619"
				id="mask-4_00000118394053543914938170000001512406842631363976_">

				<g id="use38_00000168113638701513473560000005662882977850259363_"
					style="filter:url(#Adobe_OpacityMaskFilter_00000102503451832166593660000016276202567766525575_);">

					<path id="path-3_00000124846452104906226910000011367970429763401143_"
						style="fill-rule:evenodd;clip-rule:evenodd;fill:#FFFFFF;" d="
					M147.947,134.174c0-24.088-18.996-43.619-42.424-43.619S63.1,110.086,63.1,134.174c0,13.246,5.75,25.104,14.815,33.099
					l-5.091,9.062v7.197c0,0.631,0.502,1.148,1.116,1.148c0.207,0,0.396-0.057,0.564-0.155l6.057-3.593l4.728-8.414
					c6.012,3.363,12.906,5.274,20.235,5.274c7.329,0,14.223-1.911,20.241-5.274l4.728,8.414l6.057,3.593
					c0.167,0.098,0.357,0.155,0.564,0.155c0.614,0,1.116-0.517,1.116-1.148v-7.197l-5.091-9.062
					C142.197,159.278,147.947,147.42,147.947,134.174z" />
				</g>
			</mask>

			<path id="Shape"
				style="mask:url(#mask-4_00000118394053543914938170000001512406842631363976_);fill:#263238;fill-opacity:0.2;"
				d="
			M105.523,177.219c23.244,0,42.111-19.221,42.407-43.045h0.017c0,24.088-18.996,43.619-42.424,43.619S63.1,158.262,63.1,134.174
			h0.017C63.412,157.998,82.279,177.219,105.523,177.219z" />
		</g>
		<g id="g53" transform="translate(85.105049,88.860311)">
			<g id="g49">
			</g>
			<defs>

				<filter id="Adobe_OpacityMaskFilter_00000142155702433069138430000012765316948715611060_"
					filterUnits="userSpaceOnUse" x="63.1" y="90.555" width="84.847" height="43.619">
					<feColorMatrix type="matrix" values="1 0 0 0 0  0 1 0 0 0  0 0 1 0 0  0 0 0 1 0" />
				</filter>
			</defs>

			<mask maskUnits="userSpaceOnUse" x="63.1" y="90.555" width="84.847" height="43.619"
				id="mask-6_00000049203299202381452920000018322613516405855140_">

				<g id="use46_00000085218570678420562040000008662223183529841048_"
					style="filter:url(#Adobe_OpacityMaskFilter_00000142155702433069138430000012765316948715611060_);">

					<path id="path-5_00000106107262999080608030000015834541242055181734_"
						style="fill-rule:evenodd;clip-rule:evenodd;fill:#FFFFFF;" d="
					M147.947,134.174c0-24.088-18.996-43.619-42.424-43.619S63.1,110.086,63.1,134.174c0,13.246,5.75,25.104,14.815,33.099
					l-5.091,9.062v7.197c0,0.631,0.502,1.148,1.116,1.148c0.207,0,0.396-0.057,0.564-0.155l6.057-3.593l4.728-8.414
					c6.012,3.363,12.906,5.274,20.235,5.274c7.329,0,14.223-1.911,20.241-5.274l4.728,8.414l6.057,3.593
					c0.167,0.098,0.357,0.155,0.564,0.155c0.614,0,1.116-0.517,1.116-1.148v-7.197l-5.091-9.062
					C142.197,159.278,147.947,147.42,147.947,134.174z" />
				</g>
			</mask>
			<path id="path51"
				style="mask:url(#mask-6_00000049203299202381452920000018322613516405855140_);fill:#FF9B2F;" d="
			M105.523,90.555c-23.428,0-42.424,19.531-42.424,43.619h84.847C147.947,110.086,128.951,90.555,105.523,90.555z" />
		</g>
		<g id="g62" transform="translate(85.105049,88.860311)">
			<g id="g58">
			</g>
			<defs>

				<filter id="Adobe_OpacityMaskFilter_00000063598832871709402030000018201419978355273372_"
					filterUnits="userSpaceOnUse" x="99.941" y="121.547" width="11.164" height="11.479">
					<feColorMatrix type="matrix" values="1 0 0 0 0  0 1 0 0 0  0 0 1 0 0  0 0 0 1 0" />
				</filter>
			</defs>

			<mask maskUnits="userSpaceOnUse" x="99.941" y="121.547" width="11.164" height="11.479"
				id="mask-8_00000085942038054670310260000002391154499953264544_">

				<g id="use55_00000114770113921302446040000004580262033981984427_"
					style="filter:url(#Adobe_OpacityMaskFilter_00000063598832871709402030000018201419978355273372_);">

					<path id="path-7_00000038403125679610680750000007497545600591294353_"
						style="fill-rule:evenodd;clip-rule:evenodd;fill:#FFFFFF;" d="
					M147.947,134.174c0-24.088-18.996-43.619-42.424-43.619S63.1,110.086,63.1,134.174c0,13.246,5.75,25.104,14.815,33.099
					l-5.091,9.062v7.197c0,0.631,0.502,1.148,1.116,1.148c0.207,0,0.396-0.057,0.564-0.155l6.057-3.593l4.728-8.414
					c6.012,3.363,12.906,5.274,20.235,5.274c7.329,0,14.223-1.911,20.241-5.274l4.728,8.414l6.057,3.593
					c0.167,0.098,0.357,0.155,0.564,0.155c0.614,0,1.116-0.517,1.116-1.148v-7.197l-5.091-9.062
					C142.197,159.278,147.947,147.42,147.947,134.174z" />
				</g>
			</mask>

			<ellipse id="circle60"
				style="mask:url(#mask-8_00000085942038054670310260000002391154499953264544_);fill:#FF9B2F;" cx="105.523"
				cy="127.286" rx="11.017" ry="11.328" />
		</g>
		<g id="g71" transform="translate(85.105049,88.860311)">
			<g id="g67">
			</g>
			<defs>

				<filter id="Adobe_OpacityMaskFilter_00000088848659343845318930000015654417202687210161_"
					filterUnits="userSpaceOnUse" x="63.1" y="133.6" width="84.847" height="0.574">
					<feColorMatrix type="matrix" values="1 0 0 0 0  0 1 0 0 0  0 0 1 0 0  0 0 0 1 0" />
				</filter>
			</defs>

			<mask maskUnits="userSpaceOnUse" x="63.1" y="133.6" width="84.847" height="0.574"
				id="mask-10_00000091011400549358104280000009068813000012857258_">

				<g id="use64_00000181086215999960357500000016705773286528876956_"
					style="filter:url(#Adobe_OpacityMaskFilter_00000088848659343845318930000015654417202687210161_);">

					<path id="path-9_00000088829224892774678280000015508745029710240656_"
						style="fill-rule:evenodd;clip-rule:evenodd;fill:#FFFFFF;" d="
					M147.947,134.174c0-24.088-18.996-43.619-42.424-43.619S63.1,110.086,63.1,134.174c0,13.246,5.75,25.104,14.815,33.099
					l-5.091,9.062v7.197c0,0.631,0.502,1.148,1.116,1.148c0.207,0,0.396-0.057,0.564-0.155l6.057-3.593l4.728-8.414
					c6.012,3.363,12.906,5.274,20.235,5.274c7.329,0,14.223-1.911,20.241-5.274l4.728,8.414l6.057,3.593
					c0.167,0.098,0.357,0.155,0.564,0.155c0.614,0,1.116-0.517,1.116-1.148v-7.197l-5.091-9.062
					C142.197,159.278,147.947,147.42,147.947,134.174z" />
				</g>
			</mask>

			<polygon id="polygon69"
				style="mask:url(#mask-10_00000091011400549358104280000009068813000012857258_);fill:#263238;fill-opacity:0.05;"
				points="
			147.947,134.174 63.1,134.174 63.1,133.6 147.947,133.6 		" />
		</g>
		<g id="g80" transform="translate(85.105049,88.860311)">
			<g id="g76">
			</g>
			<defs>

				<filter id="Adobe_OpacityMaskFilter_00000138537242260640255940000008722686241739003839_"
					filterUnits="userSpaceOnUse" x="63.1" y="134.174" width="84.847" height="0.574">
					<feColorMatrix type="matrix" values="1 0 0 0 0  0 1 0 0 0  0 0 1 0 0  0 0 0 1 0" />
				</filter>
			</defs>

			<mask maskUnits="userSpaceOnUse" x="63.1" y="134.174" width="84.847" height="0.574"
				id="mask-12_00000047055727555850262280000013519262655851294378_">

				<g id="use73_00000006668044481382240120000017580866473433817492_"
					style="filter:url(#Adobe_OpacityMaskFilter_00000138537242260640255940000008722686241739003839_);">

					<path id="path-11_00000030475676400357510390000009382947227895081893_"
						style="fill-rule:evenodd;clip-rule:evenodd;fill:#FFFFFF;" d="
					M147.947,134.174c0-24.088-18.996-43.619-42.424-43.619S63.1,110.086,63.1,134.174c0,13.246,5.75,25.104,14.815,33.099
					l-5.091,9.062v7.197c0,0.631,0.502,1.148,1.116,1.148c0.207,0,0.396-0.057,0.564-0.155l6.057-3.593l4.728-8.414
					c6.012,3.363,12.906,5.274,20.235,5.274c7.329,0,14.223-1.911,20.241-5.274l4.728,8.414l6.057,3.593
					c0.167,0.098,0.357,0.155,0.564,0.155c0.614,0,1.116-0.517,1.116-1.148v-7.197l-5.091-9.062
					C142.197,159.278,147.947,147.42,147.947,134.174z" />
				</g>
			</mask>

			<polygon id="polygon78"
				style="mask:url(#mask-12_00000047055727555850262280000013519262655851294378_);fill:#FFFFFF;fill-opacity:0.05;"
				points="
			147.947,134.748 63.1,134.748 63.1,134.174 147.947,134.174 		" />
		</g>
		<g id="g89" transform="translate(85.105049,88.860311)">
			<g id="g85">
			</g>
			<defs>

				<filter id="Adobe_OpacityMaskFilter_00000033365885827457686030000005547311248898086074_"
					filterUnits="userSpaceOnUse" x="73.94" y="106.625" width="74.007" height="78.055">
					<feColorMatrix type="matrix" values="1 0 0 0 0  0 1 0 0 0  0 0 1 0 0  0 0 0 1 0" />
				</filter>
			</defs>

			<mask maskUnits="userSpaceOnUse" x="73.94" y="106.625" width="74.007" height="78.055"
				id="mask-14_00000070837795403366066430000017780432853519363985_">

				<g id="use82_00000163783753451663000580000004515867316426813312_"
					style="filter:url(#Adobe_OpacityMaskFilter_00000033365885827457686030000005547311248898086074_);">

					<path id="path-13_00000033357001826826378290000005221388559861787539_"
						style="fill-rule:evenodd;clip-rule:evenodd;fill:#FFFFFF;" d="
					M147.947,134.174c0-24.088-18.996-43.619-42.424-43.619S63.1,110.086,63.1,134.174c0,13.246,5.75,25.104,14.815,33.099
					l-5.091,9.062v7.197c0,0.631,0.502,1.148,1.116,1.148c0.207,0,0.396-0.057,0.564-0.155l6.057-3.593l4.728-8.414
					c6.012,3.363,12.906,5.274,20.235,5.274c7.329,0,14.223-1.911,20.241-5.274l4.728,8.414l6.057,3.593
					c0.167,0.098,0.357,0.155,0.564,0.155c0.614,0,1.116-0.517,1.116-1.148v-7.197l-5.091-9.062
					C142.197,159.278,147.947,147.42,147.947,134.174z" />
				</g>
			</mask>

			<linearGradient id="polygon87_00000136392589719311070480000003054934591655626152_"
				gradientUnits="userSpaceOnUse" x1="-18.7354" y1="215.0736" x2="21.8363" y2="191.7717"
				gradientTransform="matrix(1.9487 0 0 -1.999 131.7063 577.4843)">
				<stop offset="0" style="stop-color:#263238;stop-opacity:0.2" />
				<stop offset="1" style="stop-color:#263238;stop-opacity:0.02" />
			</linearGradient>

			<polygon id="polygon87"
				style="mask:url(#mask-14_00000070837795403366066430000017780432853519363985_);fill:url(#polygon87_00000136392589719311070480000003054934591655626152_);"
				points="
			96.497,134.174 73.94,184.68 147.947,184.68 147.947,145.652 109.989,106.625 101.057,113.512 		" />
		</g>
		<g id="g105" transform="translate(85.105049,88.860311)">
			<g id="g101">
			</g>
			<defs>

				<filter id="Adobe_OpacityMaskFilter_00000091732231464318271420000009443882571434321069_"
					filterUnits="userSpaceOnUse" x="63.1" y="90.555" width="84.847" height="43.619">
					<feColorMatrix type="matrix" values="1 0 0 0 0  0 1 0 0 0  0 0 1 0 0  0 0 0 1 0" />
				</filter>
			</defs>

			<mask maskUnits="userSpaceOnUse" x="63.1" y="90.555" width="84.847" height="43.619"
				id="mask-19_00000005229562244293286280000012039721395365408929_">

				<g id="use98_00000149348663528031608260000009941114790397037703_"
					style="filter:url(#Adobe_OpacityMaskFilter_00000091732231464318271420000009443882571434321069_);">

					<path id="path-18_00000020398180310310831450000006917005950630340765_"
						style="fill-rule:evenodd;clip-rule:evenodd;fill:#FFFFFF;" d="
					M147.947,134.174c0-24.088-18.996-43.619-42.424-43.619S63.1,110.086,63.1,134.174c0,13.246,5.75,25.104,14.815,33.099
					l-5.091,9.062v7.197c0,0.631,0.502,1.148,1.116,1.148c0.207,0,0.396-0.057,0.564-0.155l6.057-3.593l4.728-8.414
					c6.012,3.363,12.906,5.274,20.235,5.274c7.329,0,14.223-1.911,20.241-5.274l4.728,8.414l6.057,3.593
					c0.167,0.098,0.357,0.155,0.564,0.155c0.614,0,1.116-0.517,1.116-1.148v-7.197l-5.091-9.062
					C142.197,159.278,147.947,147.42,147.947,134.174z" />
				</g>
			</mask>

			<path id="path103"
				style="mask:url(#mask-19_00000005229562244293286280000012039721395365408929_);fill:#FFFFFF;fill-opacity:0.2;"
				d="
			M105.523,91.129c23.244,0,42.111,19.221,42.407,43.045h0.017c0-24.088-18.996-43.619-42.424-43.619S63.1,110.086,63.1,134.174
			h0.017C63.412,110.35,82.279,91.129,105.523,91.129z" />
		</g>
		<g id="g124" transform="translate(85.105049,88.860311)">
			<g id="g110">
			</g>
			<defs>

				<filter id="Adobe_OpacityMaskFilter_00000065756427797711429790000006309278452909944226_"
					filterUnits="userSpaceOnUse" x="104.234" y="134.174" width="33.995" height="50.506">
					<feColorMatrix type="matrix" values="1 0 0 0 0  0 1 0 0 0  0 0 1 0 0  0 0 0 1 0" />
				</filter>
			</defs>

			<mask maskUnits="userSpaceOnUse" x="104.234" y="134.174" width="33.995" height="50.506"
				id="mask-21_00000150793895362513287470000003056771405105032846_">

				<g id="use107_00000162323445624428533560000011055460270793367695_"
					style="filter:url(#Adobe_OpacityMaskFilter_00000065756427797711429790000006309278452909944226_);">

					<path id="path-20_00000134245646325077459380000014698248435439260333_"
						style="fill-rule:evenodd;clip-rule:evenodd;fill:#FFFFFF;" d="
					M147.947,134.174c0-24.088-18.996-43.619-42.424-43.619S63.1,110.086,63.1,134.174c0,13.246,5.75,25.104,14.815,33.099
					l-5.091,9.062v7.197c0,0.631,0.502,1.148,1.116,1.148c0.207,0,0.396-0.057,0.564-0.155l6.057-3.593l4.728-8.414
					c6.012,3.363,12.906,5.274,20.235,5.274c7.329,0,14.223-1.911,20.241-5.274l4.728,8.414l6.057,3.593
					c0.167,0.098,0.357,0.155,0.564,0.155c0.614,0,1.116-0.517,1.116-1.148v-7.197l-5.091-9.062
					C142.197,159.278,147.947,147.42,147.947,134.174z" />
				</g>
			</mask>
			<g id="Group" style="mask:url(#mask-21_00000150793895362513287470000003056771405105032846_);">
				<g id="g121" transform="translate(43.333333,45.333333)">
					<path id="path113" style="fill:#D7EFFE;" d="M71.216,88.84H60.9l26.258,46.759l6.057,3.593c0.167,0.098,0.357,0.155,0.564,0.155
					c0.614,0,1.116-0.517,1.116-1.148v-7.197L71.216,88.84z" />
					<path id="path115" style="opacity:0.3;fill:#BDBDBD;enable-background:new    ;" d="M71.216,88.84H60.9l26.258,46.759
					l6.057,3.593c0.167,0.098,0.357,0.155,0.564,0.155c0.614,0,1.116-0.517,1.116-1.148v-7.197L71.216,88.84z" />
					<polygon id="polygon117" style="fill:#FFFFFF;fill-opacity:0.2;" points="94.889,131.002 71.216,88.84 70.892,88.84 
					94.889,131.576 				" />
					<path id="path119" style="fill:#212121;fill-opacity:0.1;" d="M93.773,138.773c-0.207,0-0.396-0.057-0.564-0.155l-6.057-3.593
					L61.224,88.84H60.9l26.258,46.759l6.057,3.593c0.167,0.098,0.357,0.155,0.564,0.155c0.614,0,1.116-0.517,1.116-1.148v-0.574
					C94.889,138.256,94.387,138.773,93.773,138.773z" />
				</g>
			</g>
		</g>
		<g id="g143" transform="translate(85.105049,88.860311)">
			<g id="g129">
			</g>
			<defs>

				<filter id="Adobe_OpacityMaskFilter_00000077321311229351765130000018105185821242106260_"
					filterUnits="userSpaceOnUse" x="72.818" y="134.174" width="63.965" height="50.506">
					<feColorMatrix type="matrix" values="1 0 0 0 0  0 1 0 0 0  0 0 1 0 0  0 0 0 1 0" />
				</filter>
			</defs>

			<mask maskUnits="userSpaceOnUse" x="72.818" y="134.174" width="63.965" height="50.506"
				id="mask-23_00000180357867213523082920000013436611963342132901_">

				<g id="use126_00000122693749436703880690000002915497752438319764_"
					style="filter:url(#Adobe_OpacityMaskFilter_00000077321311229351765130000018105185821242106260_);">

					<path id="path-22_00000132067845144452291210000009563285712518736513_"
						style="fill-rule:evenodd;clip-rule:evenodd;fill:#FFFFFF;" d="
					M147.947,134.174c0-24.088-18.996-43.619-42.424-43.619S63.1,110.086,63.1,134.174c0,13.246,5.75,25.104,14.815,33.099
					l-5.091,9.062v7.197c0,0.631,0.502,1.148,1.116,1.148c0.207,0,0.396-0.057,0.564-0.155l6.057-3.593l4.728-8.414
					c6.012,3.363,12.906,5.274,20.235,5.274c7.329,0,14.223-1.911,20.241-5.274l4.728,8.414l6.057,3.593
					c0.167,0.098,0.357,0.155,0.564,0.155c0.614,0,1.116-0.517,1.116-1.148v-7.197l-5.091-9.062
					C142.197,159.278,147.947,147.42,147.947,134.174z" />
				</g>
			</mask>
			<g id="g141" style="mask:url(#mask-23_00000180357867213523082920000013436611963342132901_);">
				<g id="g139" transform="translate(6,45.333333)">
					<path id="path133" style="fill:#D7EFFE;" d="M121.851,88.84c0,12.678-9.997,22.957-22.328,22.957
					c-3.667,0-7.128-0.913-10.182-2.525l10.182-18.136l1.289-2.296H90.497l-23.679,42.161v7.197c0,0.631,0.502,1.148,1.116,1.148
					c0.207,0,0.396-0.057,0.564-0.155l6.057-3.593l10.316-18.366c4.371,2.388,9.356,3.748,14.653,3.748
					c17.265,0,31.259-14.389,31.259-32.14H121.851z" />
					<path id="path135" style="fill:#FFFFFF;fill-opacity:0.4;" d="M90.497,88.84l-23.679,42.161v0.574L90.821,88.84H90.497z
					 M99.523,111.798c-3.667,0-7.128-0.913-10.182-2.525v0.574c3.053,1.613,6.514,2.525,10.182,2.525
					c12.331,0,22.328-10.279,22.328-22.957h8.915c0.006-0.189,0.017-0.379,0.017-0.574h-8.931
					C121.851,101.519,111.854,111.798,99.523,111.798z" />
					<path id="path137" style="fill:#212121;fill-opacity:0.1;" d="M100.813,88.84h-0.324l-11.153,19.858v0.574L100.813,88.84z
					 M130.766,88.84c-0.301,17.482-14.167,31.566-31.243,31.566c-5.297,0-10.282-1.36-14.653-3.748l-10.316,18.366l-6.057,3.593
					c-0.167,0.098-0.357,0.155-0.564,0.155c-0.614,0-1.116-0.517-1.116-1.148v0.574c0,0.631,0.502,1.148,1.116,1.148
					c0.207,0,0.396-0.057,0.564-0.155l6.057-3.593l10.316-18.366c4.371,2.388,9.356,3.748,14.653,3.748
					c17.265,0,31.259-14.389,31.259-32.14H130.766z" />
				</g>
			</g>
		</g>
		<g id="g158" transform="translate(85.105049,88.860311)">
			<g id="g148">
			</g>
			<defs>

				<filter id="Adobe_OpacityMaskFilter_00000079486412237284657780000015245709507420882570_"
					filterUnits="userSpaceOnUse" x="92.126" y="106.625" width="26.794" height="39.889">
					<feColorMatrix type="matrix" values="1 0 0 0 0  0 1 0 0 0  0 0 1 0 0  0 0 0 1 0" />
				</filter>
			</defs>

			<mask maskUnits="userSpaceOnUse" x="92.126" y="106.625" width="26.794" height="39.889"
				id="mask-25_00000034786773885708468470000010098468170564551584_">

				<g id="use145_00000157302491355971852300000008448816291331797932_"
					style="filter:url(#Adobe_OpacityMaskFilter_00000079486412237284657780000015245709507420882570_);">

					<path id="path-24_00000106859415820941932960000013110386700164894114_"
						style="fill-rule:evenodd;clip-rule:evenodd;fill:#FFFFFF;" d="
					M147.947,134.174c0-24.088-18.996-43.619-42.424-43.619S63.1,110.086,63.1,134.174c0,13.246,5.75,25.104,14.815,33.099
					l-5.091,9.062v7.197c0,0.631,0.502,1.148,1.116,1.148c0.207,0,0.396-0.057,0.564-0.155l6.057-3.593l4.728-8.414
					c6.012,3.363,12.906,5.274,20.235,5.274c7.329,0,14.223-1.911,20.241-5.274l4.728,8.414l6.057,3.593
					c0.167,0.098,0.357,0.155,0.564,0.155c0.614,0,1.116-0.517,1.116-1.148v-7.197l-5.091-9.062
					C142.197,159.278,147.947,147.42,147.947,134.174z" />
				</g>
			</mask>
			<g id="g156" style="mask:url(#mask-25_00000034786773885708468470000010098468170564551584_);">
				<g id="g154" transform="translate(29.333333,13.333333)">
					<path id="path152" style="fill:#073042;" d="M86.237,100.179h-5.582v-6.887h-8.931v6.887h-5.582
					c-1.842,0-3.349,1.55-3.349,3.444v17.218l11.03,11.329c0.608,0.62,1.44,1.01,2.367,1.01s1.764-0.385,2.367-1.01l11.03-11.329
					v-17.218C89.587,101.728,88.08,100.179,86.237,100.179z M76.19,119.692c-3.081,0-5.582-2.571-5.582-5.739
					s2.501-5.739,5.582-5.739s5.582,2.571,5.582,5.739S79.271,119.692,76.19,119.692z" />
				</g>
			</g>
		</g>
		<g id="g167" transform="translate(85.105049,88.860311)">
			<g id="g163">
			</g>
			<defs>

				<filter id="Adobe_OpacityMaskFilter_00000119089778231182125630000003062850428572679335_"
					filterUnits="userSpaceOnUse" x="92.126" y="106.625" width="26.794" height="26.975">
					<feColorMatrix type="matrix" values="1 0 0 0 0  0 1 0 0 0  0 0 1 0 0  0 0 0 1 0" />
				</filter>
			</defs>

			<mask maskUnits="userSpaceOnUse" x="92.126" y="106.625" width="26.794" height="26.975"
				id="mask-27_00000098901878289063312270000009989929902690806707_">

				<g id="use160_00000145777652546842129460000002607139342009462658_"
					style="filter:url(#Adobe_OpacityMaskFilter_00000119089778231182125630000003062850428572679335_);">

					<path id="path-26_00000069367897614480472950000009511458387751366825_"
						style="fill-rule:evenodd;clip-rule:evenodd;fill:#FFFFFF;" d="
					M147.947,134.174c0-24.088-18.996-43.619-42.424-43.619S63.1,110.086,63.1,134.174c0,13.246,5.75,25.104,14.815,33.099
					l-5.091,9.062v7.197c0,0.631,0.502,1.148,1.116,1.148c0.207,0,0.396-0.057,0.564-0.155l6.057-3.593l4.728-8.414
					c6.012,3.363,12.906,5.274,20.235,5.274c7.329,0,14.223-1.911,20.241-5.274l4.728,8.414l6.057,3.593
					c0.167,0.098,0.357,0.155,0.564,0.155c0.614,0,1.116-0.517,1.116-1.148v-7.197l-5.091-9.062
					C142.197,159.278,147.947,147.42,147.947,134.174z" />
				</g>
			</mask>

			<path id="path165"
				style="mask:url(#mask-27_00000098901878289063312270000009989929902690806707_);fill:#FFFFFF;fill-opacity:0.1;"
				d="
			M115.571,113.512h-5.582v0.574h5.582c1.842,0,3.349,1.55,3.349,3.444v-0.574C118.92,115.062,117.413,113.512,115.571,113.512z
			 M109.989,106.625h-8.931v0.574h8.931V106.625z M101.057,113.512h-5.582c-1.842,0-3.349,1.55-3.349,3.444v0.574
			c0-1.894,1.507-3.444,3.349-3.444h5.582V113.512z M105.523,133.026c-3.081,0-5.582-2.571-5.582-5.739v0.574
			c0,3.168,2.501,5.739,5.582,5.739s5.582-2.571,5.582-5.739v-0.574C111.105,130.455,108.604,133.026,105.523,133.026
			L105.523,133.026z" />
		</g>
		<g id="g176" transform="translate(85.105049,88.860311)">
			<g id="g172">
			</g>
			<defs>

				<filter id="Adobe_OpacityMaskFilter_00000134251902935372984590000002765529872841582010_"
					filterUnits="userSpaceOnUse" x="92.126" y="120.973" width="26.794" height="25.54">
					<feColorMatrix type="matrix" values="1 0 0 0 0  0 1 0 0 0  0 0 1 0 0  0 0 0 1 0" />
				</filter>
			</defs>

			<mask maskUnits="userSpaceOnUse" x="92.126" y="120.973" width="26.794" height="25.54"
				id="mask-29_00000039837843639308924790000008360394349016926393_">

				<g id="use169_00000000941161215552015500000009405753206444725659_"
					style="filter:url(#Adobe_OpacityMaskFilter_00000134251902935372984590000002765529872841582010_);">

					<path id="path-28_00000064354452781811475860000007363352928882995135_"
						style="fill-rule:evenodd;clip-rule:evenodd;fill:#FFFFFF;" d="
					M147.947,134.174c0-24.088-18.996-43.619-42.424-43.619S63.1,110.086,63.1,134.174c0,13.246,5.75,25.104,14.815,33.099
					l-5.091,9.062v7.197c0,0.631,0.502,1.148,1.116,1.148c0.207,0,0.396-0.057,0.564-0.155l6.057-3.593l4.728-8.414
					c6.012,3.363,12.906,5.274,20.235,5.274c7.329,0,14.223-1.911,20.241-5.274l4.728,8.414l6.057,3.593
					c0.167,0.098,0.357,0.155,0.564,0.155c0.614,0,1.116-0.517,1.116-1.148v-7.197l-5.091-9.062
					C142.197,159.278,147.947,147.42,147.947,134.174z" />
				</g>
			</mask>

			<path id="path174"
				style="mask:url(#mask-29_00000039837843639308924790000008360394349016926393_);fill:#212121;fill-opacity:0.1;"
				d="
			M105.523,121.547c3.081,0,5.582,2.571,5.582,5.739v-0.574c0-3.168-2.501-5.739-5.582-5.739s-5.582,2.571-5.582,5.739v0.574
			C99.941,124.118,102.442,121.547,105.523,121.547z M107.89,144.929c-0.608,0.62-1.44,1.01-2.367,1.01s-1.764-0.385-2.367-1.01
			L92.126,133.6v0.574l11.03,11.329c0.608,0.62,1.44,1.01,2.367,1.01s1.764-0.385,2.367-1.01l11.03-11.329V133.6L107.89,144.929z" />
		</g>

		<radialGradient id="path178_00000041280629928440095700000006783882150563996039_" cx="57.0754" cy="328.8078"
			r="124.7327" gradientTransform="matrix(1.591 0 0 -1.7649 69.8796 772.4802)" gradientUnits="userSpaceOnUse">
			<stop offset="0" style="stop-color:#FFFFFF;stop-opacity:0.1" />
			<stop offset="1" style="stop-color:#FFFFFF;stop-opacity:0" />
		</radialGradient>
		<path id="path178" style="fill:url(#path178_00000041280629928440095700000006783882150563996039_);" d="M233.052,223.034
		c0-24.088-18.996-43.619-42.424-43.619s-42.424,19.531-42.424,43.619c0,13.246,5.75,25.104,14.815,33.099l-5.091,9.062v7.197
		c0,0.631,0.502,1.148,1.116,1.148c0.207,0,0.396-0.057,0.564-0.155l6.057-3.593l4.728-8.414c6.012,3.363,12.906,5.274,20.235,5.274
		c7.329,0,14.223-1.911,20.241-5.274l4.728,8.414l6.057,3.593c0.167,0.098,0.357,0.155,0.564,0.155c0.614,0,1.116-0.517,1.116-1.148
		v-7.197l-5.091-9.062C227.302,248.138,233.052,236.28,233.052,223.034z" />
	</g>
	<defs>

		<filter id="Adobe_OpacityMaskFilter_00000078733475937121102100000006420400249171009964_"
			filterUnits="userSpaceOnUse" x="24.736" y="12.878" width="158.264" height="157.622">
			<feColorMatrix type="matrix" values="1 0 0 0 0  0 1 0 0 0  0 0 1 0 0  0 0 0 1 0" />
		</filter>
	</defs>
	<mask maskUnits="userSpaceOnUse" x="24.736" y="12.878" width="158.264" height="157.622"
		id="mask0_00000067207761735821075280000012513788750380563135_">

		<path
			style="fill-rule:evenodd;clip-rule:evenodd;fill:#FFFFFF;filter:url(#Adobe_OpacityMaskFilter_00000078733475937121102100000006420400249171009964_);"
			d="
		M136.992,169.826c2.491,0.972,5.332,0.91,7.846-0.302l32.564-15.696c3.422-1.649,5.598-5.118,5.598-8.924V38.475
		c0-3.806-2.176-7.275-5.598-8.924l-32.564-15.697c-3.3-1.591-7.162-1.201-10.058,0.908c-0.414,0.301-0.808,0.638-1.178,1.008
		l-62.34,56.971L44.108,52.095c-2.528-1.922-6.063-1.765-8.411,0.375l-8.709,7.936c-2.872,2.617-2.875,7.142-0.007,9.763
		l23.549,21.521L26.98,113.21c-2.868,2.621-2.865,7.147,0.007,9.763l8.709,7.936c2.348,2.139,5.883,2.297,8.411,0.375l27.154-20.647
		l62.34,56.971C134.589,168.596,135.747,169.34,136.992,169.826z M143.482,55.722L96.18,91.689l47.302,35.967V55.722z" />
	</mask>
	<g style="mask:url(#mask0_00000067207761735821075280000012513788750380563135_);">
		<path style="fill:#FF9B2F;" d="M177.403,29.575l-32.59-15.718c-3.772-1.819-8.28-1.052-11.241,1.914L26.886,113.21
		c-2.87,2.621-2.866,7.146,0.007,9.763l8.715,7.936c2.349,2.139,5.887,2.297,8.416,0.375l128.476-97.631
		c4.31-3.275,10.501-0.196,10.501,5.223v-0.379C183,34.693,180.825,31.226,177.403,29.575z" />
		<g>
			<path style="fill:#FF9B2F;" d="M177.403,153.803l-32.59,15.718c-3.772,1.82-8.28,1.052-11.241-1.914L26.886,70.168
			c-2.87-2.621-2.866-7.147,0.007-9.763l8.715-7.936c2.349-2.139,5.887-2.297,8.416-0.375l128.476,97.631
			c4.31,3.275,10.501,0.196,10.501-5.223v0.379C183,148.685,180.825,152.153,177.403,153.803z" />
		</g>
		<g>
			<path style="fill:#FF9B2F;" d="M144.815,169.524c-3.773,1.818-8.282,1.049-11.242-1.917c3.648,3.654,9.886,1.066,9.886-4.102
			V19.873c0-5.168-6.238-7.756-9.886-4.102c2.961-2.966,7.469-3.734,11.242-1.917l32.584,15.697C180.823,31.2,183,34.669,183,38.475
			v106.429c0,3.806-2.177,7.275-5.601,8.924L144.815,169.524z" />
		</g>
		<g style="opacity:0.25;">
			<path style="fill-rule:evenodd;clip-rule:evenodd;fill:#FF9B2F;" d="M136.896,169.826c2.491,0.972,5.332,0.91,7.846-0.302
			l32.564-15.696c3.422-1.649,5.598-5.118,5.598-8.924V38.475c0-3.806-2.176-7.275-5.598-8.924l-32.564-15.696
			c-3.3-1.591-7.162-1.201-10.058,0.908c-0.414,0.301-0.808,0.638-1.178,1.008l-62.34,56.971L44.012,52.095
			c-2.528-1.922-6.063-1.765-8.411,0.375l-8.709,7.936c-2.872,2.617-2.875,7.142-0.007,9.763l23.549,21.521L26.884,113.21
			c-2.868,2.621-2.865,7.146,0.007,9.763l8.709,7.936c2.348,2.139,5.883,2.297,8.411,0.375l27.154-20.647l62.34,56.971
			C134.492,168.596,135.65,169.34,136.896,169.826z M143.386,55.722L96.084,91.689l47.302,35.967V55.722z" />
		</g>
	</g>
	<g id="logo">
		<path style="fill-rule:evenodd;clip-rule:evenodd;fill:#FF9B23;"
			d="M299.5,13.742v31.084L256.923,69.63L230,53.931L299.5,13.742z" />
		<path style="fill-rule:evenodd;clip-rule:evenodd;fill:#FF9B2F;" d="M369,53.931L342.077,69.63L299.5,44.826V13.742L369,53.931
		L369,53.931z" />
		<path style="fill-rule:evenodd;clip-rule:evenodd;fill:#FF9B23;" d="M369,134.31l-26.923-15.699V69.63L369,53.931V134.31
		L369,134.31z" />
		<path style="fill-rule:evenodd;clip-rule:evenodd;fill:#FF9B2F;" d="M299.5,174.5v-31.084l42.577-24.805L369,134.31L299.5,174.5
		L299.5,174.5z" />
		<path style="fill-rule:evenodd;clip-rule:evenodd;fill:#FF9B2F;" d="M230,134.31l26.923-15.699l42.577,24.805V174.5L230,134.31
		L230,134.31z" />
		<path style="fill-rule:evenodd;clip-rule:evenodd;fill:#FF9B23;" d="M230,53.931l26.923,15.699v48.981L230,134.31V53.931
		L230,53.931z" />
		<path style="fill-rule:evenodd;clip-rule:evenodd;fill:#F1F6E2;" d="M256.923,69.63L299.5,44.826l42.577,24.804L299.5,94.121
		L256.923,69.63z" />
		<path style="fill-rule:evenodd;clip-rule:evenodd;fill:#CEDBE6;"
			d="M299.5,94.121l42.577-24.491v48.981L299.5,143.416V94.121z" />
		<path style="fill-rule:evenodd;clip-rule:evenodd;fill:#FFFFFF;"
			d="M256.923,69.63L299.5,94.121v49.295l-42.577-24.805V69.63z" />
	</g>
</svg>